G04 #@! TF.GenerationSoftware,KiCad,Pcbnew,(5.1.2)-1*
G04 #@! TF.CreationDate,2023-06-08T23:34:46+09:00*
G04 #@! TF.ProjectId,projectionball,70726f6a-6563-4746-996f-6e62616c6c2e,v7.3*
G04 #@! TF.SameCoordinates,Original*
G04 #@! TF.FileFunction,Legend,Top*
G04 #@! TF.FilePolarity,Positive*
%FSLAX46Y46*%
G04 Gerber Fmt 4.6, Leading zero omitted, Abs format (unit mm)*
G04 Created by KiCad (PCBNEW (5.1.2)-1) date 2023-06-08 23:34:46*
%MOMM*%
%LPD*%
G04 APERTURE LIST*
%ADD10C,0.150000*%
%ADD11C,0.010000*%
G04 APERTURE END LIST*
D10*
X133470000Y-93040000D02*
X129970000Y-97540000D01*
X133470000Y-93040000D02*
X136970000Y-97540000D01*
X131970000Y-97540000D02*
X129970000Y-97540000D01*
X131970000Y-101540000D02*
X131970000Y-97540000D01*
X134970000Y-101540000D02*
X131970000Y-101540000D01*
X134970000Y-97540000D02*
X134970000Y-101540000D01*
X136970000Y-97540000D02*
X134970000Y-97540000D01*
D11*
G36*
X136822215Y-138921661D02*
G01*
X136792259Y-138942427D01*
X136574419Y-139112507D01*
X136399059Y-139303206D01*
X136268961Y-139511278D01*
X136230328Y-139598364D01*
X136193205Y-139733681D01*
X136171873Y-139899867D01*
X136166456Y-140079465D01*
X136177079Y-140255022D01*
X136203867Y-140409080D01*
X136224062Y-140474463D01*
X136334102Y-140696187D01*
X136485775Y-140894075D01*
X136672744Y-141061008D01*
X136838841Y-141165061D01*
X136981744Y-141232810D01*
X137119010Y-141279709D01*
X137270781Y-141311522D01*
X137414337Y-141329796D01*
X137591700Y-141348139D01*
X137439300Y-141408908D01*
X137354573Y-141438396D01*
X137266680Y-141458124D01*
X137160563Y-141470453D01*
X137021162Y-141477744D01*
X136994800Y-141478599D01*
X136860665Y-141481418D01*
X136761430Y-141479058D01*
X136681300Y-141469664D01*
X136604484Y-141451379D01*
X136515188Y-141422348D01*
X136514751Y-141422196D01*
X136279196Y-141316424D01*
X136077002Y-141177655D01*
X135909511Y-141011169D01*
X135778066Y-140822250D01*
X135684007Y-140616178D01*
X135628676Y-140398237D01*
X135613415Y-140173708D01*
X135639565Y-139947872D01*
X135708468Y-139726013D01*
X135821465Y-139513411D01*
X135979674Y-139315583D01*
X136162981Y-139154320D01*
X136365878Y-139034778D01*
X136596638Y-138952622D01*
X136728100Y-138923654D01*
X136800991Y-138911081D01*
X136830265Y-138909803D01*
X136822215Y-138921661D01*
X136822215Y-138921661D01*
G37*
X136822215Y-138921661D02*
X136792259Y-138942427D01*
X136574419Y-139112507D01*
X136399059Y-139303206D01*
X136268961Y-139511278D01*
X136230328Y-139598364D01*
X136193205Y-139733681D01*
X136171873Y-139899867D01*
X136166456Y-140079465D01*
X136177079Y-140255022D01*
X136203867Y-140409080D01*
X136224062Y-140474463D01*
X136334102Y-140696187D01*
X136485775Y-140894075D01*
X136672744Y-141061008D01*
X136838841Y-141165061D01*
X136981744Y-141232810D01*
X137119010Y-141279709D01*
X137270781Y-141311522D01*
X137414337Y-141329796D01*
X137591700Y-141348139D01*
X137439300Y-141408908D01*
X137354573Y-141438396D01*
X137266680Y-141458124D01*
X137160563Y-141470453D01*
X137021162Y-141477744D01*
X136994800Y-141478599D01*
X136860665Y-141481418D01*
X136761430Y-141479058D01*
X136681300Y-141469664D01*
X136604484Y-141451379D01*
X136515188Y-141422348D01*
X136514751Y-141422196D01*
X136279196Y-141316424D01*
X136077002Y-141177655D01*
X135909511Y-141011169D01*
X135778066Y-140822250D01*
X135684007Y-140616178D01*
X135628676Y-140398237D01*
X135613415Y-140173708D01*
X135639565Y-139947872D01*
X135708468Y-139726013D01*
X135821465Y-139513411D01*
X135979674Y-139315583D01*
X136162981Y-139154320D01*
X136365878Y-139034778D01*
X136596638Y-138952622D01*
X136728100Y-138923654D01*
X136800991Y-138911081D01*
X136830265Y-138909803D01*
X136822215Y-138921661D01*
G36*
X141279870Y-139877095D02*
G01*
X141279277Y-139927207D01*
X141274772Y-140000300D01*
X141268329Y-140104405D01*
X141263777Y-140200430D01*
X141262180Y-140262149D01*
X141255636Y-140316472D01*
X141238846Y-140331623D01*
X141236600Y-140330500D01*
X141217727Y-140295878D01*
X141211200Y-140245752D01*
X141188955Y-140155278D01*
X141130173Y-140084480D01*
X141046777Y-140037802D01*
X140950693Y-140019691D01*
X140853845Y-140034591D01*
X140773050Y-140082415D01*
X140739472Y-140141669D01*
X140729835Y-140221565D01*
X140745454Y-140297262D01*
X140760350Y-140322445D01*
X140794989Y-140353788D01*
X140860703Y-140403900D01*
X140945841Y-140464073D01*
X140986681Y-140491643D01*
X141135263Y-140602396D01*
X141236710Y-140707908D01*
X141293613Y-140813342D01*
X141308560Y-140923858D01*
X141284142Y-141044618D01*
X141275754Y-141067874D01*
X141206177Y-141183157D01*
X141101259Y-141267038D01*
X140967815Y-141316460D01*
X140812661Y-141328364D01*
X140719164Y-141317564D01*
X140629899Y-141305252D01*
X140579032Y-141312734D01*
X140556140Y-141345769D01*
X140550800Y-141410116D01*
X140550800Y-141410578D01*
X140536629Y-141459699D01*
X140521435Y-141475950D01*
X140503650Y-141474209D01*
X140504957Y-141431421D01*
X140508735Y-141410774D01*
X140516632Y-141345713D01*
X140522507Y-141248603D01*
X140525302Y-141138187D01*
X140525400Y-141114725D01*
X140528247Y-141010699D01*
X140536066Y-140937171D01*
X140547769Y-140903245D01*
X140550800Y-140902000D01*
X140567737Y-140924293D01*
X140576032Y-140978957D01*
X140576200Y-140988951D01*
X140599558Y-141087739D01*
X140661783Y-141173824D01*
X140751097Y-141238492D01*
X140855723Y-141273027D01*
X140956601Y-141270431D01*
X141035510Y-141232300D01*
X141105064Y-141163982D01*
X141150609Y-141082728D01*
X141160400Y-141030476D01*
X141141810Y-140950838D01*
X141083621Y-140868307D01*
X140982199Y-140778487D01*
X140908499Y-140725625D01*
X140751850Y-140603710D01*
X140645792Y-140484999D01*
X140590230Y-140369310D01*
X140585068Y-140256461D01*
X140616857Y-140168660D01*
X140675167Y-140080249D01*
X140742065Y-140022735D01*
X140829237Y-139990635D01*
X140948368Y-139978463D01*
X141022765Y-139978124D01*
X141236767Y-139981348D01*
X141261975Y-139901924D01*
X141274283Y-139870054D01*
X141279870Y-139877095D01*
X141279870Y-139877095D01*
G37*
X141279870Y-139877095D02*
X141279277Y-139927207D01*
X141274772Y-140000300D01*
X141268329Y-140104405D01*
X141263777Y-140200430D01*
X141262180Y-140262149D01*
X141255636Y-140316472D01*
X141238846Y-140331623D01*
X141236600Y-140330500D01*
X141217727Y-140295878D01*
X141211200Y-140245752D01*
X141188955Y-140155278D01*
X141130173Y-140084480D01*
X141046777Y-140037802D01*
X140950693Y-140019691D01*
X140853845Y-140034591D01*
X140773050Y-140082415D01*
X140739472Y-140141669D01*
X140729835Y-140221565D01*
X140745454Y-140297262D01*
X140760350Y-140322445D01*
X140794989Y-140353788D01*
X140860703Y-140403900D01*
X140945841Y-140464073D01*
X140986681Y-140491643D01*
X141135263Y-140602396D01*
X141236710Y-140707908D01*
X141293613Y-140813342D01*
X141308560Y-140923858D01*
X141284142Y-141044618D01*
X141275754Y-141067874D01*
X141206177Y-141183157D01*
X141101259Y-141267038D01*
X140967815Y-141316460D01*
X140812661Y-141328364D01*
X140719164Y-141317564D01*
X140629899Y-141305252D01*
X140579032Y-141312734D01*
X140556140Y-141345769D01*
X140550800Y-141410116D01*
X140550800Y-141410578D01*
X140536629Y-141459699D01*
X140521435Y-141475950D01*
X140503650Y-141474209D01*
X140504957Y-141431421D01*
X140508735Y-141410774D01*
X140516632Y-141345713D01*
X140522507Y-141248603D01*
X140525302Y-141138187D01*
X140525400Y-141114725D01*
X140528247Y-141010699D01*
X140536066Y-140937171D01*
X140547769Y-140903245D01*
X140550800Y-140902000D01*
X140567737Y-140924293D01*
X140576032Y-140978957D01*
X140576200Y-140988951D01*
X140599558Y-141087739D01*
X140661783Y-141173824D01*
X140751097Y-141238492D01*
X140855723Y-141273027D01*
X140956601Y-141270431D01*
X141035510Y-141232300D01*
X141105064Y-141163982D01*
X141150609Y-141082728D01*
X141160400Y-141030476D01*
X141141810Y-140950838D01*
X141083621Y-140868307D01*
X140982199Y-140778487D01*
X140908499Y-140725625D01*
X140751850Y-140603710D01*
X140645792Y-140484999D01*
X140590230Y-140369310D01*
X140585068Y-140256461D01*
X140616857Y-140168660D01*
X140675167Y-140080249D01*
X140742065Y-140022735D01*
X140829237Y-139990635D01*
X140948368Y-139978463D01*
X141022765Y-139978124D01*
X141236767Y-139981348D01*
X141261975Y-139901924D01*
X141274283Y-139870054D01*
X141279870Y-139877095D01*
G36*
X140193163Y-139936103D02*
G01*
X140191065Y-139986670D01*
X140185739Y-140038400D01*
X140176955Y-140125296D01*
X140171236Y-140196634D01*
X140170020Y-140224049D01*
X140158936Y-140254985D01*
X140144400Y-140254300D01*
X140125831Y-140219829D01*
X140119000Y-140166618D01*
X140114465Y-140122791D01*
X140094837Y-140093091D01*
X140051080Y-140073314D01*
X139974155Y-140059254D01*
X139862868Y-140047431D01*
X139687200Y-140031105D01*
X139687200Y-140107120D01*
X139685057Y-140169639D01*
X139679410Y-140263526D01*
X139671431Y-140369563D01*
X139670530Y-140380337D01*
X139653860Y-140577539D01*
X139860041Y-140568176D01*
X139968993Y-140561002D01*
X140039167Y-140549552D01*
X140082567Y-140530904D01*
X140106626Y-140508156D01*
X140135937Y-140473119D01*
X140141661Y-140477851D01*
X140135150Y-140508300D01*
X140124402Y-140563056D01*
X140110692Y-140643989D01*
X140104137Y-140686100D01*
X140092478Y-140756674D01*
X140084118Y-140781460D01*
X140076039Y-140765071D01*
X140070198Y-140738032D01*
X140050419Y-140686889D01*
X140009296Y-140653586D01*
X139937897Y-140634507D01*
X139827292Y-140626036D01*
X139791385Y-140625131D01*
X139654270Y-140622600D01*
X139670583Y-140832150D01*
X139678494Y-140947565D01*
X139684337Y-141059017D01*
X139686993Y-141144706D01*
X139687047Y-141153377D01*
X139687200Y-141265054D01*
X139878964Y-141248844D01*
X140009647Y-141233814D01*
X140096682Y-141212796D01*
X140147140Y-141182618D01*
X140168094Y-141140111D01*
X140169800Y-141118505D01*
X140179531Y-141064912D01*
X140195799Y-141041329D01*
X140207575Y-141042899D01*
X140210902Y-141071201D01*
X140205281Y-141132262D01*
X140190213Y-141232111D01*
X140170577Y-141346500D01*
X140158637Y-141404840D01*
X140150189Y-141416641D01*
X140142356Y-141385761D01*
X140142163Y-141384600D01*
X140131700Y-141321100D01*
X139687200Y-141308400D01*
X139527894Y-141303206D01*
X139416136Y-141297928D01*
X139348674Y-141292240D01*
X139322255Y-141285811D01*
X139333627Y-141278314D01*
X139350650Y-141274417D01*
X139458600Y-141253134D01*
X139458600Y-140044892D01*
X139350650Y-140022596D01*
X139323160Y-140014275D01*
X139332324Y-140007615D01*
X139381329Y-140002343D01*
X139473365Y-139998183D01*
X139611620Y-139994861D01*
X139687200Y-139993605D01*
X139850454Y-139990590D01*
X139970305Y-139986670D01*
X140054148Y-139981059D01*
X140109378Y-139972975D01*
X140143391Y-139961633D01*
X140163584Y-139946249D01*
X140166468Y-139942805D01*
X140185461Y-139923951D01*
X140193163Y-139936103D01*
X140193163Y-139936103D01*
G37*
X140193163Y-139936103D02*
X140191065Y-139986670D01*
X140185739Y-140038400D01*
X140176955Y-140125296D01*
X140171236Y-140196634D01*
X140170020Y-140224049D01*
X140158936Y-140254985D01*
X140144400Y-140254300D01*
X140125831Y-140219829D01*
X140119000Y-140166618D01*
X140114465Y-140122791D01*
X140094837Y-140093091D01*
X140051080Y-140073314D01*
X139974155Y-140059254D01*
X139862868Y-140047431D01*
X139687200Y-140031105D01*
X139687200Y-140107120D01*
X139685057Y-140169639D01*
X139679410Y-140263526D01*
X139671431Y-140369563D01*
X139670530Y-140380337D01*
X139653860Y-140577539D01*
X139860041Y-140568176D01*
X139968993Y-140561002D01*
X140039167Y-140549552D01*
X140082567Y-140530904D01*
X140106626Y-140508156D01*
X140135937Y-140473119D01*
X140141661Y-140477851D01*
X140135150Y-140508300D01*
X140124402Y-140563056D01*
X140110692Y-140643989D01*
X140104137Y-140686100D01*
X140092478Y-140756674D01*
X140084118Y-140781460D01*
X140076039Y-140765071D01*
X140070198Y-140738032D01*
X140050419Y-140686889D01*
X140009296Y-140653586D01*
X139937897Y-140634507D01*
X139827292Y-140626036D01*
X139791385Y-140625131D01*
X139654270Y-140622600D01*
X139670583Y-140832150D01*
X139678494Y-140947565D01*
X139684337Y-141059017D01*
X139686993Y-141144706D01*
X139687047Y-141153377D01*
X139687200Y-141265054D01*
X139878964Y-141248844D01*
X140009647Y-141233814D01*
X140096682Y-141212796D01*
X140147140Y-141182618D01*
X140168094Y-141140111D01*
X140169800Y-141118505D01*
X140179531Y-141064912D01*
X140195799Y-141041329D01*
X140207575Y-141042899D01*
X140210902Y-141071201D01*
X140205281Y-141132262D01*
X140190213Y-141232111D01*
X140170577Y-141346500D01*
X140158637Y-141404840D01*
X140150189Y-141416641D01*
X140142356Y-141385761D01*
X140142163Y-141384600D01*
X140131700Y-141321100D01*
X139687200Y-141308400D01*
X139527894Y-141303206D01*
X139416136Y-141297928D01*
X139348674Y-141292240D01*
X139322255Y-141285811D01*
X139333627Y-141278314D01*
X139350650Y-141274417D01*
X139458600Y-141253134D01*
X139458600Y-140044892D01*
X139350650Y-140022596D01*
X139323160Y-140014275D01*
X139332324Y-140007615D01*
X139381329Y-140002343D01*
X139473365Y-139998183D01*
X139611620Y-139994861D01*
X139687200Y-139993605D01*
X139850454Y-139990590D01*
X139970305Y-139986670D01*
X140054148Y-139981059D01*
X140109378Y-139972975D01*
X140143391Y-139961633D01*
X140163584Y-139946249D01*
X140166468Y-139942805D01*
X140185461Y-139923951D01*
X140193163Y-139936103D01*
G36*
X144003163Y-139936103D02*
G01*
X144001065Y-139986670D01*
X143995739Y-140038400D01*
X143986955Y-140125296D01*
X143981236Y-140196634D01*
X143980020Y-140224049D01*
X143968936Y-140254985D01*
X143954400Y-140254300D01*
X143935831Y-140219829D01*
X143929000Y-140166618D01*
X143924465Y-140122791D01*
X143904837Y-140093091D01*
X143861080Y-140073314D01*
X143784155Y-140059254D01*
X143672868Y-140047431D01*
X143497200Y-140031105D01*
X143497200Y-140107120D01*
X143495057Y-140169639D01*
X143489410Y-140263526D01*
X143481431Y-140369563D01*
X143480530Y-140380337D01*
X143463860Y-140577539D01*
X143670041Y-140568176D01*
X143778993Y-140561002D01*
X143849167Y-140549552D01*
X143892567Y-140530904D01*
X143916626Y-140508156D01*
X143945937Y-140473119D01*
X143951661Y-140477851D01*
X143945150Y-140508300D01*
X143934402Y-140563056D01*
X143920692Y-140643989D01*
X143914137Y-140686100D01*
X143902478Y-140756674D01*
X143894118Y-140781460D01*
X143886039Y-140765071D01*
X143880198Y-140738032D01*
X143860419Y-140686889D01*
X143819296Y-140653586D01*
X143747897Y-140634507D01*
X143637292Y-140626036D01*
X143601385Y-140625131D01*
X143464270Y-140622600D01*
X143480583Y-140832150D01*
X143488494Y-140947565D01*
X143494337Y-141059017D01*
X143496993Y-141144706D01*
X143497047Y-141153377D01*
X143497200Y-141265054D01*
X143688964Y-141248844D01*
X143819647Y-141233814D01*
X143906682Y-141212796D01*
X143957140Y-141182618D01*
X143978094Y-141140111D01*
X143979800Y-141118505D01*
X143989531Y-141064912D01*
X144005799Y-141041329D01*
X144017575Y-141042899D01*
X144020902Y-141071201D01*
X144015281Y-141132262D01*
X144000213Y-141232111D01*
X143980577Y-141346500D01*
X143968637Y-141404840D01*
X143960189Y-141416641D01*
X143952356Y-141385761D01*
X143952163Y-141384600D01*
X143941700Y-141321100D01*
X143497200Y-141308400D01*
X143337894Y-141303206D01*
X143226136Y-141297928D01*
X143158674Y-141292240D01*
X143132255Y-141285811D01*
X143143627Y-141278314D01*
X143160650Y-141274417D01*
X143268600Y-141253134D01*
X143268600Y-140044892D01*
X143160650Y-140022596D01*
X143133160Y-140014275D01*
X143142324Y-140007615D01*
X143191329Y-140002343D01*
X143283365Y-139998183D01*
X143421620Y-139994861D01*
X143497200Y-139993605D01*
X143660454Y-139990590D01*
X143780305Y-139986670D01*
X143864148Y-139981059D01*
X143919378Y-139972975D01*
X143953391Y-139961633D01*
X143973584Y-139946249D01*
X143976468Y-139942805D01*
X143995461Y-139923951D01*
X144003163Y-139936103D01*
X144003163Y-139936103D01*
G37*
X144003163Y-139936103D02*
X144001065Y-139986670D01*
X143995739Y-140038400D01*
X143986955Y-140125296D01*
X143981236Y-140196634D01*
X143980020Y-140224049D01*
X143968936Y-140254985D01*
X143954400Y-140254300D01*
X143935831Y-140219829D01*
X143929000Y-140166618D01*
X143924465Y-140122791D01*
X143904837Y-140093091D01*
X143861080Y-140073314D01*
X143784155Y-140059254D01*
X143672868Y-140047431D01*
X143497200Y-140031105D01*
X143497200Y-140107120D01*
X143495057Y-140169639D01*
X143489410Y-140263526D01*
X143481431Y-140369563D01*
X143480530Y-140380337D01*
X143463860Y-140577539D01*
X143670041Y-140568176D01*
X143778993Y-140561002D01*
X143849167Y-140549552D01*
X143892567Y-140530904D01*
X143916626Y-140508156D01*
X143945937Y-140473119D01*
X143951661Y-140477851D01*
X143945150Y-140508300D01*
X143934402Y-140563056D01*
X143920692Y-140643989D01*
X143914137Y-140686100D01*
X143902478Y-140756674D01*
X143894118Y-140781460D01*
X143886039Y-140765071D01*
X143880198Y-140738032D01*
X143860419Y-140686889D01*
X143819296Y-140653586D01*
X143747897Y-140634507D01*
X143637292Y-140626036D01*
X143601385Y-140625131D01*
X143464270Y-140622600D01*
X143480583Y-140832150D01*
X143488494Y-140947565D01*
X143494337Y-141059017D01*
X143496993Y-141144706D01*
X143497047Y-141153377D01*
X143497200Y-141265054D01*
X143688964Y-141248844D01*
X143819647Y-141233814D01*
X143906682Y-141212796D01*
X143957140Y-141182618D01*
X143978094Y-141140111D01*
X143979800Y-141118505D01*
X143989531Y-141064912D01*
X144005799Y-141041329D01*
X144017575Y-141042899D01*
X144020902Y-141071201D01*
X144015281Y-141132262D01*
X144000213Y-141232111D01*
X143980577Y-141346500D01*
X143968637Y-141404840D01*
X143960189Y-141416641D01*
X143952356Y-141385761D01*
X143952163Y-141384600D01*
X143941700Y-141321100D01*
X143497200Y-141308400D01*
X143337894Y-141303206D01*
X143226136Y-141297928D01*
X143158674Y-141292240D01*
X143132255Y-141285811D01*
X143143627Y-141278314D01*
X143160650Y-141274417D01*
X143268600Y-141253134D01*
X143268600Y-140044892D01*
X143160650Y-140022596D01*
X143133160Y-140014275D01*
X143142324Y-140007615D01*
X143191329Y-140002343D01*
X143283365Y-139998183D01*
X143421620Y-139994861D01*
X143497200Y-139993605D01*
X143660454Y-139990590D01*
X143780305Y-139986670D01*
X143864148Y-139981059D01*
X143919378Y-139972975D01*
X143953391Y-139961633D01*
X143973584Y-139946249D01*
X143976468Y-139942805D01*
X143995461Y-139923951D01*
X144003163Y-139936103D01*
G36*
X138110263Y-139989741D02*
G01*
X138221286Y-139992323D01*
X138385225Y-139997758D01*
X138507436Y-140004495D01*
X138596995Y-140013601D01*
X138662972Y-140026141D01*
X138714443Y-140043181D01*
X138735636Y-140052772D01*
X138831994Y-140120048D01*
X138880913Y-140202712D01*
X138882319Y-140297786D01*
X138836138Y-140402290D01*
X138747003Y-140508686D01*
X138691277Y-140566786D01*
X138654520Y-140612173D01*
X138645800Y-140629657D01*
X138659876Y-140663715D01*
X138698221Y-140729841D01*
X138755006Y-140819179D01*
X138824404Y-140922870D01*
X138900587Y-141032058D01*
X138977727Y-141137885D01*
X138997174Y-141163695D01*
X139056595Y-141243178D01*
X139101991Y-141306258D01*
X139126224Y-141342921D01*
X139128400Y-141347845D01*
X139107313Y-141357510D01*
X139083950Y-141359236D01*
X139052726Y-141341715D01*
X138993167Y-141293028D01*
X138911729Y-141219024D01*
X138814869Y-141125553D01*
X138717577Y-141027283D01*
X138602370Y-140909140D01*
X138516026Y-140823045D01*
X138452478Y-140764163D01*
X138405658Y-140727658D01*
X138369499Y-140708694D01*
X138337932Y-140702436D01*
X138311177Y-140703396D01*
X138226700Y-140711500D01*
X138218698Y-140876600D01*
X138216924Y-140984061D01*
X138220692Y-141089312D01*
X138226605Y-141149650D01*
X138240365Y-141217935D01*
X138261916Y-141249376D01*
X138302035Y-141257840D01*
X138310806Y-141257988D01*
X138377050Y-141267192D01*
X138417200Y-141283000D01*
X138413059Y-141294211D01*
X138360228Y-141302075D01*
X138258005Y-141306654D01*
X138129950Y-141308011D01*
X137983796Y-141306312D01*
X137882669Y-141300926D01*
X137828623Y-141292019D01*
X137820300Y-141283000D01*
X137854075Y-141265822D01*
X137915627Y-141257698D01*
X137923399Y-141257600D01*
X138010800Y-141257600D01*
X138010800Y-140422575D01*
X138214000Y-140422575D01*
X138214000Y-140648000D01*
X138294880Y-140648000D01*
X138369520Y-140636614D01*
X138456097Y-140608244D01*
X138479585Y-140597739D01*
X138575622Y-140530211D01*
X138640600Y-140441928D01*
X138670963Y-140344041D01*
X138663156Y-140247699D01*
X138616802Y-140167390D01*
X138524897Y-140098063D01*
X138410170Y-140051485D01*
X138319590Y-140038399D01*
X138278587Y-140044614D01*
X138249566Y-140068011D01*
X138230567Y-140115719D01*
X138219632Y-140194869D01*
X138214800Y-140312590D01*
X138214000Y-140422575D01*
X138010800Y-140422575D01*
X138010800Y-140038400D01*
X137909200Y-140038400D01*
X137842951Y-140031934D01*
X137809264Y-140015223D01*
X137807600Y-140009701D01*
X137824567Y-139998508D01*
X137878069Y-139991559D01*
X137972002Y-139988691D01*
X138110263Y-139989741D01*
X138110263Y-139989741D01*
G37*
X138110263Y-139989741D02*
X138221286Y-139992323D01*
X138385225Y-139997758D01*
X138507436Y-140004495D01*
X138596995Y-140013601D01*
X138662972Y-140026141D01*
X138714443Y-140043181D01*
X138735636Y-140052772D01*
X138831994Y-140120048D01*
X138880913Y-140202712D01*
X138882319Y-140297786D01*
X138836138Y-140402290D01*
X138747003Y-140508686D01*
X138691277Y-140566786D01*
X138654520Y-140612173D01*
X138645800Y-140629657D01*
X138659876Y-140663715D01*
X138698221Y-140729841D01*
X138755006Y-140819179D01*
X138824404Y-140922870D01*
X138900587Y-141032058D01*
X138977727Y-141137885D01*
X138997174Y-141163695D01*
X139056595Y-141243178D01*
X139101991Y-141306258D01*
X139126224Y-141342921D01*
X139128400Y-141347845D01*
X139107313Y-141357510D01*
X139083950Y-141359236D01*
X139052726Y-141341715D01*
X138993167Y-141293028D01*
X138911729Y-141219024D01*
X138814869Y-141125553D01*
X138717577Y-141027283D01*
X138602370Y-140909140D01*
X138516026Y-140823045D01*
X138452478Y-140764163D01*
X138405658Y-140727658D01*
X138369499Y-140708694D01*
X138337932Y-140702436D01*
X138311177Y-140703396D01*
X138226700Y-140711500D01*
X138218698Y-140876600D01*
X138216924Y-140984061D01*
X138220692Y-141089312D01*
X138226605Y-141149650D01*
X138240365Y-141217935D01*
X138261916Y-141249376D01*
X138302035Y-141257840D01*
X138310806Y-141257988D01*
X138377050Y-141267192D01*
X138417200Y-141283000D01*
X138413059Y-141294211D01*
X138360228Y-141302075D01*
X138258005Y-141306654D01*
X138129950Y-141308011D01*
X137983796Y-141306312D01*
X137882669Y-141300926D01*
X137828623Y-141292019D01*
X137820300Y-141283000D01*
X137854075Y-141265822D01*
X137915627Y-141257698D01*
X137923399Y-141257600D01*
X138010800Y-141257600D01*
X138010800Y-140422575D01*
X138214000Y-140422575D01*
X138214000Y-140648000D01*
X138294880Y-140648000D01*
X138369520Y-140636614D01*
X138456097Y-140608244D01*
X138479585Y-140597739D01*
X138575622Y-140530211D01*
X138640600Y-140441928D01*
X138670963Y-140344041D01*
X138663156Y-140247699D01*
X138616802Y-140167390D01*
X138524897Y-140098063D01*
X138410170Y-140051485D01*
X138319590Y-140038399D01*
X138278587Y-140044614D01*
X138249566Y-140068011D01*
X138230567Y-140115719D01*
X138219632Y-140194869D01*
X138214800Y-140312590D01*
X138214000Y-140422575D01*
X138010800Y-140422575D01*
X138010800Y-140038400D01*
X137909200Y-140038400D01*
X137842951Y-140031934D01*
X137809264Y-140015223D01*
X137807600Y-140009701D01*
X137824567Y-139998508D01*
X137878069Y-139991559D01*
X137972002Y-139988691D01*
X138110263Y-139989741D01*
G36*
X145723202Y-139989637D02*
G01*
X145804599Y-139995391D01*
X145844049Y-140004326D01*
X145845430Y-140010849D01*
X145803073Y-140032067D01*
X145757800Y-140042599D01*
X145723067Y-140051556D01*
X145701956Y-140074808D01*
X145688971Y-140124349D01*
X145678612Y-140212173D01*
X145678218Y-140216200D01*
X145671730Y-140305155D01*
X145665586Y-140429240D01*
X145660437Y-140572786D01*
X145656930Y-140720125D01*
X145656656Y-140736900D01*
X145653389Y-140880369D01*
X145648370Y-141018693D01*
X145642245Y-141137401D01*
X145635657Y-141222021D01*
X145634638Y-141231147D01*
X145618100Y-141369794D01*
X145388938Y-141116847D01*
X145289524Y-141005961D01*
X145169683Y-140870508D01*
X145041862Y-140724655D01*
X144918506Y-140582567D01*
X144868238Y-140524178D01*
X144576700Y-140184457D01*
X144568779Y-140536878D01*
X144567007Y-140685580D01*
X144567936Y-140834819D01*
X144571299Y-140967888D01*
X144576833Y-141068076D01*
X144577297Y-141073450D01*
X144593734Y-141257600D01*
X144678968Y-141257600D01*
X144741466Y-141264495D01*
X144778632Y-141281269D01*
X144779900Y-141283000D01*
X144763973Y-141295518D01*
X144700213Y-141303969D01*
X144591444Y-141308054D01*
X144538600Y-141308400D01*
X144413381Y-141306061D01*
X144332092Y-141299243D01*
X144297558Y-141288243D01*
X144297300Y-141283000D01*
X144332379Y-141263200D01*
X144373848Y-141257600D01*
X144400596Y-141254347D01*
X144421549Y-141240872D01*
X144437490Y-141211595D01*
X144449199Y-141160941D01*
X144457458Y-141083331D01*
X144463051Y-140973187D01*
X144466757Y-140824933D01*
X144469360Y-140632990D01*
X144469986Y-140571800D01*
X144475100Y-140051100D01*
X144271900Y-140024544D01*
X144411600Y-140006292D01*
X144522839Y-139992569D01*
X144604062Y-139988963D01*
X144666623Y-140000854D01*
X144721873Y-140033623D01*
X144781166Y-140092649D01*
X144855852Y-140183314D01*
X144898409Y-140237005D01*
X144995236Y-140356581D01*
X145111140Y-140495607D01*
X145230920Y-140636041D01*
X145330209Y-140749550D01*
X145567300Y-141016201D01*
X145574048Y-140762250D01*
X145574944Y-140618081D01*
X145571359Y-140459423D01*
X145564044Y-140314772D01*
X145561348Y-140279700D01*
X145541900Y-140051100D01*
X145465700Y-140042795D01*
X145403155Y-140029518D01*
X145365369Y-140011045D01*
X145377454Y-140000295D01*
X145435171Y-139992538D01*
X145533416Y-139988275D01*
X145605400Y-139987599D01*
X145723202Y-139989637D01*
X145723202Y-139989637D01*
G37*
X145723202Y-139989637D02*
X145804599Y-139995391D01*
X145844049Y-140004326D01*
X145845430Y-140010849D01*
X145803073Y-140032067D01*
X145757800Y-140042599D01*
X145723067Y-140051556D01*
X145701956Y-140074808D01*
X145688971Y-140124349D01*
X145678612Y-140212173D01*
X145678218Y-140216200D01*
X145671730Y-140305155D01*
X145665586Y-140429240D01*
X145660437Y-140572786D01*
X145656930Y-140720125D01*
X145656656Y-140736900D01*
X145653389Y-140880369D01*
X145648370Y-141018693D01*
X145642245Y-141137401D01*
X145635657Y-141222021D01*
X145634638Y-141231147D01*
X145618100Y-141369794D01*
X145388938Y-141116847D01*
X145289524Y-141005961D01*
X145169683Y-140870508D01*
X145041862Y-140724655D01*
X144918506Y-140582567D01*
X144868238Y-140524178D01*
X144576700Y-140184457D01*
X144568779Y-140536878D01*
X144567007Y-140685580D01*
X144567936Y-140834819D01*
X144571299Y-140967888D01*
X144576833Y-141068076D01*
X144577297Y-141073450D01*
X144593734Y-141257600D01*
X144678968Y-141257600D01*
X144741466Y-141264495D01*
X144778632Y-141281269D01*
X144779900Y-141283000D01*
X144763973Y-141295518D01*
X144700213Y-141303969D01*
X144591444Y-141308054D01*
X144538600Y-141308400D01*
X144413381Y-141306061D01*
X144332092Y-141299243D01*
X144297558Y-141288243D01*
X144297300Y-141283000D01*
X144332379Y-141263200D01*
X144373848Y-141257600D01*
X144400596Y-141254347D01*
X144421549Y-141240872D01*
X144437490Y-141211595D01*
X144449199Y-141160941D01*
X144457458Y-141083331D01*
X144463051Y-140973187D01*
X144466757Y-140824933D01*
X144469360Y-140632990D01*
X144469986Y-140571800D01*
X144475100Y-140051100D01*
X144271900Y-140024544D01*
X144411600Y-140006292D01*
X144522839Y-139992569D01*
X144604062Y-139988963D01*
X144666623Y-140000854D01*
X144721873Y-140033623D01*
X144781166Y-140092649D01*
X144855852Y-140183314D01*
X144898409Y-140237005D01*
X144995236Y-140356581D01*
X145111140Y-140495607D01*
X145230920Y-140636041D01*
X145330209Y-140749550D01*
X145567300Y-141016201D01*
X145574048Y-140762250D01*
X145574944Y-140618081D01*
X145571359Y-140459423D01*
X145564044Y-140314772D01*
X145561348Y-140279700D01*
X145541900Y-140051100D01*
X145465700Y-140042795D01*
X145403155Y-140029518D01*
X145365369Y-140011045D01*
X145377454Y-140000295D01*
X145435171Y-139992538D01*
X145533416Y-139988275D01*
X145605400Y-139987599D01*
X145723202Y-139989637D01*
G36*
X142854529Y-139893772D02*
G01*
X142850647Y-139968730D01*
X142848641Y-140000300D01*
X142842590Y-140109773D01*
X142838362Y-140216222D01*
X142836980Y-140286050D01*
X142831547Y-140351982D01*
X142818096Y-140390176D01*
X142811400Y-140394000D01*
X142794267Y-140371754D01*
X142786110Y-140317405D01*
X142786000Y-140309527D01*
X142762708Y-140221159D01*
X142698886Y-140146345D01*
X142603613Y-140087706D01*
X142485968Y-140047864D01*
X142355032Y-140029439D01*
X142219882Y-140035054D01*
X142089598Y-140067329D01*
X142033169Y-140092175D01*
X141899140Y-140185553D01*
X141807734Y-140306355D01*
X141758146Y-140455826D01*
X141749451Y-140529660D01*
X141762168Y-140707889D01*
X141821147Y-140871496D01*
X141922580Y-141014415D01*
X142062654Y-141130584D01*
X142160220Y-141183368D01*
X142256539Y-141211339D01*
X142384321Y-141227315D01*
X142525595Y-141231015D01*
X142662394Y-141222157D01*
X142776746Y-141200460D01*
X142798700Y-141193367D01*
X142862239Y-141170819D01*
X142901043Y-141157701D01*
X142905852Y-141156382D01*
X142903371Y-141175254D01*
X142897430Y-141192418D01*
X142859590Y-141228311D01*
X142781586Y-141260813D01*
X142674022Y-141288358D01*
X142547502Y-141309378D01*
X142412628Y-141322309D01*
X142280005Y-141325583D01*
X142160237Y-141317633D01*
X142108490Y-141308961D01*
X141926948Y-141249199D01*
X141776085Y-141157934D01*
X141658174Y-141041485D01*
X141575486Y-140906171D01*
X141530294Y-140758311D01*
X141524870Y-140604224D01*
X141561488Y-140450229D01*
X141642419Y-140302644D01*
X141715847Y-140217133D01*
X141867806Y-140100753D01*
X142052490Y-140021455D01*
X142267257Y-139979853D01*
X142509465Y-139976564D01*
X142673503Y-139994221D01*
X142802307Y-140013543D01*
X142831215Y-139918021D01*
X142845798Y-139873066D01*
X142853241Y-139863433D01*
X142854529Y-139893772D01*
X142854529Y-139893772D01*
G37*
X142854529Y-139893772D02*
X142850647Y-139968730D01*
X142848641Y-140000300D01*
X142842590Y-140109773D01*
X142838362Y-140216222D01*
X142836980Y-140286050D01*
X142831547Y-140351982D01*
X142818096Y-140390176D01*
X142811400Y-140394000D01*
X142794267Y-140371754D01*
X142786110Y-140317405D01*
X142786000Y-140309527D01*
X142762708Y-140221159D01*
X142698886Y-140146345D01*
X142603613Y-140087706D01*
X142485968Y-140047864D01*
X142355032Y-140029439D01*
X142219882Y-140035054D01*
X142089598Y-140067329D01*
X142033169Y-140092175D01*
X141899140Y-140185553D01*
X141807734Y-140306355D01*
X141758146Y-140455826D01*
X141749451Y-140529660D01*
X141762168Y-140707889D01*
X141821147Y-140871496D01*
X141922580Y-141014415D01*
X142062654Y-141130584D01*
X142160220Y-141183368D01*
X142256539Y-141211339D01*
X142384321Y-141227315D01*
X142525595Y-141231015D01*
X142662394Y-141222157D01*
X142776746Y-141200460D01*
X142798700Y-141193367D01*
X142862239Y-141170819D01*
X142901043Y-141157701D01*
X142905852Y-141156382D01*
X142903371Y-141175254D01*
X142897430Y-141192418D01*
X142859590Y-141228311D01*
X142781586Y-141260813D01*
X142674022Y-141288358D01*
X142547502Y-141309378D01*
X142412628Y-141322309D01*
X142280005Y-141325583D01*
X142160237Y-141317633D01*
X142108490Y-141308961D01*
X141926948Y-141249199D01*
X141776085Y-141157934D01*
X141658174Y-141041485D01*
X141575486Y-140906171D01*
X141530294Y-140758311D01*
X141524870Y-140604224D01*
X141561488Y-140450229D01*
X141642419Y-140302644D01*
X141715847Y-140217133D01*
X141867806Y-140100753D01*
X142052490Y-140021455D01*
X142267257Y-139979853D01*
X142509465Y-139976564D01*
X142673503Y-139994221D01*
X142802307Y-140013543D01*
X142831215Y-139918021D01*
X142845798Y-139873066D01*
X142853241Y-139863433D01*
X142854529Y-139893772D01*
G36*
X147352621Y-139875068D02*
G01*
X147354442Y-139920023D01*
X147349285Y-139964933D01*
X147336428Y-140060146D01*
X147322265Y-140169384D01*
X147317074Y-140210698D01*
X147303259Y-140292761D01*
X147289606Y-140326346D01*
X147278322Y-140310901D01*
X147271611Y-140245873D01*
X147270915Y-140222248D01*
X147267679Y-140167913D01*
X147252435Y-140136542D01*
X147212899Y-140117349D01*
X147136784Y-140099549D01*
X147129400Y-140097999D01*
X147023141Y-140080176D01*
X146913295Y-140068453D01*
X146869050Y-140066249D01*
X146748400Y-140063800D01*
X146748400Y-141257600D01*
X146861200Y-141257600D01*
X146932987Y-141262860D01*
X146981194Y-141276108D01*
X146989700Y-141283000D01*
X146972416Y-141294082D01*
X146906249Y-141302099D01*
X146793030Y-141306914D01*
X146646800Y-141308400D01*
X146491387Y-141306690D01*
X146381319Y-141301652D01*
X146318429Y-141293422D01*
X146303900Y-141283000D01*
X146337335Y-141266501D01*
X146400074Y-141257937D01*
X146415934Y-141257600D01*
X146512270Y-141257600D01*
X146528583Y-141048050D01*
X146538204Y-140882705D01*
X146543303Y-140702230D01*
X146543885Y-140521981D01*
X146539954Y-140357317D01*
X146531513Y-140223594D01*
X146528342Y-140193781D01*
X146511926Y-140057063D01*
X146323702Y-140071298D01*
X146183202Y-140089356D01*
X146087633Y-140120391D01*
X146032191Y-140167037D01*
X146012072Y-140231925D01*
X146011800Y-140242185D01*
X146003426Y-140295418D01*
X145983271Y-140317798D01*
X145983076Y-140317800D01*
X145965657Y-140294816D01*
X145969489Y-140226296D01*
X145970097Y-140222550D01*
X145979566Y-140138655D01*
X145985334Y-140036495D01*
X145986120Y-139992450D01*
X145990507Y-139913136D01*
X146002375Y-139874678D01*
X146011800Y-139873299D01*
X146033656Y-139909371D01*
X146037200Y-139934846D01*
X146046990Y-139959857D01*
X146079659Y-139979230D01*
X146140157Y-139993576D01*
X146233431Y-140003502D01*
X146364431Y-140009618D01*
X146538104Y-140012533D01*
X146672199Y-140012999D01*
X146875414Y-140011795D01*
X147032824Y-140007774D01*
X147149380Y-140000328D01*
X147230030Y-139988848D01*
X147279722Y-139972725D01*
X147303406Y-139951350D01*
X147307200Y-139934846D01*
X147321493Y-139886459D01*
X147336026Y-139871182D01*
X147352621Y-139875068D01*
X147352621Y-139875068D01*
G37*
X147352621Y-139875068D02*
X147354442Y-139920023D01*
X147349285Y-139964933D01*
X147336428Y-140060146D01*
X147322265Y-140169384D01*
X147317074Y-140210698D01*
X147303259Y-140292761D01*
X147289606Y-140326346D01*
X147278322Y-140310901D01*
X147271611Y-140245873D01*
X147270915Y-140222248D01*
X147267679Y-140167913D01*
X147252435Y-140136542D01*
X147212899Y-140117349D01*
X147136784Y-140099549D01*
X147129400Y-140097999D01*
X147023141Y-140080176D01*
X146913295Y-140068453D01*
X146869050Y-140066249D01*
X146748400Y-140063800D01*
X146748400Y-141257600D01*
X146861200Y-141257600D01*
X146932987Y-141262860D01*
X146981194Y-141276108D01*
X146989700Y-141283000D01*
X146972416Y-141294082D01*
X146906249Y-141302099D01*
X146793030Y-141306914D01*
X146646800Y-141308400D01*
X146491387Y-141306690D01*
X146381319Y-141301652D01*
X146318429Y-141293422D01*
X146303900Y-141283000D01*
X146337335Y-141266501D01*
X146400074Y-141257937D01*
X146415934Y-141257600D01*
X146512270Y-141257600D01*
X146528583Y-141048050D01*
X146538204Y-140882705D01*
X146543303Y-140702230D01*
X146543885Y-140521981D01*
X146539954Y-140357317D01*
X146531513Y-140223594D01*
X146528342Y-140193781D01*
X146511926Y-140057063D01*
X146323702Y-140071298D01*
X146183202Y-140089356D01*
X146087633Y-140120391D01*
X146032191Y-140167037D01*
X146012072Y-140231925D01*
X146011800Y-140242185D01*
X146003426Y-140295418D01*
X145983271Y-140317798D01*
X145983076Y-140317800D01*
X145965657Y-140294816D01*
X145969489Y-140226296D01*
X145970097Y-140222550D01*
X145979566Y-140138655D01*
X145985334Y-140036495D01*
X145986120Y-139992450D01*
X145990507Y-139913136D01*
X146002375Y-139874678D01*
X146011800Y-139873299D01*
X146033656Y-139909371D01*
X146037200Y-139934846D01*
X146046990Y-139959857D01*
X146079659Y-139979230D01*
X146140157Y-139993576D01*
X146233431Y-140003502D01*
X146364431Y-140009618D01*
X146538104Y-140012533D01*
X146672199Y-140012999D01*
X146875414Y-140011795D01*
X147032824Y-140007774D01*
X147149380Y-140000328D01*
X147230030Y-139988848D01*
X147279722Y-139972725D01*
X147303406Y-139951350D01*
X147307200Y-139934846D01*
X147321493Y-139886459D01*
X147336026Y-139871182D01*
X147352621Y-139875068D01*
%LPC*%
M02*
