G04 #@! TF.GenerationSoftware,KiCad,Pcbnew,(5.1.2)-1*
G04 #@! TF.CreationDate,2023-06-08T23:46:24+09:00*
G04 #@! TF.ProjectId,ma73x,6d613733-782e-46b6-9963-61645f706362,v1.1*
G04 #@! TF.SameCoordinates,Original*
G04 #@! TF.FileFunction,Paste,Top*
G04 #@! TF.FilePolarity,Positive*
%FSLAX46Y46*%
G04 Gerber Fmt 4.6, Leading zero omitted, Abs format (unit mm)*
G04 Created by KiCad (PCBNEW (5.1.2)-1) date 2023-06-08 23:46:24*
%MOMM*%
%LPD*%
G04 APERTURE LIST*
%ADD10C,0.100000*%
%ADD11C,0.250000*%
%ADD12C,0.690000*%
%ADD13C,0.875000*%
G04 APERTURE END LIST*
D10*
G36*
X159418626Y-85125301D02*
G01*
X159424693Y-85126201D01*
X159430643Y-85127691D01*
X159436418Y-85129758D01*
X159441962Y-85132380D01*
X159447223Y-85135533D01*
X159452150Y-85139187D01*
X159456694Y-85143306D01*
X159460813Y-85147850D01*
X159464467Y-85152777D01*
X159467620Y-85158038D01*
X159470242Y-85163582D01*
X159472309Y-85169357D01*
X159473799Y-85175307D01*
X159474699Y-85181374D01*
X159475000Y-85187500D01*
X159475000Y-85887500D01*
X159474699Y-85893626D01*
X159473799Y-85899693D01*
X159472309Y-85905643D01*
X159470242Y-85911418D01*
X159467620Y-85916962D01*
X159464467Y-85922223D01*
X159460813Y-85927150D01*
X159456694Y-85931694D01*
X159452150Y-85935813D01*
X159447223Y-85939467D01*
X159441962Y-85942620D01*
X159436418Y-85945242D01*
X159430643Y-85947309D01*
X159424693Y-85948799D01*
X159418626Y-85949699D01*
X159412500Y-85950000D01*
X159287500Y-85950000D01*
X159281374Y-85949699D01*
X159275307Y-85948799D01*
X159269357Y-85947309D01*
X159263582Y-85945242D01*
X159258038Y-85942620D01*
X159252777Y-85939467D01*
X159247850Y-85935813D01*
X159243306Y-85931694D01*
X159239187Y-85927150D01*
X159235533Y-85922223D01*
X159232380Y-85916962D01*
X159229758Y-85911418D01*
X159227691Y-85905643D01*
X159226201Y-85899693D01*
X159225301Y-85893626D01*
X159225000Y-85887500D01*
X159225000Y-85187500D01*
X159225301Y-85181374D01*
X159226201Y-85175307D01*
X159227691Y-85169357D01*
X159229758Y-85163582D01*
X159232380Y-85158038D01*
X159235533Y-85152777D01*
X159239187Y-85147850D01*
X159243306Y-85143306D01*
X159247850Y-85139187D01*
X159252777Y-85135533D01*
X159258038Y-85132380D01*
X159263582Y-85129758D01*
X159269357Y-85127691D01*
X159275307Y-85126201D01*
X159281374Y-85125301D01*
X159287500Y-85125000D01*
X159412500Y-85125000D01*
X159418626Y-85125301D01*
X159418626Y-85125301D01*
G37*
D11*
X159350000Y-85537500D03*
D10*
G36*
X159918626Y-85125301D02*
G01*
X159924693Y-85126201D01*
X159930643Y-85127691D01*
X159936418Y-85129758D01*
X159941962Y-85132380D01*
X159947223Y-85135533D01*
X159952150Y-85139187D01*
X159956694Y-85143306D01*
X159960813Y-85147850D01*
X159964467Y-85152777D01*
X159967620Y-85158038D01*
X159970242Y-85163582D01*
X159972309Y-85169357D01*
X159973799Y-85175307D01*
X159974699Y-85181374D01*
X159975000Y-85187500D01*
X159975000Y-85887500D01*
X159974699Y-85893626D01*
X159973799Y-85899693D01*
X159972309Y-85905643D01*
X159970242Y-85911418D01*
X159967620Y-85916962D01*
X159964467Y-85922223D01*
X159960813Y-85927150D01*
X159956694Y-85931694D01*
X159952150Y-85935813D01*
X159947223Y-85939467D01*
X159941962Y-85942620D01*
X159936418Y-85945242D01*
X159930643Y-85947309D01*
X159924693Y-85948799D01*
X159918626Y-85949699D01*
X159912500Y-85950000D01*
X159787500Y-85950000D01*
X159781374Y-85949699D01*
X159775307Y-85948799D01*
X159769357Y-85947309D01*
X159763582Y-85945242D01*
X159758038Y-85942620D01*
X159752777Y-85939467D01*
X159747850Y-85935813D01*
X159743306Y-85931694D01*
X159739187Y-85927150D01*
X159735533Y-85922223D01*
X159732380Y-85916962D01*
X159729758Y-85911418D01*
X159727691Y-85905643D01*
X159726201Y-85899693D01*
X159725301Y-85893626D01*
X159725000Y-85887500D01*
X159725000Y-85187500D01*
X159725301Y-85181374D01*
X159726201Y-85175307D01*
X159727691Y-85169357D01*
X159729758Y-85163582D01*
X159732380Y-85158038D01*
X159735533Y-85152777D01*
X159739187Y-85147850D01*
X159743306Y-85143306D01*
X159747850Y-85139187D01*
X159752777Y-85135533D01*
X159758038Y-85132380D01*
X159763582Y-85129758D01*
X159769357Y-85127691D01*
X159775307Y-85126201D01*
X159781374Y-85125301D01*
X159787500Y-85125000D01*
X159912500Y-85125000D01*
X159918626Y-85125301D01*
X159918626Y-85125301D01*
G37*
D11*
X159850000Y-85537500D03*
D10*
G36*
X160418626Y-85125301D02*
G01*
X160424693Y-85126201D01*
X160430643Y-85127691D01*
X160436418Y-85129758D01*
X160441962Y-85132380D01*
X160447223Y-85135533D01*
X160452150Y-85139187D01*
X160456694Y-85143306D01*
X160460813Y-85147850D01*
X160464467Y-85152777D01*
X160467620Y-85158038D01*
X160470242Y-85163582D01*
X160472309Y-85169357D01*
X160473799Y-85175307D01*
X160474699Y-85181374D01*
X160475000Y-85187500D01*
X160475000Y-85887500D01*
X160474699Y-85893626D01*
X160473799Y-85899693D01*
X160472309Y-85905643D01*
X160470242Y-85911418D01*
X160467620Y-85916962D01*
X160464467Y-85922223D01*
X160460813Y-85927150D01*
X160456694Y-85931694D01*
X160452150Y-85935813D01*
X160447223Y-85939467D01*
X160441962Y-85942620D01*
X160436418Y-85945242D01*
X160430643Y-85947309D01*
X160424693Y-85948799D01*
X160418626Y-85949699D01*
X160412500Y-85950000D01*
X160287500Y-85950000D01*
X160281374Y-85949699D01*
X160275307Y-85948799D01*
X160269357Y-85947309D01*
X160263582Y-85945242D01*
X160258038Y-85942620D01*
X160252777Y-85939467D01*
X160247850Y-85935813D01*
X160243306Y-85931694D01*
X160239187Y-85927150D01*
X160235533Y-85922223D01*
X160232380Y-85916962D01*
X160229758Y-85911418D01*
X160227691Y-85905643D01*
X160226201Y-85899693D01*
X160225301Y-85893626D01*
X160225000Y-85887500D01*
X160225000Y-85187500D01*
X160225301Y-85181374D01*
X160226201Y-85175307D01*
X160227691Y-85169357D01*
X160229758Y-85163582D01*
X160232380Y-85158038D01*
X160235533Y-85152777D01*
X160239187Y-85147850D01*
X160243306Y-85143306D01*
X160247850Y-85139187D01*
X160252777Y-85135533D01*
X160258038Y-85132380D01*
X160263582Y-85129758D01*
X160269357Y-85127691D01*
X160275307Y-85126201D01*
X160281374Y-85125301D01*
X160287500Y-85125000D01*
X160412500Y-85125000D01*
X160418626Y-85125301D01*
X160418626Y-85125301D01*
G37*
D11*
X160350000Y-85537500D03*
D10*
G36*
X160918626Y-85125301D02*
G01*
X160924693Y-85126201D01*
X160930643Y-85127691D01*
X160936418Y-85129758D01*
X160941962Y-85132380D01*
X160947223Y-85135533D01*
X160952150Y-85139187D01*
X160956694Y-85143306D01*
X160960813Y-85147850D01*
X160964467Y-85152777D01*
X160967620Y-85158038D01*
X160970242Y-85163582D01*
X160972309Y-85169357D01*
X160973799Y-85175307D01*
X160974699Y-85181374D01*
X160975000Y-85187500D01*
X160975000Y-85887500D01*
X160974699Y-85893626D01*
X160973799Y-85899693D01*
X160972309Y-85905643D01*
X160970242Y-85911418D01*
X160967620Y-85916962D01*
X160964467Y-85922223D01*
X160960813Y-85927150D01*
X160956694Y-85931694D01*
X160952150Y-85935813D01*
X160947223Y-85939467D01*
X160941962Y-85942620D01*
X160936418Y-85945242D01*
X160930643Y-85947309D01*
X160924693Y-85948799D01*
X160918626Y-85949699D01*
X160912500Y-85950000D01*
X160787500Y-85950000D01*
X160781374Y-85949699D01*
X160775307Y-85948799D01*
X160769357Y-85947309D01*
X160763582Y-85945242D01*
X160758038Y-85942620D01*
X160752777Y-85939467D01*
X160747850Y-85935813D01*
X160743306Y-85931694D01*
X160739187Y-85927150D01*
X160735533Y-85922223D01*
X160732380Y-85916962D01*
X160729758Y-85911418D01*
X160727691Y-85905643D01*
X160726201Y-85899693D01*
X160725301Y-85893626D01*
X160725000Y-85887500D01*
X160725000Y-85187500D01*
X160725301Y-85181374D01*
X160726201Y-85175307D01*
X160727691Y-85169357D01*
X160729758Y-85163582D01*
X160732380Y-85158038D01*
X160735533Y-85152777D01*
X160739187Y-85147850D01*
X160743306Y-85143306D01*
X160747850Y-85139187D01*
X160752777Y-85135533D01*
X160758038Y-85132380D01*
X160763582Y-85129758D01*
X160769357Y-85127691D01*
X160775307Y-85126201D01*
X160781374Y-85125301D01*
X160787500Y-85125000D01*
X160912500Y-85125000D01*
X160918626Y-85125301D01*
X160918626Y-85125301D01*
G37*
D11*
X160850000Y-85537500D03*
D10*
G36*
X161918626Y-86125301D02*
G01*
X161924693Y-86126201D01*
X161930643Y-86127691D01*
X161936418Y-86129758D01*
X161941962Y-86132380D01*
X161947223Y-86135533D01*
X161952150Y-86139187D01*
X161956694Y-86143306D01*
X161960813Y-86147850D01*
X161964467Y-86152777D01*
X161967620Y-86158038D01*
X161970242Y-86163582D01*
X161972309Y-86169357D01*
X161973799Y-86175307D01*
X161974699Y-86181374D01*
X161975000Y-86187500D01*
X161975000Y-86312500D01*
X161974699Y-86318626D01*
X161973799Y-86324693D01*
X161972309Y-86330643D01*
X161970242Y-86336418D01*
X161967620Y-86341962D01*
X161964467Y-86347223D01*
X161960813Y-86352150D01*
X161956694Y-86356694D01*
X161952150Y-86360813D01*
X161947223Y-86364467D01*
X161941962Y-86367620D01*
X161936418Y-86370242D01*
X161930643Y-86372309D01*
X161924693Y-86373799D01*
X161918626Y-86374699D01*
X161912500Y-86375000D01*
X161212500Y-86375000D01*
X161206374Y-86374699D01*
X161200307Y-86373799D01*
X161194357Y-86372309D01*
X161188582Y-86370242D01*
X161183038Y-86367620D01*
X161177777Y-86364467D01*
X161172850Y-86360813D01*
X161168306Y-86356694D01*
X161164187Y-86352150D01*
X161160533Y-86347223D01*
X161157380Y-86341962D01*
X161154758Y-86336418D01*
X161152691Y-86330643D01*
X161151201Y-86324693D01*
X161150301Y-86318626D01*
X161150000Y-86312500D01*
X161150000Y-86187500D01*
X161150301Y-86181374D01*
X161151201Y-86175307D01*
X161152691Y-86169357D01*
X161154758Y-86163582D01*
X161157380Y-86158038D01*
X161160533Y-86152777D01*
X161164187Y-86147850D01*
X161168306Y-86143306D01*
X161172850Y-86139187D01*
X161177777Y-86135533D01*
X161183038Y-86132380D01*
X161188582Y-86129758D01*
X161194357Y-86127691D01*
X161200307Y-86126201D01*
X161206374Y-86125301D01*
X161212500Y-86125000D01*
X161912500Y-86125000D01*
X161918626Y-86125301D01*
X161918626Y-86125301D01*
G37*
D11*
X161562500Y-86250000D03*
D10*
G36*
X161918626Y-86625301D02*
G01*
X161924693Y-86626201D01*
X161930643Y-86627691D01*
X161936418Y-86629758D01*
X161941962Y-86632380D01*
X161947223Y-86635533D01*
X161952150Y-86639187D01*
X161956694Y-86643306D01*
X161960813Y-86647850D01*
X161964467Y-86652777D01*
X161967620Y-86658038D01*
X161970242Y-86663582D01*
X161972309Y-86669357D01*
X161973799Y-86675307D01*
X161974699Y-86681374D01*
X161975000Y-86687500D01*
X161975000Y-86812500D01*
X161974699Y-86818626D01*
X161973799Y-86824693D01*
X161972309Y-86830643D01*
X161970242Y-86836418D01*
X161967620Y-86841962D01*
X161964467Y-86847223D01*
X161960813Y-86852150D01*
X161956694Y-86856694D01*
X161952150Y-86860813D01*
X161947223Y-86864467D01*
X161941962Y-86867620D01*
X161936418Y-86870242D01*
X161930643Y-86872309D01*
X161924693Y-86873799D01*
X161918626Y-86874699D01*
X161912500Y-86875000D01*
X161212500Y-86875000D01*
X161206374Y-86874699D01*
X161200307Y-86873799D01*
X161194357Y-86872309D01*
X161188582Y-86870242D01*
X161183038Y-86867620D01*
X161177777Y-86864467D01*
X161172850Y-86860813D01*
X161168306Y-86856694D01*
X161164187Y-86852150D01*
X161160533Y-86847223D01*
X161157380Y-86841962D01*
X161154758Y-86836418D01*
X161152691Y-86830643D01*
X161151201Y-86824693D01*
X161150301Y-86818626D01*
X161150000Y-86812500D01*
X161150000Y-86687500D01*
X161150301Y-86681374D01*
X161151201Y-86675307D01*
X161152691Y-86669357D01*
X161154758Y-86663582D01*
X161157380Y-86658038D01*
X161160533Y-86652777D01*
X161164187Y-86647850D01*
X161168306Y-86643306D01*
X161172850Y-86639187D01*
X161177777Y-86635533D01*
X161183038Y-86632380D01*
X161188582Y-86629758D01*
X161194357Y-86627691D01*
X161200307Y-86626201D01*
X161206374Y-86625301D01*
X161212500Y-86625000D01*
X161912500Y-86625000D01*
X161918626Y-86625301D01*
X161918626Y-86625301D01*
G37*
D11*
X161562500Y-86750000D03*
D10*
G36*
X161918626Y-87125301D02*
G01*
X161924693Y-87126201D01*
X161930643Y-87127691D01*
X161936418Y-87129758D01*
X161941962Y-87132380D01*
X161947223Y-87135533D01*
X161952150Y-87139187D01*
X161956694Y-87143306D01*
X161960813Y-87147850D01*
X161964467Y-87152777D01*
X161967620Y-87158038D01*
X161970242Y-87163582D01*
X161972309Y-87169357D01*
X161973799Y-87175307D01*
X161974699Y-87181374D01*
X161975000Y-87187500D01*
X161975000Y-87312500D01*
X161974699Y-87318626D01*
X161973799Y-87324693D01*
X161972309Y-87330643D01*
X161970242Y-87336418D01*
X161967620Y-87341962D01*
X161964467Y-87347223D01*
X161960813Y-87352150D01*
X161956694Y-87356694D01*
X161952150Y-87360813D01*
X161947223Y-87364467D01*
X161941962Y-87367620D01*
X161936418Y-87370242D01*
X161930643Y-87372309D01*
X161924693Y-87373799D01*
X161918626Y-87374699D01*
X161912500Y-87375000D01*
X161212500Y-87375000D01*
X161206374Y-87374699D01*
X161200307Y-87373799D01*
X161194357Y-87372309D01*
X161188582Y-87370242D01*
X161183038Y-87367620D01*
X161177777Y-87364467D01*
X161172850Y-87360813D01*
X161168306Y-87356694D01*
X161164187Y-87352150D01*
X161160533Y-87347223D01*
X161157380Y-87341962D01*
X161154758Y-87336418D01*
X161152691Y-87330643D01*
X161151201Y-87324693D01*
X161150301Y-87318626D01*
X161150000Y-87312500D01*
X161150000Y-87187500D01*
X161150301Y-87181374D01*
X161151201Y-87175307D01*
X161152691Y-87169357D01*
X161154758Y-87163582D01*
X161157380Y-87158038D01*
X161160533Y-87152777D01*
X161164187Y-87147850D01*
X161168306Y-87143306D01*
X161172850Y-87139187D01*
X161177777Y-87135533D01*
X161183038Y-87132380D01*
X161188582Y-87129758D01*
X161194357Y-87127691D01*
X161200307Y-87126201D01*
X161206374Y-87125301D01*
X161212500Y-87125000D01*
X161912500Y-87125000D01*
X161918626Y-87125301D01*
X161918626Y-87125301D01*
G37*
D11*
X161562500Y-87250000D03*
D10*
G36*
X161918626Y-87625301D02*
G01*
X161924693Y-87626201D01*
X161930643Y-87627691D01*
X161936418Y-87629758D01*
X161941962Y-87632380D01*
X161947223Y-87635533D01*
X161952150Y-87639187D01*
X161956694Y-87643306D01*
X161960813Y-87647850D01*
X161964467Y-87652777D01*
X161967620Y-87658038D01*
X161970242Y-87663582D01*
X161972309Y-87669357D01*
X161973799Y-87675307D01*
X161974699Y-87681374D01*
X161975000Y-87687500D01*
X161975000Y-87812500D01*
X161974699Y-87818626D01*
X161973799Y-87824693D01*
X161972309Y-87830643D01*
X161970242Y-87836418D01*
X161967620Y-87841962D01*
X161964467Y-87847223D01*
X161960813Y-87852150D01*
X161956694Y-87856694D01*
X161952150Y-87860813D01*
X161947223Y-87864467D01*
X161941962Y-87867620D01*
X161936418Y-87870242D01*
X161930643Y-87872309D01*
X161924693Y-87873799D01*
X161918626Y-87874699D01*
X161912500Y-87875000D01*
X161212500Y-87875000D01*
X161206374Y-87874699D01*
X161200307Y-87873799D01*
X161194357Y-87872309D01*
X161188582Y-87870242D01*
X161183038Y-87867620D01*
X161177777Y-87864467D01*
X161172850Y-87860813D01*
X161168306Y-87856694D01*
X161164187Y-87852150D01*
X161160533Y-87847223D01*
X161157380Y-87841962D01*
X161154758Y-87836418D01*
X161152691Y-87830643D01*
X161151201Y-87824693D01*
X161150301Y-87818626D01*
X161150000Y-87812500D01*
X161150000Y-87687500D01*
X161150301Y-87681374D01*
X161151201Y-87675307D01*
X161152691Y-87669357D01*
X161154758Y-87663582D01*
X161157380Y-87658038D01*
X161160533Y-87652777D01*
X161164187Y-87647850D01*
X161168306Y-87643306D01*
X161172850Y-87639187D01*
X161177777Y-87635533D01*
X161183038Y-87632380D01*
X161188582Y-87629758D01*
X161194357Y-87627691D01*
X161200307Y-87626201D01*
X161206374Y-87625301D01*
X161212500Y-87625000D01*
X161912500Y-87625000D01*
X161918626Y-87625301D01*
X161918626Y-87625301D01*
G37*
D11*
X161562500Y-87750000D03*
D10*
G36*
X160918626Y-88050301D02*
G01*
X160924693Y-88051201D01*
X160930643Y-88052691D01*
X160936418Y-88054758D01*
X160941962Y-88057380D01*
X160947223Y-88060533D01*
X160952150Y-88064187D01*
X160956694Y-88068306D01*
X160960813Y-88072850D01*
X160964467Y-88077777D01*
X160967620Y-88083038D01*
X160970242Y-88088582D01*
X160972309Y-88094357D01*
X160973799Y-88100307D01*
X160974699Y-88106374D01*
X160975000Y-88112500D01*
X160975000Y-88812500D01*
X160974699Y-88818626D01*
X160973799Y-88824693D01*
X160972309Y-88830643D01*
X160970242Y-88836418D01*
X160967620Y-88841962D01*
X160964467Y-88847223D01*
X160960813Y-88852150D01*
X160956694Y-88856694D01*
X160952150Y-88860813D01*
X160947223Y-88864467D01*
X160941962Y-88867620D01*
X160936418Y-88870242D01*
X160930643Y-88872309D01*
X160924693Y-88873799D01*
X160918626Y-88874699D01*
X160912500Y-88875000D01*
X160787500Y-88875000D01*
X160781374Y-88874699D01*
X160775307Y-88873799D01*
X160769357Y-88872309D01*
X160763582Y-88870242D01*
X160758038Y-88867620D01*
X160752777Y-88864467D01*
X160747850Y-88860813D01*
X160743306Y-88856694D01*
X160739187Y-88852150D01*
X160735533Y-88847223D01*
X160732380Y-88841962D01*
X160729758Y-88836418D01*
X160727691Y-88830643D01*
X160726201Y-88824693D01*
X160725301Y-88818626D01*
X160725000Y-88812500D01*
X160725000Y-88112500D01*
X160725301Y-88106374D01*
X160726201Y-88100307D01*
X160727691Y-88094357D01*
X160729758Y-88088582D01*
X160732380Y-88083038D01*
X160735533Y-88077777D01*
X160739187Y-88072850D01*
X160743306Y-88068306D01*
X160747850Y-88064187D01*
X160752777Y-88060533D01*
X160758038Y-88057380D01*
X160763582Y-88054758D01*
X160769357Y-88052691D01*
X160775307Y-88051201D01*
X160781374Y-88050301D01*
X160787500Y-88050000D01*
X160912500Y-88050000D01*
X160918626Y-88050301D01*
X160918626Y-88050301D01*
G37*
D11*
X160850000Y-88462500D03*
D10*
G36*
X160418626Y-88050301D02*
G01*
X160424693Y-88051201D01*
X160430643Y-88052691D01*
X160436418Y-88054758D01*
X160441962Y-88057380D01*
X160447223Y-88060533D01*
X160452150Y-88064187D01*
X160456694Y-88068306D01*
X160460813Y-88072850D01*
X160464467Y-88077777D01*
X160467620Y-88083038D01*
X160470242Y-88088582D01*
X160472309Y-88094357D01*
X160473799Y-88100307D01*
X160474699Y-88106374D01*
X160475000Y-88112500D01*
X160475000Y-88812500D01*
X160474699Y-88818626D01*
X160473799Y-88824693D01*
X160472309Y-88830643D01*
X160470242Y-88836418D01*
X160467620Y-88841962D01*
X160464467Y-88847223D01*
X160460813Y-88852150D01*
X160456694Y-88856694D01*
X160452150Y-88860813D01*
X160447223Y-88864467D01*
X160441962Y-88867620D01*
X160436418Y-88870242D01*
X160430643Y-88872309D01*
X160424693Y-88873799D01*
X160418626Y-88874699D01*
X160412500Y-88875000D01*
X160287500Y-88875000D01*
X160281374Y-88874699D01*
X160275307Y-88873799D01*
X160269357Y-88872309D01*
X160263582Y-88870242D01*
X160258038Y-88867620D01*
X160252777Y-88864467D01*
X160247850Y-88860813D01*
X160243306Y-88856694D01*
X160239187Y-88852150D01*
X160235533Y-88847223D01*
X160232380Y-88841962D01*
X160229758Y-88836418D01*
X160227691Y-88830643D01*
X160226201Y-88824693D01*
X160225301Y-88818626D01*
X160225000Y-88812500D01*
X160225000Y-88112500D01*
X160225301Y-88106374D01*
X160226201Y-88100307D01*
X160227691Y-88094357D01*
X160229758Y-88088582D01*
X160232380Y-88083038D01*
X160235533Y-88077777D01*
X160239187Y-88072850D01*
X160243306Y-88068306D01*
X160247850Y-88064187D01*
X160252777Y-88060533D01*
X160258038Y-88057380D01*
X160263582Y-88054758D01*
X160269357Y-88052691D01*
X160275307Y-88051201D01*
X160281374Y-88050301D01*
X160287500Y-88050000D01*
X160412500Y-88050000D01*
X160418626Y-88050301D01*
X160418626Y-88050301D01*
G37*
D11*
X160350000Y-88462500D03*
D10*
G36*
X159918626Y-88050301D02*
G01*
X159924693Y-88051201D01*
X159930643Y-88052691D01*
X159936418Y-88054758D01*
X159941962Y-88057380D01*
X159947223Y-88060533D01*
X159952150Y-88064187D01*
X159956694Y-88068306D01*
X159960813Y-88072850D01*
X159964467Y-88077777D01*
X159967620Y-88083038D01*
X159970242Y-88088582D01*
X159972309Y-88094357D01*
X159973799Y-88100307D01*
X159974699Y-88106374D01*
X159975000Y-88112500D01*
X159975000Y-88812500D01*
X159974699Y-88818626D01*
X159973799Y-88824693D01*
X159972309Y-88830643D01*
X159970242Y-88836418D01*
X159967620Y-88841962D01*
X159964467Y-88847223D01*
X159960813Y-88852150D01*
X159956694Y-88856694D01*
X159952150Y-88860813D01*
X159947223Y-88864467D01*
X159941962Y-88867620D01*
X159936418Y-88870242D01*
X159930643Y-88872309D01*
X159924693Y-88873799D01*
X159918626Y-88874699D01*
X159912500Y-88875000D01*
X159787500Y-88875000D01*
X159781374Y-88874699D01*
X159775307Y-88873799D01*
X159769357Y-88872309D01*
X159763582Y-88870242D01*
X159758038Y-88867620D01*
X159752777Y-88864467D01*
X159747850Y-88860813D01*
X159743306Y-88856694D01*
X159739187Y-88852150D01*
X159735533Y-88847223D01*
X159732380Y-88841962D01*
X159729758Y-88836418D01*
X159727691Y-88830643D01*
X159726201Y-88824693D01*
X159725301Y-88818626D01*
X159725000Y-88812500D01*
X159725000Y-88112500D01*
X159725301Y-88106374D01*
X159726201Y-88100307D01*
X159727691Y-88094357D01*
X159729758Y-88088582D01*
X159732380Y-88083038D01*
X159735533Y-88077777D01*
X159739187Y-88072850D01*
X159743306Y-88068306D01*
X159747850Y-88064187D01*
X159752777Y-88060533D01*
X159758038Y-88057380D01*
X159763582Y-88054758D01*
X159769357Y-88052691D01*
X159775307Y-88051201D01*
X159781374Y-88050301D01*
X159787500Y-88050000D01*
X159912500Y-88050000D01*
X159918626Y-88050301D01*
X159918626Y-88050301D01*
G37*
D11*
X159850000Y-88462500D03*
D10*
G36*
X159418626Y-88050301D02*
G01*
X159424693Y-88051201D01*
X159430643Y-88052691D01*
X159436418Y-88054758D01*
X159441962Y-88057380D01*
X159447223Y-88060533D01*
X159452150Y-88064187D01*
X159456694Y-88068306D01*
X159460813Y-88072850D01*
X159464467Y-88077777D01*
X159467620Y-88083038D01*
X159470242Y-88088582D01*
X159472309Y-88094357D01*
X159473799Y-88100307D01*
X159474699Y-88106374D01*
X159475000Y-88112500D01*
X159475000Y-88812500D01*
X159474699Y-88818626D01*
X159473799Y-88824693D01*
X159472309Y-88830643D01*
X159470242Y-88836418D01*
X159467620Y-88841962D01*
X159464467Y-88847223D01*
X159460813Y-88852150D01*
X159456694Y-88856694D01*
X159452150Y-88860813D01*
X159447223Y-88864467D01*
X159441962Y-88867620D01*
X159436418Y-88870242D01*
X159430643Y-88872309D01*
X159424693Y-88873799D01*
X159418626Y-88874699D01*
X159412500Y-88875000D01*
X159287500Y-88875000D01*
X159281374Y-88874699D01*
X159275307Y-88873799D01*
X159269357Y-88872309D01*
X159263582Y-88870242D01*
X159258038Y-88867620D01*
X159252777Y-88864467D01*
X159247850Y-88860813D01*
X159243306Y-88856694D01*
X159239187Y-88852150D01*
X159235533Y-88847223D01*
X159232380Y-88841962D01*
X159229758Y-88836418D01*
X159227691Y-88830643D01*
X159226201Y-88824693D01*
X159225301Y-88818626D01*
X159225000Y-88812500D01*
X159225000Y-88112500D01*
X159225301Y-88106374D01*
X159226201Y-88100307D01*
X159227691Y-88094357D01*
X159229758Y-88088582D01*
X159232380Y-88083038D01*
X159235533Y-88077777D01*
X159239187Y-88072850D01*
X159243306Y-88068306D01*
X159247850Y-88064187D01*
X159252777Y-88060533D01*
X159258038Y-88057380D01*
X159263582Y-88054758D01*
X159269357Y-88052691D01*
X159275307Y-88051201D01*
X159281374Y-88050301D01*
X159287500Y-88050000D01*
X159412500Y-88050000D01*
X159418626Y-88050301D01*
X159418626Y-88050301D01*
G37*
D11*
X159350000Y-88462500D03*
D10*
G36*
X158993626Y-87625301D02*
G01*
X158999693Y-87626201D01*
X159005643Y-87627691D01*
X159011418Y-87629758D01*
X159016962Y-87632380D01*
X159022223Y-87635533D01*
X159027150Y-87639187D01*
X159031694Y-87643306D01*
X159035813Y-87647850D01*
X159039467Y-87652777D01*
X159042620Y-87658038D01*
X159045242Y-87663582D01*
X159047309Y-87669357D01*
X159048799Y-87675307D01*
X159049699Y-87681374D01*
X159050000Y-87687500D01*
X159050000Y-87812500D01*
X159049699Y-87818626D01*
X159048799Y-87824693D01*
X159047309Y-87830643D01*
X159045242Y-87836418D01*
X159042620Y-87841962D01*
X159039467Y-87847223D01*
X159035813Y-87852150D01*
X159031694Y-87856694D01*
X159027150Y-87860813D01*
X159022223Y-87864467D01*
X159016962Y-87867620D01*
X159011418Y-87870242D01*
X159005643Y-87872309D01*
X158999693Y-87873799D01*
X158993626Y-87874699D01*
X158987500Y-87875000D01*
X158287500Y-87875000D01*
X158281374Y-87874699D01*
X158275307Y-87873799D01*
X158269357Y-87872309D01*
X158263582Y-87870242D01*
X158258038Y-87867620D01*
X158252777Y-87864467D01*
X158247850Y-87860813D01*
X158243306Y-87856694D01*
X158239187Y-87852150D01*
X158235533Y-87847223D01*
X158232380Y-87841962D01*
X158229758Y-87836418D01*
X158227691Y-87830643D01*
X158226201Y-87824693D01*
X158225301Y-87818626D01*
X158225000Y-87812500D01*
X158225000Y-87687500D01*
X158225301Y-87681374D01*
X158226201Y-87675307D01*
X158227691Y-87669357D01*
X158229758Y-87663582D01*
X158232380Y-87658038D01*
X158235533Y-87652777D01*
X158239187Y-87647850D01*
X158243306Y-87643306D01*
X158247850Y-87639187D01*
X158252777Y-87635533D01*
X158258038Y-87632380D01*
X158263582Y-87629758D01*
X158269357Y-87627691D01*
X158275307Y-87626201D01*
X158281374Y-87625301D01*
X158287500Y-87625000D01*
X158987500Y-87625000D01*
X158993626Y-87625301D01*
X158993626Y-87625301D01*
G37*
D11*
X158637500Y-87750000D03*
D10*
G36*
X158993626Y-87125301D02*
G01*
X158999693Y-87126201D01*
X159005643Y-87127691D01*
X159011418Y-87129758D01*
X159016962Y-87132380D01*
X159022223Y-87135533D01*
X159027150Y-87139187D01*
X159031694Y-87143306D01*
X159035813Y-87147850D01*
X159039467Y-87152777D01*
X159042620Y-87158038D01*
X159045242Y-87163582D01*
X159047309Y-87169357D01*
X159048799Y-87175307D01*
X159049699Y-87181374D01*
X159050000Y-87187500D01*
X159050000Y-87312500D01*
X159049699Y-87318626D01*
X159048799Y-87324693D01*
X159047309Y-87330643D01*
X159045242Y-87336418D01*
X159042620Y-87341962D01*
X159039467Y-87347223D01*
X159035813Y-87352150D01*
X159031694Y-87356694D01*
X159027150Y-87360813D01*
X159022223Y-87364467D01*
X159016962Y-87367620D01*
X159011418Y-87370242D01*
X159005643Y-87372309D01*
X158999693Y-87373799D01*
X158993626Y-87374699D01*
X158987500Y-87375000D01*
X158287500Y-87375000D01*
X158281374Y-87374699D01*
X158275307Y-87373799D01*
X158269357Y-87372309D01*
X158263582Y-87370242D01*
X158258038Y-87367620D01*
X158252777Y-87364467D01*
X158247850Y-87360813D01*
X158243306Y-87356694D01*
X158239187Y-87352150D01*
X158235533Y-87347223D01*
X158232380Y-87341962D01*
X158229758Y-87336418D01*
X158227691Y-87330643D01*
X158226201Y-87324693D01*
X158225301Y-87318626D01*
X158225000Y-87312500D01*
X158225000Y-87187500D01*
X158225301Y-87181374D01*
X158226201Y-87175307D01*
X158227691Y-87169357D01*
X158229758Y-87163582D01*
X158232380Y-87158038D01*
X158235533Y-87152777D01*
X158239187Y-87147850D01*
X158243306Y-87143306D01*
X158247850Y-87139187D01*
X158252777Y-87135533D01*
X158258038Y-87132380D01*
X158263582Y-87129758D01*
X158269357Y-87127691D01*
X158275307Y-87126201D01*
X158281374Y-87125301D01*
X158287500Y-87125000D01*
X158987500Y-87125000D01*
X158993626Y-87125301D01*
X158993626Y-87125301D01*
G37*
D11*
X158637500Y-87250000D03*
D10*
G36*
X158993626Y-86625301D02*
G01*
X158999693Y-86626201D01*
X159005643Y-86627691D01*
X159011418Y-86629758D01*
X159016962Y-86632380D01*
X159022223Y-86635533D01*
X159027150Y-86639187D01*
X159031694Y-86643306D01*
X159035813Y-86647850D01*
X159039467Y-86652777D01*
X159042620Y-86658038D01*
X159045242Y-86663582D01*
X159047309Y-86669357D01*
X159048799Y-86675307D01*
X159049699Y-86681374D01*
X159050000Y-86687500D01*
X159050000Y-86812500D01*
X159049699Y-86818626D01*
X159048799Y-86824693D01*
X159047309Y-86830643D01*
X159045242Y-86836418D01*
X159042620Y-86841962D01*
X159039467Y-86847223D01*
X159035813Y-86852150D01*
X159031694Y-86856694D01*
X159027150Y-86860813D01*
X159022223Y-86864467D01*
X159016962Y-86867620D01*
X159011418Y-86870242D01*
X159005643Y-86872309D01*
X158999693Y-86873799D01*
X158993626Y-86874699D01*
X158987500Y-86875000D01*
X158287500Y-86875000D01*
X158281374Y-86874699D01*
X158275307Y-86873799D01*
X158269357Y-86872309D01*
X158263582Y-86870242D01*
X158258038Y-86867620D01*
X158252777Y-86864467D01*
X158247850Y-86860813D01*
X158243306Y-86856694D01*
X158239187Y-86852150D01*
X158235533Y-86847223D01*
X158232380Y-86841962D01*
X158229758Y-86836418D01*
X158227691Y-86830643D01*
X158226201Y-86824693D01*
X158225301Y-86818626D01*
X158225000Y-86812500D01*
X158225000Y-86687500D01*
X158225301Y-86681374D01*
X158226201Y-86675307D01*
X158227691Y-86669357D01*
X158229758Y-86663582D01*
X158232380Y-86658038D01*
X158235533Y-86652777D01*
X158239187Y-86647850D01*
X158243306Y-86643306D01*
X158247850Y-86639187D01*
X158252777Y-86635533D01*
X158258038Y-86632380D01*
X158263582Y-86629758D01*
X158269357Y-86627691D01*
X158275307Y-86626201D01*
X158281374Y-86625301D01*
X158287500Y-86625000D01*
X158987500Y-86625000D01*
X158993626Y-86625301D01*
X158993626Y-86625301D01*
G37*
D11*
X158637500Y-86750000D03*
D10*
G36*
X158993626Y-86125301D02*
G01*
X158999693Y-86126201D01*
X159005643Y-86127691D01*
X159011418Y-86129758D01*
X159016962Y-86132380D01*
X159022223Y-86135533D01*
X159027150Y-86139187D01*
X159031694Y-86143306D01*
X159035813Y-86147850D01*
X159039467Y-86152777D01*
X159042620Y-86158038D01*
X159045242Y-86163582D01*
X159047309Y-86169357D01*
X159048799Y-86175307D01*
X159049699Y-86181374D01*
X159050000Y-86187500D01*
X159050000Y-86312500D01*
X159049699Y-86318626D01*
X159048799Y-86324693D01*
X159047309Y-86330643D01*
X159045242Y-86336418D01*
X159042620Y-86341962D01*
X159039467Y-86347223D01*
X159035813Y-86352150D01*
X159031694Y-86356694D01*
X159027150Y-86360813D01*
X159022223Y-86364467D01*
X159016962Y-86367620D01*
X159011418Y-86370242D01*
X159005643Y-86372309D01*
X158999693Y-86373799D01*
X158993626Y-86374699D01*
X158987500Y-86375000D01*
X158287500Y-86375000D01*
X158281374Y-86374699D01*
X158275307Y-86373799D01*
X158269357Y-86372309D01*
X158263582Y-86370242D01*
X158258038Y-86367620D01*
X158252777Y-86364467D01*
X158247850Y-86360813D01*
X158243306Y-86356694D01*
X158239187Y-86352150D01*
X158235533Y-86347223D01*
X158232380Y-86341962D01*
X158229758Y-86336418D01*
X158227691Y-86330643D01*
X158226201Y-86324693D01*
X158225301Y-86318626D01*
X158225000Y-86312500D01*
X158225000Y-86187500D01*
X158225301Y-86181374D01*
X158226201Y-86175307D01*
X158227691Y-86169357D01*
X158229758Y-86163582D01*
X158232380Y-86158038D01*
X158235533Y-86152777D01*
X158239187Y-86147850D01*
X158243306Y-86143306D01*
X158247850Y-86139187D01*
X158252777Y-86135533D01*
X158258038Y-86132380D01*
X158263582Y-86129758D01*
X158269357Y-86127691D01*
X158275307Y-86126201D01*
X158281374Y-86125301D01*
X158287500Y-86125000D01*
X158987500Y-86125000D01*
X158993626Y-86125301D01*
X158993626Y-86125301D01*
G37*
D11*
X158637500Y-86250000D03*
D10*
G36*
X160714408Y-87080831D02*
G01*
X160731153Y-87083315D01*
X160747574Y-87087428D01*
X160763513Y-87093131D01*
X160778816Y-87100369D01*
X160793336Y-87109071D01*
X160806933Y-87119156D01*
X160819476Y-87130524D01*
X160830844Y-87143067D01*
X160840929Y-87156664D01*
X160849631Y-87171184D01*
X160856869Y-87186487D01*
X160862572Y-87202426D01*
X160866685Y-87218847D01*
X160869169Y-87235592D01*
X160870000Y-87252500D01*
X160870000Y-87597500D01*
X160869169Y-87614408D01*
X160866685Y-87631153D01*
X160862572Y-87647574D01*
X160856869Y-87663513D01*
X160849631Y-87678816D01*
X160840929Y-87693336D01*
X160830844Y-87706933D01*
X160819476Y-87719476D01*
X160806933Y-87730844D01*
X160793336Y-87740929D01*
X160778816Y-87749631D01*
X160763513Y-87756869D01*
X160747574Y-87762572D01*
X160731153Y-87766685D01*
X160714408Y-87769169D01*
X160697500Y-87770000D01*
X160352500Y-87770000D01*
X160335592Y-87769169D01*
X160318847Y-87766685D01*
X160302426Y-87762572D01*
X160286487Y-87756869D01*
X160271184Y-87749631D01*
X160256664Y-87740929D01*
X160243067Y-87730844D01*
X160230524Y-87719476D01*
X160219156Y-87706933D01*
X160209071Y-87693336D01*
X160200369Y-87678816D01*
X160193131Y-87663513D01*
X160187428Y-87647574D01*
X160183315Y-87631153D01*
X160180831Y-87614408D01*
X160180000Y-87597500D01*
X160180000Y-87252500D01*
X160180831Y-87235592D01*
X160183315Y-87218847D01*
X160187428Y-87202426D01*
X160193131Y-87186487D01*
X160200369Y-87171184D01*
X160209071Y-87156664D01*
X160219156Y-87143067D01*
X160230524Y-87130524D01*
X160243067Y-87119156D01*
X160256664Y-87109071D01*
X160271184Y-87100369D01*
X160286487Y-87093131D01*
X160302426Y-87087428D01*
X160318847Y-87083315D01*
X160335592Y-87080831D01*
X160352500Y-87080000D01*
X160697500Y-87080000D01*
X160714408Y-87080831D01*
X160714408Y-87080831D01*
G37*
D12*
X160525000Y-87425000D03*
D10*
G36*
X160714408Y-86230831D02*
G01*
X160731153Y-86233315D01*
X160747574Y-86237428D01*
X160763513Y-86243131D01*
X160778816Y-86250369D01*
X160793336Y-86259071D01*
X160806933Y-86269156D01*
X160819476Y-86280524D01*
X160830844Y-86293067D01*
X160840929Y-86306664D01*
X160849631Y-86321184D01*
X160856869Y-86336487D01*
X160862572Y-86352426D01*
X160866685Y-86368847D01*
X160869169Y-86385592D01*
X160870000Y-86402500D01*
X160870000Y-86747500D01*
X160869169Y-86764408D01*
X160866685Y-86781153D01*
X160862572Y-86797574D01*
X160856869Y-86813513D01*
X160849631Y-86828816D01*
X160840929Y-86843336D01*
X160830844Y-86856933D01*
X160819476Y-86869476D01*
X160806933Y-86880844D01*
X160793336Y-86890929D01*
X160778816Y-86899631D01*
X160763513Y-86906869D01*
X160747574Y-86912572D01*
X160731153Y-86916685D01*
X160714408Y-86919169D01*
X160697500Y-86920000D01*
X160352500Y-86920000D01*
X160335592Y-86919169D01*
X160318847Y-86916685D01*
X160302426Y-86912572D01*
X160286487Y-86906869D01*
X160271184Y-86899631D01*
X160256664Y-86890929D01*
X160243067Y-86880844D01*
X160230524Y-86869476D01*
X160219156Y-86856933D01*
X160209071Y-86843336D01*
X160200369Y-86828816D01*
X160193131Y-86813513D01*
X160187428Y-86797574D01*
X160183315Y-86781153D01*
X160180831Y-86764408D01*
X160180000Y-86747500D01*
X160180000Y-86402500D01*
X160180831Y-86385592D01*
X160183315Y-86368847D01*
X160187428Y-86352426D01*
X160193131Y-86336487D01*
X160200369Y-86321184D01*
X160209071Y-86306664D01*
X160219156Y-86293067D01*
X160230524Y-86280524D01*
X160243067Y-86269156D01*
X160256664Y-86259071D01*
X160271184Y-86250369D01*
X160286487Y-86243131D01*
X160302426Y-86237428D01*
X160318847Y-86233315D01*
X160335592Y-86230831D01*
X160352500Y-86230000D01*
X160697500Y-86230000D01*
X160714408Y-86230831D01*
X160714408Y-86230831D01*
G37*
D12*
X160525000Y-86575000D03*
D10*
G36*
X159864408Y-87080831D02*
G01*
X159881153Y-87083315D01*
X159897574Y-87087428D01*
X159913513Y-87093131D01*
X159928816Y-87100369D01*
X159943336Y-87109071D01*
X159956933Y-87119156D01*
X159969476Y-87130524D01*
X159980844Y-87143067D01*
X159990929Y-87156664D01*
X159999631Y-87171184D01*
X160006869Y-87186487D01*
X160012572Y-87202426D01*
X160016685Y-87218847D01*
X160019169Y-87235592D01*
X160020000Y-87252500D01*
X160020000Y-87597500D01*
X160019169Y-87614408D01*
X160016685Y-87631153D01*
X160012572Y-87647574D01*
X160006869Y-87663513D01*
X159999631Y-87678816D01*
X159990929Y-87693336D01*
X159980844Y-87706933D01*
X159969476Y-87719476D01*
X159956933Y-87730844D01*
X159943336Y-87740929D01*
X159928816Y-87749631D01*
X159913513Y-87756869D01*
X159897574Y-87762572D01*
X159881153Y-87766685D01*
X159864408Y-87769169D01*
X159847500Y-87770000D01*
X159502500Y-87770000D01*
X159485592Y-87769169D01*
X159468847Y-87766685D01*
X159452426Y-87762572D01*
X159436487Y-87756869D01*
X159421184Y-87749631D01*
X159406664Y-87740929D01*
X159393067Y-87730844D01*
X159380524Y-87719476D01*
X159369156Y-87706933D01*
X159359071Y-87693336D01*
X159350369Y-87678816D01*
X159343131Y-87663513D01*
X159337428Y-87647574D01*
X159333315Y-87631153D01*
X159330831Y-87614408D01*
X159330000Y-87597500D01*
X159330000Y-87252500D01*
X159330831Y-87235592D01*
X159333315Y-87218847D01*
X159337428Y-87202426D01*
X159343131Y-87186487D01*
X159350369Y-87171184D01*
X159359071Y-87156664D01*
X159369156Y-87143067D01*
X159380524Y-87130524D01*
X159393067Y-87119156D01*
X159406664Y-87109071D01*
X159421184Y-87100369D01*
X159436487Y-87093131D01*
X159452426Y-87087428D01*
X159468847Y-87083315D01*
X159485592Y-87080831D01*
X159502500Y-87080000D01*
X159847500Y-87080000D01*
X159864408Y-87080831D01*
X159864408Y-87080831D01*
G37*
D12*
X159675000Y-87425000D03*
D10*
G36*
X159864408Y-86230831D02*
G01*
X159881153Y-86233315D01*
X159897574Y-86237428D01*
X159913513Y-86243131D01*
X159928816Y-86250369D01*
X159943336Y-86259071D01*
X159956933Y-86269156D01*
X159969476Y-86280524D01*
X159980844Y-86293067D01*
X159990929Y-86306664D01*
X159999631Y-86321184D01*
X160006869Y-86336487D01*
X160012572Y-86352426D01*
X160016685Y-86368847D01*
X160019169Y-86385592D01*
X160020000Y-86402500D01*
X160020000Y-86747500D01*
X160019169Y-86764408D01*
X160016685Y-86781153D01*
X160012572Y-86797574D01*
X160006869Y-86813513D01*
X159999631Y-86828816D01*
X159990929Y-86843336D01*
X159980844Y-86856933D01*
X159969476Y-86869476D01*
X159956933Y-86880844D01*
X159943336Y-86890929D01*
X159928816Y-86899631D01*
X159913513Y-86906869D01*
X159897574Y-86912572D01*
X159881153Y-86916685D01*
X159864408Y-86919169D01*
X159847500Y-86920000D01*
X159502500Y-86920000D01*
X159485592Y-86919169D01*
X159468847Y-86916685D01*
X159452426Y-86912572D01*
X159436487Y-86906869D01*
X159421184Y-86899631D01*
X159406664Y-86890929D01*
X159393067Y-86880844D01*
X159380524Y-86869476D01*
X159369156Y-86856933D01*
X159359071Y-86843336D01*
X159350369Y-86828816D01*
X159343131Y-86813513D01*
X159337428Y-86797574D01*
X159333315Y-86781153D01*
X159330831Y-86764408D01*
X159330000Y-86747500D01*
X159330000Y-86402500D01*
X159330831Y-86385592D01*
X159333315Y-86368847D01*
X159337428Y-86352426D01*
X159343131Y-86336487D01*
X159350369Y-86321184D01*
X159359071Y-86306664D01*
X159369156Y-86293067D01*
X159380524Y-86280524D01*
X159393067Y-86269156D01*
X159406664Y-86259071D01*
X159421184Y-86250369D01*
X159436487Y-86243131D01*
X159452426Y-86237428D01*
X159468847Y-86233315D01*
X159485592Y-86230831D01*
X159502500Y-86230000D01*
X159847500Y-86230000D01*
X159864408Y-86230831D01*
X159864408Y-86230831D01*
G37*
D12*
X159675000Y-86575000D03*
D10*
G36*
X166729691Y-85086053D02*
G01*
X166750926Y-85089203D01*
X166771750Y-85094419D01*
X166791962Y-85101651D01*
X166811368Y-85110830D01*
X166829781Y-85121866D01*
X166847024Y-85134654D01*
X166862930Y-85149070D01*
X166877346Y-85164976D01*
X166890134Y-85182219D01*
X166901170Y-85200632D01*
X166910349Y-85220038D01*
X166917581Y-85240250D01*
X166922797Y-85261074D01*
X166925947Y-85282309D01*
X166927000Y-85303750D01*
X166927000Y-85816250D01*
X166925947Y-85837691D01*
X166922797Y-85858926D01*
X166917581Y-85879750D01*
X166910349Y-85899962D01*
X166901170Y-85919368D01*
X166890134Y-85937781D01*
X166877346Y-85955024D01*
X166862930Y-85970930D01*
X166847024Y-85985346D01*
X166829781Y-85998134D01*
X166811368Y-86009170D01*
X166791962Y-86018349D01*
X166771750Y-86025581D01*
X166750926Y-86030797D01*
X166729691Y-86033947D01*
X166708250Y-86035000D01*
X166270750Y-86035000D01*
X166249309Y-86033947D01*
X166228074Y-86030797D01*
X166207250Y-86025581D01*
X166187038Y-86018349D01*
X166167632Y-86009170D01*
X166149219Y-85998134D01*
X166131976Y-85985346D01*
X166116070Y-85970930D01*
X166101654Y-85955024D01*
X166088866Y-85937781D01*
X166077830Y-85919368D01*
X166068651Y-85899962D01*
X166061419Y-85879750D01*
X166056203Y-85858926D01*
X166053053Y-85837691D01*
X166052000Y-85816250D01*
X166052000Y-85303750D01*
X166053053Y-85282309D01*
X166056203Y-85261074D01*
X166061419Y-85240250D01*
X166068651Y-85220038D01*
X166077830Y-85200632D01*
X166088866Y-85182219D01*
X166101654Y-85164976D01*
X166116070Y-85149070D01*
X166131976Y-85134654D01*
X166149219Y-85121866D01*
X166167632Y-85110830D01*
X166187038Y-85101651D01*
X166207250Y-85094419D01*
X166228074Y-85089203D01*
X166249309Y-85086053D01*
X166270750Y-85085000D01*
X166708250Y-85085000D01*
X166729691Y-85086053D01*
X166729691Y-85086053D01*
G37*
D13*
X166489500Y-85560000D03*
D10*
G36*
X165154691Y-85086053D02*
G01*
X165175926Y-85089203D01*
X165196750Y-85094419D01*
X165216962Y-85101651D01*
X165236368Y-85110830D01*
X165254781Y-85121866D01*
X165272024Y-85134654D01*
X165287930Y-85149070D01*
X165302346Y-85164976D01*
X165315134Y-85182219D01*
X165326170Y-85200632D01*
X165335349Y-85220038D01*
X165342581Y-85240250D01*
X165347797Y-85261074D01*
X165350947Y-85282309D01*
X165352000Y-85303750D01*
X165352000Y-85816250D01*
X165350947Y-85837691D01*
X165347797Y-85858926D01*
X165342581Y-85879750D01*
X165335349Y-85899962D01*
X165326170Y-85919368D01*
X165315134Y-85937781D01*
X165302346Y-85955024D01*
X165287930Y-85970930D01*
X165272024Y-85985346D01*
X165254781Y-85998134D01*
X165236368Y-86009170D01*
X165216962Y-86018349D01*
X165196750Y-86025581D01*
X165175926Y-86030797D01*
X165154691Y-86033947D01*
X165133250Y-86035000D01*
X164695750Y-86035000D01*
X164674309Y-86033947D01*
X164653074Y-86030797D01*
X164632250Y-86025581D01*
X164612038Y-86018349D01*
X164592632Y-86009170D01*
X164574219Y-85998134D01*
X164556976Y-85985346D01*
X164541070Y-85970930D01*
X164526654Y-85955024D01*
X164513866Y-85937781D01*
X164502830Y-85919368D01*
X164493651Y-85899962D01*
X164486419Y-85879750D01*
X164481203Y-85858926D01*
X164478053Y-85837691D01*
X164477000Y-85816250D01*
X164477000Y-85303750D01*
X164478053Y-85282309D01*
X164481203Y-85261074D01*
X164486419Y-85240250D01*
X164493651Y-85220038D01*
X164502830Y-85200632D01*
X164513866Y-85182219D01*
X164526654Y-85164976D01*
X164541070Y-85149070D01*
X164556976Y-85134654D01*
X164574219Y-85121866D01*
X164592632Y-85110830D01*
X164612038Y-85101651D01*
X164632250Y-85094419D01*
X164653074Y-85089203D01*
X164674309Y-85086053D01*
X164695750Y-85085000D01*
X165133250Y-85085000D01*
X165154691Y-85086053D01*
X165154691Y-85086053D01*
G37*
D13*
X164914500Y-85560000D03*
M02*
