G04 #@! TF.GenerationSoftware,KiCad,Pcbnew,(5.1.2)-1*
G04 #@! TF.CreationDate,2023-06-08T23:46:24+09:00*
G04 #@! TF.ProjectId,ma73x,6d613733-782e-46b6-9963-61645f706362,v1.1*
G04 #@! TF.SameCoordinates,Original*
G04 #@! TF.FileFunction,Copper,L2,Bot*
G04 #@! TF.FilePolarity,Positive*
%FSLAX46Y46*%
G04 Gerber Fmt 4.6, Leading zero omitted, Abs format (unit mm)*
G04 Created by KiCad (PCBNEW (5.1.2)-1) date 2023-06-08 23:46:24*
%MOMM*%
%LPD*%
G04 APERTURE LIST*
%ADD10O,1.700000X1.700000*%
%ADD11R,1.700000X1.700000*%
%ADD12C,0.800000*%
%ADD13C,0.250000*%
%ADD14C,0.254000*%
%ADD15C,0.025400*%
G04 APERTURE END LIST*
D10*
X166420000Y-93300000D03*
X163880000Y-93300000D03*
X161340000Y-93300000D03*
X158800000Y-93300000D03*
X156260000Y-93300000D03*
D11*
X153720000Y-93300000D03*
D12*
X165084600Y-86970400D03*
X163910000Y-90450000D03*
X168230000Y-87170000D03*
X158499600Y-88476600D03*
X162812127Y-87013785D03*
D13*
X164404200Y-86290000D02*
X165084600Y-86970400D01*
X163160129Y-86288783D02*
X163161346Y-86290000D01*
X162464125Y-86288783D02*
X163160129Y-86288783D01*
X163161346Y-86290000D02*
X164404200Y-86290000D01*
X162462908Y-86290000D02*
X162464125Y-86288783D01*
X161800000Y-86290000D02*
X162462908Y-86290000D01*
X156260000Y-93300000D02*
X156260000Y-91940000D01*
X156375000Y-91825000D02*
X157025000Y-91825000D01*
X157025000Y-91825000D02*
X159530000Y-89320000D01*
X159530000Y-89320000D02*
X159530000Y-88560000D01*
X156260000Y-91940000D02*
X156375000Y-91825000D01*
X159530000Y-88560000D02*
X161800000Y-86290000D01*
X166420000Y-93300000D02*
X166420000Y-87236900D01*
X166420000Y-87236900D02*
X164710400Y-85527300D01*
X164710400Y-85527300D02*
X161448900Y-85527300D01*
X161448900Y-85527300D02*
X158499600Y-88476600D01*
X162412128Y-87413784D02*
X162812127Y-87013785D01*
X161340000Y-93300000D02*
X161340000Y-88485912D01*
X161340000Y-88485912D02*
X162412128Y-87413784D01*
D14*
G36*
X169340001Y-94340000D02*
G01*
X167487554Y-94340000D01*
X167660706Y-94129014D01*
X167798599Y-93871034D01*
X167883513Y-93591111D01*
X167912185Y-93300000D01*
X167883513Y-93008889D01*
X167798599Y-92728966D01*
X167660706Y-92470986D01*
X167652491Y-92460976D01*
X167625874Y-92417059D01*
X167537451Y-92285232D01*
X167511267Y-92249018D01*
X167423505Y-92136221D01*
X167410574Y-92120147D01*
X167329934Y-92023175D01*
X167270074Y-91948358D01*
X167235860Y-91898233D01*
X167216701Y-91860899D01*
X167201372Y-91815224D01*
X167187406Y-91736959D01*
X167180000Y-91593611D01*
X167180000Y-87274233D01*
X167183677Y-87236900D01*
X167169003Y-87087914D01*
X167125546Y-86944653D01*
X167054974Y-86812624D01*
X166983799Y-86725897D01*
X166960001Y-86696899D01*
X166931003Y-86673101D01*
X165274204Y-85016303D01*
X165250401Y-84987299D01*
X165134676Y-84892326D01*
X165002647Y-84821754D01*
X164859386Y-84778297D01*
X164747733Y-84767300D01*
X164747722Y-84767300D01*
X164710400Y-84763624D01*
X164673078Y-84767300D01*
X161486222Y-84767300D01*
X161448899Y-84763624D01*
X161411576Y-84767300D01*
X161411567Y-84767300D01*
X161299914Y-84778297D01*
X161156653Y-84821754D01*
X161024623Y-84892326D01*
X160940983Y-84960968D01*
X160908899Y-84987299D01*
X160885101Y-85016297D01*
X158528934Y-87372465D01*
X158491329Y-87407448D01*
X158485561Y-87411944D01*
X158476088Y-87414471D01*
X158431800Y-87424460D01*
X158431611Y-87424502D01*
X158370751Y-87438248D01*
X158351275Y-87442972D01*
X158284136Y-87460380D01*
X158252596Y-87469433D01*
X158243811Y-87472203D01*
X158197702Y-87481374D01*
X158009344Y-87559395D01*
X157839826Y-87672663D01*
X157695663Y-87816826D01*
X157582395Y-87986344D01*
X157504374Y-88174702D01*
X157464600Y-88374661D01*
X157464600Y-88578539D01*
X157504374Y-88778498D01*
X157582395Y-88966856D01*
X157695663Y-89136374D01*
X157839826Y-89280537D01*
X158009344Y-89393805D01*
X158197702Y-89471826D01*
X158397661Y-89511600D01*
X158601539Y-89511600D01*
X158801498Y-89471826D01*
X158989856Y-89393805D01*
X159159374Y-89280537D01*
X159303537Y-89136374D01*
X159416805Y-88966856D01*
X159494826Y-88778498D01*
X159503999Y-88732381D01*
X159506769Y-88723594D01*
X159515819Y-88692063D01*
X159533227Y-88624924D01*
X159537951Y-88605448D01*
X159551697Y-88544588D01*
X159551739Y-88544399D01*
X159561728Y-88500111D01*
X159564255Y-88490638D01*
X159568745Y-88484878D01*
X159603740Y-88447261D01*
X161763702Y-86287300D01*
X162074901Y-86287300D01*
X162008190Y-86354011D01*
X161894922Y-86523529D01*
X161816901Y-86711887D01*
X161807882Y-86757228D01*
X161804770Y-86767058D01*
X161796092Y-86797004D01*
X161778189Y-86864984D01*
X161773729Y-86882983D01*
X161759663Y-86943520D01*
X161749228Y-86988096D01*
X161745810Y-87000444D01*
X161737814Y-87010631D01*
X161701164Y-87049946D01*
X160828998Y-87922113D01*
X160800000Y-87945911D01*
X160776202Y-87974909D01*
X160776201Y-87974910D01*
X160705026Y-88061636D01*
X160634454Y-88193666D01*
X160613521Y-88262676D01*
X160593823Y-88327615D01*
X160590998Y-88336927D01*
X160576324Y-88485912D01*
X160580001Y-88523244D01*
X160580000Y-91593599D01*
X160572593Y-91736959D01*
X160558627Y-91815224D01*
X160543298Y-91860899D01*
X160524139Y-91898233D01*
X160489925Y-91948358D01*
X160430065Y-92023175D01*
X160349425Y-92120147D01*
X160336494Y-92136221D01*
X160248732Y-92249018D01*
X160222548Y-92285232D01*
X160134125Y-92417059D01*
X160107505Y-92460981D01*
X160099294Y-92470986D01*
X160070000Y-92525791D01*
X160040706Y-92470986D01*
X159855134Y-92244866D01*
X159629014Y-92059294D01*
X159371034Y-91921401D01*
X159091111Y-91836487D01*
X158872950Y-91815000D01*
X158727050Y-91815000D01*
X158508889Y-91836487D01*
X158228966Y-91921401D01*
X157970986Y-92059294D01*
X157744866Y-92244866D01*
X157559294Y-92470986D01*
X157524799Y-92535523D01*
X157455178Y-92418645D01*
X157260269Y-92202412D01*
X157026920Y-92028359D01*
X156764099Y-91903175D01*
X156616890Y-91858524D01*
X156387000Y-91979845D01*
X156387000Y-93173000D01*
X156407000Y-93173000D01*
X156407000Y-93427000D01*
X156387000Y-93427000D01*
X156387000Y-93447000D01*
X156133000Y-93447000D01*
X156133000Y-93427000D01*
X156113000Y-93427000D01*
X156113000Y-93173000D01*
X156133000Y-93173000D01*
X156133000Y-91979845D01*
X155903110Y-91858524D01*
X155755901Y-91903175D01*
X155493080Y-92028359D01*
X155259731Y-92202412D01*
X155183966Y-92286466D01*
X155159502Y-92205820D01*
X155100537Y-92095506D01*
X155021185Y-91998815D01*
X154924494Y-91919463D01*
X154814180Y-91860498D01*
X154694482Y-91824188D01*
X154570000Y-91811928D01*
X152870000Y-91811928D01*
X152745518Y-91824188D01*
X152625820Y-91860498D01*
X152515506Y-91919463D01*
X152418815Y-91998815D01*
X152339463Y-92095506D01*
X152280498Y-92205820D01*
X152244188Y-92325518D01*
X152231928Y-92450000D01*
X152231928Y-94150000D01*
X152244188Y-94274482D01*
X152264063Y-94340000D01*
X150660000Y-94340000D01*
X150660000Y-84660000D01*
X169340000Y-84660000D01*
X169340001Y-94340000D01*
X169340001Y-94340000D01*
G37*
X169340001Y-94340000D02*
X167487554Y-94340000D01*
X167660706Y-94129014D01*
X167798599Y-93871034D01*
X167883513Y-93591111D01*
X167912185Y-93300000D01*
X167883513Y-93008889D01*
X167798599Y-92728966D01*
X167660706Y-92470986D01*
X167652491Y-92460976D01*
X167625874Y-92417059D01*
X167537451Y-92285232D01*
X167511267Y-92249018D01*
X167423505Y-92136221D01*
X167410574Y-92120147D01*
X167329934Y-92023175D01*
X167270074Y-91948358D01*
X167235860Y-91898233D01*
X167216701Y-91860899D01*
X167201372Y-91815224D01*
X167187406Y-91736959D01*
X167180000Y-91593611D01*
X167180000Y-87274233D01*
X167183677Y-87236900D01*
X167169003Y-87087914D01*
X167125546Y-86944653D01*
X167054974Y-86812624D01*
X166983799Y-86725897D01*
X166960001Y-86696899D01*
X166931003Y-86673101D01*
X165274204Y-85016303D01*
X165250401Y-84987299D01*
X165134676Y-84892326D01*
X165002647Y-84821754D01*
X164859386Y-84778297D01*
X164747733Y-84767300D01*
X164747722Y-84767300D01*
X164710400Y-84763624D01*
X164673078Y-84767300D01*
X161486222Y-84767300D01*
X161448899Y-84763624D01*
X161411576Y-84767300D01*
X161411567Y-84767300D01*
X161299914Y-84778297D01*
X161156653Y-84821754D01*
X161024623Y-84892326D01*
X160940983Y-84960968D01*
X160908899Y-84987299D01*
X160885101Y-85016297D01*
X158528934Y-87372465D01*
X158491329Y-87407448D01*
X158485561Y-87411944D01*
X158476088Y-87414471D01*
X158431800Y-87424460D01*
X158431611Y-87424502D01*
X158370751Y-87438248D01*
X158351275Y-87442972D01*
X158284136Y-87460380D01*
X158252596Y-87469433D01*
X158243811Y-87472203D01*
X158197702Y-87481374D01*
X158009344Y-87559395D01*
X157839826Y-87672663D01*
X157695663Y-87816826D01*
X157582395Y-87986344D01*
X157504374Y-88174702D01*
X157464600Y-88374661D01*
X157464600Y-88578539D01*
X157504374Y-88778498D01*
X157582395Y-88966856D01*
X157695663Y-89136374D01*
X157839826Y-89280537D01*
X158009344Y-89393805D01*
X158197702Y-89471826D01*
X158397661Y-89511600D01*
X158601539Y-89511600D01*
X158801498Y-89471826D01*
X158989856Y-89393805D01*
X159159374Y-89280537D01*
X159303537Y-89136374D01*
X159416805Y-88966856D01*
X159494826Y-88778498D01*
X159503999Y-88732381D01*
X159506769Y-88723594D01*
X159515819Y-88692063D01*
X159533227Y-88624924D01*
X159537951Y-88605448D01*
X159551697Y-88544588D01*
X159551739Y-88544399D01*
X159561728Y-88500111D01*
X159564255Y-88490638D01*
X159568745Y-88484878D01*
X159603740Y-88447261D01*
X161763702Y-86287300D01*
X162074901Y-86287300D01*
X162008190Y-86354011D01*
X161894922Y-86523529D01*
X161816901Y-86711887D01*
X161807882Y-86757228D01*
X161804770Y-86767058D01*
X161796092Y-86797004D01*
X161778189Y-86864984D01*
X161773729Y-86882983D01*
X161759663Y-86943520D01*
X161749228Y-86988096D01*
X161745810Y-87000444D01*
X161737814Y-87010631D01*
X161701164Y-87049946D01*
X160828998Y-87922113D01*
X160800000Y-87945911D01*
X160776202Y-87974909D01*
X160776201Y-87974910D01*
X160705026Y-88061636D01*
X160634454Y-88193666D01*
X160613521Y-88262676D01*
X160593823Y-88327615D01*
X160590998Y-88336927D01*
X160576324Y-88485912D01*
X160580001Y-88523244D01*
X160580000Y-91593599D01*
X160572593Y-91736959D01*
X160558627Y-91815224D01*
X160543298Y-91860899D01*
X160524139Y-91898233D01*
X160489925Y-91948358D01*
X160430065Y-92023175D01*
X160349425Y-92120147D01*
X160336494Y-92136221D01*
X160248732Y-92249018D01*
X160222548Y-92285232D01*
X160134125Y-92417059D01*
X160107505Y-92460981D01*
X160099294Y-92470986D01*
X160070000Y-92525791D01*
X160040706Y-92470986D01*
X159855134Y-92244866D01*
X159629014Y-92059294D01*
X159371034Y-91921401D01*
X159091111Y-91836487D01*
X158872950Y-91815000D01*
X158727050Y-91815000D01*
X158508889Y-91836487D01*
X158228966Y-91921401D01*
X157970986Y-92059294D01*
X157744866Y-92244866D01*
X157559294Y-92470986D01*
X157524799Y-92535523D01*
X157455178Y-92418645D01*
X157260269Y-92202412D01*
X157026920Y-92028359D01*
X156764099Y-91903175D01*
X156616890Y-91858524D01*
X156387000Y-91979845D01*
X156387000Y-93173000D01*
X156407000Y-93173000D01*
X156407000Y-93427000D01*
X156387000Y-93427000D01*
X156387000Y-93447000D01*
X156133000Y-93447000D01*
X156133000Y-93427000D01*
X156113000Y-93427000D01*
X156113000Y-93173000D01*
X156133000Y-93173000D01*
X156133000Y-91979845D01*
X155903110Y-91858524D01*
X155755901Y-91903175D01*
X155493080Y-92028359D01*
X155259731Y-92202412D01*
X155183966Y-92286466D01*
X155159502Y-92205820D01*
X155100537Y-92095506D01*
X155021185Y-91998815D01*
X154924494Y-91919463D01*
X154814180Y-91860498D01*
X154694482Y-91824188D01*
X154570000Y-91811928D01*
X152870000Y-91811928D01*
X152745518Y-91824188D01*
X152625820Y-91860498D01*
X152515506Y-91919463D01*
X152418815Y-91998815D01*
X152339463Y-92095506D01*
X152280498Y-92205820D01*
X152244188Y-92325518D01*
X152231928Y-92450000D01*
X152231928Y-94150000D01*
X152244188Y-94274482D01*
X152264063Y-94340000D01*
X150660000Y-94340000D01*
X150660000Y-84660000D01*
X169340000Y-84660000D01*
X169340001Y-94340000D01*
G36*
X165660001Y-87551703D02*
G01*
X165660000Y-91593601D01*
X165652593Y-91736959D01*
X165638627Y-91815224D01*
X165623298Y-91860899D01*
X165604139Y-91898233D01*
X165569925Y-91948358D01*
X165510065Y-92023175D01*
X165429425Y-92120147D01*
X165416494Y-92136221D01*
X165328732Y-92249018D01*
X165302548Y-92285232D01*
X165214125Y-92417059D01*
X165187505Y-92460981D01*
X165179294Y-92470986D01*
X165150000Y-92525791D01*
X165120706Y-92470986D01*
X164935134Y-92244866D01*
X164709014Y-92059294D01*
X164451034Y-91921401D01*
X164171111Y-91836487D01*
X163952950Y-91815000D01*
X163807050Y-91815000D01*
X163588889Y-91836487D01*
X163308966Y-91921401D01*
X163050986Y-92059294D01*
X162824866Y-92244866D01*
X162639294Y-92470986D01*
X162610000Y-92525791D01*
X162580706Y-92470986D01*
X162572491Y-92460976D01*
X162545874Y-92417059D01*
X162457451Y-92285232D01*
X162431267Y-92249018D01*
X162343505Y-92136221D01*
X162330574Y-92120147D01*
X162249934Y-92023175D01*
X162190074Y-91948358D01*
X162155860Y-91898233D01*
X162136701Y-91860899D01*
X162121372Y-91815224D01*
X162107406Y-91736959D01*
X162100000Y-91593611D01*
X162100000Y-88800713D01*
X162775979Y-88124734D01*
X162815280Y-88088096D01*
X162825467Y-88080101D01*
X162837815Y-88076683D01*
X162882221Y-88066288D01*
X162942928Y-88052182D01*
X162960927Y-88047722D01*
X163028907Y-88029819D01*
X163058843Y-88021144D01*
X163068673Y-88018032D01*
X163114025Y-88009011D01*
X163302383Y-87930990D01*
X163471901Y-87817722D01*
X163616064Y-87673559D01*
X163729332Y-87504041D01*
X163807353Y-87315683D01*
X163847127Y-87115724D01*
X163847127Y-86911846D01*
X163807353Y-86711887D01*
X163729332Y-86523529D01*
X163616064Y-86354011D01*
X163549353Y-86287300D01*
X164395599Y-86287300D01*
X165660001Y-87551703D01*
X165660001Y-87551703D01*
G37*
X165660001Y-87551703D02*
X165660000Y-91593601D01*
X165652593Y-91736959D01*
X165638627Y-91815224D01*
X165623298Y-91860899D01*
X165604139Y-91898233D01*
X165569925Y-91948358D01*
X165510065Y-92023175D01*
X165429425Y-92120147D01*
X165416494Y-92136221D01*
X165328732Y-92249018D01*
X165302548Y-92285232D01*
X165214125Y-92417059D01*
X165187505Y-92460981D01*
X165179294Y-92470986D01*
X165150000Y-92525791D01*
X165120706Y-92470986D01*
X164935134Y-92244866D01*
X164709014Y-92059294D01*
X164451034Y-91921401D01*
X164171111Y-91836487D01*
X163952950Y-91815000D01*
X163807050Y-91815000D01*
X163588889Y-91836487D01*
X163308966Y-91921401D01*
X163050986Y-92059294D01*
X162824866Y-92244866D01*
X162639294Y-92470986D01*
X162610000Y-92525791D01*
X162580706Y-92470986D01*
X162572491Y-92460976D01*
X162545874Y-92417059D01*
X162457451Y-92285232D01*
X162431267Y-92249018D01*
X162343505Y-92136221D01*
X162330574Y-92120147D01*
X162249934Y-92023175D01*
X162190074Y-91948358D01*
X162155860Y-91898233D01*
X162136701Y-91860899D01*
X162121372Y-91815224D01*
X162107406Y-91736959D01*
X162100000Y-91593611D01*
X162100000Y-88800713D01*
X162775979Y-88124734D01*
X162815280Y-88088096D01*
X162825467Y-88080101D01*
X162837815Y-88076683D01*
X162882221Y-88066288D01*
X162942928Y-88052182D01*
X162960927Y-88047722D01*
X163028907Y-88029819D01*
X163058843Y-88021144D01*
X163068673Y-88018032D01*
X163114025Y-88009011D01*
X163302383Y-87930990D01*
X163471901Y-87817722D01*
X163616064Y-87673559D01*
X163729332Y-87504041D01*
X163807353Y-87315683D01*
X163847127Y-87115724D01*
X163847127Y-86911846D01*
X163807353Y-86711887D01*
X163729332Y-86523529D01*
X163616064Y-86354011D01*
X163549353Y-86287300D01*
X164395599Y-86287300D01*
X165660001Y-87551703D01*
D15*
G36*
X166542619Y-91810053D02*
G01*
X166542799Y-91811629D01*
X166571970Y-91975103D01*
X166572433Y-91976913D01*
X166617874Y-92112314D01*
X166618615Y-92114071D01*
X166677722Y-92229249D01*
X166678532Y-92230611D01*
X166748706Y-92333418D01*
X166749278Y-92334192D01*
X166827915Y-92432478D01*
X166828067Y-92432664D01*
X166912440Y-92534125D01*
X166999799Y-92646404D01*
X167087642Y-92777366D01*
X167169395Y-92927399D01*
X166420000Y-93706678D01*
X165670605Y-92927399D01*
X165752357Y-92777366D01*
X165840200Y-92646404D01*
X165927559Y-92534125D01*
X166011932Y-92432664D01*
X166012084Y-92432478D01*
X166090721Y-92334192D01*
X166091293Y-92333418D01*
X166161467Y-92230611D01*
X166162277Y-92229249D01*
X166221384Y-92114071D01*
X166222125Y-92112314D01*
X166267566Y-91976913D01*
X166268029Y-91975103D01*
X166297200Y-91811629D01*
X166297380Y-91810053D01*
X166307061Y-91622700D01*
X166532939Y-91622700D01*
X166542619Y-91810053D01*
X166542619Y-91810053D01*
G37*
X166542619Y-91810053D02*
X166542799Y-91811629D01*
X166571970Y-91975103D01*
X166572433Y-91976913D01*
X166617874Y-92112314D01*
X166618615Y-92114071D01*
X166677722Y-92229249D01*
X166678532Y-92230611D01*
X166748706Y-92333418D01*
X166749278Y-92334192D01*
X166827915Y-92432478D01*
X166828067Y-92432664D01*
X166912440Y-92534125D01*
X166999799Y-92646404D01*
X167087642Y-92777366D01*
X167169395Y-92927399D01*
X166420000Y-93706678D01*
X165670605Y-92927399D01*
X165752357Y-92777366D01*
X165840200Y-92646404D01*
X165927559Y-92534125D01*
X166011932Y-92432664D01*
X166012084Y-92432478D01*
X166090721Y-92334192D01*
X166091293Y-92333418D01*
X166161467Y-92230611D01*
X166162277Y-92229249D01*
X166221384Y-92114071D01*
X166222125Y-92112314D01*
X166267566Y-91976913D01*
X166268029Y-91975103D01*
X166297200Y-91811629D01*
X166297380Y-91810053D01*
X166307061Y-91622700D01*
X166532939Y-91622700D01*
X166542619Y-91810053D01*
G36*
X159128961Y-88006694D02*
G01*
X159075648Y-88064000D01*
X159074929Y-88064843D01*
X159027998Y-88125055D01*
X159027236Y-88126147D01*
X158992404Y-88182060D01*
X158991712Y-88183325D01*
X158966351Y-88236700D01*
X158965842Y-88237933D01*
X158947326Y-88290536D01*
X158947035Y-88291479D01*
X158932736Y-88345071D01*
X158932618Y-88345551D01*
X158919911Y-88401891D01*
X158906205Y-88462576D01*
X158888935Y-88529181D01*
X158868077Y-88595350D01*
X158371135Y-88605065D01*
X158380850Y-88108123D01*
X158447018Y-88087264D01*
X158513623Y-88069994D01*
X158574304Y-88056289D01*
X158630648Y-88043581D01*
X158631128Y-88043463D01*
X158684720Y-88029164D01*
X158685663Y-88028873D01*
X158738266Y-88010357D01*
X158739499Y-88009848D01*
X158792874Y-87984487D01*
X158794139Y-87983795D01*
X158850052Y-87948963D01*
X158851144Y-87948201D01*
X158911356Y-87901270D01*
X158912199Y-87900552D01*
X158969507Y-87847240D01*
X159128961Y-88006694D01*
X159128961Y-88006694D01*
G37*
X159128961Y-88006694D02*
X159075648Y-88064000D01*
X159074929Y-88064843D01*
X159027998Y-88125055D01*
X159027236Y-88126147D01*
X158992404Y-88182060D01*
X158991712Y-88183325D01*
X158966351Y-88236700D01*
X158965842Y-88237933D01*
X158947326Y-88290536D01*
X158947035Y-88291479D01*
X158932736Y-88345071D01*
X158932618Y-88345551D01*
X158919911Y-88401891D01*
X158906205Y-88462576D01*
X158888935Y-88529181D01*
X158868077Y-88595350D01*
X158371135Y-88605065D01*
X158380850Y-88108123D01*
X158447018Y-88087264D01*
X158513623Y-88069994D01*
X158574304Y-88056289D01*
X158630648Y-88043581D01*
X158631128Y-88043463D01*
X158684720Y-88029164D01*
X158685663Y-88028873D01*
X158738266Y-88010357D01*
X158739499Y-88009848D01*
X158792874Y-87984487D01*
X158794139Y-87983795D01*
X158850052Y-87948963D01*
X158851144Y-87948201D01*
X158911356Y-87901270D01*
X158912199Y-87900552D01*
X158969507Y-87847240D01*
X159128961Y-88006694D01*
G36*
X162930877Y-87382273D02*
G01*
X162863643Y-87403558D01*
X162796148Y-87421334D01*
X162734775Y-87435594D01*
X162734754Y-87435598D01*
X162677809Y-87448929D01*
X162677316Y-87449055D01*
X162623180Y-87464038D01*
X162622240Y-87464338D01*
X162569108Y-87483598D01*
X162567893Y-87484111D01*
X162513959Y-87510274D01*
X162512723Y-87510962D01*
X162456181Y-87546653D01*
X162455119Y-87547402D01*
X162394163Y-87595245D01*
X162393344Y-87595946D01*
X162335139Y-87650207D01*
X162175705Y-87490773D01*
X162229966Y-87432567D01*
X162230666Y-87431748D01*
X162278509Y-87370792D01*
X162279258Y-87369730D01*
X162314949Y-87313188D01*
X162315637Y-87311952D01*
X162341800Y-87258018D01*
X162342313Y-87256803D01*
X162361573Y-87203671D01*
X162361873Y-87202731D01*
X162376856Y-87148595D01*
X162376982Y-87148102D01*
X162390313Y-87091157D01*
X162390317Y-87091136D01*
X162404577Y-87029763D01*
X162422353Y-86962269D01*
X162443639Y-86895035D01*
X162940592Y-86885320D01*
X162930877Y-87382273D01*
X162930877Y-87382273D01*
G37*
X162930877Y-87382273D02*
X162863643Y-87403558D01*
X162796148Y-87421334D01*
X162734775Y-87435594D01*
X162734754Y-87435598D01*
X162677809Y-87448929D01*
X162677316Y-87449055D01*
X162623180Y-87464038D01*
X162622240Y-87464338D01*
X162569108Y-87483598D01*
X162567893Y-87484111D01*
X162513959Y-87510274D01*
X162512723Y-87510962D01*
X162456181Y-87546653D01*
X162455119Y-87547402D01*
X162394163Y-87595245D01*
X162393344Y-87595946D01*
X162335139Y-87650207D01*
X162175705Y-87490773D01*
X162229966Y-87432567D01*
X162230666Y-87431748D01*
X162278509Y-87370792D01*
X162279258Y-87369730D01*
X162314949Y-87313188D01*
X162315637Y-87311952D01*
X162341800Y-87258018D01*
X162342313Y-87256803D01*
X162361573Y-87203671D01*
X162361873Y-87202731D01*
X162376856Y-87148595D01*
X162376982Y-87148102D01*
X162390313Y-87091157D01*
X162390317Y-87091136D01*
X162404577Y-87029763D01*
X162422353Y-86962269D01*
X162443639Y-86895035D01*
X162940592Y-86885320D01*
X162930877Y-87382273D01*
G36*
X161462619Y-91810053D02*
G01*
X161462799Y-91811629D01*
X161491970Y-91975103D01*
X161492433Y-91976913D01*
X161537874Y-92112314D01*
X161538615Y-92114071D01*
X161597722Y-92229249D01*
X161598532Y-92230611D01*
X161668706Y-92333418D01*
X161669278Y-92334192D01*
X161747915Y-92432478D01*
X161748067Y-92432664D01*
X161832440Y-92534125D01*
X161919799Y-92646404D01*
X162007642Y-92777366D01*
X162089395Y-92927399D01*
X161340000Y-93706678D01*
X160590605Y-92927399D01*
X160672357Y-92777366D01*
X160760200Y-92646404D01*
X160847559Y-92534125D01*
X160931932Y-92432664D01*
X160932084Y-92432478D01*
X161010721Y-92334192D01*
X161011293Y-92333418D01*
X161081467Y-92230611D01*
X161082277Y-92229249D01*
X161141384Y-92114071D01*
X161142125Y-92112314D01*
X161187566Y-91976913D01*
X161188029Y-91975103D01*
X161217200Y-91811629D01*
X161217380Y-91810053D01*
X161227061Y-91622700D01*
X161452939Y-91622700D01*
X161462619Y-91810053D01*
X161462619Y-91810053D01*
G37*
X161462619Y-91810053D02*
X161462799Y-91811629D01*
X161491970Y-91975103D01*
X161492433Y-91976913D01*
X161537874Y-92112314D01*
X161538615Y-92114071D01*
X161597722Y-92229249D01*
X161598532Y-92230611D01*
X161668706Y-92333418D01*
X161669278Y-92334192D01*
X161747915Y-92432478D01*
X161748067Y-92432664D01*
X161832440Y-92534125D01*
X161919799Y-92646404D01*
X162007642Y-92777366D01*
X162089395Y-92927399D01*
X161340000Y-93706678D01*
X160590605Y-92927399D01*
X160672357Y-92777366D01*
X160760200Y-92646404D01*
X160847559Y-92534125D01*
X160931932Y-92432664D01*
X160932084Y-92432478D01*
X161010721Y-92334192D01*
X161011293Y-92333418D01*
X161081467Y-92230611D01*
X161082277Y-92229249D01*
X161141384Y-92114071D01*
X161142125Y-92112314D01*
X161187566Y-91976913D01*
X161188029Y-91975103D01*
X161217200Y-91811629D01*
X161217380Y-91810053D01*
X161227061Y-91622700D01*
X161452939Y-91622700D01*
X161462619Y-91810053D01*
M02*
