G04 #@! TF.GenerationSoftware,KiCad,Pcbnew,(5.1.2)-1*
G04 #@! TF.CreationDate,2023-06-08T23:46:24+09:00*
G04 #@! TF.ProjectId,ma73x,6d613733-782e-46b6-9963-61645f706362,v1.1*
G04 #@! TF.SameCoordinates,Original*
G04 #@! TF.FileFunction,Copper,L1,Top*
G04 #@! TF.FilePolarity,Positive*
%FSLAX46Y46*%
G04 Gerber Fmt 4.6, Leading zero omitted, Abs format (unit mm)*
G04 Created by KiCad (PCBNEW (5.1.2)-1) date 2023-06-08 23:46:24*
%MOMM*%
%LPD*%
G04 APERTURE LIST*
%ADD10C,0.100000*%
%ADD11C,0.250000*%
%ADD12C,1.700000*%
%ADD13O,1.700000X1.700000*%
%ADD14R,1.700000X1.700000*%
%ADD15C,0.875000*%
%ADD16C,0.800000*%
%ADD17C,0.250000*%
%ADD18C,0.254000*%
%ADD19C,0.025400*%
G04 APERTURE END LIST*
D10*
G36*
X159418626Y-85125301D02*
G01*
X159424693Y-85126201D01*
X159430643Y-85127691D01*
X159436418Y-85129758D01*
X159441962Y-85132380D01*
X159447223Y-85135533D01*
X159452150Y-85139187D01*
X159456694Y-85143306D01*
X159460813Y-85147850D01*
X159464467Y-85152777D01*
X159467620Y-85158038D01*
X159470242Y-85163582D01*
X159472309Y-85169357D01*
X159473799Y-85175307D01*
X159474699Y-85181374D01*
X159475000Y-85187500D01*
X159475000Y-85887500D01*
X159474699Y-85893626D01*
X159473799Y-85899693D01*
X159472309Y-85905643D01*
X159470242Y-85911418D01*
X159467620Y-85916962D01*
X159464467Y-85922223D01*
X159460813Y-85927150D01*
X159456694Y-85931694D01*
X159452150Y-85935813D01*
X159447223Y-85939467D01*
X159441962Y-85942620D01*
X159436418Y-85945242D01*
X159430643Y-85947309D01*
X159424693Y-85948799D01*
X159418626Y-85949699D01*
X159412500Y-85950000D01*
X159287500Y-85950000D01*
X159281374Y-85949699D01*
X159275307Y-85948799D01*
X159269357Y-85947309D01*
X159263582Y-85945242D01*
X159258038Y-85942620D01*
X159252777Y-85939467D01*
X159247850Y-85935813D01*
X159243306Y-85931694D01*
X159239187Y-85927150D01*
X159235533Y-85922223D01*
X159232380Y-85916962D01*
X159229758Y-85911418D01*
X159227691Y-85905643D01*
X159226201Y-85899693D01*
X159225301Y-85893626D01*
X159225000Y-85887500D01*
X159225000Y-85187500D01*
X159225301Y-85181374D01*
X159226201Y-85175307D01*
X159227691Y-85169357D01*
X159229758Y-85163582D01*
X159232380Y-85158038D01*
X159235533Y-85152777D01*
X159239187Y-85147850D01*
X159243306Y-85143306D01*
X159247850Y-85139187D01*
X159252777Y-85135533D01*
X159258038Y-85132380D01*
X159263582Y-85129758D01*
X159269357Y-85127691D01*
X159275307Y-85126201D01*
X159281374Y-85125301D01*
X159287500Y-85125000D01*
X159412500Y-85125000D01*
X159418626Y-85125301D01*
X159418626Y-85125301D01*
G37*
D11*
X159350000Y-85537500D03*
D10*
G36*
X159918626Y-85125301D02*
G01*
X159924693Y-85126201D01*
X159930643Y-85127691D01*
X159936418Y-85129758D01*
X159941962Y-85132380D01*
X159947223Y-85135533D01*
X159952150Y-85139187D01*
X159956694Y-85143306D01*
X159960813Y-85147850D01*
X159964467Y-85152777D01*
X159967620Y-85158038D01*
X159970242Y-85163582D01*
X159972309Y-85169357D01*
X159973799Y-85175307D01*
X159974699Y-85181374D01*
X159975000Y-85187500D01*
X159975000Y-85887500D01*
X159974699Y-85893626D01*
X159973799Y-85899693D01*
X159972309Y-85905643D01*
X159970242Y-85911418D01*
X159967620Y-85916962D01*
X159964467Y-85922223D01*
X159960813Y-85927150D01*
X159956694Y-85931694D01*
X159952150Y-85935813D01*
X159947223Y-85939467D01*
X159941962Y-85942620D01*
X159936418Y-85945242D01*
X159930643Y-85947309D01*
X159924693Y-85948799D01*
X159918626Y-85949699D01*
X159912500Y-85950000D01*
X159787500Y-85950000D01*
X159781374Y-85949699D01*
X159775307Y-85948799D01*
X159769357Y-85947309D01*
X159763582Y-85945242D01*
X159758038Y-85942620D01*
X159752777Y-85939467D01*
X159747850Y-85935813D01*
X159743306Y-85931694D01*
X159739187Y-85927150D01*
X159735533Y-85922223D01*
X159732380Y-85916962D01*
X159729758Y-85911418D01*
X159727691Y-85905643D01*
X159726201Y-85899693D01*
X159725301Y-85893626D01*
X159725000Y-85887500D01*
X159725000Y-85187500D01*
X159725301Y-85181374D01*
X159726201Y-85175307D01*
X159727691Y-85169357D01*
X159729758Y-85163582D01*
X159732380Y-85158038D01*
X159735533Y-85152777D01*
X159739187Y-85147850D01*
X159743306Y-85143306D01*
X159747850Y-85139187D01*
X159752777Y-85135533D01*
X159758038Y-85132380D01*
X159763582Y-85129758D01*
X159769357Y-85127691D01*
X159775307Y-85126201D01*
X159781374Y-85125301D01*
X159787500Y-85125000D01*
X159912500Y-85125000D01*
X159918626Y-85125301D01*
X159918626Y-85125301D01*
G37*
D11*
X159850000Y-85537500D03*
D10*
G36*
X160418626Y-85125301D02*
G01*
X160424693Y-85126201D01*
X160430643Y-85127691D01*
X160436418Y-85129758D01*
X160441962Y-85132380D01*
X160447223Y-85135533D01*
X160452150Y-85139187D01*
X160456694Y-85143306D01*
X160460813Y-85147850D01*
X160464467Y-85152777D01*
X160467620Y-85158038D01*
X160470242Y-85163582D01*
X160472309Y-85169357D01*
X160473799Y-85175307D01*
X160474699Y-85181374D01*
X160475000Y-85187500D01*
X160475000Y-85887500D01*
X160474699Y-85893626D01*
X160473799Y-85899693D01*
X160472309Y-85905643D01*
X160470242Y-85911418D01*
X160467620Y-85916962D01*
X160464467Y-85922223D01*
X160460813Y-85927150D01*
X160456694Y-85931694D01*
X160452150Y-85935813D01*
X160447223Y-85939467D01*
X160441962Y-85942620D01*
X160436418Y-85945242D01*
X160430643Y-85947309D01*
X160424693Y-85948799D01*
X160418626Y-85949699D01*
X160412500Y-85950000D01*
X160287500Y-85950000D01*
X160281374Y-85949699D01*
X160275307Y-85948799D01*
X160269357Y-85947309D01*
X160263582Y-85945242D01*
X160258038Y-85942620D01*
X160252777Y-85939467D01*
X160247850Y-85935813D01*
X160243306Y-85931694D01*
X160239187Y-85927150D01*
X160235533Y-85922223D01*
X160232380Y-85916962D01*
X160229758Y-85911418D01*
X160227691Y-85905643D01*
X160226201Y-85899693D01*
X160225301Y-85893626D01*
X160225000Y-85887500D01*
X160225000Y-85187500D01*
X160225301Y-85181374D01*
X160226201Y-85175307D01*
X160227691Y-85169357D01*
X160229758Y-85163582D01*
X160232380Y-85158038D01*
X160235533Y-85152777D01*
X160239187Y-85147850D01*
X160243306Y-85143306D01*
X160247850Y-85139187D01*
X160252777Y-85135533D01*
X160258038Y-85132380D01*
X160263582Y-85129758D01*
X160269357Y-85127691D01*
X160275307Y-85126201D01*
X160281374Y-85125301D01*
X160287500Y-85125000D01*
X160412500Y-85125000D01*
X160418626Y-85125301D01*
X160418626Y-85125301D01*
G37*
D11*
X160350000Y-85537500D03*
D10*
G36*
X160918626Y-85125301D02*
G01*
X160924693Y-85126201D01*
X160930643Y-85127691D01*
X160936418Y-85129758D01*
X160941962Y-85132380D01*
X160947223Y-85135533D01*
X160952150Y-85139187D01*
X160956694Y-85143306D01*
X160960813Y-85147850D01*
X160964467Y-85152777D01*
X160967620Y-85158038D01*
X160970242Y-85163582D01*
X160972309Y-85169357D01*
X160973799Y-85175307D01*
X160974699Y-85181374D01*
X160975000Y-85187500D01*
X160975000Y-85887500D01*
X160974699Y-85893626D01*
X160973799Y-85899693D01*
X160972309Y-85905643D01*
X160970242Y-85911418D01*
X160967620Y-85916962D01*
X160964467Y-85922223D01*
X160960813Y-85927150D01*
X160956694Y-85931694D01*
X160952150Y-85935813D01*
X160947223Y-85939467D01*
X160941962Y-85942620D01*
X160936418Y-85945242D01*
X160930643Y-85947309D01*
X160924693Y-85948799D01*
X160918626Y-85949699D01*
X160912500Y-85950000D01*
X160787500Y-85950000D01*
X160781374Y-85949699D01*
X160775307Y-85948799D01*
X160769357Y-85947309D01*
X160763582Y-85945242D01*
X160758038Y-85942620D01*
X160752777Y-85939467D01*
X160747850Y-85935813D01*
X160743306Y-85931694D01*
X160739187Y-85927150D01*
X160735533Y-85922223D01*
X160732380Y-85916962D01*
X160729758Y-85911418D01*
X160727691Y-85905643D01*
X160726201Y-85899693D01*
X160725301Y-85893626D01*
X160725000Y-85887500D01*
X160725000Y-85187500D01*
X160725301Y-85181374D01*
X160726201Y-85175307D01*
X160727691Y-85169357D01*
X160729758Y-85163582D01*
X160732380Y-85158038D01*
X160735533Y-85152777D01*
X160739187Y-85147850D01*
X160743306Y-85143306D01*
X160747850Y-85139187D01*
X160752777Y-85135533D01*
X160758038Y-85132380D01*
X160763582Y-85129758D01*
X160769357Y-85127691D01*
X160775307Y-85126201D01*
X160781374Y-85125301D01*
X160787500Y-85125000D01*
X160912500Y-85125000D01*
X160918626Y-85125301D01*
X160918626Y-85125301D01*
G37*
D11*
X160850000Y-85537500D03*
D10*
G36*
X161918626Y-86125301D02*
G01*
X161924693Y-86126201D01*
X161930643Y-86127691D01*
X161936418Y-86129758D01*
X161941962Y-86132380D01*
X161947223Y-86135533D01*
X161952150Y-86139187D01*
X161956694Y-86143306D01*
X161960813Y-86147850D01*
X161964467Y-86152777D01*
X161967620Y-86158038D01*
X161970242Y-86163582D01*
X161972309Y-86169357D01*
X161973799Y-86175307D01*
X161974699Y-86181374D01*
X161975000Y-86187500D01*
X161975000Y-86312500D01*
X161974699Y-86318626D01*
X161973799Y-86324693D01*
X161972309Y-86330643D01*
X161970242Y-86336418D01*
X161967620Y-86341962D01*
X161964467Y-86347223D01*
X161960813Y-86352150D01*
X161956694Y-86356694D01*
X161952150Y-86360813D01*
X161947223Y-86364467D01*
X161941962Y-86367620D01*
X161936418Y-86370242D01*
X161930643Y-86372309D01*
X161924693Y-86373799D01*
X161918626Y-86374699D01*
X161912500Y-86375000D01*
X161212500Y-86375000D01*
X161206374Y-86374699D01*
X161200307Y-86373799D01*
X161194357Y-86372309D01*
X161188582Y-86370242D01*
X161183038Y-86367620D01*
X161177777Y-86364467D01*
X161172850Y-86360813D01*
X161168306Y-86356694D01*
X161164187Y-86352150D01*
X161160533Y-86347223D01*
X161157380Y-86341962D01*
X161154758Y-86336418D01*
X161152691Y-86330643D01*
X161151201Y-86324693D01*
X161150301Y-86318626D01*
X161150000Y-86312500D01*
X161150000Y-86187500D01*
X161150301Y-86181374D01*
X161151201Y-86175307D01*
X161152691Y-86169357D01*
X161154758Y-86163582D01*
X161157380Y-86158038D01*
X161160533Y-86152777D01*
X161164187Y-86147850D01*
X161168306Y-86143306D01*
X161172850Y-86139187D01*
X161177777Y-86135533D01*
X161183038Y-86132380D01*
X161188582Y-86129758D01*
X161194357Y-86127691D01*
X161200307Y-86126201D01*
X161206374Y-86125301D01*
X161212500Y-86125000D01*
X161912500Y-86125000D01*
X161918626Y-86125301D01*
X161918626Y-86125301D01*
G37*
D11*
X161562500Y-86250000D03*
D10*
G36*
X161918626Y-86625301D02*
G01*
X161924693Y-86626201D01*
X161930643Y-86627691D01*
X161936418Y-86629758D01*
X161941962Y-86632380D01*
X161947223Y-86635533D01*
X161952150Y-86639187D01*
X161956694Y-86643306D01*
X161960813Y-86647850D01*
X161964467Y-86652777D01*
X161967620Y-86658038D01*
X161970242Y-86663582D01*
X161972309Y-86669357D01*
X161973799Y-86675307D01*
X161974699Y-86681374D01*
X161975000Y-86687500D01*
X161975000Y-86812500D01*
X161974699Y-86818626D01*
X161973799Y-86824693D01*
X161972309Y-86830643D01*
X161970242Y-86836418D01*
X161967620Y-86841962D01*
X161964467Y-86847223D01*
X161960813Y-86852150D01*
X161956694Y-86856694D01*
X161952150Y-86860813D01*
X161947223Y-86864467D01*
X161941962Y-86867620D01*
X161936418Y-86870242D01*
X161930643Y-86872309D01*
X161924693Y-86873799D01*
X161918626Y-86874699D01*
X161912500Y-86875000D01*
X161212500Y-86875000D01*
X161206374Y-86874699D01*
X161200307Y-86873799D01*
X161194357Y-86872309D01*
X161188582Y-86870242D01*
X161183038Y-86867620D01*
X161177777Y-86864467D01*
X161172850Y-86860813D01*
X161168306Y-86856694D01*
X161164187Y-86852150D01*
X161160533Y-86847223D01*
X161157380Y-86841962D01*
X161154758Y-86836418D01*
X161152691Y-86830643D01*
X161151201Y-86824693D01*
X161150301Y-86818626D01*
X161150000Y-86812500D01*
X161150000Y-86687500D01*
X161150301Y-86681374D01*
X161151201Y-86675307D01*
X161152691Y-86669357D01*
X161154758Y-86663582D01*
X161157380Y-86658038D01*
X161160533Y-86652777D01*
X161164187Y-86647850D01*
X161168306Y-86643306D01*
X161172850Y-86639187D01*
X161177777Y-86635533D01*
X161183038Y-86632380D01*
X161188582Y-86629758D01*
X161194357Y-86627691D01*
X161200307Y-86626201D01*
X161206374Y-86625301D01*
X161212500Y-86625000D01*
X161912500Y-86625000D01*
X161918626Y-86625301D01*
X161918626Y-86625301D01*
G37*
D11*
X161562500Y-86750000D03*
D10*
G36*
X161918626Y-87125301D02*
G01*
X161924693Y-87126201D01*
X161930643Y-87127691D01*
X161936418Y-87129758D01*
X161941962Y-87132380D01*
X161947223Y-87135533D01*
X161952150Y-87139187D01*
X161956694Y-87143306D01*
X161960813Y-87147850D01*
X161964467Y-87152777D01*
X161967620Y-87158038D01*
X161970242Y-87163582D01*
X161972309Y-87169357D01*
X161973799Y-87175307D01*
X161974699Y-87181374D01*
X161975000Y-87187500D01*
X161975000Y-87312500D01*
X161974699Y-87318626D01*
X161973799Y-87324693D01*
X161972309Y-87330643D01*
X161970242Y-87336418D01*
X161967620Y-87341962D01*
X161964467Y-87347223D01*
X161960813Y-87352150D01*
X161956694Y-87356694D01*
X161952150Y-87360813D01*
X161947223Y-87364467D01*
X161941962Y-87367620D01*
X161936418Y-87370242D01*
X161930643Y-87372309D01*
X161924693Y-87373799D01*
X161918626Y-87374699D01*
X161912500Y-87375000D01*
X161212500Y-87375000D01*
X161206374Y-87374699D01*
X161200307Y-87373799D01*
X161194357Y-87372309D01*
X161188582Y-87370242D01*
X161183038Y-87367620D01*
X161177777Y-87364467D01*
X161172850Y-87360813D01*
X161168306Y-87356694D01*
X161164187Y-87352150D01*
X161160533Y-87347223D01*
X161157380Y-87341962D01*
X161154758Y-87336418D01*
X161152691Y-87330643D01*
X161151201Y-87324693D01*
X161150301Y-87318626D01*
X161150000Y-87312500D01*
X161150000Y-87187500D01*
X161150301Y-87181374D01*
X161151201Y-87175307D01*
X161152691Y-87169357D01*
X161154758Y-87163582D01*
X161157380Y-87158038D01*
X161160533Y-87152777D01*
X161164187Y-87147850D01*
X161168306Y-87143306D01*
X161172850Y-87139187D01*
X161177777Y-87135533D01*
X161183038Y-87132380D01*
X161188582Y-87129758D01*
X161194357Y-87127691D01*
X161200307Y-87126201D01*
X161206374Y-87125301D01*
X161212500Y-87125000D01*
X161912500Y-87125000D01*
X161918626Y-87125301D01*
X161918626Y-87125301D01*
G37*
D11*
X161562500Y-87250000D03*
D10*
G36*
X161918626Y-87625301D02*
G01*
X161924693Y-87626201D01*
X161930643Y-87627691D01*
X161936418Y-87629758D01*
X161941962Y-87632380D01*
X161947223Y-87635533D01*
X161952150Y-87639187D01*
X161956694Y-87643306D01*
X161960813Y-87647850D01*
X161964467Y-87652777D01*
X161967620Y-87658038D01*
X161970242Y-87663582D01*
X161972309Y-87669357D01*
X161973799Y-87675307D01*
X161974699Y-87681374D01*
X161975000Y-87687500D01*
X161975000Y-87812500D01*
X161974699Y-87818626D01*
X161973799Y-87824693D01*
X161972309Y-87830643D01*
X161970242Y-87836418D01*
X161967620Y-87841962D01*
X161964467Y-87847223D01*
X161960813Y-87852150D01*
X161956694Y-87856694D01*
X161952150Y-87860813D01*
X161947223Y-87864467D01*
X161941962Y-87867620D01*
X161936418Y-87870242D01*
X161930643Y-87872309D01*
X161924693Y-87873799D01*
X161918626Y-87874699D01*
X161912500Y-87875000D01*
X161212500Y-87875000D01*
X161206374Y-87874699D01*
X161200307Y-87873799D01*
X161194357Y-87872309D01*
X161188582Y-87870242D01*
X161183038Y-87867620D01*
X161177777Y-87864467D01*
X161172850Y-87860813D01*
X161168306Y-87856694D01*
X161164187Y-87852150D01*
X161160533Y-87847223D01*
X161157380Y-87841962D01*
X161154758Y-87836418D01*
X161152691Y-87830643D01*
X161151201Y-87824693D01*
X161150301Y-87818626D01*
X161150000Y-87812500D01*
X161150000Y-87687500D01*
X161150301Y-87681374D01*
X161151201Y-87675307D01*
X161152691Y-87669357D01*
X161154758Y-87663582D01*
X161157380Y-87658038D01*
X161160533Y-87652777D01*
X161164187Y-87647850D01*
X161168306Y-87643306D01*
X161172850Y-87639187D01*
X161177777Y-87635533D01*
X161183038Y-87632380D01*
X161188582Y-87629758D01*
X161194357Y-87627691D01*
X161200307Y-87626201D01*
X161206374Y-87625301D01*
X161212500Y-87625000D01*
X161912500Y-87625000D01*
X161918626Y-87625301D01*
X161918626Y-87625301D01*
G37*
D11*
X161562500Y-87750000D03*
D10*
G36*
X160918626Y-88050301D02*
G01*
X160924693Y-88051201D01*
X160930643Y-88052691D01*
X160936418Y-88054758D01*
X160941962Y-88057380D01*
X160947223Y-88060533D01*
X160952150Y-88064187D01*
X160956694Y-88068306D01*
X160960813Y-88072850D01*
X160964467Y-88077777D01*
X160967620Y-88083038D01*
X160970242Y-88088582D01*
X160972309Y-88094357D01*
X160973799Y-88100307D01*
X160974699Y-88106374D01*
X160975000Y-88112500D01*
X160975000Y-88812500D01*
X160974699Y-88818626D01*
X160973799Y-88824693D01*
X160972309Y-88830643D01*
X160970242Y-88836418D01*
X160967620Y-88841962D01*
X160964467Y-88847223D01*
X160960813Y-88852150D01*
X160956694Y-88856694D01*
X160952150Y-88860813D01*
X160947223Y-88864467D01*
X160941962Y-88867620D01*
X160936418Y-88870242D01*
X160930643Y-88872309D01*
X160924693Y-88873799D01*
X160918626Y-88874699D01*
X160912500Y-88875000D01*
X160787500Y-88875000D01*
X160781374Y-88874699D01*
X160775307Y-88873799D01*
X160769357Y-88872309D01*
X160763582Y-88870242D01*
X160758038Y-88867620D01*
X160752777Y-88864467D01*
X160747850Y-88860813D01*
X160743306Y-88856694D01*
X160739187Y-88852150D01*
X160735533Y-88847223D01*
X160732380Y-88841962D01*
X160729758Y-88836418D01*
X160727691Y-88830643D01*
X160726201Y-88824693D01*
X160725301Y-88818626D01*
X160725000Y-88812500D01*
X160725000Y-88112500D01*
X160725301Y-88106374D01*
X160726201Y-88100307D01*
X160727691Y-88094357D01*
X160729758Y-88088582D01*
X160732380Y-88083038D01*
X160735533Y-88077777D01*
X160739187Y-88072850D01*
X160743306Y-88068306D01*
X160747850Y-88064187D01*
X160752777Y-88060533D01*
X160758038Y-88057380D01*
X160763582Y-88054758D01*
X160769357Y-88052691D01*
X160775307Y-88051201D01*
X160781374Y-88050301D01*
X160787500Y-88050000D01*
X160912500Y-88050000D01*
X160918626Y-88050301D01*
X160918626Y-88050301D01*
G37*
D11*
X160850000Y-88462500D03*
D10*
G36*
X160418626Y-88050301D02*
G01*
X160424693Y-88051201D01*
X160430643Y-88052691D01*
X160436418Y-88054758D01*
X160441962Y-88057380D01*
X160447223Y-88060533D01*
X160452150Y-88064187D01*
X160456694Y-88068306D01*
X160460813Y-88072850D01*
X160464467Y-88077777D01*
X160467620Y-88083038D01*
X160470242Y-88088582D01*
X160472309Y-88094357D01*
X160473799Y-88100307D01*
X160474699Y-88106374D01*
X160475000Y-88112500D01*
X160475000Y-88812500D01*
X160474699Y-88818626D01*
X160473799Y-88824693D01*
X160472309Y-88830643D01*
X160470242Y-88836418D01*
X160467620Y-88841962D01*
X160464467Y-88847223D01*
X160460813Y-88852150D01*
X160456694Y-88856694D01*
X160452150Y-88860813D01*
X160447223Y-88864467D01*
X160441962Y-88867620D01*
X160436418Y-88870242D01*
X160430643Y-88872309D01*
X160424693Y-88873799D01*
X160418626Y-88874699D01*
X160412500Y-88875000D01*
X160287500Y-88875000D01*
X160281374Y-88874699D01*
X160275307Y-88873799D01*
X160269357Y-88872309D01*
X160263582Y-88870242D01*
X160258038Y-88867620D01*
X160252777Y-88864467D01*
X160247850Y-88860813D01*
X160243306Y-88856694D01*
X160239187Y-88852150D01*
X160235533Y-88847223D01*
X160232380Y-88841962D01*
X160229758Y-88836418D01*
X160227691Y-88830643D01*
X160226201Y-88824693D01*
X160225301Y-88818626D01*
X160225000Y-88812500D01*
X160225000Y-88112500D01*
X160225301Y-88106374D01*
X160226201Y-88100307D01*
X160227691Y-88094357D01*
X160229758Y-88088582D01*
X160232380Y-88083038D01*
X160235533Y-88077777D01*
X160239187Y-88072850D01*
X160243306Y-88068306D01*
X160247850Y-88064187D01*
X160252777Y-88060533D01*
X160258038Y-88057380D01*
X160263582Y-88054758D01*
X160269357Y-88052691D01*
X160275307Y-88051201D01*
X160281374Y-88050301D01*
X160287500Y-88050000D01*
X160412500Y-88050000D01*
X160418626Y-88050301D01*
X160418626Y-88050301D01*
G37*
D11*
X160350000Y-88462500D03*
D10*
G36*
X159918626Y-88050301D02*
G01*
X159924693Y-88051201D01*
X159930643Y-88052691D01*
X159936418Y-88054758D01*
X159941962Y-88057380D01*
X159947223Y-88060533D01*
X159952150Y-88064187D01*
X159956694Y-88068306D01*
X159960813Y-88072850D01*
X159964467Y-88077777D01*
X159967620Y-88083038D01*
X159970242Y-88088582D01*
X159972309Y-88094357D01*
X159973799Y-88100307D01*
X159974699Y-88106374D01*
X159975000Y-88112500D01*
X159975000Y-88812500D01*
X159974699Y-88818626D01*
X159973799Y-88824693D01*
X159972309Y-88830643D01*
X159970242Y-88836418D01*
X159967620Y-88841962D01*
X159964467Y-88847223D01*
X159960813Y-88852150D01*
X159956694Y-88856694D01*
X159952150Y-88860813D01*
X159947223Y-88864467D01*
X159941962Y-88867620D01*
X159936418Y-88870242D01*
X159930643Y-88872309D01*
X159924693Y-88873799D01*
X159918626Y-88874699D01*
X159912500Y-88875000D01*
X159787500Y-88875000D01*
X159781374Y-88874699D01*
X159775307Y-88873799D01*
X159769357Y-88872309D01*
X159763582Y-88870242D01*
X159758038Y-88867620D01*
X159752777Y-88864467D01*
X159747850Y-88860813D01*
X159743306Y-88856694D01*
X159739187Y-88852150D01*
X159735533Y-88847223D01*
X159732380Y-88841962D01*
X159729758Y-88836418D01*
X159727691Y-88830643D01*
X159726201Y-88824693D01*
X159725301Y-88818626D01*
X159725000Y-88812500D01*
X159725000Y-88112500D01*
X159725301Y-88106374D01*
X159726201Y-88100307D01*
X159727691Y-88094357D01*
X159729758Y-88088582D01*
X159732380Y-88083038D01*
X159735533Y-88077777D01*
X159739187Y-88072850D01*
X159743306Y-88068306D01*
X159747850Y-88064187D01*
X159752777Y-88060533D01*
X159758038Y-88057380D01*
X159763582Y-88054758D01*
X159769357Y-88052691D01*
X159775307Y-88051201D01*
X159781374Y-88050301D01*
X159787500Y-88050000D01*
X159912500Y-88050000D01*
X159918626Y-88050301D01*
X159918626Y-88050301D01*
G37*
D11*
X159850000Y-88462500D03*
D10*
G36*
X159418626Y-88050301D02*
G01*
X159424693Y-88051201D01*
X159430643Y-88052691D01*
X159436418Y-88054758D01*
X159441962Y-88057380D01*
X159447223Y-88060533D01*
X159452150Y-88064187D01*
X159456694Y-88068306D01*
X159460813Y-88072850D01*
X159464467Y-88077777D01*
X159467620Y-88083038D01*
X159470242Y-88088582D01*
X159472309Y-88094357D01*
X159473799Y-88100307D01*
X159474699Y-88106374D01*
X159475000Y-88112500D01*
X159475000Y-88812500D01*
X159474699Y-88818626D01*
X159473799Y-88824693D01*
X159472309Y-88830643D01*
X159470242Y-88836418D01*
X159467620Y-88841962D01*
X159464467Y-88847223D01*
X159460813Y-88852150D01*
X159456694Y-88856694D01*
X159452150Y-88860813D01*
X159447223Y-88864467D01*
X159441962Y-88867620D01*
X159436418Y-88870242D01*
X159430643Y-88872309D01*
X159424693Y-88873799D01*
X159418626Y-88874699D01*
X159412500Y-88875000D01*
X159287500Y-88875000D01*
X159281374Y-88874699D01*
X159275307Y-88873799D01*
X159269357Y-88872309D01*
X159263582Y-88870242D01*
X159258038Y-88867620D01*
X159252777Y-88864467D01*
X159247850Y-88860813D01*
X159243306Y-88856694D01*
X159239187Y-88852150D01*
X159235533Y-88847223D01*
X159232380Y-88841962D01*
X159229758Y-88836418D01*
X159227691Y-88830643D01*
X159226201Y-88824693D01*
X159225301Y-88818626D01*
X159225000Y-88812500D01*
X159225000Y-88112500D01*
X159225301Y-88106374D01*
X159226201Y-88100307D01*
X159227691Y-88094357D01*
X159229758Y-88088582D01*
X159232380Y-88083038D01*
X159235533Y-88077777D01*
X159239187Y-88072850D01*
X159243306Y-88068306D01*
X159247850Y-88064187D01*
X159252777Y-88060533D01*
X159258038Y-88057380D01*
X159263582Y-88054758D01*
X159269357Y-88052691D01*
X159275307Y-88051201D01*
X159281374Y-88050301D01*
X159287500Y-88050000D01*
X159412500Y-88050000D01*
X159418626Y-88050301D01*
X159418626Y-88050301D01*
G37*
D11*
X159350000Y-88462500D03*
D10*
G36*
X158993626Y-87625301D02*
G01*
X158999693Y-87626201D01*
X159005643Y-87627691D01*
X159011418Y-87629758D01*
X159016962Y-87632380D01*
X159022223Y-87635533D01*
X159027150Y-87639187D01*
X159031694Y-87643306D01*
X159035813Y-87647850D01*
X159039467Y-87652777D01*
X159042620Y-87658038D01*
X159045242Y-87663582D01*
X159047309Y-87669357D01*
X159048799Y-87675307D01*
X159049699Y-87681374D01*
X159050000Y-87687500D01*
X159050000Y-87812500D01*
X159049699Y-87818626D01*
X159048799Y-87824693D01*
X159047309Y-87830643D01*
X159045242Y-87836418D01*
X159042620Y-87841962D01*
X159039467Y-87847223D01*
X159035813Y-87852150D01*
X159031694Y-87856694D01*
X159027150Y-87860813D01*
X159022223Y-87864467D01*
X159016962Y-87867620D01*
X159011418Y-87870242D01*
X159005643Y-87872309D01*
X158999693Y-87873799D01*
X158993626Y-87874699D01*
X158987500Y-87875000D01*
X158287500Y-87875000D01*
X158281374Y-87874699D01*
X158275307Y-87873799D01*
X158269357Y-87872309D01*
X158263582Y-87870242D01*
X158258038Y-87867620D01*
X158252777Y-87864467D01*
X158247850Y-87860813D01*
X158243306Y-87856694D01*
X158239187Y-87852150D01*
X158235533Y-87847223D01*
X158232380Y-87841962D01*
X158229758Y-87836418D01*
X158227691Y-87830643D01*
X158226201Y-87824693D01*
X158225301Y-87818626D01*
X158225000Y-87812500D01*
X158225000Y-87687500D01*
X158225301Y-87681374D01*
X158226201Y-87675307D01*
X158227691Y-87669357D01*
X158229758Y-87663582D01*
X158232380Y-87658038D01*
X158235533Y-87652777D01*
X158239187Y-87647850D01*
X158243306Y-87643306D01*
X158247850Y-87639187D01*
X158252777Y-87635533D01*
X158258038Y-87632380D01*
X158263582Y-87629758D01*
X158269357Y-87627691D01*
X158275307Y-87626201D01*
X158281374Y-87625301D01*
X158287500Y-87625000D01*
X158987500Y-87625000D01*
X158993626Y-87625301D01*
X158993626Y-87625301D01*
G37*
D11*
X158637500Y-87750000D03*
D10*
G36*
X158993626Y-87125301D02*
G01*
X158999693Y-87126201D01*
X159005643Y-87127691D01*
X159011418Y-87129758D01*
X159016962Y-87132380D01*
X159022223Y-87135533D01*
X159027150Y-87139187D01*
X159031694Y-87143306D01*
X159035813Y-87147850D01*
X159039467Y-87152777D01*
X159042620Y-87158038D01*
X159045242Y-87163582D01*
X159047309Y-87169357D01*
X159048799Y-87175307D01*
X159049699Y-87181374D01*
X159050000Y-87187500D01*
X159050000Y-87312500D01*
X159049699Y-87318626D01*
X159048799Y-87324693D01*
X159047309Y-87330643D01*
X159045242Y-87336418D01*
X159042620Y-87341962D01*
X159039467Y-87347223D01*
X159035813Y-87352150D01*
X159031694Y-87356694D01*
X159027150Y-87360813D01*
X159022223Y-87364467D01*
X159016962Y-87367620D01*
X159011418Y-87370242D01*
X159005643Y-87372309D01*
X158999693Y-87373799D01*
X158993626Y-87374699D01*
X158987500Y-87375000D01*
X158287500Y-87375000D01*
X158281374Y-87374699D01*
X158275307Y-87373799D01*
X158269357Y-87372309D01*
X158263582Y-87370242D01*
X158258038Y-87367620D01*
X158252777Y-87364467D01*
X158247850Y-87360813D01*
X158243306Y-87356694D01*
X158239187Y-87352150D01*
X158235533Y-87347223D01*
X158232380Y-87341962D01*
X158229758Y-87336418D01*
X158227691Y-87330643D01*
X158226201Y-87324693D01*
X158225301Y-87318626D01*
X158225000Y-87312500D01*
X158225000Y-87187500D01*
X158225301Y-87181374D01*
X158226201Y-87175307D01*
X158227691Y-87169357D01*
X158229758Y-87163582D01*
X158232380Y-87158038D01*
X158235533Y-87152777D01*
X158239187Y-87147850D01*
X158243306Y-87143306D01*
X158247850Y-87139187D01*
X158252777Y-87135533D01*
X158258038Y-87132380D01*
X158263582Y-87129758D01*
X158269357Y-87127691D01*
X158275307Y-87126201D01*
X158281374Y-87125301D01*
X158287500Y-87125000D01*
X158987500Y-87125000D01*
X158993626Y-87125301D01*
X158993626Y-87125301D01*
G37*
D11*
X158637500Y-87250000D03*
D10*
G36*
X158993626Y-86625301D02*
G01*
X158999693Y-86626201D01*
X159005643Y-86627691D01*
X159011418Y-86629758D01*
X159016962Y-86632380D01*
X159022223Y-86635533D01*
X159027150Y-86639187D01*
X159031694Y-86643306D01*
X159035813Y-86647850D01*
X159039467Y-86652777D01*
X159042620Y-86658038D01*
X159045242Y-86663582D01*
X159047309Y-86669357D01*
X159048799Y-86675307D01*
X159049699Y-86681374D01*
X159050000Y-86687500D01*
X159050000Y-86812500D01*
X159049699Y-86818626D01*
X159048799Y-86824693D01*
X159047309Y-86830643D01*
X159045242Y-86836418D01*
X159042620Y-86841962D01*
X159039467Y-86847223D01*
X159035813Y-86852150D01*
X159031694Y-86856694D01*
X159027150Y-86860813D01*
X159022223Y-86864467D01*
X159016962Y-86867620D01*
X159011418Y-86870242D01*
X159005643Y-86872309D01*
X158999693Y-86873799D01*
X158993626Y-86874699D01*
X158987500Y-86875000D01*
X158287500Y-86875000D01*
X158281374Y-86874699D01*
X158275307Y-86873799D01*
X158269357Y-86872309D01*
X158263582Y-86870242D01*
X158258038Y-86867620D01*
X158252777Y-86864467D01*
X158247850Y-86860813D01*
X158243306Y-86856694D01*
X158239187Y-86852150D01*
X158235533Y-86847223D01*
X158232380Y-86841962D01*
X158229758Y-86836418D01*
X158227691Y-86830643D01*
X158226201Y-86824693D01*
X158225301Y-86818626D01*
X158225000Y-86812500D01*
X158225000Y-86687500D01*
X158225301Y-86681374D01*
X158226201Y-86675307D01*
X158227691Y-86669357D01*
X158229758Y-86663582D01*
X158232380Y-86658038D01*
X158235533Y-86652777D01*
X158239187Y-86647850D01*
X158243306Y-86643306D01*
X158247850Y-86639187D01*
X158252777Y-86635533D01*
X158258038Y-86632380D01*
X158263582Y-86629758D01*
X158269357Y-86627691D01*
X158275307Y-86626201D01*
X158281374Y-86625301D01*
X158287500Y-86625000D01*
X158987500Y-86625000D01*
X158993626Y-86625301D01*
X158993626Y-86625301D01*
G37*
D11*
X158637500Y-86750000D03*
D10*
G36*
X158993626Y-86125301D02*
G01*
X158999693Y-86126201D01*
X159005643Y-86127691D01*
X159011418Y-86129758D01*
X159016962Y-86132380D01*
X159022223Y-86135533D01*
X159027150Y-86139187D01*
X159031694Y-86143306D01*
X159035813Y-86147850D01*
X159039467Y-86152777D01*
X159042620Y-86158038D01*
X159045242Y-86163582D01*
X159047309Y-86169357D01*
X159048799Y-86175307D01*
X159049699Y-86181374D01*
X159050000Y-86187500D01*
X159050000Y-86312500D01*
X159049699Y-86318626D01*
X159048799Y-86324693D01*
X159047309Y-86330643D01*
X159045242Y-86336418D01*
X159042620Y-86341962D01*
X159039467Y-86347223D01*
X159035813Y-86352150D01*
X159031694Y-86356694D01*
X159027150Y-86360813D01*
X159022223Y-86364467D01*
X159016962Y-86367620D01*
X159011418Y-86370242D01*
X159005643Y-86372309D01*
X158999693Y-86373799D01*
X158993626Y-86374699D01*
X158987500Y-86375000D01*
X158287500Y-86375000D01*
X158281374Y-86374699D01*
X158275307Y-86373799D01*
X158269357Y-86372309D01*
X158263582Y-86370242D01*
X158258038Y-86367620D01*
X158252777Y-86364467D01*
X158247850Y-86360813D01*
X158243306Y-86356694D01*
X158239187Y-86352150D01*
X158235533Y-86347223D01*
X158232380Y-86341962D01*
X158229758Y-86336418D01*
X158227691Y-86330643D01*
X158226201Y-86324693D01*
X158225301Y-86318626D01*
X158225000Y-86312500D01*
X158225000Y-86187500D01*
X158225301Y-86181374D01*
X158226201Y-86175307D01*
X158227691Y-86169357D01*
X158229758Y-86163582D01*
X158232380Y-86158038D01*
X158235533Y-86152777D01*
X158239187Y-86147850D01*
X158243306Y-86143306D01*
X158247850Y-86139187D01*
X158252777Y-86135533D01*
X158258038Y-86132380D01*
X158263582Y-86129758D01*
X158269357Y-86127691D01*
X158275307Y-86126201D01*
X158281374Y-86125301D01*
X158287500Y-86125000D01*
X158987500Y-86125000D01*
X158993626Y-86125301D01*
X158993626Y-86125301D01*
G37*
D11*
X158637500Y-86250000D03*
D10*
G36*
X160724504Y-86151204D02*
G01*
X160748773Y-86154804D01*
X160772571Y-86160765D01*
X160795671Y-86169030D01*
X160817849Y-86179520D01*
X160838893Y-86192133D01*
X160858598Y-86206747D01*
X160876777Y-86223223D01*
X160893253Y-86241402D01*
X160907867Y-86261107D01*
X160920480Y-86282151D01*
X160930970Y-86304329D01*
X160939235Y-86327429D01*
X160945196Y-86351227D01*
X160948796Y-86375496D01*
X160950000Y-86400000D01*
X160950000Y-87600000D01*
X160948796Y-87624504D01*
X160945196Y-87648773D01*
X160939235Y-87672571D01*
X160930970Y-87695671D01*
X160920480Y-87717849D01*
X160907867Y-87738893D01*
X160893253Y-87758598D01*
X160876777Y-87776777D01*
X160858598Y-87793253D01*
X160838893Y-87807867D01*
X160817849Y-87820480D01*
X160795671Y-87830970D01*
X160772571Y-87839235D01*
X160748773Y-87845196D01*
X160724504Y-87848796D01*
X160700000Y-87850000D01*
X159500000Y-87850000D01*
X159475496Y-87848796D01*
X159451227Y-87845196D01*
X159427429Y-87839235D01*
X159404329Y-87830970D01*
X159382151Y-87820480D01*
X159361107Y-87807867D01*
X159341402Y-87793253D01*
X159323223Y-87776777D01*
X159306747Y-87758598D01*
X159292133Y-87738893D01*
X159279520Y-87717849D01*
X159269030Y-87695671D01*
X159260765Y-87672571D01*
X159254804Y-87648773D01*
X159251204Y-87624504D01*
X159250000Y-87600000D01*
X159250000Y-86400000D01*
X159251204Y-86375496D01*
X159254804Y-86351227D01*
X159260765Y-86327429D01*
X159269030Y-86304329D01*
X159279520Y-86282151D01*
X159292133Y-86261107D01*
X159306747Y-86241402D01*
X159323223Y-86223223D01*
X159341402Y-86206747D01*
X159361107Y-86192133D01*
X159382151Y-86179520D01*
X159404329Y-86169030D01*
X159427429Y-86160765D01*
X159451227Y-86154804D01*
X159475496Y-86151204D01*
X159500000Y-86150000D01*
X160700000Y-86150000D01*
X160724504Y-86151204D01*
X160724504Y-86151204D01*
G37*
D12*
X160100000Y-87000000D03*
D13*
X166420000Y-93300000D03*
X163880000Y-93300000D03*
X161340000Y-93300000D03*
X158800000Y-93300000D03*
X156260000Y-93300000D03*
D14*
X153720000Y-93300000D03*
D10*
G36*
X166729691Y-85086053D02*
G01*
X166750926Y-85089203D01*
X166771750Y-85094419D01*
X166791962Y-85101651D01*
X166811368Y-85110830D01*
X166829781Y-85121866D01*
X166847024Y-85134654D01*
X166862930Y-85149070D01*
X166877346Y-85164976D01*
X166890134Y-85182219D01*
X166901170Y-85200632D01*
X166910349Y-85220038D01*
X166917581Y-85240250D01*
X166922797Y-85261074D01*
X166925947Y-85282309D01*
X166927000Y-85303750D01*
X166927000Y-85816250D01*
X166925947Y-85837691D01*
X166922797Y-85858926D01*
X166917581Y-85879750D01*
X166910349Y-85899962D01*
X166901170Y-85919368D01*
X166890134Y-85937781D01*
X166877346Y-85955024D01*
X166862930Y-85970930D01*
X166847024Y-85985346D01*
X166829781Y-85998134D01*
X166811368Y-86009170D01*
X166791962Y-86018349D01*
X166771750Y-86025581D01*
X166750926Y-86030797D01*
X166729691Y-86033947D01*
X166708250Y-86035000D01*
X166270750Y-86035000D01*
X166249309Y-86033947D01*
X166228074Y-86030797D01*
X166207250Y-86025581D01*
X166187038Y-86018349D01*
X166167632Y-86009170D01*
X166149219Y-85998134D01*
X166131976Y-85985346D01*
X166116070Y-85970930D01*
X166101654Y-85955024D01*
X166088866Y-85937781D01*
X166077830Y-85919368D01*
X166068651Y-85899962D01*
X166061419Y-85879750D01*
X166056203Y-85858926D01*
X166053053Y-85837691D01*
X166052000Y-85816250D01*
X166052000Y-85303750D01*
X166053053Y-85282309D01*
X166056203Y-85261074D01*
X166061419Y-85240250D01*
X166068651Y-85220038D01*
X166077830Y-85200632D01*
X166088866Y-85182219D01*
X166101654Y-85164976D01*
X166116070Y-85149070D01*
X166131976Y-85134654D01*
X166149219Y-85121866D01*
X166167632Y-85110830D01*
X166187038Y-85101651D01*
X166207250Y-85094419D01*
X166228074Y-85089203D01*
X166249309Y-85086053D01*
X166270750Y-85085000D01*
X166708250Y-85085000D01*
X166729691Y-85086053D01*
X166729691Y-85086053D01*
G37*
D15*
X166489500Y-85560000D03*
D10*
G36*
X165154691Y-85086053D02*
G01*
X165175926Y-85089203D01*
X165196750Y-85094419D01*
X165216962Y-85101651D01*
X165236368Y-85110830D01*
X165254781Y-85121866D01*
X165272024Y-85134654D01*
X165287930Y-85149070D01*
X165302346Y-85164976D01*
X165315134Y-85182219D01*
X165326170Y-85200632D01*
X165335349Y-85220038D01*
X165342581Y-85240250D01*
X165347797Y-85261074D01*
X165350947Y-85282309D01*
X165352000Y-85303750D01*
X165352000Y-85816250D01*
X165350947Y-85837691D01*
X165347797Y-85858926D01*
X165342581Y-85879750D01*
X165335349Y-85899962D01*
X165326170Y-85919368D01*
X165315134Y-85937781D01*
X165302346Y-85955024D01*
X165287930Y-85970930D01*
X165272024Y-85985346D01*
X165254781Y-85998134D01*
X165236368Y-86009170D01*
X165216962Y-86018349D01*
X165196750Y-86025581D01*
X165175926Y-86030797D01*
X165154691Y-86033947D01*
X165133250Y-86035000D01*
X164695750Y-86035000D01*
X164674309Y-86033947D01*
X164653074Y-86030797D01*
X164632250Y-86025581D01*
X164612038Y-86018349D01*
X164592632Y-86009170D01*
X164574219Y-85998134D01*
X164556976Y-85985346D01*
X164541070Y-85970930D01*
X164526654Y-85955024D01*
X164513866Y-85937781D01*
X164502830Y-85919368D01*
X164493651Y-85899962D01*
X164486419Y-85879750D01*
X164481203Y-85858926D01*
X164478053Y-85837691D01*
X164477000Y-85816250D01*
X164477000Y-85303750D01*
X164478053Y-85282309D01*
X164481203Y-85261074D01*
X164486419Y-85240250D01*
X164493651Y-85220038D01*
X164502830Y-85200632D01*
X164513866Y-85182219D01*
X164526654Y-85164976D01*
X164541070Y-85149070D01*
X164556976Y-85134654D01*
X164574219Y-85121866D01*
X164592632Y-85110830D01*
X164612038Y-85101651D01*
X164632250Y-85094419D01*
X164653074Y-85089203D01*
X164674309Y-85086053D01*
X164695750Y-85085000D01*
X165133250Y-85085000D01*
X165154691Y-85086053D01*
X165154691Y-85086053D01*
G37*
D15*
X164914500Y-85560000D03*
D16*
X165084600Y-86970400D03*
X163910000Y-90450000D03*
X168230000Y-87170000D03*
X158499600Y-88476600D03*
X162812127Y-87013785D03*
D17*
X160791900Y-87250000D02*
X160350000Y-87250000D01*
X160350000Y-87250000D02*
X160100000Y-87000000D01*
X161562500Y-87250000D02*
X160791900Y-87250000D01*
X160791900Y-87250000D02*
X160791900Y-87941900D01*
X160791900Y-87941900D02*
X160850000Y-88000000D01*
X160850000Y-88000000D02*
X160850000Y-88462500D01*
X166109600Y-86970400D02*
X165084600Y-86970400D01*
X166489500Y-85560000D02*
X166489500Y-86590500D01*
X166489500Y-86590500D02*
X166109600Y-86970400D01*
X165084600Y-87536085D02*
X165470000Y-87921485D01*
X165084600Y-86970400D02*
X165084600Y-87536085D01*
X165470000Y-87921485D02*
X165470000Y-88890000D01*
X165470000Y-88890000D02*
X163910000Y-90450000D01*
X165084600Y-86970400D02*
X168030400Y-86970400D01*
X168030400Y-86970400D02*
X168230000Y-87170000D01*
X164684601Y-87370399D02*
X165084600Y-86970400D01*
X164005000Y-88050000D02*
X164684601Y-87370399D01*
X162823022Y-88050000D02*
X164005000Y-88050000D01*
X161562500Y-87250000D02*
X162023022Y-87250000D01*
X162023022Y-87250000D02*
X162823022Y-88050000D01*
X164914700Y-85559800D02*
X164915000Y-85560000D01*
X160850000Y-85537500D02*
X164892000Y-85537500D01*
X164892000Y-85537500D02*
X164914700Y-85559800D01*
X164914500Y-85560000D02*
X164914700Y-85559800D01*
X160850000Y-84810000D02*
X160850000Y-85537500D01*
X160580000Y-84540000D02*
X160850000Y-84810000D01*
X159020000Y-84540000D02*
X160580000Y-84540000D01*
X153720000Y-93300000D02*
X153720000Y-89840000D01*
X153720000Y-89840000D02*
X159020000Y-84540000D01*
X158499600Y-88476600D02*
X158637500Y-88338700D01*
X158637500Y-88338700D02*
X158637500Y-87750000D01*
X160350000Y-88962000D02*
X160350000Y-88462500D01*
X163880000Y-93300000D02*
X163880000Y-92492000D01*
X163880000Y-92492000D02*
X160350000Y-88962000D01*
X162075000Y-86250000D02*
X162812127Y-86987127D01*
X162812127Y-86987127D02*
X162812127Y-87013785D01*
X161562500Y-86250000D02*
X162075000Y-86250000D01*
X158800000Y-93300000D02*
X158800000Y-92124700D01*
X158800000Y-92124700D02*
X159350000Y-91574700D01*
X159350000Y-91574700D02*
X159350000Y-88462500D01*
D18*
G36*
X169340001Y-94340000D02*
G01*
X167487554Y-94340000D01*
X167660706Y-94129014D01*
X167798599Y-93871034D01*
X167883513Y-93591111D01*
X167912185Y-93300000D01*
X167883513Y-93008889D01*
X167798599Y-92728966D01*
X167660706Y-92470986D01*
X167475134Y-92244866D01*
X167249014Y-92059294D01*
X166991034Y-91921401D01*
X166711111Y-91836487D01*
X166492950Y-91815000D01*
X166347050Y-91815000D01*
X166128889Y-91836487D01*
X165848966Y-91921401D01*
X165590986Y-92059294D01*
X165364866Y-92244866D01*
X165179294Y-92470986D01*
X165150000Y-92525791D01*
X165120706Y-92470986D01*
X164935134Y-92244866D01*
X164862307Y-92185098D01*
X164788157Y-92114390D01*
X164763685Y-92092239D01*
X164646613Y-91991682D01*
X164621082Y-91970879D01*
X164514071Y-91888206D01*
X164492491Y-91872250D01*
X164391570Y-91800882D01*
X164380013Y-91792900D01*
X164282292Y-91726988D01*
X164190103Y-91664256D01*
X164102038Y-91600633D01*
X164008691Y-91526825D01*
X163901479Y-91433229D01*
X163769178Y-91306376D01*
X161569418Y-89106617D01*
X161569987Y-89105491D01*
X161603521Y-88984986D01*
X161612902Y-88860254D01*
X161610000Y-88748250D01*
X161451252Y-88589502D01*
X161610000Y-88589502D01*
X161610000Y-88513072D01*
X161912500Y-88513072D01*
X162049175Y-88499611D01*
X162180597Y-88459744D01*
X162301717Y-88395004D01*
X162407879Y-88307879D01*
X162495004Y-88201717D01*
X162559744Y-88080597D01*
X162577406Y-88022373D01*
X162710188Y-88048785D01*
X162914066Y-88048785D01*
X163114025Y-88009011D01*
X163302383Y-87930990D01*
X163471901Y-87817722D01*
X163616064Y-87673559D01*
X163729332Y-87504041D01*
X163807353Y-87315683D01*
X163847127Y-87115724D01*
X163847127Y-86911846D01*
X163807353Y-86711887D01*
X163729332Y-86523529D01*
X163616064Y-86354011D01*
X163559553Y-86297500D01*
X163987617Y-86297500D01*
X164089885Y-86422115D01*
X164219725Y-86528671D01*
X164367858Y-86607850D01*
X164528592Y-86656608D01*
X164695750Y-86673072D01*
X165133250Y-86673072D01*
X165300408Y-86656608D01*
X165461142Y-86607850D01*
X165609275Y-86528671D01*
X165630930Y-86510900D01*
X165697506Y-86565537D01*
X165807820Y-86624502D01*
X165927518Y-86660812D01*
X166052000Y-86673072D01*
X166203750Y-86670000D01*
X166362500Y-86511250D01*
X166362500Y-85687000D01*
X166616500Y-85687000D01*
X166616500Y-86511250D01*
X166775250Y-86670000D01*
X166927000Y-86673072D01*
X167051482Y-86660812D01*
X167171180Y-86624502D01*
X167281494Y-86565537D01*
X167378185Y-86486185D01*
X167457537Y-86389494D01*
X167516502Y-86279180D01*
X167552812Y-86159482D01*
X167565072Y-86035000D01*
X167562000Y-85845750D01*
X167403250Y-85687000D01*
X166616500Y-85687000D01*
X166362500Y-85687000D01*
X166342500Y-85687000D01*
X166342500Y-85433000D01*
X166362500Y-85433000D01*
X166362500Y-85413000D01*
X166616500Y-85413000D01*
X166616500Y-85433000D01*
X167403250Y-85433000D01*
X167562000Y-85274250D01*
X167565072Y-85085000D01*
X167552812Y-84960518D01*
X167516502Y-84840820D01*
X167457537Y-84730506D01*
X167399674Y-84660000D01*
X169340000Y-84660000D01*
X169340001Y-94340000D01*
X169340001Y-94340000D01*
G37*
X169340001Y-94340000D02*
X167487554Y-94340000D01*
X167660706Y-94129014D01*
X167798599Y-93871034D01*
X167883513Y-93591111D01*
X167912185Y-93300000D01*
X167883513Y-93008889D01*
X167798599Y-92728966D01*
X167660706Y-92470986D01*
X167475134Y-92244866D01*
X167249014Y-92059294D01*
X166991034Y-91921401D01*
X166711111Y-91836487D01*
X166492950Y-91815000D01*
X166347050Y-91815000D01*
X166128889Y-91836487D01*
X165848966Y-91921401D01*
X165590986Y-92059294D01*
X165364866Y-92244866D01*
X165179294Y-92470986D01*
X165150000Y-92525791D01*
X165120706Y-92470986D01*
X164935134Y-92244866D01*
X164862307Y-92185098D01*
X164788157Y-92114390D01*
X164763685Y-92092239D01*
X164646613Y-91991682D01*
X164621082Y-91970879D01*
X164514071Y-91888206D01*
X164492491Y-91872250D01*
X164391570Y-91800882D01*
X164380013Y-91792900D01*
X164282292Y-91726988D01*
X164190103Y-91664256D01*
X164102038Y-91600633D01*
X164008691Y-91526825D01*
X163901479Y-91433229D01*
X163769178Y-91306376D01*
X161569418Y-89106617D01*
X161569987Y-89105491D01*
X161603521Y-88984986D01*
X161612902Y-88860254D01*
X161610000Y-88748250D01*
X161451252Y-88589502D01*
X161610000Y-88589502D01*
X161610000Y-88513072D01*
X161912500Y-88513072D01*
X162049175Y-88499611D01*
X162180597Y-88459744D01*
X162301717Y-88395004D01*
X162407879Y-88307879D01*
X162495004Y-88201717D01*
X162559744Y-88080597D01*
X162577406Y-88022373D01*
X162710188Y-88048785D01*
X162914066Y-88048785D01*
X163114025Y-88009011D01*
X163302383Y-87930990D01*
X163471901Y-87817722D01*
X163616064Y-87673559D01*
X163729332Y-87504041D01*
X163807353Y-87315683D01*
X163847127Y-87115724D01*
X163847127Y-86911846D01*
X163807353Y-86711887D01*
X163729332Y-86523529D01*
X163616064Y-86354011D01*
X163559553Y-86297500D01*
X163987617Y-86297500D01*
X164089885Y-86422115D01*
X164219725Y-86528671D01*
X164367858Y-86607850D01*
X164528592Y-86656608D01*
X164695750Y-86673072D01*
X165133250Y-86673072D01*
X165300408Y-86656608D01*
X165461142Y-86607850D01*
X165609275Y-86528671D01*
X165630930Y-86510900D01*
X165697506Y-86565537D01*
X165807820Y-86624502D01*
X165927518Y-86660812D01*
X166052000Y-86673072D01*
X166203750Y-86670000D01*
X166362500Y-86511250D01*
X166362500Y-85687000D01*
X166616500Y-85687000D01*
X166616500Y-86511250D01*
X166775250Y-86670000D01*
X166927000Y-86673072D01*
X167051482Y-86660812D01*
X167171180Y-86624502D01*
X167281494Y-86565537D01*
X167378185Y-86486185D01*
X167457537Y-86389494D01*
X167516502Y-86279180D01*
X167552812Y-86159482D01*
X167565072Y-86035000D01*
X167562000Y-85845750D01*
X167403250Y-85687000D01*
X166616500Y-85687000D01*
X166362500Y-85687000D01*
X166342500Y-85687000D01*
X166342500Y-85433000D01*
X166362500Y-85433000D01*
X166362500Y-85413000D01*
X166616500Y-85413000D01*
X166616500Y-85433000D01*
X167403250Y-85433000D01*
X167562000Y-85274250D01*
X167565072Y-85085000D01*
X167552812Y-84960518D01*
X167516502Y-84840820D01*
X167457537Y-84730506D01*
X167399674Y-84660000D01*
X169340000Y-84660000D01*
X169340001Y-94340000D01*
G36*
X157600389Y-87050825D02*
G01*
X157586928Y-87187500D01*
X157586928Y-87312500D01*
X157600389Y-87449175D01*
X157615807Y-87500000D01*
X157600389Y-87550825D01*
X157586928Y-87687500D01*
X157586928Y-87812500D01*
X157600389Y-87949175D01*
X157602525Y-87956217D01*
X157582395Y-87986344D01*
X157504374Y-88174702D01*
X157464600Y-88374661D01*
X157464600Y-88578539D01*
X157504374Y-88778498D01*
X157582395Y-88966856D01*
X157695663Y-89136374D01*
X157839826Y-89280537D01*
X158009344Y-89393805D01*
X158197702Y-89471826D01*
X158397661Y-89511600D01*
X158590001Y-89511600D01*
X158590000Y-91259898D01*
X158288997Y-91560902D01*
X158260000Y-91584699D01*
X158236202Y-91613697D01*
X158236201Y-91613698D01*
X158165026Y-91700424D01*
X158094454Y-91832454D01*
X158087850Y-91854226D01*
X158048809Y-91906650D01*
X157989516Y-91983532D01*
X157925435Y-92061336D01*
X157848197Y-92147958D01*
X157792120Y-92206085D01*
X157744866Y-92244866D01*
X157559294Y-92470986D01*
X157524799Y-92535523D01*
X157455178Y-92418645D01*
X157260269Y-92202412D01*
X157026920Y-92028359D01*
X156764099Y-91903175D01*
X156616890Y-91858524D01*
X156387000Y-91979845D01*
X156387000Y-93173000D01*
X156407000Y-93173000D01*
X156407000Y-93427000D01*
X156387000Y-93427000D01*
X156387000Y-93447000D01*
X156133000Y-93447000D01*
X156133000Y-93427000D01*
X156113000Y-93427000D01*
X156113000Y-93173000D01*
X156133000Y-93173000D01*
X156133000Y-91979845D01*
X155903110Y-91858524D01*
X155755901Y-91903175D01*
X155493080Y-92028359D01*
X155259731Y-92202412D01*
X155183966Y-92286466D01*
X155159502Y-92205820D01*
X155100537Y-92095506D01*
X155021185Y-91998815D01*
X154924494Y-91919463D01*
X154814180Y-91860498D01*
X154694482Y-91824188D01*
X154570000Y-91811928D01*
X154500784Y-91811928D01*
X154487406Y-91736959D01*
X154480000Y-91593611D01*
X154480000Y-90154801D01*
X157607536Y-87027266D01*
X157600389Y-87050825D01*
X157600389Y-87050825D01*
G37*
X157600389Y-87050825D02*
X157586928Y-87187500D01*
X157586928Y-87312500D01*
X157600389Y-87449175D01*
X157615807Y-87500000D01*
X157600389Y-87550825D01*
X157586928Y-87687500D01*
X157586928Y-87812500D01*
X157600389Y-87949175D01*
X157602525Y-87956217D01*
X157582395Y-87986344D01*
X157504374Y-88174702D01*
X157464600Y-88374661D01*
X157464600Y-88578539D01*
X157504374Y-88778498D01*
X157582395Y-88966856D01*
X157695663Y-89136374D01*
X157839826Y-89280537D01*
X158009344Y-89393805D01*
X158197702Y-89471826D01*
X158397661Y-89511600D01*
X158590001Y-89511600D01*
X158590000Y-91259898D01*
X158288997Y-91560902D01*
X158260000Y-91584699D01*
X158236202Y-91613697D01*
X158236201Y-91613698D01*
X158165026Y-91700424D01*
X158094454Y-91832454D01*
X158087850Y-91854226D01*
X158048809Y-91906650D01*
X157989516Y-91983532D01*
X157925435Y-92061336D01*
X157848197Y-92147958D01*
X157792120Y-92206085D01*
X157744866Y-92244866D01*
X157559294Y-92470986D01*
X157524799Y-92535523D01*
X157455178Y-92418645D01*
X157260269Y-92202412D01*
X157026920Y-92028359D01*
X156764099Y-91903175D01*
X156616890Y-91858524D01*
X156387000Y-91979845D01*
X156387000Y-93173000D01*
X156407000Y-93173000D01*
X156407000Y-93427000D01*
X156387000Y-93427000D01*
X156387000Y-93447000D01*
X156133000Y-93447000D01*
X156133000Y-93427000D01*
X156113000Y-93427000D01*
X156113000Y-93173000D01*
X156133000Y-93173000D01*
X156133000Y-91979845D01*
X155903110Y-91858524D01*
X155755901Y-91903175D01*
X155493080Y-92028359D01*
X155259731Y-92202412D01*
X155183966Y-92286466D01*
X155159502Y-92205820D01*
X155100537Y-92095506D01*
X155021185Y-91998815D01*
X154924494Y-91919463D01*
X154814180Y-91860498D01*
X154694482Y-91824188D01*
X154570000Y-91811928D01*
X154500784Y-91811928D01*
X154487406Y-91736959D01*
X154480000Y-91593611D01*
X154480000Y-90154801D01*
X157607536Y-87027266D01*
X157600389Y-87050825D01*
G36*
X160227000Y-86873000D02*
G01*
X160247000Y-86873000D01*
X160247000Y-87127000D01*
X160227000Y-87127000D01*
X160227000Y-87147000D01*
X159973000Y-87147000D01*
X159973000Y-87127000D01*
X159953000Y-87127000D01*
X159953000Y-86873000D01*
X159973000Y-86873000D01*
X159973000Y-86853000D01*
X160227000Y-86853000D01*
X160227000Y-86873000D01*
X160227000Y-86873000D01*
G37*
X160227000Y-86873000D02*
X160247000Y-86873000D01*
X160247000Y-87127000D01*
X160227000Y-87127000D01*
X160227000Y-87147000D01*
X159973000Y-87147000D01*
X159973000Y-87127000D01*
X159953000Y-87127000D01*
X159953000Y-86873000D01*
X159973000Y-86873000D01*
X159973000Y-86853000D01*
X160227000Y-86853000D01*
X160227000Y-86873000D01*
D19*
G36*
X153842619Y-91810053D02*
G01*
X153842799Y-91811629D01*
X153871970Y-91975103D01*
X153872433Y-91976913D01*
X153917874Y-92112314D01*
X153918615Y-92114071D01*
X153977722Y-92229249D01*
X153978532Y-92230611D01*
X154048706Y-92333418D01*
X154049278Y-92334192D01*
X154127915Y-92432478D01*
X154128067Y-92432664D01*
X154212440Y-92534125D01*
X154299799Y-92646404D01*
X154387642Y-92777366D01*
X154469395Y-92927399D01*
X153720000Y-93706678D01*
X152970605Y-92927399D01*
X153052357Y-92777366D01*
X153140200Y-92646404D01*
X153227559Y-92534125D01*
X153311932Y-92432664D01*
X153312084Y-92432478D01*
X153390721Y-92334192D01*
X153391293Y-92333418D01*
X153461467Y-92230611D01*
X153462277Y-92229249D01*
X153521384Y-92114071D01*
X153522125Y-92112314D01*
X153567566Y-91976913D01*
X153568029Y-91975103D01*
X153597200Y-91811629D01*
X153597380Y-91810053D01*
X153607061Y-91622700D01*
X153832939Y-91622700D01*
X153842619Y-91810053D01*
X153842619Y-91810053D01*
G37*
X153842619Y-91810053D02*
X153842799Y-91811629D01*
X153871970Y-91975103D01*
X153872433Y-91976913D01*
X153917874Y-92112314D01*
X153918615Y-92114071D01*
X153977722Y-92229249D01*
X153978532Y-92230611D01*
X154048706Y-92333418D01*
X154049278Y-92334192D01*
X154127915Y-92432478D01*
X154128067Y-92432664D01*
X154212440Y-92534125D01*
X154299799Y-92646404D01*
X154387642Y-92777366D01*
X154469395Y-92927399D01*
X153720000Y-93706678D01*
X152970605Y-92927399D01*
X153052357Y-92777366D01*
X153140200Y-92646404D01*
X153227559Y-92534125D01*
X153311932Y-92432664D01*
X153312084Y-92432478D01*
X153390721Y-92334192D01*
X153391293Y-92333418D01*
X153461467Y-92230611D01*
X153462277Y-92229249D01*
X153521384Y-92114071D01*
X153522125Y-92112314D01*
X153567566Y-91976913D01*
X153568029Y-91975103D01*
X153597200Y-91811629D01*
X153597380Y-91810053D01*
X153607061Y-91622700D01*
X153832939Y-91622700D01*
X153842619Y-91810053D01*
G36*
X158751690Y-87839284D02*
G01*
X158751718Y-87839902D01*
X158757097Y-87916724D01*
X158757166Y-87917424D01*
X158765606Y-87984433D01*
X158765720Y-87985167D01*
X158776794Y-88044743D01*
X158776941Y-88045427D01*
X158790219Y-88099952D01*
X158790362Y-88100488D01*
X158805418Y-88152342D01*
X158805512Y-88152651D01*
X158821915Y-88204216D01*
X158821931Y-88204268D01*
X158839225Y-88257831D01*
X158856963Y-88315707D01*
X158872288Y-88371411D01*
X158438154Y-88644986D01*
X158282200Y-88155941D01*
X158316157Y-88131728D01*
X158316327Y-88131605D01*
X158355058Y-88103010D01*
X158355513Y-88102658D01*
X158391100Y-88073808D01*
X158391832Y-88073166D01*
X158423898Y-88042814D01*
X158424840Y-88041821D01*
X158453008Y-88008717D01*
X158454014Y-88007363D01*
X158477907Y-87970260D01*
X158478792Y-87968637D01*
X158498032Y-87926285D01*
X158498664Y-87924579D01*
X158512874Y-87875730D01*
X158513228Y-87874135D01*
X158522030Y-87817540D01*
X158522168Y-87816172D01*
X158524629Y-87762700D01*
X158750067Y-87762700D01*
X158751690Y-87839284D01*
X158751690Y-87839284D01*
G37*
X158751690Y-87839284D02*
X158751718Y-87839902D01*
X158757097Y-87916724D01*
X158757166Y-87917424D01*
X158765606Y-87984433D01*
X158765720Y-87985167D01*
X158776794Y-88044743D01*
X158776941Y-88045427D01*
X158790219Y-88099952D01*
X158790362Y-88100488D01*
X158805418Y-88152342D01*
X158805512Y-88152651D01*
X158821915Y-88204216D01*
X158821931Y-88204268D01*
X158839225Y-88257831D01*
X158856963Y-88315707D01*
X158872288Y-88371411D01*
X158438154Y-88644986D01*
X158282200Y-88155941D01*
X158316157Y-88131728D01*
X158316327Y-88131605D01*
X158355058Y-88103010D01*
X158355513Y-88102658D01*
X158391100Y-88073808D01*
X158391832Y-88073166D01*
X158423898Y-88042814D01*
X158424840Y-88041821D01*
X158453008Y-88008717D01*
X158454014Y-88007363D01*
X158477907Y-87970260D01*
X158478792Y-87968637D01*
X158498032Y-87926285D01*
X158498664Y-87924579D01*
X158512874Y-87875730D01*
X158513228Y-87874135D01*
X158522030Y-87817540D01*
X158522168Y-87816172D01*
X158524629Y-87762700D01*
X158750067Y-87762700D01*
X158751690Y-87839284D01*
G36*
X163463903Y-91910998D02*
G01*
X163464341Y-91911398D01*
X163594377Y-92024919D01*
X163594852Y-92025314D01*
X163711122Y-92117247D01*
X163711562Y-92117580D01*
X163818039Y-92194504D01*
X163818331Y-92194709D01*
X163918985Y-92263202D01*
X163919028Y-92263231D01*
X164017727Y-92329803D01*
X164118306Y-92400929D01*
X164224835Y-92483229D01*
X164341415Y-92583364D01*
X164465115Y-92701322D01*
X163898090Y-93704128D01*
X163112790Y-92965031D01*
X163163507Y-92852499D01*
X163217570Y-92740298D01*
X163217615Y-92740205D01*
X163267376Y-92634751D01*
X163267629Y-92634178D01*
X163309053Y-92533852D01*
X163309477Y-92532657D01*
X163338586Y-92435714D01*
X163339010Y-92433755D01*
X163351831Y-92338447D01*
X163351906Y-92335767D01*
X163344464Y-92240346D01*
X163343878Y-92237400D01*
X163312197Y-92140119D01*
X163311042Y-92137569D01*
X163251148Y-92036681D01*
X163249824Y-92034846D01*
X163165487Y-91937540D01*
X163325108Y-91777919D01*
X163463903Y-91910998D01*
X163463903Y-91910998D01*
G37*
X163463903Y-91910998D02*
X163464341Y-91911398D01*
X163594377Y-92024919D01*
X163594852Y-92025314D01*
X163711122Y-92117247D01*
X163711562Y-92117580D01*
X163818039Y-92194504D01*
X163818331Y-92194709D01*
X163918985Y-92263202D01*
X163919028Y-92263231D01*
X164017727Y-92329803D01*
X164118306Y-92400929D01*
X164224835Y-92483229D01*
X164341415Y-92583364D01*
X164465115Y-92701322D01*
X163898090Y-93704128D01*
X163112790Y-92965031D01*
X163163507Y-92852499D01*
X163217570Y-92740298D01*
X163217615Y-92740205D01*
X163267376Y-92634751D01*
X163267629Y-92634178D01*
X163309053Y-92533852D01*
X163309477Y-92532657D01*
X163338586Y-92435714D01*
X163339010Y-92433755D01*
X163351831Y-92338447D01*
X163351906Y-92335767D01*
X163344464Y-92240346D01*
X163343878Y-92237400D01*
X163312197Y-92140119D01*
X163311042Y-92137569D01*
X163251148Y-92036681D01*
X163249824Y-92034846D01*
X163165487Y-91937540D01*
X163325108Y-91777919D01*
X163463903Y-91910998D01*
G36*
X162402336Y-86414074D02*
G01*
X162403104Y-86414737D01*
X162465608Y-86464499D01*
X162466594Y-86465210D01*
X162524365Y-86502780D01*
X162525504Y-86503439D01*
X162580418Y-86531539D01*
X162581528Y-86532041D01*
X162635458Y-86553392D01*
X162636306Y-86553694D01*
X162691128Y-86571019D01*
X162691551Y-86571144D01*
X162749116Y-86587159D01*
X162811168Y-86604547D01*
X162879417Y-86625968D01*
X162947722Y-86651152D01*
X162934538Y-87148030D01*
X162438543Y-87115436D01*
X162420311Y-87047543D01*
X162405209Y-86979361D01*
X162392987Y-86917459D01*
X162392966Y-86917351D01*
X162381133Y-86860038D01*
X162380997Y-86859453D01*
X162367059Y-86805067D01*
X162366749Y-86804039D01*
X162348180Y-86750772D01*
X162347652Y-86749488D01*
X162321929Y-86695531D01*
X162321224Y-86694249D01*
X162285822Y-86637794D01*
X162285060Y-86636709D01*
X162237455Y-86575947D01*
X162236748Y-86575120D01*
X162182775Y-86517212D01*
X162342194Y-86357793D01*
X162402336Y-86414074D01*
X162402336Y-86414074D01*
G37*
X162402336Y-86414074D02*
X162403104Y-86414737D01*
X162465608Y-86464499D01*
X162466594Y-86465210D01*
X162524365Y-86502780D01*
X162525504Y-86503439D01*
X162580418Y-86531539D01*
X162581528Y-86532041D01*
X162635458Y-86553392D01*
X162636306Y-86553694D01*
X162691128Y-86571019D01*
X162691551Y-86571144D01*
X162749116Y-86587159D01*
X162811168Y-86604547D01*
X162879417Y-86625968D01*
X162947722Y-86651152D01*
X162934538Y-87148030D01*
X162438543Y-87115436D01*
X162420311Y-87047543D01*
X162405209Y-86979361D01*
X162392987Y-86917459D01*
X162392966Y-86917351D01*
X162381133Y-86860038D01*
X162380997Y-86859453D01*
X162367059Y-86805067D01*
X162366749Y-86804039D01*
X162348180Y-86750772D01*
X162347652Y-86749488D01*
X162321929Y-86695531D01*
X162321224Y-86694249D01*
X162285822Y-86637794D01*
X162285060Y-86636709D01*
X162237455Y-86575947D01*
X162236748Y-86575120D01*
X162182775Y-86517212D01*
X162342194Y-86357793D01*
X162402336Y-86414074D01*
G36*
X159242302Y-91842925D02*
G01*
X159155221Y-91949406D01*
X159153450Y-91952281D01*
X159105371Y-92060274D01*
X159104586Y-92062636D01*
X159104319Y-92064363D01*
X159095572Y-92167188D01*
X159095605Y-92169677D01*
X159095868Y-92171189D01*
X159119509Y-92271063D01*
X159120486Y-92273773D01*
X159169570Y-92372911D01*
X159170408Y-92374357D01*
X159237993Y-92474976D01*
X159238418Y-92475571D01*
X159317559Y-92579886D01*
X159317565Y-92579893D01*
X159401135Y-92689880D01*
X159482059Y-92807511D01*
X159549314Y-92927484D01*
X158802477Y-93704103D01*
X158214785Y-92700849D01*
X158322997Y-92588680D01*
X158323336Y-92588314D01*
X158417164Y-92483086D01*
X158417488Y-92482708D01*
X158495937Y-92387459D01*
X158496191Y-92387141D01*
X158564952Y-92297982D01*
X158565081Y-92297811D01*
X158629818Y-92210882D01*
X158696176Y-92122355D01*
X158769817Y-92028369D01*
X158856416Y-91925027D01*
X158961793Y-91808283D01*
X159082774Y-91683397D01*
X159242302Y-91842925D01*
X159242302Y-91842925D01*
G37*
X159242302Y-91842925D02*
X159155221Y-91949406D01*
X159153450Y-91952281D01*
X159105371Y-92060274D01*
X159104586Y-92062636D01*
X159104319Y-92064363D01*
X159095572Y-92167188D01*
X159095605Y-92169677D01*
X159095868Y-92171189D01*
X159119509Y-92271063D01*
X159120486Y-92273773D01*
X159169570Y-92372911D01*
X159170408Y-92374357D01*
X159237993Y-92474976D01*
X159238418Y-92475571D01*
X159317559Y-92579886D01*
X159317565Y-92579893D01*
X159401135Y-92689880D01*
X159482059Y-92807511D01*
X159549314Y-92927484D01*
X158802477Y-93704103D01*
X158214785Y-92700849D01*
X158322997Y-92588680D01*
X158323336Y-92588314D01*
X158417164Y-92483086D01*
X158417488Y-92482708D01*
X158495937Y-92387459D01*
X158496191Y-92387141D01*
X158564952Y-92297982D01*
X158565081Y-92297811D01*
X158629818Y-92210882D01*
X158696176Y-92122355D01*
X158769817Y-92028369D01*
X158856416Y-91925027D01*
X158961793Y-91808283D01*
X159082774Y-91683397D01*
X159242302Y-91842925D01*
M02*
