G04 #@! TF.GenerationSoftware,KiCad,Pcbnew,(5.1.2)-1*
G04 #@! TF.CreationDate,2023-06-08T23:46:24+09:00*
G04 #@! TF.ProjectId,ma73x,6d613733-782e-46b6-9963-61645f706362,v1.1*
G04 #@! TF.SameCoordinates,Original*
G04 #@! TF.FileFunction,Soldermask,Top*
G04 #@! TF.FilePolarity,Negative*
%FSLAX46Y46*%
G04 Gerber Fmt 4.6, Leading zero omitted, Abs format (unit mm)*
G04 Created by KiCad (PCBNEW (5.1.2)-1) date 2023-06-08 23:46:24*
%MOMM*%
%LPD*%
G04 APERTURE LIST*
%ADD10C,0.100000*%
G04 APERTURE END LIST*
D10*
G36*
X163990442Y-92405518D02*
G01*
X164056627Y-92412037D01*
X164226466Y-92463557D01*
X164382991Y-92547222D01*
X164418729Y-92576552D01*
X164520186Y-92659814D01*
X164603448Y-92761271D01*
X164632778Y-92797009D01*
X164716443Y-92953534D01*
X164767963Y-93123373D01*
X164785359Y-93300000D01*
X164767963Y-93476627D01*
X164716443Y-93646466D01*
X164632778Y-93802991D01*
X164603448Y-93838729D01*
X164520186Y-93940186D01*
X164418729Y-94023448D01*
X164382991Y-94052778D01*
X164226466Y-94136443D01*
X164056627Y-94187963D01*
X163990443Y-94194481D01*
X163924260Y-94201000D01*
X163835740Y-94201000D01*
X163769557Y-94194481D01*
X163703373Y-94187963D01*
X163533534Y-94136443D01*
X163377009Y-94052778D01*
X163341271Y-94023448D01*
X163239814Y-93940186D01*
X163156552Y-93838729D01*
X163127222Y-93802991D01*
X163043557Y-93646466D01*
X162992037Y-93476627D01*
X162974641Y-93300000D01*
X162992037Y-93123373D01*
X163043557Y-92953534D01*
X163127222Y-92797009D01*
X163156552Y-92761271D01*
X163239814Y-92659814D01*
X163341271Y-92576552D01*
X163377009Y-92547222D01*
X163533534Y-92463557D01*
X163703373Y-92412037D01*
X163769558Y-92405518D01*
X163835740Y-92399000D01*
X163924260Y-92399000D01*
X163990442Y-92405518D01*
X163990442Y-92405518D01*
G37*
G36*
X166530442Y-92405518D02*
G01*
X166596627Y-92412037D01*
X166766466Y-92463557D01*
X166922991Y-92547222D01*
X166958729Y-92576552D01*
X167060186Y-92659814D01*
X167143448Y-92761271D01*
X167172778Y-92797009D01*
X167256443Y-92953534D01*
X167307963Y-93123373D01*
X167325359Y-93300000D01*
X167307963Y-93476627D01*
X167256443Y-93646466D01*
X167172778Y-93802991D01*
X167143448Y-93838729D01*
X167060186Y-93940186D01*
X166958729Y-94023448D01*
X166922991Y-94052778D01*
X166766466Y-94136443D01*
X166596627Y-94187963D01*
X166530443Y-94194481D01*
X166464260Y-94201000D01*
X166375740Y-94201000D01*
X166309557Y-94194481D01*
X166243373Y-94187963D01*
X166073534Y-94136443D01*
X165917009Y-94052778D01*
X165881271Y-94023448D01*
X165779814Y-93940186D01*
X165696552Y-93838729D01*
X165667222Y-93802991D01*
X165583557Y-93646466D01*
X165532037Y-93476627D01*
X165514641Y-93300000D01*
X165532037Y-93123373D01*
X165583557Y-92953534D01*
X165667222Y-92797009D01*
X165696552Y-92761271D01*
X165779814Y-92659814D01*
X165881271Y-92576552D01*
X165917009Y-92547222D01*
X166073534Y-92463557D01*
X166243373Y-92412037D01*
X166309558Y-92405518D01*
X166375740Y-92399000D01*
X166464260Y-92399000D01*
X166530442Y-92405518D01*
X166530442Y-92405518D01*
G37*
G36*
X161450442Y-92405518D02*
G01*
X161516627Y-92412037D01*
X161686466Y-92463557D01*
X161842991Y-92547222D01*
X161878729Y-92576552D01*
X161980186Y-92659814D01*
X162063448Y-92761271D01*
X162092778Y-92797009D01*
X162176443Y-92953534D01*
X162227963Y-93123373D01*
X162245359Y-93300000D01*
X162227963Y-93476627D01*
X162176443Y-93646466D01*
X162092778Y-93802991D01*
X162063448Y-93838729D01*
X161980186Y-93940186D01*
X161878729Y-94023448D01*
X161842991Y-94052778D01*
X161686466Y-94136443D01*
X161516627Y-94187963D01*
X161450443Y-94194481D01*
X161384260Y-94201000D01*
X161295740Y-94201000D01*
X161229557Y-94194481D01*
X161163373Y-94187963D01*
X160993534Y-94136443D01*
X160837009Y-94052778D01*
X160801271Y-94023448D01*
X160699814Y-93940186D01*
X160616552Y-93838729D01*
X160587222Y-93802991D01*
X160503557Y-93646466D01*
X160452037Y-93476627D01*
X160434641Y-93300000D01*
X160452037Y-93123373D01*
X160503557Y-92953534D01*
X160587222Y-92797009D01*
X160616552Y-92761271D01*
X160699814Y-92659814D01*
X160801271Y-92576552D01*
X160837009Y-92547222D01*
X160993534Y-92463557D01*
X161163373Y-92412037D01*
X161229558Y-92405518D01*
X161295740Y-92399000D01*
X161384260Y-92399000D01*
X161450442Y-92405518D01*
X161450442Y-92405518D01*
G37*
G36*
X158910442Y-92405518D02*
G01*
X158976627Y-92412037D01*
X159146466Y-92463557D01*
X159302991Y-92547222D01*
X159338729Y-92576552D01*
X159440186Y-92659814D01*
X159523448Y-92761271D01*
X159552778Y-92797009D01*
X159636443Y-92953534D01*
X159687963Y-93123373D01*
X159705359Y-93300000D01*
X159687963Y-93476627D01*
X159636443Y-93646466D01*
X159552778Y-93802991D01*
X159523448Y-93838729D01*
X159440186Y-93940186D01*
X159338729Y-94023448D01*
X159302991Y-94052778D01*
X159146466Y-94136443D01*
X158976627Y-94187963D01*
X158910443Y-94194481D01*
X158844260Y-94201000D01*
X158755740Y-94201000D01*
X158689557Y-94194481D01*
X158623373Y-94187963D01*
X158453534Y-94136443D01*
X158297009Y-94052778D01*
X158261271Y-94023448D01*
X158159814Y-93940186D01*
X158076552Y-93838729D01*
X158047222Y-93802991D01*
X157963557Y-93646466D01*
X157912037Y-93476627D01*
X157894641Y-93300000D01*
X157912037Y-93123373D01*
X157963557Y-92953534D01*
X158047222Y-92797009D01*
X158076552Y-92761271D01*
X158159814Y-92659814D01*
X158261271Y-92576552D01*
X158297009Y-92547222D01*
X158453534Y-92463557D01*
X158623373Y-92412037D01*
X158689558Y-92405518D01*
X158755740Y-92399000D01*
X158844260Y-92399000D01*
X158910442Y-92405518D01*
X158910442Y-92405518D01*
G37*
G36*
X156370442Y-92405518D02*
G01*
X156436627Y-92412037D01*
X156606466Y-92463557D01*
X156762991Y-92547222D01*
X156798729Y-92576552D01*
X156900186Y-92659814D01*
X156983448Y-92761271D01*
X157012778Y-92797009D01*
X157096443Y-92953534D01*
X157147963Y-93123373D01*
X157165359Y-93300000D01*
X157147963Y-93476627D01*
X157096443Y-93646466D01*
X157012778Y-93802991D01*
X156983448Y-93838729D01*
X156900186Y-93940186D01*
X156798729Y-94023448D01*
X156762991Y-94052778D01*
X156606466Y-94136443D01*
X156436627Y-94187963D01*
X156370443Y-94194481D01*
X156304260Y-94201000D01*
X156215740Y-94201000D01*
X156149557Y-94194481D01*
X156083373Y-94187963D01*
X155913534Y-94136443D01*
X155757009Y-94052778D01*
X155721271Y-94023448D01*
X155619814Y-93940186D01*
X155536552Y-93838729D01*
X155507222Y-93802991D01*
X155423557Y-93646466D01*
X155372037Y-93476627D01*
X155354641Y-93300000D01*
X155372037Y-93123373D01*
X155423557Y-92953534D01*
X155507222Y-92797009D01*
X155536552Y-92761271D01*
X155619814Y-92659814D01*
X155721271Y-92576552D01*
X155757009Y-92547222D01*
X155913534Y-92463557D01*
X156083373Y-92412037D01*
X156149558Y-92405518D01*
X156215740Y-92399000D01*
X156304260Y-92399000D01*
X156370442Y-92405518D01*
X156370442Y-92405518D01*
G37*
G36*
X154621000Y-94201000D02*
G01*
X152819000Y-94201000D01*
X152819000Y-92399000D01*
X154621000Y-92399000D01*
X154621000Y-94201000D01*
X154621000Y-94201000D01*
G37*
G36*
X159505355Y-85075083D02*
G01*
X159510029Y-85076501D01*
X159514330Y-85078800D01*
X159520702Y-85084029D01*
X159541076Y-85097643D01*
X159563715Y-85107020D01*
X159587749Y-85111800D01*
X159612253Y-85111800D01*
X159636286Y-85107019D01*
X159658925Y-85097642D01*
X159679298Y-85084029D01*
X159685670Y-85078800D01*
X159689971Y-85076501D01*
X159694645Y-85075083D01*
X159705641Y-85074000D01*
X159994359Y-85074000D01*
X160005355Y-85075083D01*
X160010029Y-85076501D01*
X160014330Y-85078800D01*
X160020702Y-85084029D01*
X160041076Y-85097643D01*
X160063715Y-85107020D01*
X160087749Y-85111800D01*
X160112253Y-85111800D01*
X160136286Y-85107019D01*
X160158925Y-85097642D01*
X160179298Y-85084029D01*
X160185670Y-85078800D01*
X160189971Y-85076501D01*
X160194645Y-85075083D01*
X160205641Y-85074000D01*
X160494359Y-85074000D01*
X160505355Y-85075083D01*
X160510029Y-85076501D01*
X160514330Y-85078800D01*
X160520702Y-85084029D01*
X160541076Y-85097643D01*
X160563715Y-85107020D01*
X160587749Y-85111800D01*
X160612253Y-85111800D01*
X160636286Y-85107019D01*
X160658925Y-85097642D01*
X160679298Y-85084029D01*
X160685670Y-85078800D01*
X160689971Y-85076501D01*
X160694645Y-85075083D01*
X160705641Y-85074000D01*
X160994359Y-85074000D01*
X161005355Y-85075083D01*
X161010029Y-85076501D01*
X161014331Y-85078800D01*
X161018104Y-85081896D01*
X161021200Y-85085669D01*
X161023499Y-85089971D01*
X161024917Y-85094645D01*
X161026000Y-85105641D01*
X161026000Y-85949001D01*
X161028402Y-85973387D01*
X161035515Y-85996836D01*
X161047066Y-86018447D01*
X161062611Y-86037389D01*
X161081553Y-86052934D01*
X161103164Y-86064485D01*
X161126613Y-86071598D01*
X161150999Y-86074000D01*
X161994359Y-86074000D01*
X162005355Y-86075083D01*
X162010029Y-86076501D01*
X162014331Y-86078800D01*
X162018104Y-86081896D01*
X162021200Y-86085669D01*
X162023499Y-86089971D01*
X162024917Y-86094645D01*
X162026000Y-86105641D01*
X162026000Y-86394359D01*
X162024917Y-86405355D01*
X162023499Y-86410029D01*
X162021200Y-86414330D01*
X162015971Y-86420702D01*
X162002357Y-86441076D01*
X161992980Y-86463715D01*
X161988200Y-86487749D01*
X161988200Y-86512253D01*
X161992981Y-86536286D01*
X162002358Y-86558925D01*
X162015971Y-86579298D01*
X162021200Y-86585670D01*
X162023499Y-86589971D01*
X162024917Y-86594645D01*
X162026000Y-86605641D01*
X162026000Y-86894359D01*
X162024917Y-86905355D01*
X162023499Y-86910029D01*
X162021200Y-86914330D01*
X162015971Y-86920702D01*
X162002357Y-86941076D01*
X161992980Y-86963715D01*
X161988200Y-86987749D01*
X161988200Y-87012253D01*
X161992981Y-87036286D01*
X162002358Y-87058925D01*
X162015971Y-87079298D01*
X162021200Y-87085670D01*
X162023499Y-87089971D01*
X162024917Y-87094645D01*
X162026000Y-87105641D01*
X162026000Y-87394359D01*
X162024917Y-87405355D01*
X162023499Y-87410029D01*
X162021200Y-87414330D01*
X162015971Y-87420702D01*
X162002357Y-87441076D01*
X161992980Y-87463715D01*
X161988200Y-87487749D01*
X161988200Y-87512253D01*
X161992981Y-87536286D01*
X162002358Y-87558925D01*
X162015971Y-87579298D01*
X162021200Y-87585670D01*
X162023499Y-87589971D01*
X162024917Y-87594645D01*
X162026000Y-87605641D01*
X162026000Y-87894359D01*
X162024917Y-87905355D01*
X162023499Y-87910029D01*
X162021200Y-87914331D01*
X162018104Y-87918104D01*
X162014331Y-87921200D01*
X162010029Y-87923499D01*
X162005355Y-87924917D01*
X161994359Y-87926000D01*
X161150999Y-87926000D01*
X161126613Y-87928402D01*
X161103164Y-87935515D01*
X161081553Y-87947066D01*
X161062611Y-87962611D01*
X161047066Y-87981553D01*
X161035515Y-88003164D01*
X161028402Y-88026613D01*
X161026000Y-88050999D01*
X161026000Y-88894359D01*
X161024917Y-88905355D01*
X161023499Y-88910029D01*
X161021200Y-88914331D01*
X161018104Y-88918104D01*
X161014331Y-88921200D01*
X161010029Y-88923499D01*
X161005355Y-88924917D01*
X160994359Y-88926000D01*
X160705641Y-88926000D01*
X160694645Y-88924917D01*
X160689971Y-88923499D01*
X160685670Y-88921200D01*
X160679298Y-88915971D01*
X160658924Y-88902357D01*
X160636285Y-88892980D01*
X160612251Y-88888200D01*
X160587747Y-88888200D01*
X160563714Y-88892981D01*
X160541075Y-88902358D01*
X160520702Y-88915971D01*
X160514330Y-88921200D01*
X160510029Y-88923499D01*
X160505355Y-88924917D01*
X160494359Y-88926000D01*
X160205641Y-88926000D01*
X160194645Y-88924917D01*
X160189971Y-88923499D01*
X160185670Y-88921200D01*
X160179298Y-88915971D01*
X160158924Y-88902357D01*
X160136285Y-88892980D01*
X160112251Y-88888200D01*
X160087747Y-88888200D01*
X160063714Y-88892981D01*
X160041075Y-88902358D01*
X160020702Y-88915971D01*
X160014330Y-88921200D01*
X160010029Y-88923499D01*
X160005355Y-88924917D01*
X159994359Y-88926000D01*
X159705641Y-88926000D01*
X159694645Y-88924917D01*
X159689971Y-88923499D01*
X159685670Y-88921200D01*
X159679298Y-88915971D01*
X159658924Y-88902357D01*
X159636285Y-88892980D01*
X159612251Y-88888200D01*
X159587747Y-88888200D01*
X159563714Y-88892981D01*
X159541075Y-88902358D01*
X159520702Y-88915971D01*
X159514330Y-88921200D01*
X159510029Y-88923499D01*
X159505355Y-88924917D01*
X159494359Y-88926000D01*
X159205641Y-88926000D01*
X159194645Y-88924917D01*
X159189971Y-88923499D01*
X159185669Y-88921200D01*
X159181896Y-88918104D01*
X159178800Y-88914331D01*
X159176501Y-88910029D01*
X159175083Y-88905355D01*
X159174000Y-88894359D01*
X159174000Y-88050999D01*
X159171598Y-88026613D01*
X159164485Y-88003164D01*
X159152934Y-87981553D01*
X159137389Y-87962611D01*
X159118447Y-87947066D01*
X159096836Y-87935515D01*
X159073387Y-87928402D01*
X159049001Y-87926000D01*
X158205641Y-87926000D01*
X158194645Y-87924917D01*
X158189971Y-87923499D01*
X158185669Y-87921200D01*
X158181896Y-87918104D01*
X158178800Y-87914331D01*
X158176501Y-87910029D01*
X158175083Y-87905355D01*
X158174000Y-87894359D01*
X158174000Y-87605641D01*
X158175083Y-87594645D01*
X158176501Y-87589971D01*
X158178800Y-87585670D01*
X158184029Y-87579298D01*
X158197643Y-87558924D01*
X158207020Y-87536285D01*
X158211800Y-87512251D01*
X158211800Y-87487747D01*
X158207019Y-87463714D01*
X158197642Y-87441075D01*
X158184029Y-87420702D01*
X158178800Y-87414330D01*
X158176501Y-87410029D01*
X158175083Y-87405355D01*
X158174000Y-87394359D01*
X158174000Y-87105641D01*
X158175083Y-87094645D01*
X158176501Y-87089971D01*
X158178800Y-87085670D01*
X158184029Y-87079298D01*
X158197643Y-87058924D01*
X158207020Y-87036285D01*
X158211800Y-87012251D01*
X158211800Y-86987747D01*
X158207019Y-86963714D01*
X158197642Y-86941075D01*
X158184029Y-86920702D01*
X158178800Y-86914330D01*
X158176501Y-86910029D01*
X158175083Y-86905355D01*
X158174000Y-86894359D01*
X158174000Y-86605641D01*
X158175083Y-86594645D01*
X158176501Y-86589971D01*
X158178800Y-86585670D01*
X158184029Y-86579298D01*
X158197643Y-86558924D01*
X158207020Y-86536285D01*
X158211800Y-86512251D01*
X158211800Y-86487747D01*
X158207019Y-86463714D01*
X158197642Y-86441075D01*
X158184029Y-86420702D01*
X158178800Y-86414330D01*
X158176501Y-86410029D01*
X158175083Y-86405355D01*
X158174000Y-86394359D01*
X158174000Y-86105641D01*
X158175083Y-86094645D01*
X158176501Y-86089971D01*
X158178800Y-86085669D01*
X158181896Y-86081896D01*
X158185669Y-86078800D01*
X158189971Y-86076501D01*
X158194645Y-86075083D01*
X158205641Y-86074000D01*
X159049001Y-86074000D01*
X159073387Y-86071598D01*
X159096836Y-86064485D01*
X159118447Y-86052934D01*
X159137389Y-86037389D01*
X159152934Y-86018447D01*
X159164485Y-85996836D01*
X159171598Y-85973387D01*
X159174000Y-85949001D01*
X159174000Y-85105641D01*
X159175083Y-85094645D01*
X159176501Y-85089971D01*
X159178800Y-85085669D01*
X159181896Y-85081896D01*
X159185669Y-85078800D01*
X159189971Y-85076501D01*
X159194645Y-85075083D01*
X159205641Y-85074000D01*
X159494359Y-85074000D01*
X159505355Y-85075083D01*
X159505355Y-85075083D01*
G37*
G36*
X165256591Y-85038085D02*
G01*
X165290569Y-85048393D01*
X165321890Y-85065134D01*
X165349339Y-85087661D01*
X165371866Y-85115110D01*
X165388607Y-85146431D01*
X165398915Y-85180409D01*
X165403000Y-85221890D01*
X165403000Y-85898110D01*
X165398915Y-85939591D01*
X165388607Y-85973569D01*
X165371866Y-86004890D01*
X165349339Y-86032339D01*
X165321890Y-86054866D01*
X165290569Y-86071607D01*
X165256591Y-86081915D01*
X165215110Y-86086000D01*
X164613890Y-86086000D01*
X164572409Y-86081915D01*
X164538431Y-86071607D01*
X164507110Y-86054866D01*
X164479661Y-86032339D01*
X164457134Y-86004890D01*
X164440393Y-85973569D01*
X164430085Y-85939591D01*
X164426000Y-85898110D01*
X164426000Y-85221890D01*
X164430085Y-85180409D01*
X164440393Y-85146431D01*
X164457134Y-85115110D01*
X164479661Y-85087661D01*
X164507110Y-85065134D01*
X164538431Y-85048393D01*
X164572409Y-85038085D01*
X164613890Y-85034000D01*
X165215110Y-85034000D01*
X165256591Y-85038085D01*
X165256591Y-85038085D01*
G37*
G36*
X166831591Y-85038085D02*
G01*
X166865569Y-85048393D01*
X166896890Y-85065134D01*
X166924339Y-85087661D01*
X166946866Y-85115110D01*
X166963607Y-85146431D01*
X166973915Y-85180409D01*
X166978000Y-85221890D01*
X166978000Y-85898110D01*
X166973915Y-85939591D01*
X166963607Y-85973569D01*
X166946866Y-86004890D01*
X166924339Y-86032339D01*
X166896890Y-86054866D01*
X166865569Y-86071607D01*
X166831591Y-86081915D01*
X166790110Y-86086000D01*
X166188890Y-86086000D01*
X166147409Y-86081915D01*
X166113431Y-86071607D01*
X166082110Y-86054866D01*
X166054661Y-86032339D01*
X166032134Y-86004890D01*
X166015393Y-85973569D01*
X166005085Y-85939591D01*
X166001000Y-85898110D01*
X166001000Y-85221890D01*
X166005085Y-85180409D01*
X166015393Y-85146431D01*
X166032134Y-85115110D01*
X166054661Y-85087661D01*
X166082110Y-85065134D01*
X166113431Y-85048393D01*
X166147409Y-85038085D01*
X166188890Y-85034000D01*
X166790110Y-85034000D01*
X166831591Y-85038085D01*
X166831591Y-85038085D01*
G37*
M02*
