G04 #@! TF.GenerationSoftware,KiCad,Pcbnew,(5.1.2)-1*
G04 #@! TF.CreationDate,2023-06-08T23:46:24+09:00*
G04 #@! TF.ProjectId,ma73x,6d613733-782e-46b6-9963-61645f706362,v1.1*
G04 #@! TF.SameCoordinates,Original*
G04 #@! TF.FileFunction,Legend,Bot*
G04 #@! TF.FilePolarity,Positive*
%FSLAX46Y46*%
G04 Gerber Fmt 4.6, Leading zero omitted, Abs format (unit mm)*
G04 Created by KiCad (PCBNEW (5.1.2)-1) date 2023-06-08 23:46:24*
%MOMM*%
%LPD*%
G04 APERTURE LIST*
%ADD10C,0.150000*%
%ADD11O,1.802000X1.802000*%
%ADD12R,1.802000X1.802000*%
G04 APERTURE END LIST*
D10*
X166761904Y-89142857D02*
X165961904Y-89142857D01*
X166533333Y-89409523D01*
X165961904Y-89676190D01*
X166761904Y-89676190D01*
X165961904Y-90209523D02*
X165961904Y-90361904D01*
X166000000Y-90438095D01*
X166076190Y-90514285D01*
X166228571Y-90552380D01*
X166495238Y-90552380D01*
X166647619Y-90514285D01*
X166723809Y-90438095D01*
X166761904Y-90361904D01*
X166761904Y-90209523D01*
X166723809Y-90133333D01*
X166647619Y-90057142D01*
X166495238Y-90019047D01*
X166228571Y-90019047D01*
X166076190Y-90057142D01*
X166000000Y-90133333D01*
X165961904Y-90209523D01*
X166723809Y-90857142D02*
X166761904Y-90971428D01*
X166761904Y-91161904D01*
X166723809Y-91238095D01*
X166685714Y-91276190D01*
X166609523Y-91314285D01*
X166533333Y-91314285D01*
X166457142Y-91276190D01*
X166419047Y-91238095D01*
X166380952Y-91161904D01*
X166342857Y-91009523D01*
X166304761Y-90933333D01*
X166266666Y-90895238D01*
X166190476Y-90857142D01*
X166114285Y-90857142D01*
X166038095Y-90895238D01*
X166000000Y-90933333D01*
X165961904Y-91009523D01*
X165961904Y-91200000D01*
X166000000Y-91314285D01*
X166761904Y-91657142D02*
X165961904Y-91657142D01*
X164261904Y-89142857D02*
X163461904Y-89142857D01*
X164033333Y-89409523D01*
X163461904Y-89676190D01*
X164261904Y-89676190D01*
X164261904Y-90057142D02*
X163461904Y-90057142D01*
X164223809Y-90400000D02*
X164261904Y-90514285D01*
X164261904Y-90704761D01*
X164223809Y-90780952D01*
X164185714Y-90819047D01*
X164109523Y-90857142D01*
X164033333Y-90857142D01*
X163957142Y-90819047D01*
X163919047Y-90780952D01*
X163880952Y-90704761D01*
X163842857Y-90552380D01*
X163804761Y-90476190D01*
X163766666Y-90438095D01*
X163690476Y-90400000D01*
X163614285Y-90400000D01*
X163538095Y-90438095D01*
X163500000Y-90476190D01*
X163461904Y-90552380D01*
X163461904Y-90742857D01*
X163500000Y-90857142D01*
X163461904Y-91352380D02*
X163461904Y-91504761D01*
X163500000Y-91580952D01*
X163576190Y-91657142D01*
X163728571Y-91695238D01*
X163995238Y-91695238D01*
X164147619Y-91657142D01*
X164223809Y-91580952D01*
X164261904Y-91504761D01*
X164261904Y-91352380D01*
X164223809Y-91276190D01*
X164147619Y-91200000D01*
X163995238Y-91161904D01*
X163728571Y-91161904D01*
X163576190Y-91200000D01*
X163500000Y-91276190D01*
X163461904Y-91352380D01*
X161585714Y-90223809D02*
X161623809Y-90185714D01*
X161661904Y-90071428D01*
X161661904Y-89995238D01*
X161623809Y-89880952D01*
X161547619Y-89804761D01*
X161471428Y-89766666D01*
X161319047Y-89728571D01*
X161204761Y-89728571D01*
X161052380Y-89766666D01*
X160976190Y-89804761D01*
X160900000Y-89880952D01*
X160861904Y-89995238D01*
X160861904Y-90071428D01*
X160900000Y-90185714D01*
X160938095Y-90223809D01*
X161661904Y-90947619D02*
X161661904Y-90566666D01*
X160861904Y-90566666D01*
X161661904Y-91214285D02*
X160861904Y-91214285D01*
X161661904Y-91671428D02*
X161204761Y-91328571D01*
X160861904Y-91671428D02*
X161319047Y-91214285D01*
X159185714Y-90966666D02*
X159223809Y-90928571D01*
X159261904Y-90814285D01*
X159261904Y-90738095D01*
X159223809Y-90623809D01*
X159147619Y-90547619D01*
X159071428Y-90509523D01*
X158919047Y-90471428D01*
X158804761Y-90471428D01*
X158652380Y-90509523D01*
X158576190Y-90547619D01*
X158500000Y-90623809D01*
X158461904Y-90738095D01*
X158461904Y-90814285D01*
X158500000Y-90928571D01*
X158538095Y-90966666D01*
X159223809Y-91271428D02*
X159261904Y-91385714D01*
X159261904Y-91576190D01*
X159223809Y-91652380D01*
X159185714Y-91690476D01*
X159109523Y-91728571D01*
X159033333Y-91728571D01*
X158957142Y-91690476D01*
X158919047Y-91652380D01*
X158880952Y-91576190D01*
X158842857Y-91423809D01*
X158804761Y-91347619D01*
X158766666Y-91309523D01*
X158690476Y-91271428D01*
X158614285Y-91271428D01*
X158538095Y-91309523D01*
X158500000Y-91347619D01*
X158461904Y-91423809D01*
X158461904Y-91614285D01*
X158500000Y-91728571D01*
X155900000Y-90090476D02*
X155861904Y-90014285D01*
X155861904Y-89900000D01*
X155900000Y-89785714D01*
X155976190Y-89709523D01*
X156052380Y-89671428D01*
X156204761Y-89633333D01*
X156319047Y-89633333D01*
X156471428Y-89671428D01*
X156547619Y-89709523D01*
X156623809Y-89785714D01*
X156661904Y-89900000D01*
X156661904Y-89976190D01*
X156623809Y-90090476D01*
X156585714Y-90128571D01*
X156319047Y-90128571D01*
X156319047Y-89976190D01*
X156661904Y-90471428D02*
X155861904Y-90471428D01*
X156661904Y-90928571D01*
X155861904Y-90928571D01*
X156661904Y-91309523D02*
X155861904Y-91309523D01*
X155861904Y-91500000D01*
X155900000Y-91614285D01*
X155976190Y-91690476D01*
X156052380Y-91728571D01*
X156204761Y-91766666D01*
X156319047Y-91766666D01*
X156471428Y-91728571D01*
X156547619Y-91690476D01*
X156623809Y-91614285D01*
X156661904Y-91500000D01*
X156661904Y-91309523D01*
X153261904Y-90061904D02*
X153261904Y-90557142D01*
X153566666Y-90290476D01*
X153566666Y-90404761D01*
X153604761Y-90480952D01*
X153642857Y-90519047D01*
X153719047Y-90557142D01*
X153909523Y-90557142D01*
X153985714Y-90519047D01*
X154023809Y-90480952D01*
X154061904Y-90404761D01*
X154061904Y-90176190D01*
X154023809Y-90100000D01*
X153985714Y-90061904D01*
X153985714Y-90900000D02*
X154023809Y-90938095D01*
X154061904Y-90900000D01*
X154023809Y-90861904D01*
X153985714Y-90900000D01*
X154061904Y-90900000D01*
X153261904Y-91204761D02*
X153261904Y-91700000D01*
X153566666Y-91433333D01*
X153566666Y-91547619D01*
X153604761Y-91623809D01*
X153642857Y-91661904D01*
X153719047Y-91700000D01*
X153909523Y-91700000D01*
X153985714Y-91661904D01*
X154023809Y-91623809D01*
X154061904Y-91547619D01*
X154061904Y-91319047D01*
X154023809Y-91242857D01*
X153985714Y-91204761D01*
X167242857Y-85758333D02*
X166861904Y-85758333D01*
X167319047Y-85986904D02*
X167052380Y-85186904D01*
X166785714Y-85986904D01*
X166519047Y-85453571D02*
X166519047Y-85986904D01*
X166519047Y-85529761D02*
X166480952Y-85491666D01*
X166404761Y-85453571D01*
X166290476Y-85453571D01*
X166214285Y-85491666D01*
X166176190Y-85567857D01*
X166176190Y-85986904D01*
X165452380Y-85453571D02*
X165452380Y-86101190D01*
X165490476Y-86177380D01*
X165528571Y-86215476D01*
X165604761Y-86253571D01*
X165719047Y-86253571D01*
X165795238Y-86215476D01*
X165452380Y-85948809D02*
X165528571Y-85986904D01*
X165680952Y-85986904D01*
X165757142Y-85948809D01*
X165795238Y-85910714D01*
X165833333Y-85834523D01*
X165833333Y-85605952D01*
X165795238Y-85529761D01*
X165757142Y-85491666D01*
X165680952Y-85453571D01*
X165528571Y-85453571D01*
X165452380Y-85491666D01*
X164957142Y-85986904D02*
X165033333Y-85948809D01*
X165071428Y-85872619D01*
X165071428Y-85186904D01*
X164347619Y-85948809D02*
X164423809Y-85986904D01*
X164576190Y-85986904D01*
X164652380Y-85948809D01*
X164690476Y-85872619D01*
X164690476Y-85567857D01*
X164652380Y-85491666D01*
X164576190Y-85453571D01*
X164423809Y-85453571D01*
X164347619Y-85491666D01*
X164309523Y-85567857D01*
X164309523Y-85644047D01*
X164690476Y-85720238D01*
X163395238Y-85948809D02*
X163280952Y-85986904D01*
X163090476Y-85986904D01*
X163014285Y-85948809D01*
X162976190Y-85910714D01*
X162938095Y-85834523D01*
X162938095Y-85758333D01*
X162976190Y-85682142D01*
X163014285Y-85644047D01*
X163090476Y-85605952D01*
X163242857Y-85567857D01*
X163319047Y-85529761D01*
X163357142Y-85491666D01*
X163395238Y-85415476D01*
X163395238Y-85339285D01*
X163357142Y-85263095D01*
X163319047Y-85225000D01*
X163242857Y-85186904D01*
X163052380Y-85186904D01*
X162938095Y-85225000D01*
X162290476Y-85948809D02*
X162366666Y-85986904D01*
X162519047Y-85986904D01*
X162595238Y-85948809D01*
X162633333Y-85872619D01*
X162633333Y-85567857D01*
X162595238Y-85491666D01*
X162519047Y-85453571D01*
X162366666Y-85453571D01*
X162290476Y-85491666D01*
X162252380Y-85567857D01*
X162252380Y-85644047D01*
X162633333Y-85720238D01*
X161909523Y-85453571D02*
X161909523Y-85986904D01*
X161909523Y-85529761D02*
X161871428Y-85491666D01*
X161795238Y-85453571D01*
X161680952Y-85453571D01*
X161604761Y-85491666D01*
X161566666Y-85567857D01*
X161566666Y-85986904D01*
X161223809Y-85948809D02*
X161147619Y-85986904D01*
X160995238Y-85986904D01*
X160919047Y-85948809D01*
X160880952Y-85872619D01*
X160880952Y-85834523D01*
X160919047Y-85758333D01*
X160995238Y-85720238D01*
X161109523Y-85720238D01*
X161185714Y-85682142D01*
X161223809Y-85605952D01*
X161223809Y-85567857D01*
X161185714Y-85491666D01*
X161109523Y-85453571D01*
X160995238Y-85453571D01*
X160919047Y-85491666D01*
X160423809Y-85986904D02*
X160500000Y-85948809D01*
X160538095Y-85910714D01*
X160576190Y-85834523D01*
X160576190Y-85605952D01*
X160538095Y-85529761D01*
X160500000Y-85491666D01*
X160423809Y-85453571D01*
X160309523Y-85453571D01*
X160233333Y-85491666D01*
X160195238Y-85529761D01*
X160157142Y-85605952D01*
X160157142Y-85834523D01*
X160195238Y-85910714D01*
X160233333Y-85948809D01*
X160309523Y-85986904D01*
X160423809Y-85986904D01*
X159814285Y-85986904D02*
X159814285Y-85453571D01*
X159814285Y-85605952D02*
X159776190Y-85529761D01*
X159738095Y-85491666D01*
X159661904Y-85453571D01*
X159585714Y-85453571D01*
X158785714Y-85453571D02*
X158633333Y-85986904D01*
X158480952Y-85605952D01*
X158328571Y-85986904D01*
X158176190Y-85453571D01*
X157871428Y-85986904D02*
X157871428Y-85453571D01*
X157871428Y-85186904D02*
X157909523Y-85225000D01*
X157871428Y-85263095D01*
X157833333Y-85225000D01*
X157871428Y-85186904D01*
X157871428Y-85263095D01*
X157604761Y-85453571D02*
X157300000Y-85453571D01*
X157490476Y-85186904D02*
X157490476Y-85872619D01*
X157452380Y-85948809D01*
X157376190Y-85986904D01*
X157300000Y-85986904D01*
X157033333Y-85986904D02*
X157033333Y-85186904D01*
X156690476Y-85986904D02*
X156690476Y-85567857D01*
X156728571Y-85491666D01*
X156804761Y-85453571D01*
X156919047Y-85453571D01*
X156995238Y-85491666D01*
X157033333Y-85529761D01*
X155700000Y-85986904D02*
X155700000Y-85186904D01*
X155433333Y-85758333D01*
X155166666Y-85186904D01*
X155166666Y-85986904D01*
X154823809Y-85758333D02*
X154442857Y-85758333D01*
X154900000Y-85986904D02*
X154633333Y-85186904D01*
X154366666Y-85986904D01*
X154176190Y-85186904D02*
X153642857Y-85186904D01*
X153985714Y-85986904D01*
X153414285Y-85186904D02*
X152919047Y-85186904D01*
X153185714Y-85491666D01*
X153071428Y-85491666D01*
X152995238Y-85529761D01*
X152957142Y-85567857D01*
X152919047Y-85644047D01*
X152919047Y-85834523D01*
X152957142Y-85910714D01*
X152995238Y-85948809D01*
X153071428Y-85986904D01*
X153300000Y-85986904D01*
X153376190Y-85948809D01*
X153414285Y-85910714D01*
X152652380Y-85186904D02*
X152119047Y-85986904D01*
X152119047Y-85186904D02*
X152652380Y-85986904D01*
X165033333Y-87260714D02*
X165071428Y-87298809D01*
X165185714Y-87336904D01*
X165261904Y-87336904D01*
X165376190Y-87298809D01*
X165452380Y-87222619D01*
X165490476Y-87146428D01*
X165528571Y-86994047D01*
X165528571Y-86879761D01*
X165490476Y-86727380D01*
X165452380Y-86651190D01*
X165376190Y-86575000D01*
X165261904Y-86536904D01*
X165185714Y-86536904D01*
X165071428Y-86575000D01*
X165033333Y-86613095D01*
X164690476Y-87336904D02*
X164690476Y-86803571D01*
X164690476Y-86955952D02*
X164652380Y-86879761D01*
X164614285Y-86841666D01*
X164538095Y-86803571D01*
X164461904Y-86803571D01*
X163890476Y-87298809D02*
X163966666Y-87336904D01*
X164119047Y-87336904D01*
X164195238Y-87298809D01*
X164233333Y-87222619D01*
X164233333Y-86917857D01*
X164195238Y-86841666D01*
X164119047Y-86803571D01*
X163966666Y-86803571D01*
X163890476Y-86841666D01*
X163852380Y-86917857D01*
X163852380Y-86994047D01*
X164233333Y-87070238D01*
X163547619Y-87298809D02*
X163471428Y-87336904D01*
X163319047Y-87336904D01*
X163242857Y-87298809D01*
X163204761Y-87222619D01*
X163204761Y-87184523D01*
X163242857Y-87108333D01*
X163319047Y-87070238D01*
X163433333Y-87070238D01*
X163509523Y-87032142D01*
X163547619Y-86955952D01*
X163547619Y-86917857D01*
X163509523Y-86841666D01*
X163433333Y-86803571D01*
X163319047Y-86803571D01*
X163242857Y-86841666D01*
X162519047Y-87298809D02*
X162595238Y-87336904D01*
X162747619Y-87336904D01*
X162823809Y-87298809D01*
X162861904Y-87260714D01*
X162900000Y-87184523D01*
X162900000Y-86955952D01*
X162861904Y-86879761D01*
X162823809Y-86841666D01*
X162747619Y-86803571D01*
X162595238Y-86803571D01*
X162519047Y-86841666D01*
X161871428Y-87298809D02*
X161947619Y-87336904D01*
X162100000Y-87336904D01*
X162176190Y-87298809D01*
X162214285Y-87222619D01*
X162214285Y-86917857D01*
X162176190Y-86841666D01*
X162100000Y-86803571D01*
X161947619Y-86803571D01*
X161871428Y-86841666D01*
X161833333Y-86917857D01*
X161833333Y-86994047D01*
X162214285Y-87070238D01*
X161490476Y-86803571D02*
X161490476Y-87336904D01*
X161490476Y-86879761D02*
X161452380Y-86841666D01*
X161376190Y-86803571D01*
X161261904Y-86803571D01*
X161185714Y-86841666D01*
X161147619Y-86917857D01*
X161147619Y-87336904D01*
X160880952Y-86803571D02*
X160576190Y-86803571D01*
X160766666Y-86536904D02*
X160766666Y-87222619D01*
X160728571Y-87298809D01*
X160652380Y-87336904D01*
X160576190Y-87336904D01*
X159738095Y-86613095D02*
X159700000Y-86575000D01*
X159623809Y-86536904D01*
X159433333Y-86536904D01*
X159357142Y-86575000D01*
X159319047Y-86613095D01*
X159280952Y-86689285D01*
X159280952Y-86765476D01*
X159319047Y-86879761D01*
X159776190Y-87336904D01*
X159280952Y-87336904D01*
X159014285Y-86536904D02*
X158519047Y-86536904D01*
X158785714Y-86841666D01*
X158671428Y-86841666D01*
X158595238Y-86879761D01*
X158557142Y-86917857D01*
X158519047Y-86994047D01*
X158519047Y-87184523D01*
X158557142Y-87260714D01*
X158595238Y-87298809D01*
X158671428Y-87336904D01*
X158900000Y-87336904D01*
X158976190Y-87298809D01*
X159014285Y-87260714D01*
X158023809Y-86536904D02*
X157947619Y-86536904D01*
X157871428Y-86575000D01*
X157833333Y-86613095D01*
X157795238Y-86689285D01*
X157757142Y-86841666D01*
X157757142Y-87032142D01*
X157795238Y-87184523D01*
X157833333Y-87260714D01*
X157871428Y-87298809D01*
X157947619Y-87336904D01*
X158023809Y-87336904D01*
X158100000Y-87298809D01*
X158138095Y-87260714D01*
X158176190Y-87184523D01*
X158214285Y-87032142D01*
X158214285Y-86841666D01*
X158176190Y-86689285D01*
X158138095Y-86613095D01*
X158100000Y-86575000D01*
X158023809Y-86536904D01*
X157071428Y-86536904D02*
X157223809Y-86536904D01*
X157300000Y-86575000D01*
X157338095Y-86613095D01*
X157414285Y-86727380D01*
X157452380Y-86879761D01*
X157452380Y-87184523D01*
X157414285Y-87260714D01*
X157376190Y-87298809D01*
X157300000Y-87336904D01*
X157147619Y-87336904D01*
X157071428Y-87298809D01*
X157033333Y-87260714D01*
X156995238Y-87184523D01*
X156995238Y-86994047D01*
X157033333Y-86917857D01*
X157071428Y-86879761D01*
X157147619Y-86841666D01*
X157300000Y-86841666D01*
X157376190Y-86879761D01*
X157414285Y-86917857D01*
X157452380Y-86994047D01*
X156119047Y-86803571D02*
X155928571Y-87336904D01*
X155738095Y-86803571D01*
X155014285Y-87336904D02*
X155471428Y-87336904D01*
X155242857Y-87336904D02*
X155242857Y-86536904D01*
X155319047Y-86651190D01*
X155395238Y-86727380D01*
X155471428Y-86765476D01*
X154671428Y-87260714D02*
X154633333Y-87298809D01*
X154671428Y-87336904D01*
X154709523Y-87298809D01*
X154671428Y-87260714D01*
X154671428Y-87336904D01*
X153871428Y-87336904D02*
X154328571Y-87336904D01*
X154100000Y-87336904D02*
X154100000Y-86536904D01*
X154176190Y-86651190D01*
X154252380Y-86727380D01*
X154328571Y-86765476D01*
%LPC*%
D11*
X166420000Y-93300000D03*
X163880000Y-93300000D03*
X161340000Y-93300000D03*
X158800000Y-93300000D03*
X156260000Y-93300000D03*
D12*
X153720000Y-93300000D03*
M02*
