G04 #@! TF.GenerationSoftware,KiCad,Pcbnew,(5.1.2)-1*
G04 #@! TF.CreationDate,2023-06-08T23:46:24+09:00*
G04 #@! TF.ProjectId,ma73x,6d613733-782e-46b6-9963-61645f706362,v1.1*
G04 #@! TF.SameCoordinates,Original*
G04 #@! TF.FileFunction,Soldermask,Bot*
G04 #@! TF.FilePolarity,Negative*
%FSLAX46Y46*%
G04 Gerber Fmt 4.6, Leading zero omitted, Abs format (unit mm)*
G04 Created by KiCad (PCBNEW (5.1.2)-1) date 2023-06-08 23:46:24*
%MOMM*%
%LPD*%
G04 APERTURE LIST*
%ADD10C,0.100000*%
G04 APERTURE END LIST*
D10*
G36*
X166530442Y-92405518D02*
G01*
X166596627Y-92412037D01*
X166766466Y-92463557D01*
X166922991Y-92547222D01*
X166958729Y-92576552D01*
X167060186Y-92659814D01*
X167143448Y-92761271D01*
X167172778Y-92797009D01*
X167256443Y-92953534D01*
X167307963Y-93123373D01*
X167325359Y-93300000D01*
X167307963Y-93476627D01*
X167256443Y-93646466D01*
X167172778Y-93802991D01*
X167143448Y-93838729D01*
X167060186Y-93940186D01*
X166958729Y-94023448D01*
X166922991Y-94052778D01*
X166766466Y-94136443D01*
X166596627Y-94187963D01*
X166530443Y-94194481D01*
X166464260Y-94201000D01*
X166375740Y-94201000D01*
X166309557Y-94194481D01*
X166243373Y-94187963D01*
X166073534Y-94136443D01*
X165917009Y-94052778D01*
X165881271Y-94023448D01*
X165779814Y-93940186D01*
X165696552Y-93838729D01*
X165667222Y-93802991D01*
X165583557Y-93646466D01*
X165532037Y-93476627D01*
X165514641Y-93300000D01*
X165532037Y-93123373D01*
X165583557Y-92953534D01*
X165667222Y-92797009D01*
X165696552Y-92761271D01*
X165779814Y-92659814D01*
X165881271Y-92576552D01*
X165917009Y-92547222D01*
X166073534Y-92463557D01*
X166243373Y-92412037D01*
X166309558Y-92405518D01*
X166375740Y-92399000D01*
X166464260Y-92399000D01*
X166530442Y-92405518D01*
X166530442Y-92405518D01*
G37*
G36*
X163990442Y-92405518D02*
G01*
X164056627Y-92412037D01*
X164226466Y-92463557D01*
X164382991Y-92547222D01*
X164418729Y-92576552D01*
X164520186Y-92659814D01*
X164603448Y-92761271D01*
X164632778Y-92797009D01*
X164716443Y-92953534D01*
X164767963Y-93123373D01*
X164785359Y-93300000D01*
X164767963Y-93476627D01*
X164716443Y-93646466D01*
X164632778Y-93802991D01*
X164603448Y-93838729D01*
X164520186Y-93940186D01*
X164418729Y-94023448D01*
X164382991Y-94052778D01*
X164226466Y-94136443D01*
X164056627Y-94187963D01*
X163990443Y-94194481D01*
X163924260Y-94201000D01*
X163835740Y-94201000D01*
X163769557Y-94194481D01*
X163703373Y-94187963D01*
X163533534Y-94136443D01*
X163377009Y-94052778D01*
X163341271Y-94023448D01*
X163239814Y-93940186D01*
X163156552Y-93838729D01*
X163127222Y-93802991D01*
X163043557Y-93646466D01*
X162992037Y-93476627D01*
X162974641Y-93300000D01*
X162992037Y-93123373D01*
X163043557Y-92953534D01*
X163127222Y-92797009D01*
X163156552Y-92761271D01*
X163239814Y-92659814D01*
X163341271Y-92576552D01*
X163377009Y-92547222D01*
X163533534Y-92463557D01*
X163703373Y-92412037D01*
X163769558Y-92405518D01*
X163835740Y-92399000D01*
X163924260Y-92399000D01*
X163990442Y-92405518D01*
X163990442Y-92405518D01*
G37*
G36*
X161450442Y-92405518D02*
G01*
X161516627Y-92412037D01*
X161686466Y-92463557D01*
X161842991Y-92547222D01*
X161878729Y-92576552D01*
X161980186Y-92659814D01*
X162063448Y-92761271D01*
X162092778Y-92797009D01*
X162176443Y-92953534D01*
X162227963Y-93123373D01*
X162245359Y-93300000D01*
X162227963Y-93476627D01*
X162176443Y-93646466D01*
X162092778Y-93802991D01*
X162063448Y-93838729D01*
X161980186Y-93940186D01*
X161878729Y-94023448D01*
X161842991Y-94052778D01*
X161686466Y-94136443D01*
X161516627Y-94187963D01*
X161450443Y-94194481D01*
X161384260Y-94201000D01*
X161295740Y-94201000D01*
X161229557Y-94194481D01*
X161163373Y-94187963D01*
X160993534Y-94136443D01*
X160837009Y-94052778D01*
X160801271Y-94023448D01*
X160699814Y-93940186D01*
X160616552Y-93838729D01*
X160587222Y-93802991D01*
X160503557Y-93646466D01*
X160452037Y-93476627D01*
X160434641Y-93300000D01*
X160452037Y-93123373D01*
X160503557Y-92953534D01*
X160587222Y-92797009D01*
X160616552Y-92761271D01*
X160699814Y-92659814D01*
X160801271Y-92576552D01*
X160837009Y-92547222D01*
X160993534Y-92463557D01*
X161163373Y-92412037D01*
X161229558Y-92405518D01*
X161295740Y-92399000D01*
X161384260Y-92399000D01*
X161450442Y-92405518D01*
X161450442Y-92405518D01*
G37*
G36*
X158910442Y-92405518D02*
G01*
X158976627Y-92412037D01*
X159146466Y-92463557D01*
X159302991Y-92547222D01*
X159338729Y-92576552D01*
X159440186Y-92659814D01*
X159523448Y-92761271D01*
X159552778Y-92797009D01*
X159636443Y-92953534D01*
X159687963Y-93123373D01*
X159705359Y-93300000D01*
X159687963Y-93476627D01*
X159636443Y-93646466D01*
X159552778Y-93802991D01*
X159523448Y-93838729D01*
X159440186Y-93940186D01*
X159338729Y-94023448D01*
X159302991Y-94052778D01*
X159146466Y-94136443D01*
X158976627Y-94187963D01*
X158910443Y-94194481D01*
X158844260Y-94201000D01*
X158755740Y-94201000D01*
X158689557Y-94194481D01*
X158623373Y-94187963D01*
X158453534Y-94136443D01*
X158297009Y-94052778D01*
X158261271Y-94023448D01*
X158159814Y-93940186D01*
X158076552Y-93838729D01*
X158047222Y-93802991D01*
X157963557Y-93646466D01*
X157912037Y-93476627D01*
X157894641Y-93300000D01*
X157912037Y-93123373D01*
X157963557Y-92953534D01*
X158047222Y-92797009D01*
X158076552Y-92761271D01*
X158159814Y-92659814D01*
X158261271Y-92576552D01*
X158297009Y-92547222D01*
X158453534Y-92463557D01*
X158623373Y-92412037D01*
X158689558Y-92405518D01*
X158755740Y-92399000D01*
X158844260Y-92399000D01*
X158910442Y-92405518D01*
X158910442Y-92405518D01*
G37*
G36*
X156370442Y-92405518D02*
G01*
X156436627Y-92412037D01*
X156606466Y-92463557D01*
X156762991Y-92547222D01*
X156798729Y-92576552D01*
X156900186Y-92659814D01*
X156983448Y-92761271D01*
X157012778Y-92797009D01*
X157096443Y-92953534D01*
X157147963Y-93123373D01*
X157165359Y-93300000D01*
X157147963Y-93476627D01*
X157096443Y-93646466D01*
X157012778Y-93802991D01*
X156983448Y-93838729D01*
X156900186Y-93940186D01*
X156798729Y-94023448D01*
X156762991Y-94052778D01*
X156606466Y-94136443D01*
X156436627Y-94187963D01*
X156370443Y-94194481D01*
X156304260Y-94201000D01*
X156215740Y-94201000D01*
X156149557Y-94194481D01*
X156083373Y-94187963D01*
X155913534Y-94136443D01*
X155757009Y-94052778D01*
X155721271Y-94023448D01*
X155619814Y-93940186D01*
X155536552Y-93838729D01*
X155507222Y-93802991D01*
X155423557Y-93646466D01*
X155372037Y-93476627D01*
X155354641Y-93300000D01*
X155372037Y-93123373D01*
X155423557Y-92953534D01*
X155507222Y-92797009D01*
X155536552Y-92761271D01*
X155619814Y-92659814D01*
X155721271Y-92576552D01*
X155757009Y-92547222D01*
X155913534Y-92463557D01*
X156083373Y-92412037D01*
X156149558Y-92405518D01*
X156215740Y-92399000D01*
X156304260Y-92399000D01*
X156370442Y-92405518D01*
X156370442Y-92405518D01*
G37*
G36*
X154621000Y-94201000D02*
G01*
X152819000Y-94201000D01*
X152819000Y-92399000D01*
X154621000Y-92399000D01*
X154621000Y-94201000D01*
X154621000Y-94201000D01*
G37*
M02*
