G04 #@! TF.GenerationSoftware,KiCad,Pcbnew,(5.1.2)-1*
G04 #@! TF.CreationDate,2023-06-09T20:40:53+09:00*
G04 #@! TF.ProjectId,ma73x,6d613733-782e-46b6-9963-61645f706362,v1.2*
G04 #@! TF.SameCoordinates,Original*
G04 #@! TF.FileFunction,Legend,Top*
G04 #@! TF.FilePolarity,Positive*
%FSLAX46Y46*%
G04 Gerber Fmt 4.6, Leading zero omitted, Abs format (unit mm)*
G04 Created by KiCad (PCBNEW (5.1.2)-1) date 2023-06-09 20:40:53*
%MOMM*%
%LPD*%
G04 APERTURE LIST*
%ADD10C,0.120000*%
%ADD11C,0.150000*%
%ADD12R,2.102000X2.102000*%
%ADD13O,1.802000X1.802000*%
%ADD14R,1.802000X1.802000*%
%ADD15C,0.100000*%
%ADD16C,1.802000*%
%ADD17C,0.352000*%
%ADD18C,0.977000*%
G04 APERTURE END LIST*
D10*
X164010000Y-88200000D02*
X164010000Y-85800000D01*
X166410000Y-88200000D02*
X164010000Y-88200000D01*
X166410000Y-85800000D02*
X166410000Y-88200000D01*
X164010000Y-85800000D02*
X166410000Y-85800000D01*
X153770000Y-88160000D02*
X153770000Y-85760000D01*
X156170000Y-88160000D02*
X153770000Y-88160000D01*
X156170000Y-85760000D02*
X156170000Y-88160000D01*
X153770000Y-85760000D02*
X156170000Y-85760000D01*
X151010000Y-94530000D02*
X151010000Y-93200000D01*
X152340000Y-94530000D02*
X151010000Y-94530000D01*
X153610000Y-94530000D02*
X153610000Y-91870000D01*
X153610000Y-91870000D02*
X168910000Y-91870000D01*
X153610000Y-94530000D02*
X168910000Y-94530000D01*
X168910000Y-94530000D02*
X168910000Y-91870000D01*
X158065000Y-72810000D02*
X157590000Y-72810000D01*
X157590000Y-72810000D02*
X157590000Y-72335000D01*
X160335000Y-69590000D02*
X160810000Y-69590000D01*
X160810000Y-69590000D02*
X160810000Y-70065000D01*
X158065000Y-69590000D02*
X157590000Y-69590000D01*
X157590000Y-69590000D02*
X157590000Y-70065000D01*
X160335000Y-72810000D02*
X160810000Y-72810000D01*
X157480000Y-78677221D02*
X157480000Y-79002779D01*
X158500000Y-78677221D02*
X158500000Y-79002779D01*
D11*
X163471904Y-84454380D02*
X164043333Y-84454380D01*
X163757619Y-85454380D02*
X163757619Y-84454380D01*
X164376666Y-85454380D02*
X164376666Y-84454380D01*
X164757619Y-84454380D01*
X164852857Y-84502000D01*
X164900476Y-84549619D01*
X164948095Y-84644857D01*
X164948095Y-84787714D01*
X164900476Y-84882952D01*
X164852857Y-84930571D01*
X164757619Y-84978190D01*
X164376666Y-84978190D01*
X165900476Y-85454380D02*
X165329047Y-85454380D01*
X165614761Y-85454380D02*
X165614761Y-84454380D01*
X165519523Y-84597238D01*
X165424285Y-84692476D01*
X165329047Y-84740095D01*
X166519523Y-84454380D02*
X166614761Y-84454380D01*
X166710000Y-84502000D01*
X166757619Y-84549619D01*
X166805238Y-84644857D01*
X166852857Y-84835333D01*
X166852857Y-85073428D01*
X166805238Y-85263904D01*
X166757619Y-85359142D01*
X166710000Y-85406761D01*
X166614761Y-85454380D01*
X166519523Y-85454380D01*
X166424285Y-85406761D01*
X166376666Y-85359142D01*
X166329047Y-85263904D01*
X166281428Y-85073428D01*
X166281428Y-84835333D01*
X166329047Y-84644857D01*
X166376666Y-84549619D01*
X166424285Y-84502000D01*
X166519523Y-84454380D01*
X153708095Y-84414380D02*
X154279523Y-84414380D01*
X153993809Y-85414380D02*
X153993809Y-84414380D01*
X154612857Y-85414380D02*
X154612857Y-84414380D01*
X154993809Y-84414380D01*
X155089047Y-84462000D01*
X155136666Y-84509619D01*
X155184285Y-84604857D01*
X155184285Y-84747714D01*
X155136666Y-84842952D01*
X155089047Y-84890571D01*
X154993809Y-84938190D01*
X154612857Y-84938190D01*
X155660476Y-85414380D02*
X155850952Y-85414380D01*
X155946190Y-85366761D01*
X155993809Y-85319142D01*
X156089047Y-85176285D01*
X156136666Y-84985809D01*
X156136666Y-84604857D01*
X156089047Y-84509619D01*
X156041428Y-84462000D01*
X155946190Y-84414380D01*
X155755714Y-84414380D01*
X155660476Y-84462000D01*
X155612857Y-84509619D01*
X155565238Y-84604857D01*
X155565238Y-84842952D01*
X155612857Y-84938190D01*
X155660476Y-84985809D01*
X155755714Y-85033428D01*
X155946190Y-85033428D01*
X156041428Y-84985809D01*
X156089047Y-84938190D01*
X156136666Y-84842952D01*
X154238095Y-70452380D02*
X154238095Y-71261904D01*
X154285714Y-71357142D01*
X154333333Y-71404761D01*
X154428571Y-71452380D01*
X154619047Y-71452380D01*
X154714285Y-71404761D01*
X154761904Y-71357142D01*
X154809523Y-71261904D01*
X154809523Y-70452380D01*
X155809523Y-71452380D02*
X155238095Y-71452380D01*
X155523809Y-71452380D02*
X155523809Y-70452380D01*
X155428571Y-70595238D01*
X155333333Y-70690476D01*
X155238095Y-70738095D01*
X156922142Y-79119166D02*
X156969761Y-79166785D01*
X157017380Y-79309642D01*
X157017380Y-79404880D01*
X156969761Y-79547738D01*
X156874523Y-79642976D01*
X156779285Y-79690595D01*
X156588809Y-79738214D01*
X156445952Y-79738214D01*
X156255476Y-79690595D01*
X156160238Y-79642976D01*
X156065000Y-79547738D01*
X156017380Y-79404880D01*
X156017380Y-79309642D01*
X156065000Y-79166785D01*
X156112619Y-79119166D01*
X157017380Y-78166785D02*
X157017380Y-78738214D01*
X157017380Y-78452500D02*
X156017380Y-78452500D01*
X156160238Y-78547738D01*
X156255476Y-78642976D01*
X156303095Y-78738214D01*
%LPC*%
D12*
X165210000Y-87000000D03*
X154970000Y-86960000D03*
D13*
X167580000Y-93200000D03*
X165040000Y-93200000D03*
X162500000Y-93200000D03*
X159960000Y-93200000D03*
X157420000Y-93200000D03*
X154880000Y-93200000D03*
D14*
X152340000Y-93200000D03*
D15*
G36*
X159861975Y-70300276D02*
G01*
X159887699Y-70304092D01*
X159912925Y-70310411D01*
X159937411Y-70319172D01*
X159960920Y-70330291D01*
X159983226Y-70343661D01*
X160004114Y-70359152D01*
X160023383Y-70376617D01*
X160040848Y-70395886D01*
X160056339Y-70416774D01*
X160069709Y-70439080D01*
X160080828Y-70462589D01*
X160089589Y-70487075D01*
X160095908Y-70512301D01*
X160099724Y-70538025D01*
X160101000Y-70564000D01*
X160101000Y-71836000D01*
X160099724Y-71861975D01*
X160095908Y-71887699D01*
X160089589Y-71912925D01*
X160080828Y-71937411D01*
X160069709Y-71960920D01*
X160056339Y-71983226D01*
X160040848Y-72004114D01*
X160023383Y-72023383D01*
X160004114Y-72040848D01*
X159983226Y-72056339D01*
X159960920Y-72069709D01*
X159937411Y-72080828D01*
X159912925Y-72089589D01*
X159887699Y-72095908D01*
X159861975Y-72099724D01*
X159836000Y-72101000D01*
X158564000Y-72101000D01*
X158538025Y-72099724D01*
X158512301Y-72095908D01*
X158487075Y-72089589D01*
X158462589Y-72080828D01*
X158439080Y-72069709D01*
X158416774Y-72056339D01*
X158395886Y-72040848D01*
X158376617Y-72023383D01*
X158359152Y-72004114D01*
X158343661Y-71983226D01*
X158330291Y-71960920D01*
X158319172Y-71937411D01*
X158310411Y-71912925D01*
X158304092Y-71887699D01*
X158300276Y-71861975D01*
X158299000Y-71836000D01*
X158299000Y-70564000D01*
X158300276Y-70538025D01*
X158304092Y-70512301D01*
X158310411Y-70487075D01*
X158319172Y-70462589D01*
X158330291Y-70439080D01*
X158343661Y-70416774D01*
X158359152Y-70395886D01*
X158376617Y-70376617D01*
X158395886Y-70359152D01*
X158416774Y-70343661D01*
X158439080Y-70330291D01*
X158462589Y-70319172D01*
X158487075Y-70310411D01*
X158512301Y-70304092D01*
X158538025Y-70300276D01*
X158564000Y-70299000D01*
X159836000Y-70299000D01*
X159861975Y-70300276D01*
X159861975Y-70300276D01*
G37*
D16*
X159200000Y-71200000D03*
D15*
G36*
X161046626Y-71774424D02*
G01*
X161055168Y-71775691D01*
X161063545Y-71777789D01*
X161071676Y-71780699D01*
X161079483Y-71784391D01*
X161086890Y-71788831D01*
X161093827Y-71793975D01*
X161100225Y-71799775D01*
X161106025Y-71806173D01*
X161111169Y-71813110D01*
X161115609Y-71820517D01*
X161119301Y-71828324D01*
X161122211Y-71836455D01*
X161124309Y-71844832D01*
X161125576Y-71853374D01*
X161126000Y-71862000D01*
X161126000Y-72038000D01*
X161125576Y-72046626D01*
X161124309Y-72055168D01*
X161122211Y-72063545D01*
X161119301Y-72071676D01*
X161115609Y-72079483D01*
X161111169Y-72086890D01*
X161106025Y-72093827D01*
X161100225Y-72100225D01*
X161093827Y-72106025D01*
X161086890Y-72111169D01*
X161079483Y-72115609D01*
X161071676Y-72119301D01*
X161063545Y-72122211D01*
X161055168Y-72124309D01*
X161046626Y-72125576D01*
X161038000Y-72126000D01*
X160287000Y-72126000D01*
X160278374Y-72125576D01*
X160269832Y-72124309D01*
X160261455Y-72122211D01*
X160253324Y-72119301D01*
X160245517Y-72115609D01*
X160238110Y-72111169D01*
X160231173Y-72106025D01*
X160224775Y-72100225D01*
X160218975Y-72093827D01*
X160213831Y-72086890D01*
X160209391Y-72079483D01*
X160205699Y-72071676D01*
X160202789Y-72063545D01*
X160200691Y-72055168D01*
X160199424Y-72046626D01*
X160199000Y-72038000D01*
X160199000Y-71862000D01*
X160199424Y-71853374D01*
X160200691Y-71844832D01*
X160202789Y-71836455D01*
X160205699Y-71828324D01*
X160209391Y-71820517D01*
X160213831Y-71813110D01*
X160218975Y-71806173D01*
X160224775Y-71799775D01*
X160231173Y-71793975D01*
X160238110Y-71788831D01*
X160245517Y-71784391D01*
X160253324Y-71780699D01*
X160261455Y-71777789D01*
X160269832Y-71775691D01*
X160278374Y-71774424D01*
X160287000Y-71774000D01*
X161038000Y-71774000D01*
X161046626Y-71774424D01*
X161046626Y-71774424D01*
G37*
D17*
X160662500Y-71950000D03*
D15*
G36*
X161046626Y-71274424D02*
G01*
X161055168Y-71275691D01*
X161063545Y-71277789D01*
X161071676Y-71280699D01*
X161079483Y-71284391D01*
X161086890Y-71288831D01*
X161093827Y-71293975D01*
X161100225Y-71299775D01*
X161106025Y-71306173D01*
X161111169Y-71313110D01*
X161115609Y-71320517D01*
X161119301Y-71328324D01*
X161122211Y-71336455D01*
X161124309Y-71344832D01*
X161125576Y-71353374D01*
X161126000Y-71362000D01*
X161126000Y-71538000D01*
X161125576Y-71546626D01*
X161124309Y-71555168D01*
X161122211Y-71563545D01*
X161119301Y-71571676D01*
X161115609Y-71579483D01*
X161111169Y-71586890D01*
X161106025Y-71593827D01*
X161100225Y-71600225D01*
X161093827Y-71606025D01*
X161086890Y-71611169D01*
X161079483Y-71615609D01*
X161071676Y-71619301D01*
X161063545Y-71622211D01*
X161055168Y-71624309D01*
X161046626Y-71625576D01*
X161038000Y-71626000D01*
X160287000Y-71626000D01*
X160278374Y-71625576D01*
X160269832Y-71624309D01*
X160261455Y-71622211D01*
X160253324Y-71619301D01*
X160245517Y-71615609D01*
X160238110Y-71611169D01*
X160231173Y-71606025D01*
X160224775Y-71600225D01*
X160218975Y-71593827D01*
X160213831Y-71586890D01*
X160209391Y-71579483D01*
X160205699Y-71571676D01*
X160202789Y-71563545D01*
X160200691Y-71555168D01*
X160199424Y-71546626D01*
X160199000Y-71538000D01*
X160199000Y-71362000D01*
X160199424Y-71353374D01*
X160200691Y-71344832D01*
X160202789Y-71336455D01*
X160205699Y-71328324D01*
X160209391Y-71320517D01*
X160213831Y-71313110D01*
X160218975Y-71306173D01*
X160224775Y-71299775D01*
X160231173Y-71293975D01*
X160238110Y-71288831D01*
X160245517Y-71284391D01*
X160253324Y-71280699D01*
X160261455Y-71277789D01*
X160269832Y-71275691D01*
X160278374Y-71274424D01*
X160287000Y-71274000D01*
X161038000Y-71274000D01*
X161046626Y-71274424D01*
X161046626Y-71274424D01*
G37*
D17*
X160662500Y-71450000D03*
D15*
G36*
X161046626Y-70774424D02*
G01*
X161055168Y-70775691D01*
X161063545Y-70777789D01*
X161071676Y-70780699D01*
X161079483Y-70784391D01*
X161086890Y-70788831D01*
X161093827Y-70793975D01*
X161100225Y-70799775D01*
X161106025Y-70806173D01*
X161111169Y-70813110D01*
X161115609Y-70820517D01*
X161119301Y-70828324D01*
X161122211Y-70836455D01*
X161124309Y-70844832D01*
X161125576Y-70853374D01*
X161126000Y-70862000D01*
X161126000Y-71038000D01*
X161125576Y-71046626D01*
X161124309Y-71055168D01*
X161122211Y-71063545D01*
X161119301Y-71071676D01*
X161115609Y-71079483D01*
X161111169Y-71086890D01*
X161106025Y-71093827D01*
X161100225Y-71100225D01*
X161093827Y-71106025D01*
X161086890Y-71111169D01*
X161079483Y-71115609D01*
X161071676Y-71119301D01*
X161063545Y-71122211D01*
X161055168Y-71124309D01*
X161046626Y-71125576D01*
X161038000Y-71126000D01*
X160287000Y-71126000D01*
X160278374Y-71125576D01*
X160269832Y-71124309D01*
X160261455Y-71122211D01*
X160253324Y-71119301D01*
X160245517Y-71115609D01*
X160238110Y-71111169D01*
X160231173Y-71106025D01*
X160224775Y-71100225D01*
X160218975Y-71093827D01*
X160213831Y-71086890D01*
X160209391Y-71079483D01*
X160205699Y-71071676D01*
X160202789Y-71063545D01*
X160200691Y-71055168D01*
X160199424Y-71046626D01*
X160199000Y-71038000D01*
X160199000Y-70862000D01*
X160199424Y-70853374D01*
X160200691Y-70844832D01*
X160202789Y-70836455D01*
X160205699Y-70828324D01*
X160209391Y-70820517D01*
X160213831Y-70813110D01*
X160218975Y-70806173D01*
X160224775Y-70799775D01*
X160231173Y-70793975D01*
X160238110Y-70788831D01*
X160245517Y-70784391D01*
X160253324Y-70780699D01*
X160261455Y-70777789D01*
X160269832Y-70775691D01*
X160278374Y-70774424D01*
X160287000Y-70774000D01*
X161038000Y-70774000D01*
X161046626Y-70774424D01*
X161046626Y-70774424D01*
G37*
D17*
X160662500Y-70950000D03*
D15*
G36*
X161046626Y-70274424D02*
G01*
X161055168Y-70275691D01*
X161063545Y-70277789D01*
X161071676Y-70280699D01*
X161079483Y-70284391D01*
X161086890Y-70288831D01*
X161093827Y-70293975D01*
X161100225Y-70299775D01*
X161106025Y-70306173D01*
X161111169Y-70313110D01*
X161115609Y-70320517D01*
X161119301Y-70328324D01*
X161122211Y-70336455D01*
X161124309Y-70344832D01*
X161125576Y-70353374D01*
X161126000Y-70362000D01*
X161126000Y-70538000D01*
X161125576Y-70546626D01*
X161124309Y-70555168D01*
X161122211Y-70563545D01*
X161119301Y-70571676D01*
X161115609Y-70579483D01*
X161111169Y-70586890D01*
X161106025Y-70593827D01*
X161100225Y-70600225D01*
X161093827Y-70606025D01*
X161086890Y-70611169D01*
X161079483Y-70615609D01*
X161071676Y-70619301D01*
X161063545Y-70622211D01*
X161055168Y-70624309D01*
X161046626Y-70625576D01*
X161038000Y-70626000D01*
X160287000Y-70626000D01*
X160278374Y-70625576D01*
X160269832Y-70624309D01*
X160261455Y-70622211D01*
X160253324Y-70619301D01*
X160245517Y-70615609D01*
X160238110Y-70611169D01*
X160231173Y-70606025D01*
X160224775Y-70600225D01*
X160218975Y-70593827D01*
X160213831Y-70586890D01*
X160209391Y-70579483D01*
X160205699Y-70571676D01*
X160202789Y-70563545D01*
X160200691Y-70555168D01*
X160199424Y-70546626D01*
X160199000Y-70538000D01*
X160199000Y-70362000D01*
X160199424Y-70353374D01*
X160200691Y-70344832D01*
X160202789Y-70336455D01*
X160205699Y-70328324D01*
X160209391Y-70320517D01*
X160213831Y-70313110D01*
X160218975Y-70306173D01*
X160224775Y-70299775D01*
X160231173Y-70293975D01*
X160238110Y-70288831D01*
X160245517Y-70284391D01*
X160253324Y-70280699D01*
X160261455Y-70277789D01*
X160269832Y-70275691D01*
X160278374Y-70274424D01*
X160287000Y-70274000D01*
X161038000Y-70274000D01*
X161046626Y-70274424D01*
X161046626Y-70274424D01*
G37*
D17*
X160662500Y-70450000D03*
D15*
G36*
X160046626Y-69274424D02*
G01*
X160055168Y-69275691D01*
X160063545Y-69277789D01*
X160071676Y-69280699D01*
X160079483Y-69284391D01*
X160086890Y-69288831D01*
X160093827Y-69293975D01*
X160100225Y-69299775D01*
X160106025Y-69306173D01*
X160111169Y-69313110D01*
X160115609Y-69320517D01*
X160119301Y-69328324D01*
X160122211Y-69336455D01*
X160124309Y-69344832D01*
X160125576Y-69353374D01*
X160126000Y-69362000D01*
X160126000Y-70113000D01*
X160125576Y-70121626D01*
X160124309Y-70130168D01*
X160122211Y-70138545D01*
X160119301Y-70146676D01*
X160115609Y-70154483D01*
X160111169Y-70161890D01*
X160106025Y-70168827D01*
X160100225Y-70175225D01*
X160093827Y-70181025D01*
X160086890Y-70186169D01*
X160079483Y-70190609D01*
X160071676Y-70194301D01*
X160063545Y-70197211D01*
X160055168Y-70199309D01*
X160046626Y-70200576D01*
X160038000Y-70201000D01*
X159862000Y-70201000D01*
X159853374Y-70200576D01*
X159844832Y-70199309D01*
X159836455Y-70197211D01*
X159828324Y-70194301D01*
X159820517Y-70190609D01*
X159813110Y-70186169D01*
X159806173Y-70181025D01*
X159799775Y-70175225D01*
X159793975Y-70168827D01*
X159788831Y-70161890D01*
X159784391Y-70154483D01*
X159780699Y-70146676D01*
X159777789Y-70138545D01*
X159775691Y-70130168D01*
X159774424Y-70121626D01*
X159774000Y-70113000D01*
X159774000Y-69362000D01*
X159774424Y-69353374D01*
X159775691Y-69344832D01*
X159777789Y-69336455D01*
X159780699Y-69328324D01*
X159784391Y-69320517D01*
X159788831Y-69313110D01*
X159793975Y-69306173D01*
X159799775Y-69299775D01*
X159806173Y-69293975D01*
X159813110Y-69288831D01*
X159820517Y-69284391D01*
X159828324Y-69280699D01*
X159836455Y-69277789D01*
X159844832Y-69275691D01*
X159853374Y-69274424D01*
X159862000Y-69274000D01*
X160038000Y-69274000D01*
X160046626Y-69274424D01*
X160046626Y-69274424D01*
G37*
D17*
X159950000Y-69737500D03*
D15*
G36*
X159546626Y-69274424D02*
G01*
X159555168Y-69275691D01*
X159563545Y-69277789D01*
X159571676Y-69280699D01*
X159579483Y-69284391D01*
X159586890Y-69288831D01*
X159593827Y-69293975D01*
X159600225Y-69299775D01*
X159606025Y-69306173D01*
X159611169Y-69313110D01*
X159615609Y-69320517D01*
X159619301Y-69328324D01*
X159622211Y-69336455D01*
X159624309Y-69344832D01*
X159625576Y-69353374D01*
X159626000Y-69362000D01*
X159626000Y-70113000D01*
X159625576Y-70121626D01*
X159624309Y-70130168D01*
X159622211Y-70138545D01*
X159619301Y-70146676D01*
X159615609Y-70154483D01*
X159611169Y-70161890D01*
X159606025Y-70168827D01*
X159600225Y-70175225D01*
X159593827Y-70181025D01*
X159586890Y-70186169D01*
X159579483Y-70190609D01*
X159571676Y-70194301D01*
X159563545Y-70197211D01*
X159555168Y-70199309D01*
X159546626Y-70200576D01*
X159538000Y-70201000D01*
X159362000Y-70201000D01*
X159353374Y-70200576D01*
X159344832Y-70199309D01*
X159336455Y-70197211D01*
X159328324Y-70194301D01*
X159320517Y-70190609D01*
X159313110Y-70186169D01*
X159306173Y-70181025D01*
X159299775Y-70175225D01*
X159293975Y-70168827D01*
X159288831Y-70161890D01*
X159284391Y-70154483D01*
X159280699Y-70146676D01*
X159277789Y-70138545D01*
X159275691Y-70130168D01*
X159274424Y-70121626D01*
X159274000Y-70113000D01*
X159274000Y-69362000D01*
X159274424Y-69353374D01*
X159275691Y-69344832D01*
X159277789Y-69336455D01*
X159280699Y-69328324D01*
X159284391Y-69320517D01*
X159288831Y-69313110D01*
X159293975Y-69306173D01*
X159299775Y-69299775D01*
X159306173Y-69293975D01*
X159313110Y-69288831D01*
X159320517Y-69284391D01*
X159328324Y-69280699D01*
X159336455Y-69277789D01*
X159344832Y-69275691D01*
X159353374Y-69274424D01*
X159362000Y-69274000D01*
X159538000Y-69274000D01*
X159546626Y-69274424D01*
X159546626Y-69274424D01*
G37*
D17*
X159450000Y-69737500D03*
D15*
G36*
X159046626Y-69274424D02*
G01*
X159055168Y-69275691D01*
X159063545Y-69277789D01*
X159071676Y-69280699D01*
X159079483Y-69284391D01*
X159086890Y-69288831D01*
X159093827Y-69293975D01*
X159100225Y-69299775D01*
X159106025Y-69306173D01*
X159111169Y-69313110D01*
X159115609Y-69320517D01*
X159119301Y-69328324D01*
X159122211Y-69336455D01*
X159124309Y-69344832D01*
X159125576Y-69353374D01*
X159126000Y-69362000D01*
X159126000Y-70113000D01*
X159125576Y-70121626D01*
X159124309Y-70130168D01*
X159122211Y-70138545D01*
X159119301Y-70146676D01*
X159115609Y-70154483D01*
X159111169Y-70161890D01*
X159106025Y-70168827D01*
X159100225Y-70175225D01*
X159093827Y-70181025D01*
X159086890Y-70186169D01*
X159079483Y-70190609D01*
X159071676Y-70194301D01*
X159063545Y-70197211D01*
X159055168Y-70199309D01*
X159046626Y-70200576D01*
X159038000Y-70201000D01*
X158862000Y-70201000D01*
X158853374Y-70200576D01*
X158844832Y-70199309D01*
X158836455Y-70197211D01*
X158828324Y-70194301D01*
X158820517Y-70190609D01*
X158813110Y-70186169D01*
X158806173Y-70181025D01*
X158799775Y-70175225D01*
X158793975Y-70168827D01*
X158788831Y-70161890D01*
X158784391Y-70154483D01*
X158780699Y-70146676D01*
X158777789Y-70138545D01*
X158775691Y-70130168D01*
X158774424Y-70121626D01*
X158774000Y-70113000D01*
X158774000Y-69362000D01*
X158774424Y-69353374D01*
X158775691Y-69344832D01*
X158777789Y-69336455D01*
X158780699Y-69328324D01*
X158784391Y-69320517D01*
X158788831Y-69313110D01*
X158793975Y-69306173D01*
X158799775Y-69299775D01*
X158806173Y-69293975D01*
X158813110Y-69288831D01*
X158820517Y-69284391D01*
X158828324Y-69280699D01*
X158836455Y-69277789D01*
X158844832Y-69275691D01*
X158853374Y-69274424D01*
X158862000Y-69274000D01*
X159038000Y-69274000D01*
X159046626Y-69274424D01*
X159046626Y-69274424D01*
G37*
D17*
X158950000Y-69737500D03*
D15*
G36*
X158546626Y-69274424D02*
G01*
X158555168Y-69275691D01*
X158563545Y-69277789D01*
X158571676Y-69280699D01*
X158579483Y-69284391D01*
X158586890Y-69288831D01*
X158593827Y-69293975D01*
X158600225Y-69299775D01*
X158606025Y-69306173D01*
X158611169Y-69313110D01*
X158615609Y-69320517D01*
X158619301Y-69328324D01*
X158622211Y-69336455D01*
X158624309Y-69344832D01*
X158625576Y-69353374D01*
X158626000Y-69362000D01*
X158626000Y-70113000D01*
X158625576Y-70121626D01*
X158624309Y-70130168D01*
X158622211Y-70138545D01*
X158619301Y-70146676D01*
X158615609Y-70154483D01*
X158611169Y-70161890D01*
X158606025Y-70168827D01*
X158600225Y-70175225D01*
X158593827Y-70181025D01*
X158586890Y-70186169D01*
X158579483Y-70190609D01*
X158571676Y-70194301D01*
X158563545Y-70197211D01*
X158555168Y-70199309D01*
X158546626Y-70200576D01*
X158538000Y-70201000D01*
X158362000Y-70201000D01*
X158353374Y-70200576D01*
X158344832Y-70199309D01*
X158336455Y-70197211D01*
X158328324Y-70194301D01*
X158320517Y-70190609D01*
X158313110Y-70186169D01*
X158306173Y-70181025D01*
X158299775Y-70175225D01*
X158293975Y-70168827D01*
X158288831Y-70161890D01*
X158284391Y-70154483D01*
X158280699Y-70146676D01*
X158277789Y-70138545D01*
X158275691Y-70130168D01*
X158274424Y-70121626D01*
X158274000Y-70113000D01*
X158274000Y-69362000D01*
X158274424Y-69353374D01*
X158275691Y-69344832D01*
X158277789Y-69336455D01*
X158280699Y-69328324D01*
X158284391Y-69320517D01*
X158288831Y-69313110D01*
X158293975Y-69306173D01*
X158299775Y-69299775D01*
X158306173Y-69293975D01*
X158313110Y-69288831D01*
X158320517Y-69284391D01*
X158328324Y-69280699D01*
X158336455Y-69277789D01*
X158344832Y-69275691D01*
X158353374Y-69274424D01*
X158362000Y-69274000D01*
X158538000Y-69274000D01*
X158546626Y-69274424D01*
X158546626Y-69274424D01*
G37*
D17*
X158450000Y-69737500D03*
D15*
G36*
X158121626Y-70274424D02*
G01*
X158130168Y-70275691D01*
X158138545Y-70277789D01*
X158146676Y-70280699D01*
X158154483Y-70284391D01*
X158161890Y-70288831D01*
X158168827Y-70293975D01*
X158175225Y-70299775D01*
X158181025Y-70306173D01*
X158186169Y-70313110D01*
X158190609Y-70320517D01*
X158194301Y-70328324D01*
X158197211Y-70336455D01*
X158199309Y-70344832D01*
X158200576Y-70353374D01*
X158201000Y-70362000D01*
X158201000Y-70538000D01*
X158200576Y-70546626D01*
X158199309Y-70555168D01*
X158197211Y-70563545D01*
X158194301Y-70571676D01*
X158190609Y-70579483D01*
X158186169Y-70586890D01*
X158181025Y-70593827D01*
X158175225Y-70600225D01*
X158168827Y-70606025D01*
X158161890Y-70611169D01*
X158154483Y-70615609D01*
X158146676Y-70619301D01*
X158138545Y-70622211D01*
X158130168Y-70624309D01*
X158121626Y-70625576D01*
X158113000Y-70626000D01*
X157362000Y-70626000D01*
X157353374Y-70625576D01*
X157344832Y-70624309D01*
X157336455Y-70622211D01*
X157328324Y-70619301D01*
X157320517Y-70615609D01*
X157313110Y-70611169D01*
X157306173Y-70606025D01*
X157299775Y-70600225D01*
X157293975Y-70593827D01*
X157288831Y-70586890D01*
X157284391Y-70579483D01*
X157280699Y-70571676D01*
X157277789Y-70563545D01*
X157275691Y-70555168D01*
X157274424Y-70546626D01*
X157274000Y-70538000D01*
X157274000Y-70362000D01*
X157274424Y-70353374D01*
X157275691Y-70344832D01*
X157277789Y-70336455D01*
X157280699Y-70328324D01*
X157284391Y-70320517D01*
X157288831Y-70313110D01*
X157293975Y-70306173D01*
X157299775Y-70299775D01*
X157306173Y-70293975D01*
X157313110Y-70288831D01*
X157320517Y-70284391D01*
X157328324Y-70280699D01*
X157336455Y-70277789D01*
X157344832Y-70275691D01*
X157353374Y-70274424D01*
X157362000Y-70274000D01*
X158113000Y-70274000D01*
X158121626Y-70274424D01*
X158121626Y-70274424D01*
G37*
D17*
X157737500Y-70450000D03*
D15*
G36*
X158121626Y-70774424D02*
G01*
X158130168Y-70775691D01*
X158138545Y-70777789D01*
X158146676Y-70780699D01*
X158154483Y-70784391D01*
X158161890Y-70788831D01*
X158168827Y-70793975D01*
X158175225Y-70799775D01*
X158181025Y-70806173D01*
X158186169Y-70813110D01*
X158190609Y-70820517D01*
X158194301Y-70828324D01*
X158197211Y-70836455D01*
X158199309Y-70844832D01*
X158200576Y-70853374D01*
X158201000Y-70862000D01*
X158201000Y-71038000D01*
X158200576Y-71046626D01*
X158199309Y-71055168D01*
X158197211Y-71063545D01*
X158194301Y-71071676D01*
X158190609Y-71079483D01*
X158186169Y-71086890D01*
X158181025Y-71093827D01*
X158175225Y-71100225D01*
X158168827Y-71106025D01*
X158161890Y-71111169D01*
X158154483Y-71115609D01*
X158146676Y-71119301D01*
X158138545Y-71122211D01*
X158130168Y-71124309D01*
X158121626Y-71125576D01*
X158113000Y-71126000D01*
X157362000Y-71126000D01*
X157353374Y-71125576D01*
X157344832Y-71124309D01*
X157336455Y-71122211D01*
X157328324Y-71119301D01*
X157320517Y-71115609D01*
X157313110Y-71111169D01*
X157306173Y-71106025D01*
X157299775Y-71100225D01*
X157293975Y-71093827D01*
X157288831Y-71086890D01*
X157284391Y-71079483D01*
X157280699Y-71071676D01*
X157277789Y-71063545D01*
X157275691Y-71055168D01*
X157274424Y-71046626D01*
X157274000Y-71038000D01*
X157274000Y-70862000D01*
X157274424Y-70853374D01*
X157275691Y-70844832D01*
X157277789Y-70836455D01*
X157280699Y-70828324D01*
X157284391Y-70820517D01*
X157288831Y-70813110D01*
X157293975Y-70806173D01*
X157299775Y-70799775D01*
X157306173Y-70793975D01*
X157313110Y-70788831D01*
X157320517Y-70784391D01*
X157328324Y-70780699D01*
X157336455Y-70777789D01*
X157344832Y-70775691D01*
X157353374Y-70774424D01*
X157362000Y-70774000D01*
X158113000Y-70774000D01*
X158121626Y-70774424D01*
X158121626Y-70774424D01*
G37*
D17*
X157737500Y-70950000D03*
D15*
G36*
X158121626Y-71274424D02*
G01*
X158130168Y-71275691D01*
X158138545Y-71277789D01*
X158146676Y-71280699D01*
X158154483Y-71284391D01*
X158161890Y-71288831D01*
X158168827Y-71293975D01*
X158175225Y-71299775D01*
X158181025Y-71306173D01*
X158186169Y-71313110D01*
X158190609Y-71320517D01*
X158194301Y-71328324D01*
X158197211Y-71336455D01*
X158199309Y-71344832D01*
X158200576Y-71353374D01*
X158201000Y-71362000D01*
X158201000Y-71538000D01*
X158200576Y-71546626D01*
X158199309Y-71555168D01*
X158197211Y-71563545D01*
X158194301Y-71571676D01*
X158190609Y-71579483D01*
X158186169Y-71586890D01*
X158181025Y-71593827D01*
X158175225Y-71600225D01*
X158168827Y-71606025D01*
X158161890Y-71611169D01*
X158154483Y-71615609D01*
X158146676Y-71619301D01*
X158138545Y-71622211D01*
X158130168Y-71624309D01*
X158121626Y-71625576D01*
X158113000Y-71626000D01*
X157362000Y-71626000D01*
X157353374Y-71625576D01*
X157344832Y-71624309D01*
X157336455Y-71622211D01*
X157328324Y-71619301D01*
X157320517Y-71615609D01*
X157313110Y-71611169D01*
X157306173Y-71606025D01*
X157299775Y-71600225D01*
X157293975Y-71593827D01*
X157288831Y-71586890D01*
X157284391Y-71579483D01*
X157280699Y-71571676D01*
X157277789Y-71563545D01*
X157275691Y-71555168D01*
X157274424Y-71546626D01*
X157274000Y-71538000D01*
X157274000Y-71362000D01*
X157274424Y-71353374D01*
X157275691Y-71344832D01*
X157277789Y-71336455D01*
X157280699Y-71328324D01*
X157284391Y-71320517D01*
X157288831Y-71313110D01*
X157293975Y-71306173D01*
X157299775Y-71299775D01*
X157306173Y-71293975D01*
X157313110Y-71288831D01*
X157320517Y-71284391D01*
X157328324Y-71280699D01*
X157336455Y-71277789D01*
X157344832Y-71275691D01*
X157353374Y-71274424D01*
X157362000Y-71274000D01*
X158113000Y-71274000D01*
X158121626Y-71274424D01*
X158121626Y-71274424D01*
G37*
D17*
X157737500Y-71450000D03*
D15*
G36*
X158121626Y-71774424D02*
G01*
X158130168Y-71775691D01*
X158138545Y-71777789D01*
X158146676Y-71780699D01*
X158154483Y-71784391D01*
X158161890Y-71788831D01*
X158168827Y-71793975D01*
X158175225Y-71799775D01*
X158181025Y-71806173D01*
X158186169Y-71813110D01*
X158190609Y-71820517D01*
X158194301Y-71828324D01*
X158197211Y-71836455D01*
X158199309Y-71844832D01*
X158200576Y-71853374D01*
X158201000Y-71862000D01*
X158201000Y-72038000D01*
X158200576Y-72046626D01*
X158199309Y-72055168D01*
X158197211Y-72063545D01*
X158194301Y-72071676D01*
X158190609Y-72079483D01*
X158186169Y-72086890D01*
X158181025Y-72093827D01*
X158175225Y-72100225D01*
X158168827Y-72106025D01*
X158161890Y-72111169D01*
X158154483Y-72115609D01*
X158146676Y-72119301D01*
X158138545Y-72122211D01*
X158130168Y-72124309D01*
X158121626Y-72125576D01*
X158113000Y-72126000D01*
X157362000Y-72126000D01*
X157353374Y-72125576D01*
X157344832Y-72124309D01*
X157336455Y-72122211D01*
X157328324Y-72119301D01*
X157320517Y-72115609D01*
X157313110Y-72111169D01*
X157306173Y-72106025D01*
X157299775Y-72100225D01*
X157293975Y-72093827D01*
X157288831Y-72086890D01*
X157284391Y-72079483D01*
X157280699Y-72071676D01*
X157277789Y-72063545D01*
X157275691Y-72055168D01*
X157274424Y-72046626D01*
X157274000Y-72038000D01*
X157274000Y-71862000D01*
X157274424Y-71853374D01*
X157275691Y-71844832D01*
X157277789Y-71836455D01*
X157280699Y-71828324D01*
X157284391Y-71820517D01*
X157288831Y-71813110D01*
X157293975Y-71806173D01*
X157299775Y-71799775D01*
X157306173Y-71793975D01*
X157313110Y-71788831D01*
X157320517Y-71784391D01*
X157328324Y-71780699D01*
X157336455Y-71777789D01*
X157344832Y-71775691D01*
X157353374Y-71774424D01*
X157362000Y-71774000D01*
X158113000Y-71774000D01*
X158121626Y-71774424D01*
X158121626Y-71774424D01*
G37*
D17*
X157737500Y-71950000D03*
D15*
G36*
X158546626Y-72199424D02*
G01*
X158555168Y-72200691D01*
X158563545Y-72202789D01*
X158571676Y-72205699D01*
X158579483Y-72209391D01*
X158586890Y-72213831D01*
X158593827Y-72218975D01*
X158600225Y-72224775D01*
X158606025Y-72231173D01*
X158611169Y-72238110D01*
X158615609Y-72245517D01*
X158619301Y-72253324D01*
X158622211Y-72261455D01*
X158624309Y-72269832D01*
X158625576Y-72278374D01*
X158626000Y-72287000D01*
X158626000Y-73038000D01*
X158625576Y-73046626D01*
X158624309Y-73055168D01*
X158622211Y-73063545D01*
X158619301Y-73071676D01*
X158615609Y-73079483D01*
X158611169Y-73086890D01*
X158606025Y-73093827D01*
X158600225Y-73100225D01*
X158593827Y-73106025D01*
X158586890Y-73111169D01*
X158579483Y-73115609D01*
X158571676Y-73119301D01*
X158563545Y-73122211D01*
X158555168Y-73124309D01*
X158546626Y-73125576D01*
X158538000Y-73126000D01*
X158362000Y-73126000D01*
X158353374Y-73125576D01*
X158344832Y-73124309D01*
X158336455Y-73122211D01*
X158328324Y-73119301D01*
X158320517Y-73115609D01*
X158313110Y-73111169D01*
X158306173Y-73106025D01*
X158299775Y-73100225D01*
X158293975Y-73093827D01*
X158288831Y-73086890D01*
X158284391Y-73079483D01*
X158280699Y-73071676D01*
X158277789Y-73063545D01*
X158275691Y-73055168D01*
X158274424Y-73046626D01*
X158274000Y-73038000D01*
X158274000Y-72287000D01*
X158274424Y-72278374D01*
X158275691Y-72269832D01*
X158277789Y-72261455D01*
X158280699Y-72253324D01*
X158284391Y-72245517D01*
X158288831Y-72238110D01*
X158293975Y-72231173D01*
X158299775Y-72224775D01*
X158306173Y-72218975D01*
X158313110Y-72213831D01*
X158320517Y-72209391D01*
X158328324Y-72205699D01*
X158336455Y-72202789D01*
X158344832Y-72200691D01*
X158353374Y-72199424D01*
X158362000Y-72199000D01*
X158538000Y-72199000D01*
X158546626Y-72199424D01*
X158546626Y-72199424D01*
G37*
D17*
X158450000Y-72662500D03*
D15*
G36*
X159046626Y-72199424D02*
G01*
X159055168Y-72200691D01*
X159063545Y-72202789D01*
X159071676Y-72205699D01*
X159079483Y-72209391D01*
X159086890Y-72213831D01*
X159093827Y-72218975D01*
X159100225Y-72224775D01*
X159106025Y-72231173D01*
X159111169Y-72238110D01*
X159115609Y-72245517D01*
X159119301Y-72253324D01*
X159122211Y-72261455D01*
X159124309Y-72269832D01*
X159125576Y-72278374D01*
X159126000Y-72287000D01*
X159126000Y-73038000D01*
X159125576Y-73046626D01*
X159124309Y-73055168D01*
X159122211Y-73063545D01*
X159119301Y-73071676D01*
X159115609Y-73079483D01*
X159111169Y-73086890D01*
X159106025Y-73093827D01*
X159100225Y-73100225D01*
X159093827Y-73106025D01*
X159086890Y-73111169D01*
X159079483Y-73115609D01*
X159071676Y-73119301D01*
X159063545Y-73122211D01*
X159055168Y-73124309D01*
X159046626Y-73125576D01*
X159038000Y-73126000D01*
X158862000Y-73126000D01*
X158853374Y-73125576D01*
X158844832Y-73124309D01*
X158836455Y-73122211D01*
X158828324Y-73119301D01*
X158820517Y-73115609D01*
X158813110Y-73111169D01*
X158806173Y-73106025D01*
X158799775Y-73100225D01*
X158793975Y-73093827D01*
X158788831Y-73086890D01*
X158784391Y-73079483D01*
X158780699Y-73071676D01*
X158777789Y-73063545D01*
X158775691Y-73055168D01*
X158774424Y-73046626D01*
X158774000Y-73038000D01*
X158774000Y-72287000D01*
X158774424Y-72278374D01*
X158775691Y-72269832D01*
X158777789Y-72261455D01*
X158780699Y-72253324D01*
X158784391Y-72245517D01*
X158788831Y-72238110D01*
X158793975Y-72231173D01*
X158799775Y-72224775D01*
X158806173Y-72218975D01*
X158813110Y-72213831D01*
X158820517Y-72209391D01*
X158828324Y-72205699D01*
X158836455Y-72202789D01*
X158844832Y-72200691D01*
X158853374Y-72199424D01*
X158862000Y-72199000D01*
X159038000Y-72199000D01*
X159046626Y-72199424D01*
X159046626Y-72199424D01*
G37*
D17*
X158950000Y-72662500D03*
D15*
G36*
X159546626Y-72199424D02*
G01*
X159555168Y-72200691D01*
X159563545Y-72202789D01*
X159571676Y-72205699D01*
X159579483Y-72209391D01*
X159586890Y-72213831D01*
X159593827Y-72218975D01*
X159600225Y-72224775D01*
X159606025Y-72231173D01*
X159611169Y-72238110D01*
X159615609Y-72245517D01*
X159619301Y-72253324D01*
X159622211Y-72261455D01*
X159624309Y-72269832D01*
X159625576Y-72278374D01*
X159626000Y-72287000D01*
X159626000Y-73038000D01*
X159625576Y-73046626D01*
X159624309Y-73055168D01*
X159622211Y-73063545D01*
X159619301Y-73071676D01*
X159615609Y-73079483D01*
X159611169Y-73086890D01*
X159606025Y-73093827D01*
X159600225Y-73100225D01*
X159593827Y-73106025D01*
X159586890Y-73111169D01*
X159579483Y-73115609D01*
X159571676Y-73119301D01*
X159563545Y-73122211D01*
X159555168Y-73124309D01*
X159546626Y-73125576D01*
X159538000Y-73126000D01*
X159362000Y-73126000D01*
X159353374Y-73125576D01*
X159344832Y-73124309D01*
X159336455Y-73122211D01*
X159328324Y-73119301D01*
X159320517Y-73115609D01*
X159313110Y-73111169D01*
X159306173Y-73106025D01*
X159299775Y-73100225D01*
X159293975Y-73093827D01*
X159288831Y-73086890D01*
X159284391Y-73079483D01*
X159280699Y-73071676D01*
X159277789Y-73063545D01*
X159275691Y-73055168D01*
X159274424Y-73046626D01*
X159274000Y-73038000D01*
X159274000Y-72287000D01*
X159274424Y-72278374D01*
X159275691Y-72269832D01*
X159277789Y-72261455D01*
X159280699Y-72253324D01*
X159284391Y-72245517D01*
X159288831Y-72238110D01*
X159293975Y-72231173D01*
X159299775Y-72224775D01*
X159306173Y-72218975D01*
X159313110Y-72213831D01*
X159320517Y-72209391D01*
X159328324Y-72205699D01*
X159336455Y-72202789D01*
X159344832Y-72200691D01*
X159353374Y-72199424D01*
X159362000Y-72199000D01*
X159538000Y-72199000D01*
X159546626Y-72199424D01*
X159546626Y-72199424D01*
G37*
D17*
X159450000Y-72662500D03*
D15*
G36*
X160046626Y-72199424D02*
G01*
X160055168Y-72200691D01*
X160063545Y-72202789D01*
X160071676Y-72205699D01*
X160079483Y-72209391D01*
X160086890Y-72213831D01*
X160093827Y-72218975D01*
X160100225Y-72224775D01*
X160106025Y-72231173D01*
X160111169Y-72238110D01*
X160115609Y-72245517D01*
X160119301Y-72253324D01*
X160122211Y-72261455D01*
X160124309Y-72269832D01*
X160125576Y-72278374D01*
X160126000Y-72287000D01*
X160126000Y-73038000D01*
X160125576Y-73046626D01*
X160124309Y-73055168D01*
X160122211Y-73063545D01*
X160119301Y-73071676D01*
X160115609Y-73079483D01*
X160111169Y-73086890D01*
X160106025Y-73093827D01*
X160100225Y-73100225D01*
X160093827Y-73106025D01*
X160086890Y-73111169D01*
X160079483Y-73115609D01*
X160071676Y-73119301D01*
X160063545Y-73122211D01*
X160055168Y-73124309D01*
X160046626Y-73125576D01*
X160038000Y-73126000D01*
X159862000Y-73126000D01*
X159853374Y-73125576D01*
X159844832Y-73124309D01*
X159836455Y-73122211D01*
X159828324Y-73119301D01*
X159820517Y-73115609D01*
X159813110Y-73111169D01*
X159806173Y-73106025D01*
X159799775Y-73100225D01*
X159793975Y-73093827D01*
X159788831Y-73086890D01*
X159784391Y-73079483D01*
X159780699Y-73071676D01*
X159777789Y-73063545D01*
X159775691Y-73055168D01*
X159774424Y-73046626D01*
X159774000Y-73038000D01*
X159774000Y-72287000D01*
X159774424Y-72278374D01*
X159775691Y-72269832D01*
X159777789Y-72261455D01*
X159780699Y-72253324D01*
X159784391Y-72245517D01*
X159788831Y-72238110D01*
X159793975Y-72231173D01*
X159799775Y-72224775D01*
X159806173Y-72218975D01*
X159813110Y-72213831D01*
X159820517Y-72209391D01*
X159828324Y-72205699D01*
X159836455Y-72202789D01*
X159844832Y-72200691D01*
X159853374Y-72199424D01*
X159862000Y-72199000D01*
X160038000Y-72199000D01*
X160046626Y-72199424D01*
X160046626Y-72199424D01*
G37*
D17*
X159950000Y-72662500D03*
D15*
G36*
X158295691Y-79140176D02*
G01*
X158319401Y-79143693D01*
X158342652Y-79149517D01*
X158365220Y-79157592D01*
X158386889Y-79167841D01*
X158407448Y-79180164D01*
X158426701Y-79194442D01*
X158444461Y-79210539D01*
X158460558Y-79228299D01*
X158474836Y-79247552D01*
X158487159Y-79268111D01*
X158497408Y-79289780D01*
X158505483Y-79312348D01*
X158511307Y-79335599D01*
X158514824Y-79359309D01*
X158516000Y-79383250D01*
X158516000Y-79871750D01*
X158514824Y-79895691D01*
X158511307Y-79919401D01*
X158505483Y-79942652D01*
X158497408Y-79965220D01*
X158487159Y-79986889D01*
X158474836Y-80007448D01*
X158460558Y-80026701D01*
X158444461Y-80044461D01*
X158426701Y-80060558D01*
X158407448Y-80074836D01*
X158386889Y-80087159D01*
X158365220Y-80097408D01*
X158342652Y-80105483D01*
X158319401Y-80111307D01*
X158295691Y-80114824D01*
X158271750Y-80116000D01*
X157708250Y-80116000D01*
X157684309Y-80114824D01*
X157660599Y-80111307D01*
X157637348Y-80105483D01*
X157614780Y-80097408D01*
X157593111Y-80087159D01*
X157572552Y-80074836D01*
X157553299Y-80060558D01*
X157535539Y-80044461D01*
X157519442Y-80026701D01*
X157505164Y-80007448D01*
X157492841Y-79986889D01*
X157482592Y-79965220D01*
X157474517Y-79942652D01*
X157468693Y-79919401D01*
X157465176Y-79895691D01*
X157464000Y-79871750D01*
X157464000Y-79383250D01*
X157465176Y-79359309D01*
X157468693Y-79335599D01*
X157474517Y-79312348D01*
X157482592Y-79289780D01*
X157492841Y-79268111D01*
X157505164Y-79247552D01*
X157519442Y-79228299D01*
X157535539Y-79210539D01*
X157553299Y-79194442D01*
X157572552Y-79180164D01*
X157593111Y-79167841D01*
X157614780Y-79157592D01*
X157637348Y-79149517D01*
X157660599Y-79143693D01*
X157684309Y-79140176D01*
X157708250Y-79139000D01*
X158271750Y-79139000D01*
X158295691Y-79140176D01*
X158295691Y-79140176D01*
G37*
D18*
X157990000Y-79627500D03*
D15*
G36*
X158295691Y-77565176D02*
G01*
X158319401Y-77568693D01*
X158342652Y-77574517D01*
X158365220Y-77582592D01*
X158386889Y-77592841D01*
X158407448Y-77605164D01*
X158426701Y-77619442D01*
X158444461Y-77635539D01*
X158460558Y-77653299D01*
X158474836Y-77672552D01*
X158487159Y-77693111D01*
X158497408Y-77714780D01*
X158505483Y-77737348D01*
X158511307Y-77760599D01*
X158514824Y-77784309D01*
X158516000Y-77808250D01*
X158516000Y-78296750D01*
X158514824Y-78320691D01*
X158511307Y-78344401D01*
X158505483Y-78367652D01*
X158497408Y-78390220D01*
X158487159Y-78411889D01*
X158474836Y-78432448D01*
X158460558Y-78451701D01*
X158444461Y-78469461D01*
X158426701Y-78485558D01*
X158407448Y-78499836D01*
X158386889Y-78512159D01*
X158365220Y-78522408D01*
X158342652Y-78530483D01*
X158319401Y-78536307D01*
X158295691Y-78539824D01*
X158271750Y-78541000D01*
X157708250Y-78541000D01*
X157684309Y-78539824D01*
X157660599Y-78536307D01*
X157637348Y-78530483D01*
X157614780Y-78522408D01*
X157593111Y-78512159D01*
X157572552Y-78499836D01*
X157553299Y-78485558D01*
X157535539Y-78469461D01*
X157519442Y-78451701D01*
X157505164Y-78432448D01*
X157492841Y-78411889D01*
X157482592Y-78390220D01*
X157474517Y-78367652D01*
X157468693Y-78344401D01*
X157465176Y-78320691D01*
X157464000Y-78296750D01*
X157464000Y-77808250D01*
X157465176Y-77784309D01*
X157468693Y-77760599D01*
X157474517Y-77737348D01*
X157482592Y-77714780D01*
X157492841Y-77693111D01*
X157505164Y-77672552D01*
X157519442Y-77653299D01*
X157535539Y-77635539D01*
X157553299Y-77619442D01*
X157572552Y-77605164D01*
X157593111Y-77592841D01*
X157614780Y-77582592D01*
X157637348Y-77574517D01*
X157660599Y-77568693D01*
X157684309Y-77565176D01*
X157708250Y-77564000D01*
X158271750Y-77564000D01*
X158295691Y-77565176D01*
X158295691Y-77565176D01*
G37*
D18*
X157990000Y-78052500D03*
M02*
