G04 #@! TF.GenerationSoftware,KiCad,Pcbnew,(5.1.2)-1*
G04 #@! TF.CreationDate,2023-06-09T20:40:53+09:00*
G04 #@! TF.ProjectId,ma73x,6d613733-782e-46b6-9963-61645f706362,v1.2*
G04 #@! TF.SameCoordinates,Original*
G04 #@! TF.FileFunction,Paste,Top*
G04 #@! TF.FilePolarity,Positive*
%FSLAX46Y46*%
G04 Gerber Fmt 4.6, Leading zero omitted, Abs format (unit mm)*
G04 Created by KiCad (PCBNEW (5.1.2)-1) date 2023-06-09 20:40:53*
%MOMM*%
%LPD*%
G04 APERTURE LIST*
%ADD10C,0.100000*%
%ADD11C,0.690000*%
%ADD12C,0.250000*%
%ADD13C,0.875000*%
G04 APERTURE END LIST*
D10*
G36*
X159814408Y-71280831D02*
G01*
X159831153Y-71283315D01*
X159847574Y-71287428D01*
X159863513Y-71293131D01*
X159878816Y-71300369D01*
X159893336Y-71309071D01*
X159906933Y-71319156D01*
X159919476Y-71330524D01*
X159930844Y-71343067D01*
X159940929Y-71356664D01*
X159949631Y-71371184D01*
X159956869Y-71386487D01*
X159962572Y-71402426D01*
X159966685Y-71418847D01*
X159969169Y-71435592D01*
X159970000Y-71452500D01*
X159970000Y-71797500D01*
X159969169Y-71814408D01*
X159966685Y-71831153D01*
X159962572Y-71847574D01*
X159956869Y-71863513D01*
X159949631Y-71878816D01*
X159940929Y-71893336D01*
X159930844Y-71906933D01*
X159919476Y-71919476D01*
X159906933Y-71930844D01*
X159893336Y-71940929D01*
X159878816Y-71949631D01*
X159863513Y-71956869D01*
X159847574Y-71962572D01*
X159831153Y-71966685D01*
X159814408Y-71969169D01*
X159797500Y-71970000D01*
X159452500Y-71970000D01*
X159435592Y-71969169D01*
X159418847Y-71966685D01*
X159402426Y-71962572D01*
X159386487Y-71956869D01*
X159371184Y-71949631D01*
X159356664Y-71940929D01*
X159343067Y-71930844D01*
X159330524Y-71919476D01*
X159319156Y-71906933D01*
X159309071Y-71893336D01*
X159300369Y-71878816D01*
X159293131Y-71863513D01*
X159287428Y-71847574D01*
X159283315Y-71831153D01*
X159280831Y-71814408D01*
X159280000Y-71797500D01*
X159280000Y-71452500D01*
X159280831Y-71435592D01*
X159283315Y-71418847D01*
X159287428Y-71402426D01*
X159293131Y-71386487D01*
X159300369Y-71371184D01*
X159309071Y-71356664D01*
X159319156Y-71343067D01*
X159330524Y-71330524D01*
X159343067Y-71319156D01*
X159356664Y-71309071D01*
X159371184Y-71300369D01*
X159386487Y-71293131D01*
X159402426Y-71287428D01*
X159418847Y-71283315D01*
X159435592Y-71280831D01*
X159452500Y-71280000D01*
X159797500Y-71280000D01*
X159814408Y-71280831D01*
X159814408Y-71280831D01*
G37*
D11*
X159625000Y-71625000D03*
D10*
G36*
X159814408Y-70430831D02*
G01*
X159831153Y-70433315D01*
X159847574Y-70437428D01*
X159863513Y-70443131D01*
X159878816Y-70450369D01*
X159893336Y-70459071D01*
X159906933Y-70469156D01*
X159919476Y-70480524D01*
X159930844Y-70493067D01*
X159940929Y-70506664D01*
X159949631Y-70521184D01*
X159956869Y-70536487D01*
X159962572Y-70552426D01*
X159966685Y-70568847D01*
X159969169Y-70585592D01*
X159970000Y-70602500D01*
X159970000Y-70947500D01*
X159969169Y-70964408D01*
X159966685Y-70981153D01*
X159962572Y-70997574D01*
X159956869Y-71013513D01*
X159949631Y-71028816D01*
X159940929Y-71043336D01*
X159930844Y-71056933D01*
X159919476Y-71069476D01*
X159906933Y-71080844D01*
X159893336Y-71090929D01*
X159878816Y-71099631D01*
X159863513Y-71106869D01*
X159847574Y-71112572D01*
X159831153Y-71116685D01*
X159814408Y-71119169D01*
X159797500Y-71120000D01*
X159452500Y-71120000D01*
X159435592Y-71119169D01*
X159418847Y-71116685D01*
X159402426Y-71112572D01*
X159386487Y-71106869D01*
X159371184Y-71099631D01*
X159356664Y-71090929D01*
X159343067Y-71080844D01*
X159330524Y-71069476D01*
X159319156Y-71056933D01*
X159309071Y-71043336D01*
X159300369Y-71028816D01*
X159293131Y-71013513D01*
X159287428Y-70997574D01*
X159283315Y-70981153D01*
X159280831Y-70964408D01*
X159280000Y-70947500D01*
X159280000Y-70602500D01*
X159280831Y-70585592D01*
X159283315Y-70568847D01*
X159287428Y-70552426D01*
X159293131Y-70536487D01*
X159300369Y-70521184D01*
X159309071Y-70506664D01*
X159319156Y-70493067D01*
X159330524Y-70480524D01*
X159343067Y-70469156D01*
X159356664Y-70459071D01*
X159371184Y-70450369D01*
X159386487Y-70443131D01*
X159402426Y-70437428D01*
X159418847Y-70433315D01*
X159435592Y-70430831D01*
X159452500Y-70430000D01*
X159797500Y-70430000D01*
X159814408Y-70430831D01*
X159814408Y-70430831D01*
G37*
D11*
X159625000Y-70775000D03*
D10*
G36*
X158964408Y-71280831D02*
G01*
X158981153Y-71283315D01*
X158997574Y-71287428D01*
X159013513Y-71293131D01*
X159028816Y-71300369D01*
X159043336Y-71309071D01*
X159056933Y-71319156D01*
X159069476Y-71330524D01*
X159080844Y-71343067D01*
X159090929Y-71356664D01*
X159099631Y-71371184D01*
X159106869Y-71386487D01*
X159112572Y-71402426D01*
X159116685Y-71418847D01*
X159119169Y-71435592D01*
X159120000Y-71452500D01*
X159120000Y-71797500D01*
X159119169Y-71814408D01*
X159116685Y-71831153D01*
X159112572Y-71847574D01*
X159106869Y-71863513D01*
X159099631Y-71878816D01*
X159090929Y-71893336D01*
X159080844Y-71906933D01*
X159069476Y-71919476D01*
X159056933Y-71930844D01*
X159043336Y-71940929D01*
X159028816Y-71949631D01*
X159013513Y-71956869D01*
X158997574Y-71962572D01*
X158981153Y-71966685D01*
X158964408Y-71969169D01*
X158947500Y-71970000D01*
X158602500Y-71970000D01*
X158585592Y-71969169D01*
X158568847Y-71966685D01*
X158552426Y-71962572D01*
X158536487Y-71956869D01*
X158521184Y-71949631D01*
X158506664Y-71940929D01*
X158493067Y-71930844D01*
X158480524Y-71919476D01*
X158469156Y-71906933D01*
X158459071Y-71893336D01*
X158450369Y-71878816D01*
X158443131Y-71863513D01*
X158437428Y-71847574D01*
X158433315Y-71831153D01*
X158430831Y-71814408D01*
X158430000Y-71797500D01*
X158430000Y-71452500D01*
X158430831Y-71435592D01*
X158433315Y-71418847D01*
X158437428Y-71402426D01*
X158443131Y-71386487D01*
X158450369Y-71371184D01*
X158459071Y-71356664D01*
X158469156Y-71343067D01*
X158480524Y-71330524D01*
X158493067Y-71319156D01*
X158506664Y-71309071D01*
X158521184Y-71300369D01*
X158536487Y-71293131D01*
X158552426Y-71287428D01*
X158568847Y-71283315D01*
X158585592Y-71280831D01*
X158602500Y-71280000D01*
X158947500Y-71280000D01*
X158964408Y-71280831D01*
X158964408Y-71280831D01*
G37*
D11*
X158775000Y-71625000D03*
D10*
G36*
X158964408Y-70430831D02*
G01*
X158981153Y-70433315D01*
X158997574Y-70437428D01*
X159013513Y-70443131D01*
X159028816Y-70450369D01*
X159043336Y-70459071D01*
X159056933Y-70469156D01*
X159069476Y-70480524D01*
X159080844Y-70493067D01*
X159090929Y-70506664D01*
X159099631Y-70521184D01*
X159106869Y-70536487D01*
X159112572Y-70552426D01*
X159116685Y-70568847D01*
X159119169Y-70585592D01*
X159120000Y-70602500D01*
X159120000Y-70947500D01*
X159119169Y-70964408D01*
X159116685Y-70981153D01*
X159112572Y-70997574D01*
X159106869Y-71013513D01*
X159099631Y-71028816D01*
X159090929Y-71043336D01*
X159080844Y-71056933D01*
X159069476Y-71069476D01*
X159056933Y-71080844D01*
X159043336Y-71090929D01*
X159028816Y-71099631D01*
X159013513Y-71106869D01*
X158997574Y-71112572D01*
X158981153Y-71116685D01*
X158964408Y-71119169D01*
X158947500Y-71120000D01*
X158602500Y-71120000D01*
X158585592Y-71119169D01*
X158568847Y-71116685D01*
X158552426Y-71112572D01*
X158536487Y-71106869D01*
X158521184Y-71099631D01*
X158506664Y-71090929D01*
X158493067Y-71080844D01*
X158480524Y-71069476D01*
X158469156Y-71056933D01*
X158459071Y-71043336D01*
X158450369Y-71028816D01*
X158443131Y-71013513D01*
X158437428Y-70997574D01*
X158433315Y-70981153D01*
X158430831Y-70964408D01*
X158430000Y-70947500D01*
X158430000Y-70602500D01*
X158430831Y-70585592D01*
X158433315Y-70568847D01*
X158437428Y-70552426D01*
X158443131Y-70536487D01*
X158450369Y-70521184D01*
X158459071Y-70506664D01*
X158469156Y-70493067D01*
X158480524Y-70480524D01*
X158493067Y-70469156D01*
X158506664Y-70459071D01*
X158521184Y-70450369D01*
X158536487Y-70443131D01*
X158552426Y-70437428D01*
X158568847Y-70433315D01*
X158585592Y-70430831D01*
X158602500Y-70430000D01*
X158947500Y-70430000D01*
X158964408Y-70430831D01*
X158964408Y-70430831D01*
G37*
D11*
X158775000Y-70775000D03*
D10*
G36*
X161018626Y-71825301D02*
G01*
X161024693Y-71826201D01*
X161030643Y-71827691D01*
X161036418Y-71829758D01*
X161041962Y-71832380D01*
X161047223Y-71835533D01*
X161052150Y-71839187D01*
X161056694Y-71843306D01*
X161060813Y-71847850D01*
X161064467Y-71852777D01*
X161067620Y-71858038D01*
X161070242Y-71863582D01*
X161072309Y-71869357D01*
X161073799Y-71875307D01*
X161074699Y-71881374D01*
X161075000Y-71887500D01*
X161075000Y-72012500D01*
X161074699Y-72018626D01*
X161073799Y-72024693D01*
X161072309Y-72030643D01*
X161070242Y-72036418D01*
X161067620Y-72041962D01*
X161064467Y-72047223D01*
X161060813Y-72052150D01*
X161056694Y-72056694D01*
X161052150Y-72060813D01*
X161047223Y-72064467D01*
X161041962Y-72067620D01*
X161036418Y-72070242D01*
X161030643Y-72072309D01*
X161024693Y-72073799D01*
X161018626Y-72074699D01*
X161012500Y-72075000D01*
X160312500Y-72075000D01*
X160306374Y-72074699D01*
X160300307Y-72073799D01*
X160294357Y-72072309D01*
X160288582Y-72070242D01*
X160283038Y-72067620D01*
X160277777Y-72064467D01*
X160272850Y-72060813D01*
X160268306Y-72056694D01*
X160264187Y-72052150D01*
X160260533Y-72047223D01*
X160257380Y-72041962D01*
X160254758Y-72036418D01*
X160252691Y-72030643D01*
X160251201Y-72024693D01*
X160250301Y-72018626D01*
X160250000Y-72012500D01*
X160250000Y-71887500D01*
X160250301Y-71881374D01*
X160251201Y-71875307D01*
X160252691Y-71869357D01*
X160254758Y-71863582D01*
X160257380Y-71858038D01*
X160260533Y-71852777D01*
X160264187Y-71847850D01*
X160268306Y-71843306D01*
X160272850Y-71839187D01*
X160277777Y-71835533D01*
X160283038Y-71832380D01*
X160288582Y-71829758D01*
X160294357Y-71827691D01*
X160300307Y-71826201D01*
X160306374Y-71825301D01*
X160312500Y-71825000D01*
X161012500Y-71825000D01*
X161018626Y-71825301D01*
X161018626Y-71825301D01*
G37*
D12*
X160662500Y-71950000D03*
D10*
G36*
X161018626Y-71325301D02*
G01*
X161024693Y-71326201D01*
X161030643Y-71327691D01*
X161036418Y-71329758D01*
X161041962Y-71332380D01*
X161047223Y-71335533D01*
X161052150Y-71339187D01*
X161056694Y-71343306D01*
X161060813Y-71347850D01*
X161064467Y-71352777D01*
X161067620Y-71358038D01*
X161070242Y-71363582D01*
X161072309Y-71369357D01*
X161073799Y-71375307D01*
X161074699Y-71381374D01*
X161075000Y-71387500D01*
X161075000Y-71512500D01*
X161074699Y-71518626D01*
X161073799Y-71524693D01*
X161072309Y-71530643D01*
X161070242Y-71536418D01*
X161067620Y-71541962D01*
X161064467Y-71547223D01*
X161060813Y-71552150D01*
X161056694Y-71556694D01*
X161052150Y-71560813D01*
X161047223Y-71564467D01*
X161041962Y-71567620D01*
X161036418Y-71570242D01*
X161030643Y-71572309D01*
X161024693Y-71573799D01*
X161018626Y-71574699D01*
X161012500Y-71575000D01*
X160312500Y-71575000D01*
X160306374Y-71574699D01*
X160300307Y-71573799D01*
X160294357Y-71572309D01*
X160288582Y-71570242D01*
X160283038Y-71567620D01*
X160277777Y-71564467D01*
X160272850Y-71560813D01*
X160268306Y-71556694D01*
X160264187Y-71552150D01*
X160260533Y-71547223D01*
X160257380Y-71541962D01*
X160254758Y-71536418D01*
X160252691Y-71530643D01*
X160251201Y-71524693D01*
X160250301Y-71518626D01*
X160250000Y-71512500D01*
X160250000Y-71387500D01*
X160250301Y-71381374D01*
X160251201Y-71375307D01*
X160252691Y-71369357D01*
X160254758Y-71363582D01*
X160257380Y-71358038D01*
X160260533Y-71352777D01*
X160264187Y-71347850D01*
X160268306Y-71343306D01*
X160272850Y-71339187D01*
X160277777Y-71335533D01*
X160283038Y-71332380D01*
X160288582Y-71329758D01*
X160294357Y-71327691D01*
X160300307Y-71326201D01*
X160306374Y-71325301D01*
X160312500Y-71325000D01*
X161012500Y-71325000D01*
X161018626Y-71325301D01*
X161018626Y-71325301D01*
G37*
D12*
X160662500Y-71450000D03*
D10*
G36*
X161018626Y-70825301D02*
G01*
X161024693Y-70826201D01*
X161030643Y-70827691D01*
X161036418Y-70829758D01*
X161041962Y-70832380D01*
X161047223Y-70835533D01*
X161052150Y-70839187D01*
X161056694Y-70843306D01*
X161060813Y-70847850D01*
X161064467Y-70852777D01*
X161067620Y-70858038D01*
X161070242Y-70863582D01*
X161072309Y-70869357D01*
X161073799Y-70875307D01*
X161074699Y-70881374D01*
X161075000Y-70887500D01*
X161075000Y-71012500D01*
X161074699Y-71018626D01*
X161073799Y-71024693D01*
X161072309Y-71030643D01*
X161070242Y-71036418D01*
X161067620Y-71041962D01*
X161064467Y-71047223D01*
X161060813Y-71052150D01*
X161056694Y-71056694D01*
X161052150Y-71060813D01*
X161047223Y-71064467D01*
X161041962Y-71067620D01*
X161036418Y-71070242D01*
X161030643Y-71072309D01*
X161024693Y-71073799D01*
X161018626Y-71074699D01*
X161012500Y-71075000D01*
X160312500Y-71075000D01*
X160306374Y-71074699D01*
X160300307Y-71073799D01*
X160294357Y-71072309D01*
X160288582Y-71070242D01*
X160283038Y-71067620D01*
X160277777Y-71064467D01*
X160272850Y-71060813D01*
X160268306Y-71056694D01*
X160264187Y-71052150D01*
X160260533Y-71047223D01*
X160257380Y-71041962D01*
X160254758Y-71036418D01*
X160252691Y-71030643D01*
X160251201Y-71024693D01*
X160250301Y-71018626D01*
X160250000Y-71012500D01*
X160250000Y-70887500D01*
X160250301Y-70881374D01*
X160251201Y-70875307D01*
X160252691Y-70869357D01*
X160254758Y-70863582D01*
X160257380Y-70858038D01*
X160260533Y-70852777D01*
X160264187Y-70847850D01*
X160268306Y-70843306D01*
X160272850Y-70839187D01*
X160277777Y-70835533D01*
X160283038Y-70832380D01*
X160288582Y-70829758D01*
X160294357Y-70827691D01*
X160300307Y-70826201D01*
X160306374Y-70825301D01*
X160312500Y-70825000D01*
X161012500Y-70825000D01*
X161018626Y-70825301D01*
X161018626Y-70825301D01*
G37*
D12*
X160662500Y-70950000D03*
D10*
G36*
X161018626Y-70325301D02*
G01*
X161024693Y-70326201D01*
X161030643Y-70327691D01*
X161036418Y-70329758D01*
X161041962Y-70332380D01*
X161047223Y-70335533D01*
X161052150Y-70339187D01*
X161056694Y-70343306D01*
X161060813Y-70347850D01*
X161064467Y-70352777D01*
X161067620Y-70358038D01*
X161070242Y-70363582D01*
X161072309Y-70369357D01*
X161073799Y-70375307D01*
X161074699Y-70381374D01*
X161075000Y-70387500D01*
X161075000Y-70512500D01*
X161074699Y-70518626D01*
X161073799Y-70524693D01*
X161072309Y-70530643D01*
X161070242Y-70536418D01*
X161067620Y-70541962D01*
X161064467Y-70547223D01*
X161060813Y-70552150D01*
X161056694Y-70556694D01*
X161052150Y-70560813D01*
X161047223Y-70564467D01*
X161041962Y-70567620D01*
X161036418Y-70570242D01*
X161030643Y-70572309D01*
X161024693Y-70573799D01*
X161018626Y-70574699D01*
X161012500Y-70575000D01*
X160312500Y-70575000D01*
X160306374Y-70574699D01*
X160300307Y-70573799D01*
X160294357Y-70572309D01*
X160288582Y-70570242D01*
X160283038Y-70567620D01*
X160277777Y-70564467D01*
X160272850Y-70560813D01*
X160268306Y-70556694D01*
X160264187Y-70552150D01*
X160260533Y-70547223D01*
X160257380Y-70541962D01*
X160254758Y-70536418D01*
X160252691Y-70530643D01*
X160251201Y-70524693D01*
X160250301Y-70518626D01*
X160250000Y-70512500D01*
X160250000Y-70387500D01*
X160250301Y-70381374D01*
X160251201Y-70375307D01*
X160252691Y-70369357D01*
X160254758Y-70363582D01*
X160257380Y-70358038D01*
X160260533Y-70352777D01*
X160264187Y-70347850D01*
X160268306Y-70343306D01*
X160272850Y-70339187D01*
X160277777Y-70335533D01*
X160283038Y-70332380D01*
X160288582Y-70329758D01*
X160294357Y-70327691D01*
X160300307Y-70326201D01*
X160306374Y-70325301D01*
X160312500Y-70325000D01*
X161012500Y-70325000D01*
X161018626Y-70325301D01*
X161018626Y-70325301D01*
G37*
D12*
X160662500Y-70450000D03*
D10*
G36*
X160018626Y-69325301D02*
G01*
X160024693Y-69326201D01*
X160030643Y-69327691D01*
X160036418Y-69329758D01*
X160041962Y-69332380D01*
X160047223Y-69335533D01*
X160052150Y-69339187D01*
X160056694Y-69343306D01*
X160060813Y-69347850D01*
X160064467Y-69352777D01*
X160067620Y-69358038D01*
X160070242Y-69363582D01*
X160072309Y-69369357D01*
X160073799Y-69375307D01*
X160074699Y-69381374D01*
X160075000Y-69387500D01*
X160075000Y-70087500D01*
X160074699Y-70093626D01*
X160073799Y-70099693D01*
X160072309Y-70105643D01*
X160070242Y-70111418D01*
X160067620Y-70116962D01*
X160064467Y-70122223D01*
X160060813Y-70127150D01*
X160056694Y-70131694D01*
X160052150Y-70135813D01*
X160047223Y-70139467D01*
X160041962Y-70142620D01*
X160036418Y-70145242D01*
X160030643Y-70147309D01*
X160024693Y-70148799D01*
X160018626Y-70149699D01*
X160012500Y-70150000D01*
X159887500Y-70150000D01*
X159881374Y-70149699D01*
X159875307Y-70148799D01*
X159869357Y-70147309D01*
X159863582Y-70145242D01*
X159858038Y-70142620D01*
X159852777Y-70139467D01*
X159847850Y-70135813D01*
X159843306Y-70131694D01*
X159839187Y-70127150D01*
X159835533Y-70122223D01*
X159832380Y-70116962D01*
X159829758Y-70111418D01*
X159827691Y-70105643D01*
X159826201Y-70099693D01*
X159825301Y-70093626D01*
X159825000Y-70087500D01*
X159825000Y-69387500D01*
X159825301Y-69381374D01*
X159826201Y-69375307D01*
X159827691Y-69369357D01*
X159829758Y-69363582D01*
X159832380Y-69358038D01*
X159835533Y-69352777D01*
X159839187Y-69347850D01*
X159843306Y-69343306D01*
X159847850Y-69339187D01*
X159852777Y-69335533D01*
X159858038Y-69332380D01*
X159863582Y-69329758D01*
X159869357Y-69327691D01*
X159875307Y-69326201D01*
X159881374Y-69325301D01*
X159887500Y-69325000D01*
X160012500Y-69325000D01*
X160018626Y-69325301D01*
X160018626Y-69325301D01*
G37*
D12*
X159950000Y-69737500D03*
D10*
G36*
X159518626Y-69325301D02*
G01*
X159524693Y-69326201D01*
X159530643Y-69327691D01*
X159536418Y-69329758D01*
X159541962Y-69332380D01*
X159547223Y-69335533D01*
X159552150Y-69339187D01*
X159556694Y-69343306D01*
X159560813Y-69347850D01*
X159564467Y-69352777D01*
X159567620Y-69358038D01*
X159570242Y-69363582D01*
X159572309Y-69369357D01*
X159573799Y-69375307D01*
X159574699Y-69381374D01*
X159575000Y-69387500D01*
X159575000Y-70087500D01*
X159574699Y-70093626D01*
X159573799Y-70099693D01*
X159572309Y-70105643D01*
X159570242Y-70111418D01*
X159567620Y-70116962D01*
X159564467Y-70122223D01*
X159560813Y-70127150D01*
X159556694Y-70131694D01*
X159552150Y-70135813D01*
X159547223Y-70139467D01*
X159541962Y-70142620D01*
X159536418Y-70145242D01*
X159530643Y-70147309D01*
X159524693Y-70148799D01*
X159518626Y-70149699D01*
X159512500Y-70150000D01*
X159387500Y-70150000D01*
X159381374Y-70149699D01*
X159375307Y-70148799D01*
X159369357Y-70147309D01*
X159363582Y-70145242D01*
X159358038Y-70142620D01*
X159352777Y-70139467D01*
X159347850Y-70135813D01*
X159343306Y-70131694D01*
X159339187Y-70127150D01*
X159335533Y-70122223D01*
X159332380Y-70116962D01*
X159329758Y-70111418D01*
X159327691Y-70105643D01*
X159326201Y-70099693D01*
X159325301Y-70093626D01*
X159325000Y-70087500D01*
X159325000Y-69387500D01*
X159325301Y-69381374D01*
X159326201Y-69375307D01*
X159327691Y-69369357D01*
X159329758Y-69363582D01*
X159332380Y-69358038D01*
X159335533Y-69352777D01*
X159339187Y-69347850D01*
X159343306Y-69343306D01*
X159347850Y-69339187D01*
X159352777Y-69335533D01*
X159358038Y-69332380D01*
X159363582Y-69329758D01*
X159369357Y-69327691D01*
X159375307Y-69326201D01*
X159381374Y-69325301D01*
X159387500Y-69325000D01*
X159512500Y-69325000D01*
X159518626Y-69325301D01*
X159518626Y-69325301D01*
G37*
D12*
X159450000Y-69737500D03*
D10*
G36*
X159018626Y-69325301D02*
G01*
X159024693Y-69326201D01*
X159030643Y-69327691D01*
X159036418Y-69329758D01*
X159041962Y-69332380D01*
X159047223Y-69335533D01*
X159052150Y-69339187D01*
X159056694Y-69343306D01*
X159060813Y-69347850D01*
X159064467Y-69352777D01*
X159067620Y-69358038D01*
X159070242Y-69363582D01*
X159072309Y-69369357D01*
X159073799Y-69375307D01*
X159074699Y-69381374D01*
X159075000Y-69387500D01*
X159075000Y-70087500D01*
X159074699Y-70093626D01*
X159073799Y-70099693D01*
X159072309Y-70105643D01*
X159070242Y-70111418D01*
X159067620Y-70116962D01*
X159064467Y-70122223D01*
X159060813Y-70127150D01*
X159056694Y-70131694D01*
X159052150Y-70135813D01*
X159047223Y-70139467D01*
X159041962Y-70142620D01*
X159036418Y-70145242D01*
X159030643Y-70147309D01*
X159024693Y-70148799D01*
X159018626Y-70149699D01*
X159012500Y-70150000D01*
X158887500Y-70150000D01*
X158881374Y-70149699D01*
X158875307Y-70148799D01*
X158869357Y-70147309D01*
X158863582Y-70145242D01*
X158858038Y-70142620D01*
X158852777Y-70139467D01*
X158847850Y-70135813D01*
X158843306Y-70131694D01*
X158839187Y-70127150D01*
X158835533Y-70122223D01*
X158832380Y-70116962D01*
X158829758Y-70111418D01*
X158827691Y-70105643D01*
X158826201Y-70099693D01*
X158825301Y-70093626D01*
X158825000Y-70087500D01*
X158825000Y-69387500D01*
X158825301Y-69381374D01*
X158826201Y-69375307D01*
X158827691Y-69369357D01*
X158829758Y-69363582D01*
X158832380Y-69358038D01*
X158835533Y-69352777D01*
X158839187Y-69347850D01*
X158843306Y-69343306D01*
X158847850Y-69339187D01*
X158852777Y-69335533D01*
X158858038Y-69332380D01*
X158863582Y-69329758D01*
X158869357Y-69327691D01*
X158875307Y-69326201D01*
X158881374Y-69325301D01*
X158887500Y-69325000D01*
X159012500Y-69325000D01*
X159018626Y-69325301D01*
X159018626Y-69325301D01*
G37*
D12*
X158950000Y-69737500D03*
D10*
G36*
X158518626Y-69325301D02*
G01*
X158524693Y-69326201D01*
X158530643Y-69327691D01*
X158536418Y-69329758D01*
X158541962Y-69332380D01*
X158547223Y-69335533D01*
X158552150Y-69339187D01*
X158556694Y-69343306D01*
X158560813Y-69347850D01*
X158564467Y-69352777D01*
X158567620Y-69358038D01*
X158570242Y-69363582D01*
X158572309Y-69369357D01*
X158573799Y-69375307D01*
X158574699Y-69381374D01*
X158575000Y-69387500D01*
X158575000Y-70087500D01*
X158574699Y-70093626D01*
X158573799Y-70099693D01*
X158572309Y-70105643D01*
X158570242Y-70111418D01*
X158567620Y-70116962D01*
X158564467Y-70122223D01*
X158560813Y-70127150D01*
X158556694Y-70131694D01*
X158552150Y-70135813D01*
X158547223Y-70139467D01*
X158541962Y-70142620D01*
X158536418Y-70145242D01*
X158530643Y-70147309D01*
X158524693Y-70148799D01*
X158518626Y-70149699D01*
X158512500Y-70150000D01*
X158387500Y-70150000D01*
X158381374Y-70149699D01*
X158375307Y-70148799D01*
X158369357Y-70147309D01*
X158363582Y-70145242D01*
X158358038Y-70142620D01*
X158352777Y-70139467D01*
X158347850Y-70135813D01*
X158343306Y-70131694D01*
X158339187Y-70127150D01*
X158335533Y-70122223D01*
X158332380Y-70116962D01*
X158329758Y-70111418D01*
X158327691Y-70105643D01*
X158326201Y-70099693D01*
X158325301Y-70093626D01*
X158325000Y-70087500D01*
X158325000Y-69387500D01*
X158325301Y-69381374D01*
X158326201Y-69375307D01*
X158327691Y-69369357D01*
X158329758Y-69363582D01*
X158332380Y-69358038D01*
X158335533Y-69352777D01*
X158339187Y-69347850D01*
X158343306Y-69343306D01*
X158347850Y-69339187D01*
X158352777Y-69335533D01*
X158358038Y-69332380D01*
X158363582Y-69329758D01*
X158369357Y-69327691D01*
X158375307Y-69326201D01*
X158381374Y-69325301D01*
X158387500Y-69325000D01*
X158512500Y-69325000D01*
X158518626Y-69325301D01*
X158518626Y-69325301D01*
G37*
D12*
X158450000Y-69737500D03*
D10*
G36*
X158093626Y-70325301D02*
G01*
X158099693Y-70326201D01*
X158105643Y-70327691D01*
X158111418Y-70329758D01*
X158116962Y-70332380D01*
X158122223Y-70335533D01*
X158127150Y-70339187D01*
X158131694Y-70343306D01*
X158135813Y-70347850D01*
X158139467Y-70352777D01*
X158142620Y-70358038D01*
X158145242Y-70363582D01*
X158147309Y-70369357D01*
X158148799Y-70375307D01*
X158149699Y-70381374D01*
X158150000Y-70387500D01*
X158150000Y-70512500D01*
X158149699Y-70518626D01*
X158148799Y-70524693D01*
X158147309Y-70530643D01*
X158145242Y-70536418D01*
X158142620Y-70541962D01*
X158139467Y-70547223D01*
X158135813Y-70552150D01*
X158131694Y-70556694D01*
X158127150Y-70560813D01*
X158122223Y-70564467D01*
X158116962Y-70567620D01*
X158111418Y-70570242D01*
X158105643Y-70572309D01*
X158099693Y-70573799D01*
X158093626Y-70574699D01*
X158087500Y-70575000D01*
X157387500Y-70575000D01*
X157381374Y-70574699D01*
X157375307Y-70573799D01*
X157369357Y-70572309D01*
X157363582Y-70570242D01*
X157358038Y-70567620D01*
X157352777Y-70564467D01*
X157347850Y-70560813D01*
X157343306Y-70556694D01*
X157339187Y-70552150D01*
X157335533Y-70547223D01*
X157332380Y-70541962D01*
X157329758Y-70536418D01*
X157327691Y-70530643D01*
X157326201Y-70524693D01*
X157325301Y-70518626D01*
X157325000Y-70512500D01*
X157325000Y-70387500D01*
X157325301Y-70381374D01*
X157326201Y-70375307D01*
X157327691Y-70369357D01*
X157329758Y-70363582D01*
X157332380Y-70358038D01*
X157335533Y-70352777D01*
X157339187Y-70347850D01*
X157343306Y-70343306D01*
X157347850Y-70339187D01*
X157352777Y-70335533D01*
X157358038Y-70332380D01*
X157363582Y-70329758D01*
X157369357Y-70327691D01*
X157375307Y-70326201D01*
X157381374Y-70325301D01*
X157387500Y-70325000D01*
X158087500Y-70325000D01*
X158093626Y-70325301D01*
X158093626Y-70325301D01*
G37*
D12*
X157737500Y-70450000D03*
D10*
G36*
X158093626Y-70825301D02*
G01*
X158099693Y-70826201D01*
X158105643Y-70827691D01*
X158111418Y-70829758D01*
X158116962Y-70832380D01*
X158122223Y-70835533D01*
X158127150Y-70839187D01*
X158131694Y-70843306D01*
X158135813Y-70847850D01*
X158139467Y-70852777D01*
X158142620Y-70858038D01*
X158145242Y-70863582D01*
X158147309Y-70869357D01*
X158148799Y-70875307D01*
X158149699Y-70881374D01*
X158150000Y-70887500D01*
X158150000Y-71012500D01*
X158149699Y-71018626D01*
X158148799Y-71024693D01*
X158147309Y-71030643D01*
X158145242Y-71036418D01*
X158142620Y-71041962D01*
X158139467Y-71047223D01*
X158135813Y-71052150D01*
X158131694Y-71056694D01*
X158127150Y-71060813D01*
X158122223Y-71064467D01*
X158116962Y-71067620D01*
X158111418Y-71070242D01*
X158105643Y-71072309D01*
X158099693Y-71073799D01*
X158093626Y-71074699D01*
X158087500Y-71075000D01*
X157387500Y-71075000D01*
X157381374Y-71074699D01*
X157375307Y-71073799D01*
X157369357Y-71072309D01*
X157363582Y-71070242D01*
X157358038Y-71067620D01*
X157352777Y-71064467D01*
X157347850Y-71060813D01*
X157343306Y-71056694D01*
X157339187Y-71052150D01*
X157335533Y-71047223D01*
X157332380Y-71041962D01*
X157329758Y-71036418D01*
X157327691Y-71030643D01*
X157326201Y-71024693D01*
X157325301Y-71018626D01*
X157325000Y-71012500D01*
X157325000Y-70887500D01*
X157325301Y-70881374D01*
X157326201Y-70875307D01*
X157327691Y-70869357D01*
X157329758Y-70863582D01*
X157332380Y-70858038D01*
X157335533Y-70852777D01*
X157339187Y-70847850D01*
X157343306Y-70843306D01*
X157347850Y-70839187D01*
X157352777Y-70835533D01*
X157358038Y-70832380D01*
X157363582Y-70829758D01*
X157369357Y-70827691D01*
X157375307Y-70826201D01*
X157381374Y-70825301D01*
X157387500Y-70825000D01*
X158087500Y-70825000D01*
X158093626Y-70825301D01*
X158093626Y-70825301D01*
G37*
D12*
X157737500Y-70950000D03*
D10*
G36*
X158093626Y-71325301D02*
G01*
X158099693Y-71326201D01*
X158105643Y-71327691D01*
X158111418Y-71329758D01*
X158116962Y-71332380D01*
X158122223Y-71335533D01*
X158127150Y-71339187D01*
X158131694Y-71343306D01*
X158135813Y-71347850D01*
X158139467Y-71352777D01*
X158142620Y-71358038D01*
X158145242Y-71363582D01*
X158147309Y-71369357D01*
X158148799Y-71375307D01*
X158149699Y-71381374D01*
X158150000Y-71387500D01*
X158150000Y-71512500D01*
X158149699Y-71518626D01*
X158148799Y-71524693D01*
X158147309Y-71530643D01*
X158145242Y-71536418D01*
X158142620Y-71541962D01*
X158139467Y-71547223D01*
X158135813Y-71552150D01*
X158131694Y-71556694D01*
X158127150Y-71560813D01*
X158122223Y-71564467D01*
X158116962Y-71567620D01*
X158111418Y-71570242D01*
X158105643Y-71572309D01*
X158099693Y-71573799D01*
X158093626Y-71574699D01*
X158087500Y-71575000D01*
X157387500Y-71575000D01*
X157381374Y-71574699D01*
X157375307Y-71573799D01*
X157369357Y-71572309D01*
X157363582Y-71570242D01*
X157358038Y-71567620D01*
X157352777Y-71564467D01*
X157347850Y-71560813D01*
X157343306Y-71556694D01*
X157339187Y-71552150D01*
X157335533Y-71547223D01*
X157332380Y-71541962D01*
X157329758Y-71536418D01*
X157327691Y-71530643D01*
X157326201Y-71524693D01*
X157325301Y-71518626D01*
X157325000Y-71512500D01*
X157325000Y-71387500D01*
X157325301Y-71381374D01*
X157326201Y-71375307D01*
X157327691Y-71369357D01*
X157329758Y-71363582D01*
X157332380Y-71358038D01*
X157335533Y-71352777D01*
X157339187Y-71347850D01*
X157343306Y-71343306D01*
X157347850Y-71339187D01*
X157352777Y-71335533D01*
X157358038Y-71332380D01*
X157363582Y-71329758D01*
X157369357Y-71327691D01*
X157375307Y-71326201D01*
X157381374Y-71325301D01*
X157387500Y-71325000D01*
X158087500Y-71325000D01*
X158093626Y-71325301D01*
X158093626Y-71325301D01*
G37*
D12*
X157737500Y-71450000D03*
D10*
G36*
X158093626Y-71825301D02*
G01*
X158099693Y-71826201D01*
X158105643Y-71827691D01*
X158111418Y-71829758D01*
X158116962Y-71832380D01*
X158122223Y-71835533D01*
X158127150Y-71839187D01*
X158131694Y-71843306D01*
X158135813Y-71847850D01*
X158139467Y-71852777D01*
X158142620Y-71858038D01*
X158145242Y-71863582D01*
X158147309Y-71869357D01*
X158148799Y-71875307D01*
X158149699Y-71881374D01*
X158150000Y-71887500D01*
X158150000Y-72012500D01*
X158149699Y-72018626D01*
X158148799Y-72024693D01*
X158147309Y-72030643D01*
X158145242Y-72036418D01*
X158142620Y-72041962D01*
X158139467Y-72047223D01*
X158135813Y-72052150D01*
X158131694Y-72056694D01*
X158127150Y-72060813D01*
X158122223Y-72064467D01*
X158116962Y-72067620D01*
X158111418Y-72070242D01*
X158105643Y-72072309D01*
X158099693Y-72073799D01*
X158093626Y-72074699D01*
X158087500Y-72075000D01*
X157387500Y-72075000D01*
X157381374Y-72074699D01*
X157375307Y-72073799D01*
X157369357Y-72072309D01*
X157363582Y-72070242D01*
X157358038Y-72067620D01*
X157352777Y-72064467D01*
X157347850Y-72060813D01*
X157343306Y-72056694D01*
X157339187Y-72052150D01*
X157335533Y-72047223D01*
X157332380Y-72041962D01*
X157329758Y-72036418D01*
X157327691Y-72030643D01*
X157326201Y-72024693D01*
X157325301Y-72018626D01*
X157325000Y-72012500D01*
X157325000Y-71887500D01*
X157325301Y-71881374D01*
X157326201Y-71875307D01*
X157327691Y-71869357D01*
X157329758Y-71863582D01*
X157332380Y-71858038D01*
X157335533Y-71852777D01*
X157339187Y-71847850D01*
X157343306Y-71843306D01*
X157347850Y-71839187D01*
X157352777Y-71835533D01*
X157358038Y-71832380D01*
X157363582Y-71829758D01*
X157369357Y-71827691D01*
X157375307Y-71826201D01*
X157381374Y-71825301D01*
X157387500Y-71825000D01*
X158087500Y-71825000D01*
X158093626Y-71825301D01*
X158093626Y-71825301D01*
G37*
D12*
X157737500Y-71950000D03*
D10*
G36*
X158518626Y-72250301D02*
G01*
X158524693Y-72251201D01*
X158530643Y-72252691D01*
X158536418Y-72254758D01*
X158541962Y-72257380D01*
X158547223Y-72260533D01*
X158552150Y-72264187D01*
X158556694Y-72268306D01*
X158560813Y-72272850D01*
X158564467Y-72277777D01*
X158567620Y-72283038D01*
X158570242Y-72288582D01*
X158572309Y-72294357D01*
X158573799Y-72300307D01*
X158574699Y-72306374D01*
X158575000Y-72312500D01*
X158575000Y-73012500D01*
X158574699Y-73018626D01*
X158573799Y-73024693D01*
X158572309Y-73030643D01*
X158570242Y-73036418D01*
X158567620Y-73041962D01*
X158564467Y-73047223D01*
X158560813Y-73052150D01*
X158556694Y-73056694D01*
X158552150Y-73060813D01*
X158547223Y-73064467D01*
X158541962Y-73067620D01*
X158536418Y-73070242D01*
X158530643Y-73072309D01*
X158524693Y-73073799D01*
X158518626Y-73074699D01*
X158512500Y-73075000D01*
X158387500Y-73075000D01*
X158381374Y-73074699D01*
X158375307Y-73073799D01*
X158369357Y-73072309D01*
X158363582Y-73070242D01*
X158358038Y-73067620D01*
X158352777Y-73064467D01*
X158347850Y-73060813D01*
X158343306Y-73056694D01*
X158339187Y-73052150D01*
X158335533Y-73047223D01*
X158332380Y-73041962D01*
X158329758Y-73036418D01*
X158327691Y-73030643D01*
X158326201Y-73024693D01*
X158325301Y-73018626D01*
X158325000Y-73012500D01*
X158325000Y-72312500D01*
X158325301Y-72306374D01*
X158326201Y-72300307D01*
X158327691Y-72294357D01*
X158329758Y-72288582D01*
X158332380Y-72283038D01*
X158335533Y-72277777D01*
X158339187Y-72272850D01*
X158343306Y-72268306D01*
X158347850Y-72264187D01*
X158352777Y-72260533D01*
X158358038Y-72257380D01*
X158363582Y-72254758D01*
X158369357Y-72252691D01*
X158375307Y-72251201D01*
X158381374Y-72250301D01*
X158387500Y-72250000D01*
X158512500Y-72250000D01*
X158518626Y-72250301D01*
X158518626Y-72250301D01*
G37*
D12*
X158450000Y-72662500D03*
D10*
G36*
X159018626Y-72250301D02*
G01*
X159024693Y-72251201D01*
X159030643Y-72252691D01*
X159036418Y-72254758D01*
X159041962Y-72257380D01*
X159047223Y-72260533D01*
X159052150Y-72264187D01*
X159056694Y-72268306D01*
X159060813Y-72272850D01*
X159064467Y-72277777D01*
X159067620Y-72283038D01*
X159070242Y-72288582D01*
X159072309Y-72294357D01*
X159073799Y-72300307D01*
X159074699Y-72306374D01*
X159075000Y-72312500D01*
X159075000Y-73012500D01*
X159074699Y-73018626D01*
X159073799Y-73024693D01*
X159072309Y-73030643D01*
X159070242Y-73036418D01*
X159067620Y-73041962D01*
X159064467Y-73047223D01*
X159060813Y-73052150D01*
X159056694Y-73056694D01*
X159052150Y-73060813D01*
X159047223Y-73064467D01*
X159041962Y-73067620D01*
X159036418Y-73070242D01*
X159030643Y-73072309D01*
X159024693Y-73073799D01*
X159018626Y-73074699D01*
X159012500Y-73075000D01*
X158887500Y-73075000D01*
X158881374Y-73074699D01*
X158875307Y-73073799D01*
X158869357Y-73072309D01*
X158863582Y-73070242D01*
X158858038Y-73067620D01*
X158852777Y-73064467D01*
X158847850Y-73060813D01*
X158843306Y-73056694D01*
X158839187Y-73052150D01*
X158835533Y-73047223D01*
X158832380Y-73041962D01*
X158829758Y-73036418D01*
X158827691Y-73030643D01*
X158826201Y-73024693D01*
X158825301Y-73018626D01*
X158825000Y-73012500D01*
X158825000Y-72312500D01*
X158825301Y-72306374D01*
X158826201Y-72300307D01*
X158827691Y-72294357D01*
X158829758Y-72288582D01*
X158832380Y-72283038D01*
X158835533Y-72277777D01*
X158839187Y-72272850D01*
X158843306Y-72268306D01*
X158847850Y-72264187D01*
X158852777Y-72260533D01*
X158858038Y-72257380D01*
X158863582Y-72254758D01*
X158869357Y-72252691D01*
X158875307Y-72251201D01*
X158881374Y-72250301D01*
X158887500Y-72250000D01*
X159012500Y-72250000D01*
X159018626Y-72250301D01*
X159018626Y-72250301D01*
G37*
D12*
X158950000Y-72662500D03*
D10*
G36*
X159518626Y-72250301D02*
G01*
X159524693Y-72251201D01*
X159530643Y-72252691D01*
X159536418Y-72254758D01*
X159541962Y-72257380D01*
X159547223Y-72260533D01*
X159552150Y-72264187D01*
X159556694Y-72268306D01*
X159560813Y-72272850D01*
X159564467Y-72277777D01*
X159567620Y-72283038D01*
X159570242Y-72288582D01*
X159572309Y-72294357D01*
X159573799Y-72300307D01*
X159574699Y-72306374D01*
X159575000Y-72312500D01*
X159575000Y-73012500D01*
X159574699Y-73018626D01*
X159573799Y-73024693D01*
X159572309Y-73030643D01*
X159570242Y-73036418D01*
X159567620Y-73041962D01*
X159564467Y-73047223D01*
X159560813Y-73052150D01*
X159556694Y-73056694D01*
X159552150Y-73060813D01*
X159547223Y-73064467D01*
X159541962Y-73067620D01*
X159536418Y-73070242D01*
X159530643Y-73072309D01*
X159524693Y-73073799D01*
X159518626Y-73074699D01*
X159512500Y-73075000D01*
X159387500Y-73075000D01*
X159381374Y-73074699D01*
X159375307Y-73073799D01*
X159369357Y-73072309D01*
X159363582Y-73070242D01*
X159358038Y-73067620D01*
X159352777Y-73064467D01*
X159347850Y-73060813D01*
X159343306Y-73056694D01*
X159339187Y-73052150D01*
X159335533Y-73047223D01*
X159332380Y-73041962D01*
X159329758Y-73036418D01*
X159327691Y-73030643D01*
X159326201Y-73024693D01*
X159325301Y-73018626D01*
X159325000Y-73012500D01*
X159325000Y-72312500D01*
X159325301Y-72306374D01*
X159326201Y-72300307D01*
X159327691Y-72294357D01*
X159329758Y-72288582D01*
X159332380Y-72283038D01*
X159335533Y-72277777D01*
X159339187Y-72272850D01*
X159343306Y-72268306D01*
X159347850Y-72264187D01*
X159352777Y-72260533D01*
X159358038Y-72257380D01*
X159363582Y-72254758D01*
X159369357Y-72252691D01*
X159375307Y-72251201D01*
X159381374Y-72250301D01*
X159387500Y-72250000D01*
X159512500Y-72250000D01*
X159518626Y-72250301D01*
X159518626Y-72250301D01*
G37*
D12*
X159450000Y-72662500D03*
D10*
G36*
X160018626Y-72250301D02*
G01*
X160024693Y-72251201D01*
X160030643Y-72252691D01*
X160036418Y-72254758D01*
X160041962Y-72257380D01*
X160047223Y-72260533D01*
X160052150Y-72264187D01*
X160056694Y-72268306D01*
X160060813Y-72272850D01*
X160064467Y-72277777D01*
X160067620Y-72283038D01*
X160070242Y-72288582D01*
X160072309Y-72294357D01*
X160073799Y-72300307D01*
X160074699Y-72306374D01*
X160075000Y-72312500D01*
X160075000Y-73012500D01*
X160074699Y-73018626D01*
X160073799Y-73024693D01*
X160072309Y-73030643D01*
X160070242Y-73036418D01*
X160067620Y-73041962D01*
X160064467Y-73047223D01*
X160060813Y-73052150D01*
X160056694Y-73056694D01*
X160052150Y-73060813D01*
X160047223Y-73064467D01*
X160041962Y-73067620D01*
X160036418Y-73070242D01*
X160030643Y-73072309D01*
X160024693Y-73073799D01*
X160018626Y-73074699D01*
X160012500Y-73075000D01*
X159887500Y-73075000D01*
X159881374Y-73074699D01*
X159875307Y-73073799D01*
X159869357Y-73072309D01*
X159863582Y-73070242D01*
X159858038Y-73067620D01*
X159852777Y-73064467D01*
X159847850Y-73060813D01*
X159843306Y-73056694D01*
X159839187Y-73052150D01*
X159835533Y-73047223D01*
X159832380Y-73041962D01*
X159829758Y-73036418D01*
X159827691Y-73030643D01*
X159826201Y-73024693D01*
X159825301Y-73018626D01*
X159825000Y-73012500D01*
X159825000Y-72312500D01*
X159825301Y-72306374D01*
X159826201Y-72300307D01*
X159827691Y-72294357D01*
X159829758Y-72288582D01*
X159832380Y-72283038D01*
X159835533Y-72277777D01*
X159839187Y-72272850D01*
X159843306Y-72268306D01*
X159847850Y-72264187D01*
X159852777Y-72260533D01*
X159858038Y-72257380D01*
X159863582Y-72254758D01*
X159869357Y-72252691D01*
X159875307Y-72251201D01*
X159881374Y-72250301D01*
X159887500Y-72250000D01*
X160012500Y-72250000D01*
X160018626Y-72250301D01*
X160018626Y-72250301D01*
G37*
D12*
X159950000Y-72662500D03*
D10*
G36*
X158267691Y-79191053D02*
G01*
X158288926Y-79194203D01*
X158309750Y-79199419D01*
X158329962Y-79206651D01*
X158349368Y-79215830D01*
X158367781Y-79226866D01*
X158385024Y-79239654D01*
X158400930Y-79254070D01*
X158415346Y-79269976D01*
X158428134Y-79287219D01*
X158439170Y-79305632D01*
X158448349Y-79325038D01*
X158455581Y-79345250D01*
X158460797Y-79366074D01*
X158463947Y-79387309D01*
X158465000Y-79408750D01*
X158465000Y-79846250D01*
X158463947Y-79867691D01*
X158460797Y-79888926D01*
X158455581Y-79909750D01*
X158448349Y-79929962D01*
X158439170Y-79949368D01*
X158428134Y-79967781D01*
X158415346Y-79985024D01*
X158400930Y-80000930D01*
X158385024Y-80015346D01*
X158367781Y-80028134D01*
X158349368Y-80039170D01*
X158329962Y-80048349D01*
X158309750Y-80055581D01*
X158288926Y-80060797D01*
X158267691Y-80063947D01*
X158246250Y-80065000D01*
X157733750Y-80065000D01*
X157712309Y-80063947D01*
X157691074Y-80060797D01*
X157670250Y-80055581D01*
X157650038Y-80048349D01*
X157630632Y-80039170D01*
X157612219Y-80028134D01*
X157594976Y-80015346D01*
X157579070Y-80000930D01*
X157564654Y-79985024D01*
X157551866Y-79967781D01*
X157540830Y-79949368D01*
X157531651Y-79929962D01*
X157524419Y-79909750D01*
X157519203Y-79888926D01*
X157516053Y-79867691D01*
X157515000Y-79846250D01*
X157515000Y-79408750D01*
X157516053Y-79387309D01*
X157519203Y-79366074D01*
X157524419Y-79345250D01*
X157531651Y-79325038D01*
X157540830Y-79305632D01*
X157551866Y-79287219D01*
X157564654Y-79269976D01*
X157579070Y-79254070D01*
X157594976Y-79239654D01*
X157612219Y-79226866D01*
X157630632Y-79215830D01*
X157650038Y-79206651D01*
X157670250Y-79199419D01*
X157691074Y-79194203D01*
X157712309Y-79191053D01*
X157733750Y-79190000D01*
X158246250Y-79190000D01*
X158267691Y-79191053D01*
X158267691Y-79191053D01*
G37*
D13*
X157990000Y-79627500D03*
D10*
G36*
X158267691Y-77616053D02*
G01*
X158288926Y-77619203D01*
X158309750Y-77624419D01*
X158329962Y-77631651D01*
X158349368Y-77640830D01*
X158367781Y-77651866D01*
X158385024Y-77664654D01*
X158400930Y-77679070D01*
X158415346Y-77694976D01*
X158428134Y-77712219D01*
X158439170Y-77730632D01*
X158448349Y-77750038D01*
X158455581Y-77770250D01*
X158460797Y-77791074D01*
X158463947Y-77812309D01*
X158465000Y-77833750D01*
X158465000Y-78271250D01*
X158463947Y-78292691D01*
X158460797Y-78313926D01*
X158455581Y-78334750D01*
X158448349Y-78354962D01*
X158439170Y-78374368D01*
X158428134Y-78392781D01*
X158415346Y-78410024D01*
X158400930Y-78425930D01*
X158385024Y-78440346D01*
X158367781Y-78453134D01*
X158349368Y-78464170D01*
X158329962Y-78473349D01*
X158309750Y-78480581D01*
X158288926Y-78485797D01*
X158267691Y-78488947D01*
X158246250Y-78490000D01*
X157733750Y-78490000D01*
X157712309Y-78488947D01*
X157691074Y-78485797D01*
X157670250Y-78480581D01*
X157650038Y-78473349D01*
X157630632Y-78464170D01*
X157612219Y-78453134D01*
X157594976Y-78440346D01*
X157579070Y-78425930D01*
X157564654Y-78410024D01*
X157551866Y-78392781D01*
X157540830Y-78374368D01*
X157531651Y-78354962D01*
X157524419Y-78334750D01*
X157519203Y-78313926D01*
X157516053Y-78292691D01*
X157515000Y-78271250D01*
X157515000Y-77833750D01*
X157516053Y-77812309D01*
X157519203Y-77791074D01*
X157524419Y-77770250D01*
X157531651Y-77750038D01*
X157540830Y-77730632D01*
X157551866Y-77712219D01*
X157564654Y-77694976D01*
X157579070Y-77679070D01*
X157594976Y-77664654D01*
X157612219Y-77651866D01*
X157630632Y-77640830D01*
X157650038Y-77631651D01*
X157670250Y-77624419D01*
X157691074Y-77619203D01*
X157712309Y-77616053D01*
X157733750Y-77615000D01*
X158246250Y-77615000D01*
X158267691Y-77616053D01*
X158267691Y-77616053D01*
G37*
D13*
X157990000Y-78052500D03*
M02*
