G04 #@! TF.GenerationSoftware,KiCad,Pcbnew,(5.1.2)-1*
G04 #@! TF.CreationDate,2023-06-09T20:40:53+09:00*
G04 #@! TF.ProjectId,ma73x,6d613733-782e-46b6-9963-61645f706362,v1.2*
G04 #@! TF.SameCoordinates,Original*
G04 #@! TF.FileFunction,Legend,Bot*
G04 #@! TF.FilePolarity,Positive*
%FSLAX46Y46*%
G04 Gerber Fmt 4.6, Leading zero omitted, Abs format (unit mm)*
G04 Created by KiCad (PCBNEW (5.1.2)-1) date 2023-06-09 20:40:53*
%MOMM*%
%LPD*%
G04 APERTURE LIST*
%ADD10C,0.150000*%
%ADD11R,2.102000X2.102000*%
%ADD12O,1.802000X1.802000*%
%ADD13R,1.802000X1.802000*%
G04 APERTURE END LIST*
D10*
X152733333Y-86686904D02*
X153114285Y-86686904D01*
X153114285Y-85886904D01*
X152504761Y-86648809D02*
X152390476Y-86686904D01*
X152200000Y-86686904D01*
X152123809Y-86648809D01*
X152085714Y-86610714D01*
X152047619Y-86534523D01*
X152047619Y-86458333D01*
X152085714Y-86382142D01*
X152123809Y-86344047D01*
X152200000Y-86305952D01*
X152352380Y-86267857D01*
X152428571Y-86229761D01*
X152466666Y-86191666D01*
X152504761Y-86115476D01*
X152504761Y-86039285D01*
X152466666Y-85963095D01*
X152428571Y-85925000D01*
X152352380Y-85886904D01*
X152161904Y-85886904D01*
X152047619Y-85925000D01*
X151247619Y-86686904D02*
X151514285Y-86305952D01*
X151704761Y-86686904D02*
X151704761Y-85886904D01*
X151400000Y-85886904D01*
X151323809Y-85925000D01*
X151285714Y-85963095D01*
X151247619Y-86039285D01*
X151247619Y-86153571D01*
X151285714Y-86229761D01*
X151323809Y-86267857D01*
X151400000Y-86305952D01*
X151704761Y-86305952D01*
X153285714Y-88036904D02*
X153285714Y-87236904D01*
X152980952Y-87236904D01*
X152904761Y-87275000D01*
X152866666Y-87313095D01*
X152828571Y-87389285D01*
X152828571Y-87503571D01*
X152866666Y-87579761D01*
X152904761Y-87617857D01*
X152980952Y-87655952D01*
X153285714Y-87655952D01*
X152333333Y-87236904D02*
X152180952Y-87236904D01*
X152104761Y-87275000D01*
X152028571Y-87351190D01*
X151990476Y-87503571D01*
X151990476Y-87770238D01*
X152028571Y-87922619D01*
X152104761Y-87998809D01*
X152180952Y-88036904D01*
X152333333Y-88036904D01*
X152409523Y-87998809D01*
X152485714Y-87922619D01*
X152523809Y-87770238D01*
X152523809Y-87503571D01*
X152485714Y-87351190D01*
X152409523Y-87275000D01*
X152333333Y-87236904D01*
X151723809Y-87236904D02*
X151533333Y-88036904D01*
X151380952Y-87465476D01*
X151228571Y-88036904D01*
X151038095Y-87236904D01*
X168533333Y-86686904D02*
X168914285Y-86686904D01*
X168914285Y-85886904D01*
X168304761Y-86648809D02*
X168190476Y-86686904D01*
X168000000Y-86686904D01*
X167923809Y-86648809D01*
X167885714Y-86610714D01*
X167847619Y-86534523D01*
X167847619Y-86458333D01*
X167885714Y-86382142D01*
X167923809Y-86344047D01*
X168000000Y-86305952D01*
X168152380Y-86267857D01*
X168228571Y-86229761D01*
X168266666Y-86191666D01*
X168304761Y-86115476D01*
X168304761Y-86039285D01*
X168266666Y-85963095D01*
X168228571Y-85925000D01*
X168152380Y-85886904D01*
X167961904Y-85886904D01*
X167847619Y-85925000D01*
X167047619Y-86686904D02*
X167314285Y-86305952D01*
X167504761Y-86686904D02*
X167504761Y-85886904D01*
X167200000Y-85886904D01*
X167123809Y-85925000D01*
X167085714Y-85963095D01*
X167047619Y-86039285D01*
X167047619Y-86153571D01*
X167085714Y-86229761D01*
X167123809Y-86267857D01*
X167200000Y-86305952D01*
X167504761Y-86305952D01*
X168609523Y-87275000D02*
X168685714Y-87236904D01*
X168800000Y-87236904D01*
X168914285Y-87275000D01*
X168990476Y-87351190D01*
X169028571Y-87427380D01*
X169066666Y-87579761D01*
X169066666Y-87694047D01*
X169028571Y-87846428D01*
X168990476Y-87922619D01*
X168914285Y-87998809D01*
X168800000Y-88036904D01*
X168723809Y-88036904D01*
X168609523Y-87998809D01*
X168571428Y-87960714D01*
X168571428Y-87694047D01*
X168723809Y-87694047D01*
X168228571Y-88036904D02*
X168228571Y-87236904D01*
X167771428Y-88036904D01*
X167771428Y-87236904D01*
X167390476Y-88036904D02*
X167390476Y-87236904D01*
X167200000Y-87236904D01*
X167085714Y-87275000D01*
X167009523Y-87351190D01*
X166971428Y-87427380D01*
X166933333Y-87579761D01*
X166933333Y-87694047D01*
X166971428Y-87846428D01*
X167009523Y-87922619D01*
X167085714Y-87998809D01*
X167200000Y-88036904D01*
X167390476Y-88036904D01*
X167138095Y-91333333D02*
X167138095Y-91714285D01*
X167938095Y-91714285D01*
X167176190Y-91104761D02*
X167138095Y-90990476D01*
X167138095Y-90800000D01*
X167176190Y-90723809D01*
X167214285Y-90685714D01*
X167290476Y-90647619D01*
X167366666Y-90647619D01*
X167442857Y-90685714D01*
X167480952Y-90723809D01*
X167519047Y-90800000D01*
X167557142Y-90952380D01*
X167595238Y-91028571D01*
X167633333Y-91066666D01*
X167709523Y-91104761D01*
X167785714Y-91104761D01*
X167861904Y-91066666D01*
X167900000Y-91028571D01*
X167938095Y-90952380D01*
X167938095Y-90761904D01*
X167900000Y-90647619D01*
X167138095Y-89847619D02*
X167519047Y-90114285D01*
X167138095Y-90304761D02*
X167938095Y-90304761D01*
X167938095Y-90000000D01*
X167900000Y-89923809D01*
X167861904Y-89885714D01*
X167785714Y-89847619D01*
X167671428Y-89847619D01*
X167595238Y-89885714D01*
X167557142Y-89923809D01*
X167519047Y-90000000D01*
X167519047Y-90304761D01*
X164738095Y-91757142D02*
X165538095Y-91757142D01*
X164966666Y-91490476D01*
X165538095Y-91223809D01*
X164738095Y-91223809D01*
X165538095Y-90690476D02*
X165538095Y-90538095D01*
X165500000Y-90461904D01*
X165423809Y-90385714D01*
X165271428Y-90347619D01*
X165004761Y-90347619D01*
X164852380Y-90385714D01*
X164776190Y-90461904D01*
X164738095Y-90538095D01*
X164738095Y-90690476D01*
X164776190Y-90766666D01*
X164852380Y-90842857D01*
X165004761Y-90880952D01*
X165271428Y-90880952D01*
X165423809Y-90842857D01*
X165500000Y-90766666D01*
X165538095Y-90690476D01*
X164776190Y-90042857D02*
X164738095Y-89928571D01*
X164738095Y-89738095D01*
X164776190Y-89661904D01*
X164814285Y-89623809D01*
X164890476Y-89585714D01*
X164966666Y-89585714D01*
X165042857Y-89623809D01*
X165080952Y-89661904D01*
X165119047Y-89738095D01*
X165157142Y-89890476D01*
X165195238Y-89966666D01*
X165233333Y-90004761D01*
X165309523Y-90042857D01*
X165385714Y-90042857D01*
X165461904Y-90004761D01*
X165500000Y-89966666D01*
X165538095Y-89890476D01*
X165538095Y-89700000D01*
X165500000Y-89585714D01*
X164738095Y-89242857D02*
X165538095Y-89242857D01*
X163238095Y-91727142D02*
X164038095Y-91727142D01*
X163466666Y-91460476D01*
X164038095Y-91193809D01*
X163238095Y-91193809D01*
X163238095Y-90812857D02*
X164038095Y-90812857D01*
X163276190Y-90470000D02*
X163238095Y-90355714D01*
X163238095Y-90165238D01*
X163276190Y-90089047D01*
X163314285Y-90050952D01*
X163390476Y-90012857D01*
X163466666Y-90012857D01*
X163542857Y-90050952D01*
X163580952Y-90089047D01*
X163619047Y-90165238D01*
X163657142Y-90317619D01*
X163695238Y-90393809D01*
X163733333Y-90431904D01*
X163809523Y-90470000D01*
X163885714Y-90470000D01*
X163961904Y-90431904D01*
X164000000Y-90393809D01*
X164038095Y-90317619D01*
X164038095Y-90127142D01*
X164000000Y-90012857D01*
X164038095Y-89517619D02*
X164038095Y-89365238D01*
X164000000Y-89289047D01*
X163923809Y-89212857D01*
X163771428Y-89174761D01*
X163504761Y-89174761D01*
X163352380Y-89212857D01*
X163276190Y-89289047D01*
X163238095Y-89365238D01*
X163238095Y-89517619D01*
X163276190Y-89593809D01*
X163352380Y-89670000D01*
X163504761Y-89708095D01*
X163771428Y-89708095D01*
X163923809Y-89670000D01*
X164000000Y-89593809D01*
X164038095Y-89517619D01*
X160376190Y-91685714D02*
X160414285Y-91723809D01*
X160528571Y-91761904D01*
X160604761Y-91761904D01*
X160719047Y-91723809D01*
X160795238Y-91647619D01*
X160833333Y-91571428D01*
X160871428Y-91419047D01*
X160871428Y-91304761D01*
X160833333Y-91152380D01*
X160795238Y-91076190D01*
X160719047Y-91000000D01*
X160604761Y-90961904D01*
X160528571Y-90961904D01*
X160414285Y-91000000D01*
X160376190Y-91038095D01*
X159652380Y-91761904D02*
X160033333Y-91761904D01*
X160033333Y-90961904D01*
X159385714Y-91761904D02*
X159385714Y-90961904D01*
X158928571Y-91761904D02*
X159271428Y-91304761D01*
X158928571Y-90961904D02*
X159385714Y-91419047D01*
X157014285Y-91333333D02*
X156976190Y-91371428D01*
X156938095Y-91485714D01*
X156938095Y-91561904D01*
X156976190Y-91676190D01*
X157052380Y-91752380D01*
X157128571Y-91790476D01*
X157280952Y-91828571D01*
X157395238Y-91828571D01*
X157547619Y-91790476D01*
X157623809Y-91752380D01*
X157700000Y-91676190D01*
X157738095Y-91561904D01*
X157738095Y-91485714D01*
X157700000Y-91371428D01*
X157661904Y-91333333D01*
X156976190Y-91028571D02*
X156938095Y-90914285D01*
X156938095Y-90723809D01*
X156976190Y-90647619D01*
X157014285Y-90609523D01*
X157090476Y-90571428D01*
X157166666Y-90571428D01*
X157242857Y-90609523D01*
X157280952Y-90647619D01*
X157319047Y-90723809D01*
X157357142Y-90876190D01*
X157395238Y-90952380D01*
X157433333Y-90990476D01*
X157509523Y-91028571D01*
X157585714Y-91028571D01*
X157661904Y-90990476D01*
X157700000Y-90952380D01*
X157738095Y-90876190D01*
X157738095Y-90685714D01*
X157700000Y-90571428D01*
X155200000Y-91409523D02*
X155238095Y-91485714D01*
X155238095Y-91600000D01*
X155200000Y-91714285D01*
X155123809Y-91790476D01*
X155047619Y-91828571D01*
X154895238Y-91866666D01*
X154780952Y-91866666D01*
X154628571Y-91828571D01*
X154552380Y-91790476D01*
X154476190Y-91714285D01*
X154438095Y-91600000D01*
X154438095Y-91523809D01*
X154476190Y-91409523D01*
X154514285Y-91371428D01*
X154780952Y-91371428D01*
X154780952Y-91523809D01*
X154438095Y-91028571D02*
X155238095Y-91028571D01*
X154438095Y-90571428D01*
X155238095Y-90571428D01*
X154438095Y-90190476D02*
X155238095Y-90190476D01*
X155238095Y-90000000D01*
X155200000Y-89885714D01*
X155123809Y-89809523D01*
X155047619Y-89771428D01*
X154895238Y-89733333D01*
X154780952Y-89733333D01*
X154628571Y-89771428D01*
X154552380Y-89809523D01*
X154476190Y-89885714D01*
X154438095Y-90000000D01*
X154438095Y-90190476D01*
X152638095Y-91838095D02*
X152638095Y-91342857D01*
X152333333Y-91609523D01*
X152333333Y-91495238D01*
X152295238Y-91419047D01*
X152257142Y-91380952D01*
X152180952Y-91342857D01*
X151990476Y-91342857D01*
X151914285Y-91380952D01*
X151876190Y-91419047D01*
X151838095Y-91495238D01*
X151838095Y-91723809D01*
X151876190Y-91800000D01*
X151914285Y-91838095D01*
X151914285Y-91000000D02*
X151876190Y-90961904D01*
X151838095Y-91000000D01*
X151876190Y-91038095D01*
X151914285Y-91000000D01*
X151838095Y-91000000D01*
X152638095Y-90695238D02*
X152638095Y-90200000D01*
X152333333Y-90466666D01*
X152333333Y-90352380D01*
X152295238Y-90276190D01*
X152257142Y-90238095D01*
X152180952Y-90200000D01*
X151990476Y-90200000D01*
X151914285Y-90238095D01*
X151876190Y-90276190D01*
X151838095Y-90352380D01*
X151838095Y-90580952D01*
X151876190Y-90657142D01*
X151914285Y-90695238D01*
X167233333Y-80367857D02*
X166966666Y-80367857D01*
X166852380Y-80786904D02*
X167233333Y-80786904D01*
X167233333Y-79986904D01*
X166852380Y-79986904D01*
X166509523Y-80253571D02*
X166509523Y-80786904D01*
X166509523Y-80329761D02*
X166471428Y-80291666D01*
X166395238Y-80253571D01*
X166280952Y-80253571D01*
X166204761Y-80291666D01*
X166166666Y-80367857D01*
X166166666Y-80786904D01*
X165442857Y-80748809D02*
X165519047Y-80786904D01*
X165671428Y-80786904D01*
X165747619Y-80748809D01*
X165785714Y-80710714D01*
X165823809Y-80634523D01*
X165823809Y-80405952D01*
X165785714Y-80329761D01*
X165747619Y-80291666D01*
X165671428Y-80253571D01*
X165519047Y-80253571D01*
X165442857Y-80291666D01*
X164985714Y-80786904D02*
X165061904Y-80748809D01*
X165100000Y-80710714D01*
X165138095Y-80634523D01*
X165138095Y-80405952D01*
X165100000Y-80329761D01*
X165061904Y-80291666D01*
X164985714Y-80253571D01*
X164871428Y-80253571D01*
X164795238Y-80291666D01*
X164757142Y-80329761D01*
X164719047Y-80405952D01*
X164719047Y-80634523D01*
X164757142Y-80710714D01*
X164795238Y-80748809D01*
X164871428Y-80786904D01*
X164985714Y-80786904D01*
X164033333Y-80786904D02*
X164033333Y-79986904D01*
X164033333Y-80748809D02*
X164109523Y-80786904D01*
X164261904Y-80786904D01*
X164338095Y-80748809D01*
X164376190Y-80710714D01*
X164414285Y-80634523D01*
X164414285Y-80405952D01*
X164376190Y-80329761D01*
X164338095Y-80291666D01*
X164261904Y-80253571D01*
X164109523Y-80253571D01*
X164033333Y-80291666D01*
X163347619Y-80748809D02*
X163423809Y-80786904D01*
X163576190Y-80786904D01*
X163652380Y-80748809D01*
X163690476Y-80672619D01*
X163690476Y-80367857D01*
X163652380Y-80291666D01*
X163576190Y-80253571D01*
X163423809Y-80253571D01*
X163347619Y-80291666D01*
X163309523Y-80367857D01*
X163309523Y-80444047D01*
X163690476Y-80520238D01*
X162966666Y-80786904D02*
X162966666Y-80253571D01*
X162966666Y-80405952D02*
X162928571Y-80329761D01*
X162890476Y-80291666D01*
X162814285Y-80253571D01*
X162738095Y-80253571D01*
X161214285Y-80786904D02*
X161252380Y-80786904D01*
X161328571Y-80748809D01*
X161442857Y-80634523D01*
X161633333Y-80405952D01*
X161709523Y-80291666D01*
X161747619Y-80177380D01*
X161747619Y-80101190D01*
X161709523Y-80025000D01*
X161633333Y-79986904D01*
X161595238Y-79986904D01*
X161519047Y-80025000D01*
X161480952Y-80101190D01*
X161480952Y-80139285D01*
X161519047Y-80215476D01*
X161557142Y-80253571D01*
X161785714Y-80405952D01*
X161823809Y-80444047D01*
X161861904Y-80520238D01*
X161861904Y-80634523D01*
X161823809Y-80710714D01*
X161785714Y-80748809D01*
X161709523Y-80786904D01*
X161595238Y-80786904D01*
X161519047Y-80748809D01*
X161480952Y-80710714D01*
X161366666Y-80558333D01*
X161328571Y-80444047D01*
X161328571Y-80367857D01*
X159880952Y-80786904D02*
X160261904Y-80786904D01*
X160261904Y-79986904D01*
X159271428Y-80786904D02*
X159271428Y-80367857D01*
X159309523Y-80291666D01*
X159385714Y-80253571D01*
X159538095Y-80253571D01*
X159614285Y-80291666D01*
X159271428Y-80748809D02*
X159347619Y-80786904D01*
X159538095Y-80786904D01*
X159614285Y-80748809D01*
X159652380Y-80672619D01*
X159652380Y-80596428D01*
X159614285Y-80520238D01*
X159538095Y-80482142D01*
X159347619Y-80482142D01*
X159271428Y-80444047D01*
X158928571Y-80748809D02*
X158852380Y-80786904D01*
X158700000Y-80786904D01*
X158623809Y-80748809D01*
X158585714Y-80672619D01*
X158585714Y-80634523D01*
X158623809Y-80558333D01*
X158700000Y-80520238D01*
X158814285Y-80520238D01*
X158890476Y-80482142D01*
X158928571Y-80405952D01*
X158928571Y-80367857D01*
X158890476Y-80291666D01*
X158814285Y-80253571D01*
X158700000Y-80253571D01*
X158623809Y-80291666D01*
X157938095Y-80748809D02*
X158014285Y-80786904D01*
X158166666Y-80786904D01*
X158242857Y-80748809D01*
X158280952Y-80672619D01*
X158280952Y-80367857D01*
X158242857Y-80291666D01*
X158166666Y-80253571D01*
X158014285Y-80253571D01*
X157938095Y-80291666D01*
X157900000Y-80367857D01*
X157900000Y-80444047D01*
X158280952Y-80520238D01*
X157557142Y-80786904D02*
X157557142Y-80253571D01*
X157557142Y-80405952D02*
X157519047Y-80329761D01*
X157480952Y-80291666D01*
X157404761Y-80253571D01*
X157328571Y-80253571D01*
X156185714Y-80367857D02*
X156071428Y-80405952D01*
X156033333Y-80444047D01*
X155995238Y-80520238D01*
X155995238Y-80634523D01*
X156033333Y-80710714D01*
X156071428Y-80748809D01*
X156147619Y-80786904D01*
X156452380Y-80786904D01*
X156452380Y-79986904D01*
X156185714Y-79986904D01*
X156109523Y-80025000D01*
X156071428Y-80063095D01*
X156033333Y-80139285D01*
X156033333Y-80215476D01*
X156071428Y-80291666D01*
X156109523Y-80329761D01*
X156185714Y-80367857D01*
X156452380Y-80367857D01*
X155538095Y-80786904D02*
X155614285Y-80748809D01*
X155652380Y-80710714D01*
X155690476Y-80634523D01*
X155690476Y-80405952D01*
X155652380Y-80329761D01*
X155614285Y-80291666D01*
X155538095Y-80253571D01*
X155423809Y-80253571D01*
X155347619Y-80291666D01*
X155309523Y-80329761D01*
X155271428Y-80405952D01*
X155271428Y-80634523D01*
X155309523Y-80710714D01*
X155347619Y-80748809D01*
X155423809Y-80786904D01*
X155538095Y-80786904D01*
X154585714Y-80786904D02*
X154585714Y-80367857D01*
X154623809Y-80291666D01*
X154700000Y-80253571D01*
X154852380Y-80253571D01*
X154928571Y-80291666D01*
X154585714Y-80748809D02*
X154661904Y-80786904D01*
X154852380Y-80786904D01*
X154928571Y-80748809D01*
X154966666Y-80672619D01*
X154966666Y-80596428D01*
X154928571Y-80520238D01*
X154852380Y-80482142D01*
X154661904Y-80482142D01*
X154585714Y-80444047D01*
X154204761Y-80786904D02*
X154204761Y-80253571D01*
X154204761Y-80405952D02*
X154166666Y-80329761D01*
X154128571Y-80291666D01*
X154052380Y-80253571D01*
X153976190Y-80253571D01*
X153366666Y-80786904D02*
X153366666Y-79986904D01*
X153366666Y-80748809D02*
X153442857Y-80786904D01*
X153595238Y-80786904D01*
X153671428Y-80748809D01*
X153709523Y-80710714D01*
X153747619Y-80634523D01*
X153747619Y-80405952D01*
X153709523Y-80329761D01*
X153671428Y-80291666D01*
X153595238Y-80253571D01*
X153442857Y-80253571D01*
X153366666Y-80291666D01*
X165633333Y-82060714D02*
X165671428Y-82098809D01*
X165785714Y-82136904D01*
X165861904Y-82136904D01*
X165976190Y-82098809D01*
X166052380Y-82022619D01*
X166090476Y-81946428D01*
X166128571Y-81794047D01*
X166128571Y-81679761D01*
X166090476Y-81527380D01*
X166052380Y-81451190D01*
X165976190Y-81375000D01*
X165861904Y-81336904D01*
X165785714Y-81336904D01*
X165671428Y-81375000D01*
X165633333Y-81413095D01*
X165290476Y-82136904D02*
X165290476Y-81603571D01*
X165290476Y-81755952D02*
X165252380Y-81679761D01*
X165214285Y-81641666D01*
X165138095Y-81603571D01*
X165061904Y-81603571D01*
X164490476Y-82098809D02*
X164566666Y-82136904D01*
X164719047Y-82136904D01*
X164795238Y-82098809D01*
X164833333Y-82022619D01*
X164833333Y-81717857D01*
X164795238Y-81641666D01*
X164719047Y-81603571D01*
X164566666Y-81603571D01*
X164490476Y-81641666D01*
X164452380Y-81717857D01*
X164452380Y-81794047D01*
X164833333Y-81870238D01*
X164147619Y-82098809D02*
X164071428Y-82136904D01*
X163919047Y-82136904D01*
X163842857Y-82098809D01*
X163804761Y-82022619D01*
X163804761Y-81984523D01*
X163842857Y-81908333D01*
X163919047Y-81870238D01*
X164033333Y-81870238D01*
X164109523Y-81832142D01*
X164147619Y-81755952D01*
X164147619Y-81717857D01*
X164109523Y-81641666D01*
X164033333Y-81603571D01*
X163919047Y-81603571D01*
X163842857Y-81641666D01*
X163119047Y-82098809D02*
X163195238Y-82136904D01*
X163347619Y-82136904D01*
X163423809Y-82098809D01*
X163461904Y-82060714D01*
X163500000Y-81984523D01*
X163500000Y-81755952D01*
X163461904Y-81679761D01*
X163423809Y-81641666D01*
X163347619Y-81603571D01*
X163195238Y-81603571D01*
X163119047Y-81641666D01*
X162471428Y-82098809D02*
X162547619Y-82136904D01*
X162700000Y-82136904D01*
X162776190Y-82098809D01*
X162814285Y-82022619D01*
X162814285Y-81717857D01*
X162776190Y-81641666D01*
X162700000Y-81603571D01*
X162547619Y-81603571D01*
X162471428Y-81641666D01*
X162433333Y-81717857D01*
X162433333Y-81794047D01*
X162814285Y-81870238D01*
X162090476Y-81603571D02*
X162090476Y-82136904D01*
X162090476Y-81679761D02*
X162052380Y-81641666D01*
X161976190Y-81603571D01*
X161861904Y-81603571D01*
X161785714Y-81641666D01*
X161747619Y-81717857D01*
X161747619Y-82136904D01*
X161480952Y-81603571D02*
X161176190Y-81603571D01*
X161366666Y-81336904D02*
X161366666Y-82022619D01*
X161328571Y-82098809D01*
X161252380Y-82136904D01*
X161176190Y-82136904D01*
X160338095Y-81413095D02*
X160300000Y-81375000D01*
X160223809Y-81336904D01*
X160033333Y-81336904D01*
X159957142Y-81375000D01*
X159919047Y-81413095D01*
X159880952Y-81489285D01*
X159880952Y-81565476D01*
X159919047Y-81679761D01*
X160376190Y-82136904D01*
X159880952Y-82136904D01*
X159614285Y-81336904D02*
X159119047Y-81336904D01*
X159385714Y-81641666D01*
X159271428Y-81641666D01*
X159195238Y-81679761D01*
X159157142Y-81717857D01*
X159119047Y-81794047D01*
X159119047Y-81984523D01*
X159157142Y-82060714D01*
X159195238Y-82098809D01*
X159271428Y-82136904D01*
X159500000Y-82136904D01*
X159576190Y-82098809D01*
X159614285Y-82060714D01*
X158623809Y-81336904D02*
X158547619Y-81336904D01*
X158471428Y-81375000D01*
X158433333Y-81413095D01*
X158395238Y-81489285D01*
X158357142Y-81641666D01*
X158357142Y-81832142D01*
X158395238Y-81984523D01*
X158433333Y-82060714D01*
X158471428Y-82098809D01*
X158547619Y-82136904D01*
X158623809Y-82136904D01*
X158700000Y-82098809D01*
X158738095Y-82060714D01*
X158776190Y-81984523D01*
X158814285Y-81832142D01*
X158814285Y-81641666D01*
X158776190Y-81489285D01*
X158738095Y-81413095D01*
X158700000Y-81375000D01*
X158623809Y-81336904D01*
X157671428Y-81336904D02*
X157823809Y-81336904D01*
X157900000Y-81375000D01*
X157938095Y-81413095D01*
X158014285Y-81527380D01*
X158052380Y-81679761D01*
X158052380Y-81984523D01*
X158014285Y-82060714D01*
X157976190Y-82098809D01*
X157900000Y-82136904D01*
X157747619Y-82136904D01*
X157671428Y-82098809D01*
X157633333Y-82060714D01*
X157595238Y-81984523D01*
X157595238Y-81794047D01*
X157633333Y-81717857D01*
X157671428Y-81679761D01*
X157747619Y-81641666D01*
X157900000Y-81641666D01*
X157976190Y-81679761D01*
X158014285Y-81717857D01*
X158052380Y-81794047D01*
X156719047Y-81603571D02*
X156528571Y-82136904D01*
X156338095Y-81603571D01*
X155614285Y-82136904D02*
X156071428Y-82136904D01*
X155842857Y-82136904D02*
X155842857Y-81336904D01*
X155919047Y-81451190D01*
X155995238Y-81527380D01*
X156071428Y-81565476D01*
X155271428Y-82060714D02*
X155233333Y-82098809D01*
X155271428Y-82136904D01*
X155309523Y-82098809D01*
X155271428Y-82060714D01*
X155271428Y-82136904D01*
X154928571Y-81413095D02*
X154890476Y-81375000D01*
X154814285Y-81336904D01*
X154623809Y-81336904D01*
X154547619Y-81375000D01*
X154509523Y-81413095D01*
X154471428Y-81489285D01*
X154471428Y-81565476D01*
X154509523Y-81679761D01*
X154966666Y-82136904D01*
X154471428Y-82136904D01*
%LPC*%
D11*
X165210000Y-87000000D03*
X154970000Y-86960000D03*
D12*
X167580000Y-93200000D03*
X165040000Y-93200000D03*
X162500000Y-93200000D03*
X159960000Y-93200000D03*
X157420000Y-93200000D03*
X154880000Y-93200000D03*
D13*
X152340000Y-93200000D03*
M02*
