G04 #@! TF.GenerationSoftware,KiCad,Pcbnew,(5.1.2)-1*
G04 #@! TF.CreationDate,2023-10-16T21:57:52+09:00*
G04 #@! TF.ProjectId,projectionball,70726f6a-6563-4746-996f-6e62616c6c2e,7.4*
G04 #@! TF.SameCoordinates,Original*
G04 #@! TF.FileFunction,Legend,Bot*
G04 #@! TF.FilePolarity,Positive*
%FSLAX46Y46*%
G04 Gerber Fmt 4.6, Leading zero omitted, Abs format (unit mm)*
G04 Created by KiCad (PCBNEW (5.1.2)-1) date 2023-10-16 21:57:52*
%MOMM*%
%LPD*%
G04 APERTURE LIST*
%ADD10C,0.250000*%
%ADD11O,1.700000X1.700000*%
%ADD12R,1.700000X1.700000*%
%ADD13O,1.524000X1.800000*%
%ADD14C,2.400000*%
%ADD15O,1.250000X1.250000*%
%ADD16O,1.550000X1.550000*%
G04 APERTURE END LIST*
D10*
X159775714Y-139617857D02*
X159775714Y-138417857D01*
X159318571Y-138417857D01*
X159204285Y-138475000D01*
X159147142Y-138532142D01*
X159090000Y-138646428D01*
X159090000Y-138817857D01*
X159147142Y-138932142D01*
X159204285Y-138989285D01*
X159318571Y-139046428D01*
X159775714Y-139046428D01*
X158575714Y-139617857D02*
X158575714Y-138817857D01*
X158575714Y-139046428D02*
X158518571Y-138932142D01*
X158461428Y-138875000D01*
X158347142Y-138817857D01*
X158232857Y-138817857D01*
X157661428Y-139617857D02*
X157775714Y-139560714D01*
X157832857Y-139503571D01*
X157890000Y-139389285D01*
X157890000Y-139046428D01*
X157832857Y-138932142D01*
X157775714Y-138875000D01*
X157661428Y-138817857D01*
X157490000Y-138817857D01*
X157375714Y-138875000D01*
X157318571Y-138932142D01*
X157261428Y-139046428D01*
X157261428Y-139389285D01*
X157318571Y-139503571D01*
X157375714Y-139560714D01*
X157490000Y-139617857D01*
X157661428Y-139617857D01*
X156747142Y-138817857D02*
X156747142Y-139846428D01*
X156804285Y-139960714D01*
X156918571Y-140017857D01*
X156975714Y-140017857D01*
X156747142Y-138417857D02*
X156804285Y-138475000D01*
X156747142Y-138532142D01*
X156690000Y-138475000D01*
X156747142Y-138417857D01*
X156747142Y-138532142D01*
X155718571Y-139560714D02*
X155832857Y-139617857D01*
X156061428Y-139617857D01*
X156175714Y-139560714D01*
X156232857Y-139446428D01*
X156232857Y-138989285D01*
X156175714Y-138875000D01*
X156061428Y-138817857D01*
X155832857Y-138817857D01*
X155718571Y-138875000D01*
X155661428Y-138989285D01*
X155661428Y-139103571D01*
X156232857Y-139217857D01*
X154632857Y-139560714D02*
X154747142Y-139617857D01*
X154975714Y-139617857D01*
X155090000Y-139560714D01*
X155147142Y-139503571D01*
X155204285Y-139389285D01*
X155204285Y-139046428D01*
X155147142Y-138932142D01*
X155090000Y-138875000D01*
X154975714Y-138817857D01*
X154747142Y-138817857D01*
X154632857Y-138875000D01*
X154290000Y-138817857D02*
X153832857Y-138817857D01*
X154118571Y-138417857D02*
X154118571Y-139446428D01*
X154061428Y-139560714D01*
X153947142Y-139617857D01*
X153832857Y-139617857D01*
X153432857Y-139617857D02*
X153432857Y-138817857D01*
X153432857Y-138417857D02*
X153490000Y-138475000D01*
X153432857Y-138532142D01*
X153375714Y-138475000D01*
X153432857Y-138417857D01*
X153432857Y-138532142D01*
X152690000Y-139617857D02*
X152804285Y-139560714D01*
X152861428Y-139503571D01*
X152918571Y-139389285D01*
X152918571Y-139046428D01*
X152861428Y-138932142D01*
X152804285Y-138875000D01*
X152690000Y-138817857D01*
X152518571Y-138817857D01*
X152404285Y-138875000D01*
X152347142Y-138932142D01*
X152290000Y-139046428D01*
X152290000Y-139389285D01*
X152347142Y-139503571D01*
X152404285Y-139560714D01*
X152518571Y-139617857D01*
X152690000Y-139617857D01*
X151775714Y-138817857D02*
X151775714Y-139617857D01*
X151775714Y-138932142D02*
X151718571Y-138875000D01*
X151604285Y-138817857D01*
X151432857Y-138817857D01*
X151318571Y-138875000D01*
X151261428Y-138989285D01*
X151261428Y-139617857D01*
X150290000Y-138989285D02*
X150118571Y-139046428D01*
X150061428Y-139103571D01*
X150004285Y-139217857D01*
X150004285Y-139389285D01*
X150061428Y-139503571D01*
X150118571Y-139560714D01*
X150232857Y-139617857D01*
X150690000Y-139617857D01*
X150690000Y-138417857D01*
X150290000Y-138417857D01*
X150175714Y-138475000D01*
X150118571Y-138532142D01*
X150061428Y-138646428D01*
X150061428Y-138760714D01*
X150118571Y-138875000D01*
X150175714Y-138932142D01*
X150290000Y-138989285D01*
X150690000Y-138989285D01*
X148975714Y-139617857D02*
X148975714Y-138989285D01*
X149032857Y-138875000D01*
X149147142Y-138817857D01*
X149375714Y-138817857D01*
X149490000Y-138875000D01*
X148975714Y-139560714D02*
X149090000Y-139617857D01*
X149375714Y-139617857D01*
X149490000Y-139560714D01*
X149547142Y-139446428D01*
X149547142Y-139332142D01*
X149490000Y-139217857D01*
X149375714Y-139160714D01*
X149090000Y-139160714D01*
X148975714Y-139103571D01*
X148232857Y-139617857D02*
X148347142Y-139560714D01*
X148404285Y-139446428D01*
X148404285Y-138417857D01*
X147604285Y-139617857D02*
X147718571Y-139560714D01*
X147775714Y-139446428D01*
X147775714Y-138417857D01*
X146232857Y-138417857D02*
X146232857Y-139389285D01*
X146175714Y-139503571D01*
X146118571Y-139560714D01*
X146004285Y-139617857D01*
X145775714Y-139617857D01*
X145661428Y-139560714D01*
X145604285Y-139503571D01*
X145547142Y-139389285D01*
X145547142Y-138417857D01*
X144975714Y-138817857D02*
X144975714Y-139617857D01*
X144975714Y-138932142D02*
X144918571Y-138875000D01*
X144804285Y-138817857D01*
X144632857Y-138817857D01*
X144518571Y-138875000D01*
X144461428Y-138989285D01*
X144461428Y-139617857D01*
X143890000Y-139617857D02*
X143890000Y-138817857D01*
X143890000Y-138417857D02*
X143947142Y-138475000D01*
X143890000Y-138532142D01*
X143832857Y-138475000D01*
X143890000Y-138417857D01*
X143890000Y-138532142D01*
X143490000Y-138817857D02*
X143032857Y-138817857D01*
X143318571Y-138417857D02*
X143318571Y-139446428D01*
X143261428Y-139560714D01*
X143147142Y-139617857D01*
X143032857Y-139617857D01*
X160232857Y-140582142D02*
X160175714Y-140525000D01*
X160061428Y-140467857D01*
X159775714Y-140467857D01*
X159661428Y-140525000D01*
X159604285Y-140582142D01*
X159547142Y-140696428D01*
X159547142Y-140810714D01*
X159604285Y-140982142D01*
X160290000Y-141667857D01*
X159547142Y-141667857D01*
X159147142Y-140467857D02*
X158404285Y-140467857D01*
X158804285Y-140925000D01*
X158632857Y-140925000D01*
X158518571Y-140982142D01*
X158461428Y-141039285D01*
X158404285Y-141153571D01*
X158404285Y-141439285D01*
X158461428Y-141553571D01*
X158518571Y-141610714D01*
X158632857Y-141667857D01*
X158975714Y-141667857D01*
X159090000Y-141610714D01*
X159147142Y-141553571D01*
X157261428Y-141667857D02*
X157947142Y-141667857D01*
X157604285Y-141667857D02*
X157604285Y-140467857D01*
X157718571Y-140639285D01*
X157832857Y-140753571D01*
X157947142Y-140810714D01*
X156518571Y-140467857D02*
X156404285Y-140467857D01*
X156290000Y-140525000D01*
X156232857Y-140582142D01*
X156175714Y-140696428D01*
X156118571Y-140925000D01*
X156118571Y-141210714D01*
X156175714Y-141439285D01*
X156232857Y-141553571D01*
X156290000Y-141610714D01*
X156404285Y-141667857D01*
X156518571Y-141667857D01*
X156632857Y-141610714D01*
X156690000Y-141553571D01*
X156747142Y-141439285D01*
X156804285Y-141210714D01*
X156804285Y-140925000D01*
X156747142Y-140696428D01*
X156690000Y-140582142D01*
X156632857Y-140525000D01*
X156518571Y-140467857D01*
X154804285Y-140867857D02*
X154518571Y-141667857D01*
X154232857Y-140867857D01*
X153890000Y-140467857D02*
X153090000Y-140467857D01*
X153604285Y-141667857D01*
X152632857Y-141553571D02*
X152575714Y-141610714D01*
X152632857Y-141667857D01*
X152690000Y-141610714D01*
X152632857Y-141553571D01*
X152632857Y-141667857D01*
X151547142Y-140867857D02*
X151547142Y-141667857D01*
X151832857Y-140410714D02*
X152118571Y-141267857D01*
X151375714Y-141267857D01*
X149318571Y-141553571D02*
X149375714Y-141610714D01*
X149547142Y-141667857D01*
X149661428Y-141667857D01*
X149832857Y-141610714D01*
X149947142Y-141496428D01*
X150004285Y-141382142D01*
X150061428Y-141153571D01*
X150061428Y-140982142D01*
X150004285Y-140753571D01*
X149947142Y-140639285D01*
X149832857Y-140525000D01*
X149661428Y-140467857D01*
X149547142Y-140467857D01*
X149375714Y-140525000D01*
X149318571Y-140582142D01*
X148804285Y-141667857D02*
X148804285Y-140867857D01*
X148804285Y-141096428D02*
X148747142Y-140982142D01*
X148690000Y-140925000D01*
X148575714Y-140867857D01*
X148461428Y-140867857D01*
X147604285Y-141610714D02*
X147718571Y-141667857D01*
X147947142Y-141667857D01*
X148061428Y-141610714D01*
X148118571Y-141496428D01*
X148118571Y-141039285D01*
X148061428Y-140925000D01*
X147947142Y-140867857D01*
X147718571Y-140867857D01*
X147604285Y-140925000D01*
X147547142Y-141039285D01*
X147547142Y-141153571D01*
X148118571Y-141267857D01*
X147090000Y-141610714D02*
X146975714Y-141667857D01*
X146747142Y-141667857D01*
X146632857Y-141610714D01*
X146575714Y-141496428D01*
X146575714Y-141439285D01*
X146632857Y-141325000D01*
X146747142Y-141267857D01*
X146918571Y-141267857D01*
X147032857Y-141210714D01*
X147090000Y-141096428D01*
X147090000Y-141039285D01*
X147032857Y-140925000D01*
X146918571Y-140867857D01*
X146747142Y-140867857D01*
X146632857Y-140925000D01*
X145547142Y-141610714D02*
X145661428Y-141667857D01*
X145890000Y-141667857D01*
X146004285Y-141610714D01*
X146061428Y-141553571D01*
X146118571Y-141439285D01*
X146118571Y-141096428D01*
X146061428Y-140982142D01*
X146004285Y-140925000D01*
X145890000Y-140867857D01*
X145661428Y-140867857D01*
X145547142Y-140925000D01*
X144575714Y-141610714D02*
X144690000Y-141667857D01*
X144918571Y-141667857D01*
X145032857Y-141610714D01*
X145090000Y-141496428D01*
X145090000Y-141039285D01*
X145032857Y-140925000D01*
X144918571Y-140867857D01*
X144690000Y-140867857D01*
X144575714Y-140925000D01*
X144518571Y-141039285D01*
X144518571Y-141153571D01*
X145090000Y-141267857D01*
X144004285Y-140867857D02*
X144004285Y-141667857D01*
X144004285Y-140982142D02*
X143947142Y-140925000D01*
X143832857Y-140867857D01*
X143661428Y-140867857D01*
X143547142Y-140925000D01*
X143490000Y-141039285D01*
X143490000Y-141667857D01*
X143090000Y-140867857D02*
X142632857Y-140867857D01*
X142918571Y-140467857D02*
X142918571Y-141496428D01*
X142861428Y-141610714D01*
X142747142Y-141667857D01*
X142632857Y-141667857D01*
%LPC*%
D11*
X143500000Y-97300000D03*
X143500000Y-99840000D03*
X143500000Y-102380000D03*
X143500000Y-104920000D03*
X143500000Y-107460000D03*
D12*
X143500000Y-110000000D03*
D13*
X126100000Y-84100000D03*
X124100000Y-84100000D03*
X122100000Y-84100000D03*
X120100000Y-84100000D03*
X137100000Y-84100000D03*
X135100000Y-84100000D03*
X133100000Y-84100000D03*
X131100000Y-84100000D03*
D11*
X161200000Y-88000000D03*
D12*
X161200000Y-85460000D03*
D11*
X119000000Y-94860000D03*
X119000000Y-97400000D03*
X119000000Y-99940000D03*
X119000000Y-102480000D03*
X119000000Y-105020000D03*
X119000000Y-107560000D03*
D12*
X119000000Y-110100000D03*
D14*
X144100000Y-89800000D03*
X157300000Y-89800000D03*
D12*
X127080000Y-88700000D03*
D11*
X129620000Y-88700000D03*
X132160000Y-88700000D03*
X134700000Y-88700000D03*
X137240000Y-88700000D03*
X139780000Y-88700000D03*
D15*
X165702000Y-120436000D03*
X165702000Y-125436000D03*
D16*
X168402000Y-119436000D03*
X168402000Y-126436000D03*
D11*
X121040000Y-137800000D03*
D12*
X118500000Y-137800000D03*
M02*
