M48
; DRILL file {KiCad (5.1.2)-1} date 2023/10/16 21:57:54
; FORMAT={-:-/ absolute / metric / decimal}
; #@! TF.CreationDate,2023-10-16T21:57:54+09:00
; #@! TF.GenerationSoftware,Kicad,Pcbnew,(5.1.2)-1
FMAT,2
METRIC
T1C0.350
T2C0.400
T3C0.500
T4C0.550
T5C0.762
T6C1.000
T7C2.000
T8C3.000
%
G90
G05
T1
X148.825Y-126.487
X148.825Y-127.762
X148.825Y-129.037
X150.1Y-126.487
X150.1Y-127.762
X150.1Y-129.037
X151.375Y-126.487
X151.375Y-127.762
X151.375Y-129.037
T2
X111.25Y-128.52
X111.25Y-132.12
X112.96Y-116.3
X114.714Y-132.926
X115.64Y-93.2
X118.535Y-134.655
X119.386Y-129.373
X119.551Y-128.268
X120.06Y-116.21
X121.378Y-131.692
X121.717Y-133.005
X121.914Y-133.983
X122.468Y-128.667
X124.428Y-127.528
X127.41Y-127.85
X134.7Y-99.488
X137.196Y-125.555
X141.09Y-93.64
X141.357Y-115.02
X142.057Y-128.205
X142.164Y-104.232
X142.2Y-139.45
X143.327Y-128.02
X144.147Y-112.115
X144.528Y-131.208
X144.816Y-125.222
X144.816Y-129.465
X144.869Y-132.212
X145.989Y-133.16
X146.928Y-118.919
X147.525Y-133.832
X148.152Y-133.158
X149.188Y-98.57
X149.615Y-121.85
X149.859Y-109.399
X150.057Y-110.451
X150.98Y-133.274
X152.167Y-122.532
X152.315Y-133.153
X152.49Y-116.54
X152.851Y-121.591
X152.878Y-133.895
X153.07Y-105.0
X153.555Y-133.148
X155.405Y-125.548
X155.558Y-122.972
X155.768Y-110.896
X156.29Y-126.48
X156.728Y-127.429
X157.06Y-114.5
X157.54Y-126.52
X157.805Y-129.767
X157.815Y-130.79
X158.02Y-97.85
X158.415Y-134.582
X159.53Y-128.082
X160.164Y-134.7
X161.328Y-133.616
X162.216Y-136.802
X163.102Y-126.894
X163.6Y-130.84
X163.83Y-88.68
X165.45Y-118.36
X165.88Y-109.09
X165.96Y-93.04
X166.02Y-103.55
X166.911Y-114.45
X167.94Y-100.21
T5
X131.1Y-84.1
X133.1Y-84.1
X135.1Y-84.1
X137.1Y-84.1
X120.1Y-84.1
X122.1Y-84.1
X124.1Y-84.1
X126.1Y-84.1
T6
X161.2Y-85.46
X161.2Y-88.0
X127.08Y-88.7
X129.62Y-88.7
X132.16Y-88.7
X134.7Y-88.7
X137.24Y-88.7
X139.78Y-88.7
X119.0Y-94.86
X119.0Y-97.4
X119.0Y-99.94
X119.0Y-102.48
X119.0Y-105.02
X119.0Y-107.56
X119.0Y-110.1
X143.5Y-97.3
X143.5Y-99.84
X143.5Y-102.38
X143.5Y-104.92
X143.5Y-107.46
X143.5Y-110.0
X118.5Y-137.8
X121.04Y-137.8
T7
X144.1Y-89.8
X157.3Y-89.8
T8
X112.9Y-139.7
X127.5Y-120.0
X167.1Y-139.6
X127.5Y-133.0
X139.5Y-133.0
X139.5Y-120.0
X167.2Y-85.4
X112.9Y-85.3
T3
G00X168.077Y-119.436
M15
G01X168.727Y-119.436
M16
G05
G00X168.077Y-126.436
M15
G01X168.727Y-126.436
M16
G05
T4
G00X165.702Y-120.586
M15
G01X165.702Y-120.286
M16
G05
G00X165.702Y-125.586
M15
G01X165.702Y-125.286
M16
G05
T0
M30
